<svg xmlns="http://www.w3.org/2000/svg" width="24" height="24" viewBox="0 0 24 24"><g><path d="M12.8 5.9c.1.3.2.7.2 1.1 0 .4-.1.7-.2 1.1l2.7 2.3c.5-.2 1-.4 1.5-.4.2 0 .4 0 .6.1l3.5-5.9c-.9-1.1-2-2-3.3-2.7l-5 4.4zM19.3 11.1c.3.4.5.8.6 1.3l4 .6v-1c0-2.2-.6-4.2-1.6-6l-3 5.1zM7.6 5.2C8.2 4.5 9 4 10 4c.5 0 1 .2 1.5.4L15.8.6C14.6.2 13.3 0 12 0 8.6 0 5.5 1.4 3.3 3.7l4.3 1.5zM11.5 9.6c-.5.2-1 .4-1.5.4-1.6 0-3-1.3-3-2.9L2 5.4c-.3.4-.6.9-.8 1.4l5.7 6.4c.3-.1.7-.2 1.1-.2 1 0 1.8.5 2.4 1.2l3.7-1.2c0-.4.1-.7.2-1l-2.8-2.4zM19.6 14.4c-.4.7-1.1 1.3-1.9 1.5l-.6 6.9c3.2-1.5 5.6-4.4 6.5-7.9l-4-.5zM15.7 15.7c-.4-.2-.8-.5-1.1-.9L11 16.1c0 1.6-1.4 2.9-3 2.9h-.2l-1.5 3.6C8 23.5 9.9 24 12 24c1 0 2.1-.1 3-.4l.7-7.9zM6 18.2c-.6-.5-1-1.3-1-2.2 0-.5.1-1 .4-1.4L.4 9c-.3 1-.4 2-.4 3 0 3.8 1.8 7.2 4.6 9.4L6 18.2z"/></g></svg>