<?xml version="1.0" encoding="UTF-8"?>
<svg width="42px" height="17px" viewBox="0 0 42 17" version="1.1" xmlns="http://www.w3.org/2000/svg" xmlns:xlink="http://www.w3.org/1999/xlink">
    <!-- Generator: Sketch 53.2 (72643) - https://sketchapp.com -->
    <title>affirm</title>
    <desc>Created with Sketch.</desc>
    <g id="affirm" stroke="none" stroke-width="1" fill="none" fill-rule="evenodd">
        <g id="logo-full" fill-rule="nonzero">
            <path d="M13.4018182,9.12545455 L13.4018182,9.63454545 L10.3981818,9.63454545 L10.3981818,8.92181818 C10.3981818,8.00545455 10.92,7.75090909 11.3654545,7.75090909 C11.6709091,7.75090909 11.9763636,7.82727273 12.2563636,7.96727273 L12.8672727,6.58 C12.4981818,6.36363636 11.9254545,6.17272727 11.1236364,6.17272727 C9.86363636,6.17272727 8.42545455,6.88545455 8.42545455,9.11272727 L8.42545455,9.62181818 L7.28,9.62181818 L7.28,11.1490909 L8.42545455,11.1490909 L8.42545455,16.5454545 L10.3981818,16.5454545 L10.3981818,11.1490909 L13.3890909,11.1490909 L13.3890909,16.5327273 L15.3618182,16.5327273 L15.3618182,11.1490909 L17.1436364,11.1490909 L17.1436364,9.62181818 L15.3618182,9.62181818 L15.3618182,8.92181818 C15.3618182,8.00545455 15.8836364,7.75090909 16.3290909,7.75090909 C16.6345455,7.75090909 16.94,7.82727273 17.22,7.96727273 L17.8181818,6.58 C17.8181818,6.58 17.2072727,6.17272727 16.0745455,6.17272727 C14.8272727,6.18545455 13.4018182,6.89818182 13.4018182,9.12545455 L13.4018182,9.12545455 Z M3.43636364,9.43090909 C2.30363636,9.43090909 0.992727273,9.96545455 0.28,10.5381818 L0.929090909,11.9 C1.50181818,11.3781818 2.41818182,10.9327273 3.24545455,10.9327273 C4.03454545,10.9327273 4.46727273,11.2 4.46727273,11.7218182 C4.46727273,12.0781818 4.17454545,12.2563636 3.62727273,12.3327273 C1.60363636,12.6 0,13.1727273 0,14.7381818 C0,15.9854545 0.890909091,16.7363636 2.27818182,16.7363636 C3.20727273,16.7363636 4.07272727,16.2527273 4.56909091,15.4636364 L4.56909091,16.5327273 L6.41454545,16.5327273 L6.41454545,12.04 C6.41454545,10.1818182 5.11636364,9.43090909 3.43636364,9.43090909 Z M2.74909091,15.2981818 C2.22727273,15.2981818 1.97272727,15.0436364 1.97272727,14.6236364 C1.97272727,13.8472727 2.85090909,13.58 4.44181818,13.4145455 C4.44181818,14.4454545 3.72909091,15.2981818 2.74909091,15.2981818 Z M23.8127273,10.8054545 L23.8127273,9.63454545 L21.9672727,9.63454545 L21.9672727,16.5327273 L23.94,16.5327273 L23.94,13.1981818 C23.94,11.62 24.8945455,11.1618182 25.5690909,11.1618182 C25.8745455,11.1618182 26.1672727,11.2509091 26.4090909,11.4163636 L26.7654545,9.59636364 C26.4854545,9.48181818 26.18,9.43090909 25.8745455,9.44363636 C24.8563636,9.44363636 24.22,9.88909091 23.8127273,10.8054545 L23.8127273,10.8054545 Z M35.9290909,9.43090909 C35.0254545,9.44363636 34.1981818,9.90181818 33.7018182,10.64 C33.32,9.87636364 32.5309091,9.43090909 31.5636364,9.43090909 C30.6854545,9.40545455 29.8581818,9.88909091 29.4636364,10.6781818 L29.4636364,9.63454545 L27.5545455,9.63454545 L27.5545455,16.5327273 L29.5272727,16.5327273 L29.5272727,12.9818182 C29.5272727,11.7090909 30.1890909,11.0981818 30.8254545,11.0981818 C31.3854545,11.0981818 31.9072727,11.4672727 31.9072727,12.4090909 L31.9072727,16.5454545 L33.88,16.5454545 L33.88,12.9818182 C33.88,11.6963636 34.5290909,11.0981818 35.1909091,11.0981818 C35.7127273,11.0981818 36.26,11.48 36.26,12.3963636 L36.26,16.5454545 L38.2327273,16.5454545 L38.2327273,11.76 C38.2327273,10.2072727 37.1890909,9.43090909 35.9290909,9.43090909 L35.9290909,9.43090909 Z M18.34,9.63454545 L20.3127273,9.63454545 L20.3127273,16.5327273 L18.34,16.5327273 L18.34,9.63454545 Z" id="Shape" fill="#000000"></path>
            <path d="M29.8327273,0 C24.5,0 19.7527273,3.70363636 18.4036364,8.45090909 L20.3381818,8.45090909 C21.4709091,4.91272727 25.2890909,1.79454545 29.8327273,1.79454545 C35.3690909,1.79454545 40.1418182,6.00727273 40.1418182,12.5618182 C40.1545455,13.9109091 39.9763636,15.2472727 39.5945455,16.5327273 L41.4654545,16.5327273 L41.4781818,16.4690909 C41.7963636,15.1963636 41.9490909,13.8854545 41.9490909,12.5618182 C41.9490909,5.25636364 36.6290909,0 29.8327273,0 Z" id="Path" fill="#0FA0EA"></path>
        </g>
    </g>
</svg>