<?xml version="1.0" encoding="UTF-8"?>
<svg width="32px" height="12px" viewBox="0 0 32 12" version="1.1" xmlns="http://www.w3.org/2000/svg" xmlns:xlink="http://www.w3.org/1999/xlink">
    <!-- Generator: Sketch 53.2 (72643) - https://sketchapp.com -->
    <title>nike</title>
    <desc>Created with Sketch.</desc>
    <g id="nike" stroke="none" stroke-width="1" fill="none" fill-rule="evenodd">
        <g id="Logo_NIKE" fill="#FF6600" fill-rule="nonzero">
            <path d="M3.64800033,11.481601 C2.68964127,11.4435292 1.90555914,11.1812933 1.29247191,10.6942369 C1.17546677,10.6011907 0.89665649,10.3222163 0.803118021,10.2045548 C0.554502614,9.89193935 0.385476958,9.58769316 0.272738486,9.25013416 C-0.0741743656,8.21103663 0.10436924,6.8475083 0.783425711,5.35105689 C1.36484115,4.06990806 2.26198995,2.79926179 3.82720034,1.03942573 C4.05776447,0.780471865 4.74436965,0.0231384636 4.74880042,0.0231384636 C4.75044145,0.0231384636 4.71302606,0.0879589822 4.66592862,0.166892323 C4.25895423,0.848574435 3.91072855,1.65152835 3.72102597,2.34666688 C3.41628748,3.4620721 3.45304646,4.41928245 3.82867727,5.16151841 C4.08779524,5.67286205 4.53202092,6.11577491 5.03154917,6.36061595 C5.90605181,6.78908779 7.18638013,6.82453394 8.7499495,6.46432878 C8.85760079,6.43938519 14.1919192,5.02334404 20.6040634,3.31749773 C27.0162075,1.61148732 32.2633875,0.216779507 32.264208,0.217928225 C32.2660131,0.219405148 17.3669759,6.59479033 9.63265727,9.90227781 C8.40779562,10.4259291 8.08024688,10.5581958 7.50441093,10.7603702 C6.0324108,11.2772933 4.71384658,11.5239395 3.64800033,11.481601 Z" id="Path"></path>
        </g>
    </g>
</svg>