<svg xmlns="http://www.w3.org/2000/svg" viewBox="0 0 24 24" enable-background="new 0 0 24 24"><g><path d="M22.4 8.1l-10-5c-.3-.1-.6-.1-.9 0l-10 5c-.1.1-.3.3-.4.5-.1.1-.1.3-.1.4v5.8c0 .6.4 1 1 1s1-.4 1-1v-4.3l2 .8v4.9c0 .4.2.7.6.9C7.3 17.9 9 19 12 19s4.7-1.1 6.4-1.9c.3-.2.6-.5.6-.9v-4.9l3.4-1.3c.3-.2.6-.6.6-1s-.2-.7-.6-.9zM17 15.6l-1 .4c-2.5 1.3-5.5 1.3-8.1 0l-1-.5V12l4.6 1.9c.1 0 .2.1.4.1s.3 0 .4-.1l4.6-1.9v3.6zm-5-3.7l-7.6-3L12 5.1l7.6 3.8-7.6 3zM2 17c-.6 0-1 .4-1 1v2c0 .6.4 1 1 1s1-.4 1-1v-2c0-.6-.4-1-1-1z"/></g></svg>