<svg xmlns="http://www.w3.org/2000/svg" viewBox="0 0 24 24" enable-background="new 0 0 24 24"><path d="M24 14.8c0-1.8-1.1-3.4-2.7-4.2.4-.6.7-1.3.7-2.1C22 6.6 20.4 5 18.5 5c-1 0-1.9.4-2.5 1.1V6c0-2.2-1.8-4-4-4S8 3.8 8 6v.1C7.4 5.4 6.5 5 5.5 5 3.6 5 2 6.6 2 8.5c0 .8.3 1.5.7 2.1C1.1 11.4 0 13 0 14.8V19h6v2h12v-2h6v-4.2zM18.5 7c.8 0 1.5.7 1.5 1.5s-.7 1.5-1.5 1.5S17 9.3 17 8.5 17.7 7 18.5 7zM15 8.7c-.1-.1 0-.1 0-.1v.1zM12 4c1.1 0 2 .9 2 2s-.9 2-2 2-2-.9-2-2 .9-2 2-2zM9.1 8.7c-.1 0-.1 0 0 0-.1 0-.1 0 0 0-.1-.1-.1 0 0 0zM5.5 7C6.3 7 7 7.7 7 8.5S6.3 10 5.5 10 4 9.3 4 8.5 4.7 7 5.5 7zM2 17v-2.2C2 13.3 3.4 12 5.1 12c.4 0 .7.1 1.1.2-.1.4-.2.8-.2 1.2V17H2zm14 2H8v-5.6c0-1.9 1.8-3.4 4-3.4s4 1.5 4 3.4V19zm6-2h-4v-3.6c0-.4-.1-.8-.2-1.2.3-.1.7-.2 1.1-.2 1.7 0 3.1 1.3 3.1 2.8V17z"/></svg>