<svg xmlns="http://www.w3.org/2000/svg" viewBox="0 0 24 24" enable-background="new 0 0 24 24"><path d="M16 4h-5c-.3 0-.6 0-1 .1L6.6 1.2c-.3-.2-.7-.3-1-.1-.4.2-.6.5-.6.9v4.7c-.6.7-1.1 1.5-1.4 2.3H1c-.6 0-1 .4-1 1v5c0 .6.4 1 1 1h3.1c.9 1.6 2.3 2.7 3.9 3.4V22h2v-2.1c.3 0 .7.1 1 .1h5c.3 0 .7 0 1-.1V22h2v-2.6c2.9-1.2 5-4.1 5-7.4 0-4.4-3.6-8-8-8zm0 14h-5c-2.3 0-4.4-1.3-5.4-3.4-.2-.4-.5-.6-.9-.6H2v-3h2.3c.4 0 .8-.3 1-.7.2-.9.7-1.8 1.4-2.5.2-.2.3-.4.3-.7v-3l2.1 1.8c.2.2.5.3.8.2.4-.1.8-.1 1.1-.1h5c3.3 0 6 2.7 6 6s-2.7 6-6 6zM11 8h6v2h-6z"/><circle cx="8" cy="10" r="1"/></svg>