<svg xmlns="http://www.w3.org/2000/svg" viewBox="0 0 24 24" enable-background="new 0 0 24 24"><g><path d="M22 2c-.3-.3-.8-.5-1.5-.5-1.5 0-4.3.7-6.2 2.6L10.4 8H3.6c-.3 0-.5.1-.7.3l-.7.8c-.4.4-.4 1 0 1.4l11.3 11.3c.2.2.5.3.7.3s.5-.1.7-.3l.7-.7c.2-.2.3-.4.3-.7v-6.7l3.9-3.9c1.4-1.4 2.1-3.3 2.3-4.3.3-.8.7-2.7-.1-3.5zM8.3 10.1l-1.8 1.8-1.8-1.8h3.6zm-.4 3.2L15 6.2 17.8 9l-7.1 7.1-2.8-2.8zm6 6.1l-1.8-1.8 1.8-1.8v3.6zm5.2-11.8l-2.7-2.7c1.4-1 3.1-1.4 4-1.4.1.8-.3 2.6-1.3 4.1zM7.9 19c-.4.4-2.2.8-3.9 1 .2-1.7.6-3.4 1-3.9.3-.3.6-.4.9-.5l-1.5-1.5c-.3.2-.6.4-.8.6C2.2 16.1 2 20.2 1.9 21l-.1 1.1H3c.8 0 4.9-.3 6.3-1.7.2-.2.4-.5.6-.8l-1.5-1.5c-.1.3-.3.6-.5.9z"/></g></svg>