<?xml version="1.0" encoding="UTF-8"?>
<svg width="160px" height="160px" viewBox="0 0 160 160" version="1.1" xmlns="http://www.w3.org/2000/svg" xmlns:xlink="http://www.w3.org/1999/xlink">
    <!-- Generator: Sketch 53 (72520) - https://sketchapp.com -->
    <title>bangladesh</title>
    <desc>Created with Sketch.</desc>
    <g id="bangladesh" stroke="none" stroke-width="1" fill="none" fill-rule="evenodd">
        <path d="M116.827423,117.090796 L116.151497,115.237682 L115.741627,112.985435 L115.05132,107.711187 L114.864362,107.112488 L114.533589,106.00062 L113.375887,100.241711 L112.829393,98.4028509 L112.239756,95.8655098 L111.765169,95.0814998 L111.110816,93.6916641 L110.427699,92.4942671 L109.92435,91.9882244 L109.341903,89.7502324 L108.867317,86.9990703 L108.69474,85.7090177 L107.702423,83.0220019 L106.681344,79.9857453 L105.883176,80.1069104 L105.293538,79.3727921 L104.948385,79.3870468 L103.898542,80.078401 L102.95656,79.8503254 L102.295016,79.9429811 L102.489165,81.3399442 L102.812746,82.8295631 L102.625788,83.3641153 L101.079787,85.1174465 L100.741824,86.2863341 L100.957545,87.5193678 L101.403369,89.172916 L101.202029,90.0068175 L100.526103,90.7837 L99.5337864,91.1828324 L98.5989953,90.9903936 L97.9230693,90.3204214 L97.1392829,88.6098544 L96.5280733,87.6761698 L95.9887707,87.4552216 L95.6220449,87.7118066 L95.715524,88.7809111 L95.8593381,89.6718314 L95.7442868,89.7716145 L95.4422774,89.6361946 L95.0539795,89.2014255 L93.6302206,84.910753 L91.9547872,81.610784 L91.7103034,80.3492408 L91.9260244,78.724202 L92.1201734,76.2153703 L93.3425926,74.6473505 L93.4360717,73.9845057 L93.5942671,73.4570809 L93.9322301,73.3572978 L95.8018125,73.4998451 L96.39145,73.2503874 L96.8372734,72.516269 L97.5419622,71.9246979 L98.3113672,71.6823675 L98.9297675,71.5968392 L100.029945,72.1599008 L100.411052,71.8391695 L100.562057,70.7985745 L100.856875,69.7651069 L101.065406,69.2733189 L101.71976,69.0452433 L102.582644,68.9882244 L102.841509,68.8029129 L103.021277,68.4536721 L103.035658,67.0852185 L103.690012,64.0347072 L103.87697,62.6733808 L103.898542,62.4310505 L103.632486,60.9200496 L103.912924,60.6991013 L105.875985,61.4403471 L106.674153,61.4260923 L107.069641,61.1196157 L107.127167,60.5708088 L106.789204,59.9222188 L105.30792,58.7889681 L102.740839,57.2637124 L100.454196,56.3300279 L96.5280733,56.4725751 L92.659476,56.764797 L91.4873916,56.6151224 L89.9989165,56.194608 L86.4898542,56.2587543 L82.2761032,56.4868299 L80.643814,56.3585373 L79.8456462,56.3727921 L78.2708826,56.5153393 L75.5959417,56.0805702 L73.7047872,55.5246359 L72.0149724,54.9116827 L70.0303388,54.3628757 L69.5773247,54.3628757 L69.2825059,54.1633096 L69.0236407,53.6786489 L68.8654452,53.0443136 L68.8007289,50.1078401 L67.7365051,45.6603657 L67.8012214,44.0353269 L65.644011,40.3789898 L64.9896572,39.6947629 L64.2705871,39.6662535 L63.8966706,40.1366594 L63.8535264,40.991943 L64.2705871,41.9470096 L63.8750985,43.016114 L62.7893026,43.3653548 L61.3871158,43.0089867 L60.2006501,42.5029439 L58.6115051,41.4124574 L57.2812254,39.8800744 L56.9144996,38.1908894 L56.2529551,37.1004029 L55.4979314,36.5658506 L54.9873916,36.4233034 L54.5775217,36.5373412 L54.2898936,37.1289123 L54.7213357,37.7204834 L55.3181639,38.5472575 L55.2534476,39.1103192 L54.8651497,39.1958475 L54.2107959,38.9535172 L53.2903861,39.0889371 L52.3124507,38.654168 L51.7587667,38.6114038 L51.1907013,38.4546018 L51.0037431,37.4781531 L49.9610914,36.2451193 L48.3288022,34.8552835 L46.8115642,34 L46.1715918,34.1211652 L45.999015,35.0619771 L46.1284476,35.4183452 L46.6389874,35.5894019 L47.4227738,36.1382089 L47.6744484,36.7155253 L47.6528763,37.221568 L46.9481875,38.1338705 L46.480792,39.0034087 L45.3302797,40.264952 L44.4026793,41.7118066 L44.2804374,42.8094205 L44,43.800124 L44,44.8834831 L44.4170607,45.6318562 L45.0570331,46.1093895 L46.5598897,46.4515029 L48.3072301,47.9126123 L49.8460402,49.8797645 L50.6298266,50.478463 L51.9888692,51.1413077 L54.4193262,51.2197087 L54.8651497,51.7613883 L55.4332151,53.208243 L55.9868991,53.7142857 L57.3243696,54.3985126 L57.5041371,54.897428 L57.2884161,55.4818717 L56.8138298,55.9308956 L55.8502758,56.2231174 L54.9082939,56.3371553 L53.9159771,56.1518438 L52.4634555,56.037806 L50.838357,56.0306786 L50.2343381,59.6442516 L49.5943656,60.9129222 L49.1269701,60.9057949 L47.7894996,60.2928416 L47.2645784,60.3854974 L46.2794523,63.599938 L46.1859732,64.3696932 L46.1787825,64.954137 L47.1207644,66.1942981 L48.1849882,67.213511 L49.3426911,67.6126433 L50.1552403,67.3132941 L50.910264,67.7266811 L51.873818,68.7530214 L53.3766745,69.4301209 L55.411643,69.7579795 L56.6484437,70.5704989 L56.8857368,71.2761078 L56.8857368,71.9817168 L56.9648345,73.8419585 L56.9216903,74.9039355 L56.231383,77.7121165 L55.7927502,80.1282925 L56.3464342,81.275798 L56.6915879,81.7462039 L57.0079787,82.1096994 L57.9859141,83.0148745 L58.6977935,83.9129222 L58.4892632,86.2008057 L58.855989,86.7995042 L60.0568361,87.2057639 L61.3367809,87.5122405 L61.8185579,87.8899907 L61.0419622,90.213511 L61.480595,91.8314224 L62.1277581,93.3495507 L62.7749212,95.8298729 L62.8540189,96.086458 L62.8468282,96.7136659 L63.7888101,98.6380539 L65.3491923,102.394174 L65.6080575,103.805392 L65.7302994,105.280756 L66.2983649,106.528045 L66.7441883,108.787419 L67.9306541,110.198637 L68.9876872,111.182213 L69.6348503,111.424543 L70.6487392,111.203595 L71.8208235,109.607065 L72.3097912,108.124574 L72.1084515,106.257205 L71.2887116,103.37775 L71.3606186,102.379919 L72.8275217,107.02696 L73.3308708,108.979857 L73.5394011,110.462349 L74.2800433,109.721103 L74.7042947,108.709018 L75.8619976,108.0533 L76.4947794,107.02696 L76.8471237,105.316393 L76.8686958,104.012086 L76.4660165,102.166099 L76.6673562,100.598079 L77.9401103,99.3436628 L76.9909377,101.859622 L77.2066588,103.54168 L77.7100079,104.917261 L78.3931245,106.399752 L79.8312648,105.202355 L80.7948188,104.575147 L81.6720843,104.275798 L80.2627069,106.48528 L80.1260835,107.40471 L80.284279,108.559343 L81.1903073,109.193678 L81.6433215,109.678339 L82.6140662,109.471645 L83.2756107,108.366904 L83.9155831,106.00062 L85.5766351,103.91943 L86.3172774,103.292222 L86.7415288,102.650759 L86.8997242,101.004338 L86.4682821,99.8354509 L85.3681048,98.1890301 L84.6562254,97.3978928 L84.713751,96.6637744 L84.3685973,95.8726371 L83.5991923,94.8035327 L83.462569,93.591881 L83.6926714,92.7365975 L84.9007092,92.373102 L83.6998621,91.0687945 L83.3978526,89.9996901 L84.1888298,89.5079021 L85.0157604,88.7238922 L84.9222813,87.6120236 L84.6777975,86.6213201 L83.5632388,85.3526495 L81.7008471,85.0176635 L79.8168834,83.6064456 L81.7943262,83.9841958 L83.8580575,84.1481252 L83.9155831,83.3142237 L83.6926714,82.3163929 L83.7645784,81.6606756 L84.160067,81.4468547 L84.4548857,82.4019213 L84.641844,83.8202665 L85.5622537,86.5144097 L85.6341608,89.3582275 L86.0943656,90.4558413 L89.0856974,95.2881934 L90.9912333,97.2696002 L93.8099882,96.9987605 L94.6513002,96.5497366 L95.8090032,95.0743725 L97.0098503,94.083669 L97.8008274,92.6867059 L98.0165485,94.083669 L98.8650512,95.5091416 L101.547183,98.737837 L102.316588,100.298729 L103.416765,102.030679 L103.992021,101.303688 L104.229314,101.18965 L104.222124,101.717075 L103.941686,103.128293 L104.437845,104.261543 L105.868794,108.623489 L107.580181,111.780911 L107.961288,114.4608 L109.262805,119.89185 L111.556639,122.920979 L112.498621,124.517509 L113.51251,126 L113.735422,125.978618 L113.426221,124.823985 L112.937254,123.754881 L112.548956,122.593121 L112.38357,121.687945 L111.585402,120.875426 L111.096434,119.449954 L110.74409,118.003099 L111.010146,116.976759 L111.865839,115.86489 L112.548956,115.672451 L113.196119,116.164239 L114.670213,116.898358 L115.691292,117.582584 L116.209023,118.480632 L116.633274,118.373722 L117,117.796405 L116.827423,117.090796 Z M86.0224586,91.4465448 L85.0157604,90.291912 L84.4548857,90.6197707 L84.8935185,91.2469786 L85.5334909,91.7245119 L86.3604216,92.1307716 L86.0224586,91.4465448 Z M88.0142829,96.6067555 L87.338357,95.4164859 L86.9644405,94.2761078 L86.7559102,93.827084 L85.605398,93.0288193 L84.3614066,93.4778432 L84.8144208,94.8748063 L85.4975374,96.0650759 L85.6701143,96.9417416 L87.000394,98.167648 L87.5468873,99.6857763 L87.8632782,101.553145 L86.0943656,105.72978 L87.3455477,105.900837 L89.6897163,105.344902 L90.2721631,104.218779 L90.3081166,100.555315 L90.1499212,99.051441 L88.0142829,96.6067555 Z M99.2173956,98.9587852 L98.4983255,97.5974589 L98.0309299,96.9559963 L97.8295902,97.2410908 L97.7001576,99.2011156 L98.6709023,100.747753 L99.3252561,101.154013 L99.9077029,100.683607 L99.7063633,99.9993802 L99.2173956,98.9587852 Z M93.0046296,98.4955067 L93.3641647,105.095445 L94.6944444,103.976449 L94.8598306,102.265882 L94.4140071,100.954447 L93.0046296,98.4955067 Z M105.063436,107.932135 L104.912431,107.925008 L104.782998,108.587852 L104.718282,109.792377 L105.085008,110.733189 L105.422971,109.436009 L105.444543,108.616362 L105.063436,107.932135 Z M106.760441,111.809421 L106.480004,111.182213 L106.113278,111.167958 L105.437352,111.396033 L105.933511,113.534242 L105.818459,114.18996 L106.285855,114.667493 L107.119976,114.589092 L107.091214,112.971181 L106.760441,111.809421 Z" id="Stroke-456" fill="#68A8FB" fill-rule="nonzero"></path>
    </g>
</svg>