<?xml version="1.0" encoding="UTF-8"?>
<svg width="180px" height="180px" viewBox="0 0 180 180" version="1.1" xmlns="http://www.w3.org/2000/svg" xmlns:xlink="http://www.w3.org/1999/xlink">
    <!-- Generator: Sketch 55.1 (78136) - https://sketchapp.com -->
    <title>brazil</title>
    <desc>Created with Sketch.</desc>
    <g id="brazil" stroke="none" stroke-width="1" fill="none" fill-rule="evenodd">
        <path d="M144.977164,68.2386276 L145,67.9009548 L144.900093,67.0617596 L144.780206,66.9933702 L144.761651,66.6913169 L144.613219,66.2995025 L144.419115,65.0556698 L144.102268,64.3931473 L143.953835,63.5397042 L143.666961,62.4255265 L143.204536,61.4210569 L142.949061,61.1517735 L142.756384,61.0349416 L141.541805,60.7955786 L141.032282,60.9209592 L140.400016,60.8910388 L139.827694,60.9337822 L139.383823,60.7841803 L139.058413,60.5163218 L138.792947,60.4222863 L138.173526,60.3439234 L137.803872,59.7113213 L136.883304,59.3266307 L136.395189,58.7282233 L135.673007,58.1312406 L135.029323,57.2777976 L134.772421,57.0498328 L134.442729,56.544036 L133.847571,56.3417173 L133.248132,55.858717 L132.909876,55.5039469 L131.947919,54.8898668 L131.498339,54.6619021 L131.218601,54.4410612 L130.757603,54.2173708 L130.209544,53.8227069 L129.445973,53.6688306 L128.772317,53.6132642 L127.647654,53.8483529 L126.751349,53.9010697 L126.405958,54.0592203 L125.949242,53.99653 L125.496808,53.8768485 L125.262741,53.6545828 L124.826007,53.4565385 L124.480616,53.6460342 L123.778415,53.601866 L122.803612,53.1844056 L122.568118,52.9578656 L122.125675,52.7669451 L121.828809,52.5617768 L121.001012,52.3095908 L120.577123,52.2782457 L120.425836,52.3979272 L120.371601,52.6786088 L119.603747,52.7299008 L119.224102,52.9763877 L119.031425,52.9379187 L118.808776,53.1245648 L118.312098,53.6574324 L118.2179,53.4836093 L118.309243,53.3069366 L118.526183,52.9863612 L118.556155,52.8638301 L118.541883,52.651538 L118.333506,52.5817238 L118.193637,52.5817238 L117.973843,52.7840425 L117.778311,53.4308924 L117.629879,54.0862911 L117.120355,54.7017959 L116.840617,54.9140881 L116.842044,54.7146189 L117.053275,53.5078305 L117.128918,53.2356976 L117.184581,52.9065735 L117.258797,52.7498478 L117.372976,52.6130689 L117.371549,52.3722811 L117.75833,52.2454758 L117.726931,51.9405729 L117.598479,51.6171479 L117.361558,51.6883869 L117.197426,51.8151923 L116.969068,52.269697 L116.859171,52.101573 L116.700747,51.9263251 L116.836335,51.849387 L116.97335,51.8066436 L117.086101,51.5658558 L117.19029,51.4447496 L117.305896,51.2495548 L117.277351,50.911882 L117.147472,50.5799083 L116.976204,50.2735807 L116.780673,50.4217578 L116.619395,50.4431295 L116.777818,50.2351116 L116.585141,50.2080408 L116.475244,50.038492 L116.21406,49.7749078 L115.91434,49.5355448 L115.770189,49.3859429 L115.473324,49.5141731 L115.319182,49.9045627 L115.197867,50.1168549 L115.066561,50.1838196 L114.995199,49.7065184 L114.691198,49.0354471 L114.414314,48.9542347 L114.167402,49.0083763 L113.787757,48.6991991 L113.241125,48.4983052 L113.035603,48.2304466 L112.765855,48.2788891 L112.556051,48.2190484 L112.541779,48.0010571 L112.256332,48.0267031 L111.972312,47.9982075 L111.705418,47.8927738 L111.419971,47.8087118 L111.3429,47.6363135 L110.987518,47.3827027 L110.870485,47.2017557 L110.639272,47.2017557 L110.495121,47.0863485 L110.269618,47.1077202 L109.981316,47.0920477 L109.77294,46.8854546 L109.58169,46.7743218 L109.216317,46.714481 L109.102138,46.7814457 L109.042194,46.8883042 L109.120692,47.0179591 L109.160655,47.1575875 L109.01365,47.1020211 L108.769592,46.8526847 L108.505553,47.0079857 L108.404219,47.0265078 L108.28005,46.9809148 L108.160162,46.8740564 L108.064537,46.8327378 L107.851879,46.9267732 L107.634939,47.1689858 L107.432271,46.9638175 L107.32951,46.9923131 L107.199632,47.0678264 L107.163951,47.251623 L106.958428,47.3556319 L106.777169,47.5693489 L106.634446,47.7773667 L106.667272,48.0295527 L106.266219,48.3643759 L106.384679,48.6308097 L106.19343,48.9314382 L106.221974,49.1551286 L106.2705,49.2876331 L106.557375,49.4358102 L106.289054,49.5569165 L106.243383,49.8546955 L106.054988,49.7065184 L105.853747,49.4571819 L105.544037,49.4529076 L104.764765,50.5414393 L104.306622,50.6967402 L104.149626,50.8164217 L103.61584,52.1770863 L103.483107,52.6871574 L103.301848,52.9806621 L103.156269,53.0903701 L102.987856,53.1715825 L103.087762,52.9393435 L103.214786,52.7356 L103.333247,51.9733428 L103.460271,51.6912365 L103.624403,50.9916696 L103.854188,50.2294125 L103.094898,50.659696 L102.719535,50.8477669 L102.200021,50.6710942 L101.928846,50.5471384 L101.599154,50.6297756 L101.442158,50.7523066 L101.196673,50.8377934 L100.798474,51.131298 L100.27896,50.6055543 L100.127673,50.5015454 L99.9806674,50.3248727 L100.02063,50.1111558 L100.007785,49.9501557 L99.700929,49.4600315 L99.6053041,49.0995622 L99.5838956,48.8929692 L99.5282333,48.622261 L99.3783735,48.4256414 L99.3198568,48.2689157 L99.5410785,48.0252783 L99.5296606,47.9013225 L99.3798007,47.7032781 L99.1071985,47.8585791 L99.0044374,48.0039067 L98.5191769,48.3358803 L98.2537108,48.6137124 L97.6000363,49.0283232 L97.2774808,49.1565534 L96.435411,49.7677839 L95.736065,49.9373327 L95.4135094,49.6822971 L94.4172981,49.6566511 L94.7284357,49.5369696 L95.6347312,49.0553941 L96.22418,49.1708012 L96.3355045,49.0724914 L96.4639558,48.9214648 L96.495355,48.4769335 L96.7822296,48.2774644 L97.0576863,47.9611633 L97.0505501,47.4425435 L97.1019307,47.1461893 L97.5144021,46.4679942 L97.6799616,46.3426136 L97.9368642,45.9707461 L98.230875,45.2911262 L98.2765466,44.9933472 L98.7860702,44.8209489 L99.1657152,44.3080282 L99.3269929,44.2097184 L99.5910318,44.1726741 L99.7637274,44.0145236 L100.25327,43.3847709 L100.590098,42.6951776 L100.928353,42.3332835 L101.068222,42.0640002 L101.700488,41.4940883 L101.767568,41.3772564 L102.077278,41.1549908 L102.188603,41.023911 L102.170049,40.6862382 L102.244265,40.2060875 L102.04017,39.4438304 L101.767568,39.2172904 L101.396486,39.0420425 L101.068222,39.0049982 L100.634342,38.9038389 L100.425965,38.5932369 L100.311786,38.3666969 L100.224725,38.0304489 L100.084856,37.9449621 L99.9292869,37.9349887 L100.037757,37.7910859 L100.032048,37.6927761 L99.8764791,37.1627581 L99.7337554,36.8421827 L99.6623936,36.5387046 L99.6367033,36.2879434 L99.1928327,34.9344027 L99.0415456,34.2847032 L99.0001557,33.0451448 L98.6262196,31.7030024 L98.3350633,31.2869667 L97.9639817,31.0034356 L97.7242059,31.0119842 L97.6870978,31.2570463 L97.4073594,31.8055865 L97.3188707,31.8754007 L97.0805221,32.0250026 L96.9691976,32.2244717 L96.9021175,32.4153922 L96.7522576,32.5464719 L96.6095339,32.7103216 L96.5638624,32.8442509 L96.4311293,32.9482598 L96.4011574,33.1235077 L96.0600477,33.7432869 L95.923033,34.0211189 L95.7289288,34.3174731 L95.6090409,34.4271811 L95.4463359,34.6038538 L95.3621289,34.8075973 L95.3578472,35.0170399 L95.2408138,35.2692259 L95.1751609,35.4872172 L95.0666909,35.6140226 L94.7769618,36.3021912 L94.7584077,36.5387046 L94.6899004,36.6797578 L94.4872327,37.0074571 L94.350218,37.2055015 L94.1147239,37.3522538 L93.8678119,37.5132539 L93.772187,37.6885018 L93.5980641,37.7782629 L93.4710401,37.783962 L93.2683724,37.719847 L92.994343,37.6899266 L92.8530465,37.7098735 L92.7916753,37.6229619 L92.7017594,37.422068 L92.5661719,37.2810148 L92.476256,37.3308821 L92.2892879,37.4733601 L92.0709207,37.5559973 L91.9153519,37.5289265 L91.5813785,37.4306167 L91.4372275,37.3807494 L91.3958377,37.2966874 L91.3473116,37.2325723 L91.2716681,37.2610679 L91.1717615,37.3665016 L91.0376012,37.4762096 L90.837788,37.6215372 L90.4310255,37.8836966 L90.3154193,37.9763073 L90.2126583,37.9250152 L90.0428171,37.8737232 L89.8587035,37.8708736 L89.4676406,37.7013248 L89.2392827,37.5816433 L89.1422306,37.4291919 L89.0266245,37.363652 L88.9581171,37.3223334 L88.8296658,37.3194839 L88.7311864,37.2168997 L88.7183413,37.0957935 L88.6669608,36.9575898 L88.5413639,36.9148464 L88.3015881,36.9632889 L88.234508,36.9290942 L88.0946388,36.7794924 L87.9790326,36.6170675 L87.9533423,36.4603417 L87.8762715,36.4760143 L87.692158,36.6170675 L87.5694156,36.6469879 L87.4723635,36.6099436 L87.3624663,36.619917 L87.0827278,36.7723685 L86.9200228,36.8065632 L86.8001349,36.9604394 L86.029427,37.0302536 L85.8267594,37.0701474 L85.3728981,36.8051384 L85.2558646,36.7182268 L85.1944935,36.7068286 L85.1431129,36.7210764 L85.0917324,36.7794924 L85.0103799,37.1128908 L84.9390181,37.2026519 L84.8177029,37.2767405 L84.6992423,37.409245 L84.673552,37.5374752 L84.8533838,37.6087141 L84.998962,37.8580506 L85.1602398,38.0589445 L85.2886911,38.2356172 L85.2672825,38.4365111 L85.2415923,38.7200423 L85.1445402,38.8155025 L84.9846896,38.863945 L84.4038042,38.7257414 L83.9585063,38.6032104 L83.7715383,38.5761395 L83.6873313,38.5462192 L83.5660162,38.5932369 L83.4575462,38.657352 L83.3105408,38.6074847 L83.1035914,38.6345555 L82.8866514,38.7043697 L82.6882655,38.7385644 L82.3157567,38.6274316 L82.2015777,38.611759 L82.1259342,38.5633165 L81.9732198,38.3424757 L81.9004308,38.3168296 L81.6991904,38.4194138 L81.4565601,38.4906528 L81.3395267,38.4778297 L81.1996575,38.5519183 L81.0683517,38.6516529 L80.8157307,39.0805115 L80.6858522,39.232963 L80.5474102,39.3027772 L80.274808,39.2999276 L79.9822244,39.3156002 L79.7610027,39.4196091 L79.5554806,39.472326 L79.4527195,39.4794499 L79.4156114,39.7159633 L79.3670853,39.8242465 L79.3014324,39.8869368 L79.1415819,39.905459 L78.9988582,39.8983351 L78.913224,39.8000253 L78.7519462,39.750158 L78.6106498,39.7159633 L78.5178794,39.6589721 L78.4436631,39.6732199 L78.3794374,39.7715297 L78.3294841,39.8555917 L78.2838125,40.0094679 L78.0654453,40.0593352 L77.9712477,40.1462467 L78.0226282,40.435477 L77.9969379,40.5494594 L77.9498391,40.6363709 L77.6872275,40.6534683 L77.4645786,40.6477692 L77.3347,40.7546277 L77.1734223,40.8785835 L77.0749429,40.90138 L76.960764,40.8942561 L76.8094769,40.7503533 L76.6653259,40.5736806 L76.2956716,40.4483 L75.9288717,40.3457159 L75.6905231,40.0636095 L75.6348609,39.9254059 L75.5221092,39.8641404 L75.2395163,39.5307419 L75.0839475,39.3156002 L74.9141063,39.258609 L74.7185748,39.1688479 L74.7285655,39.0135469 L74.7171476,38.8625203 L74.6329406,38.8026795 L74.5159072,38.7613609 L74.4730901,38.6772989 L74.4887897,38.4806793 L74.5201889,37.9748825 L74.4944987,37.4904574 L74.2333143,37.3209086 L74.1219898,37.2069263 L73.9350218,36.4902621 L73.8465331,36.1668371 L73.8479603,35.9274741 L73.9293129,35.2122347 L74.0106654,34.9016328 L74.2290326,34.2804288 L74.351775,34.0709862 L74.3617656,33.9142604 L74.3546294,33.7119417 L74.3046761,33.3130034 L74.6557764,33.0622422 L74.8070635,32.9553837 L74.8356083,32.7872597 L75.0254308,32.5749675 L75.1124922,32.371224 L75.1852813,32.2130735 L75.1695817,32.1275867 L75.0896564,32.0791442 L74.9983133,31.9281176 L74.8113452,31.4907102 L74.7414106,31.4023739 L74.6828939,31.2798428 L74.7200021,31.0860728 L74.8042091,30.8766302 L74.7956456,30.7897186 L74.6800394,30.6757362 L74.4388364,30.4876653 L74.2347415,30.4734175 L74.0791727,30.4050281 L73.8465331,30.3964794 L73.6609923,30.3751077 L73.5582313,30.3052935 L73.5824943,30.1898864 L73.6310203,30.1001252 L73.7937253,29.8807092 L73.9050498,29.6456205 L73.9264584,29.416231 L73.966421,29.1156025 L74.020656,28.853443 L74.0534825,28.5570889 L73.8137067,28.3633188 L73.7409176,28.2037435 L73.6438655,28.0612655 L73.532541,28.0612655 L73.3655543,28 L73.0972338,28.1866461 L72.8902844,28.1524514 L72.7461335,28.2222656 L72.417869,28.2094426 L72.2094924,28.1182567 L71.9525898,28.1780975 L72.0367968,28.2122922 L72.146694,28.297779 L72.2423189,28.5599384 L72.3193897,28.8377704 L72.3165352,28.9816732 L72.2451733,29.1626202 L72.0938862,29.370638 L71.9126272,29.5387621 L71.6514428,29.6826648 L71.441639,29.8165941 L71.2618071,30.172789 L71.1561916,30.2981696 L71.0605667,30.3494617 L70.8735987,30.3964794 L70.5724517,30.3850812 L70.375493,30.3565856 L70.1214449,30.6244442 L69.8045983,30.7213292 L69.5833766,31.0860728 L68.8255138,31.3738783 L68.0862051,31.5989935 L67.8821102,31.6887546 L67.1627829,31.5021084 L66.9872327,31.5605244 L66.7817106,31.7329228 L66.5933153,31.866852 L66.4363193,31.8754007 L66.3035863,31.9437901 L66.217952,32.190277 L66.1266089,33.0408705 L65.8597156,33.2944813 L65.5457235,33.2930565 L65.3373469,32.9981271 L65.0875804,32.7758615 L64.6565549,32.248693 L64.5352398,32.1788788 L64.4196336,32.1831531 L64.0014532,32.3384541 L63.807349,32.2714895 L63.6503529,32.1888522 L63.3848869,32.2159231 L62.9138987,32.2216222 L62.6127517,32.2273213 L62.4714553,32.0819938 L62.3430039,31.7884892 L62.2545153,31.6830555 L62.150327,31.5975687 L61.9733496,31.5548253 L61.2140596,31.5562501 L61.0713359,31.5562501 L60.9685748,31.4992589 L60.8301329,31.2470729 L60.674564,31.1288162 L60.487596,31.1231171 L60.4005346,31.2627455 L60.7116722,31.7172502 L60.8001609,31.9637371 L61.0741904,32.319932 L61.8762975,33.0736404 L62.0218756,33.3130034 L61.9976126,33.619331 L61.9804858,34.0880836 L61.9976126,34.5297653 L62.1945713,35.165217 L62.4785914,35.812067 L62.5499533,36.2252531 L62.4885821,36.5301559 L62.4286382,36.691156 L62.4329199,36.7638198 L62.4928638,36.8293597 L62.7740295,36.9233951 L63.3691873,36.9818111 L63.7288509,36.9818111 L64.2769099,37.0516253 L64.3140181,37.27959 L64.2526469,37.6543071 L64.1413224,37.8665993 L64.0514065,37.9292896 L63.7516867,37.9777321 L63.4319857,38.2085464 L62.9724154,38.4350863 L62.7098038,38.4664315 L62.6013338,38.5105997 L62.5085634,38.5789891 L62.4300654,38.6659007 L62.3358678,39.0919098 L62.1931441,39.5720605 L61.9362414,39.8584412 L61.6536485,40.0935299 L61.3696284,40.1206007 L61.1426977,40.1020786 L61.0285188,40.170468 L60.8615321,40.3656628 L60.626038,40.6078754 L60.4433517,40.7361055 L60.2007214,40.7247073 L59.9395371,40.842964 L59.6098453,41.0381588 L59.3914781,41.1977341 L59.2030828,41.4712918 L58.9347623,41.7590973 L58.6607328,41.9599913 L58.5279998,42.2079029 L58.3396045,42.524204 L58.1069649,42.5341775 L58.0898381,42.3446818 L58.204017,42.0397789 L58.0841291,41.7776195 L57.8643346,41.6365663 L57.7615736,41.5938229 L57.6573853,41.612345 L57.3947737,41.742 L57.0707909,41.9770886 L56.8709778,42.1466374 L56.6911459,42.2250003 L56.3214916,42.2948145 L56.010354,42.330434 L55.8819026,42.2819915 L55.6521175,42.1081684 L55.1226126,41.5667521 L54.4061397,40.8329905 L53.8723531,40.9740437 L53.8252543,40.952672 L53.7938551,40.8743092 L53.8166909,40.267353 L53.8195454,39.5848835 L53.7424746,39.304202 L53.5055532,38.8553964 L53.1929884,38.2598384 L53.1073542,38.0888649 L52.9731939,37.9905551 L52.8119161,37.9763073 L52.6934555,38.0190507 L52.5321777,38.1287587 L52.3808906,38.249865 L52.0854526,38.6089095 L51.7885873,39.0292195 L51.6158916,39.1232549 L51.4446232,39.161724 L51.2947633,39.148901 L51.1748754,39.0363434 L51.0549875,38.8069538 L50.9094094,38.502051 L50.732432,38.4023164 L50.6624974,38.4963519 L50.599699,38.6758741 L50.5497457,38.8525468 L50.6667791,39.0790868 L50.7681129,39.2529099 L50.5897083,39.2472108 L48.6943378,39.2472108 L48.1006072,39.2486355 L47.5496938,39.2486355 L47.33989,39.232963 L47.1286589,39.1318036 L46.924564,39.0833611 L46.816094,39.090485 L46.6219898,39.1902196 L46.3693689,39.2044674 L46.1981005,39.2999276 L46.0610857,39.2885294 L46.0368227,40.5594328 L46.0239776,41.3530351 L46.1766919,41.2917696 L46.309425,41.2988935 L46.4050498,41.3544599 L46.6762248,41.308867 L46.8260847,41.3330882 L46.9673812,41.3530351 L47.0986869,41.3558847 L47.1800394,41.418575 L47.2885094,41.4071768 L47.4055429,41.3387873 L47.5454121,41.3815307 L47.6938447,41.4926635 L47.7880424,41.6593628 L47.8722493,41.8659558 L47.9578835,41.9742391 L47.9507474,42.1722834 L47.9478929,42.3261596 L47.9164937,42.4543898 L47.9536018,42.5384518 L47.9807193,42.6267882 L47.9735831,42.6780802 L47.9222026,42.7008767 L47.8137326,42.7193988 L47.6966992,42.7336466 L47.6153467,42.7279475 L47.5525483,42.6467351 L47.4911771,42.6381864 L47.4026884,42.6495846 L47.309918,42.6011421 L47.2285655,42.5014075 L47.0858418,42.4002482 L46.930273,42.4429916 L46.8232302,42.4957084 L46.7147602,42.5583987 L46.6148536,42.6239386 L46.5163743,42.6068412 L46.3893502,42.6552837 L46.2823075,42.7293723 L46.1395838,42.7906378 L45.9854422,42.8191334 L45.8070376,42.847629 L45.6371964,42.8590272 L45.4445194,42.8818237 L45.4316743,43.2992842 L45.405984,44.1199573 L45.3917116,44.6627983 L45.3931389,45.1643208 L45.4673552,45.3466926 L45.809892,45.7313831 L46.0782126,45.9351266 L46.3051432,46.1616665 L46.5306467,46.255702 L46.6248443,46.3411888 L46.6876427,46.482242 L46.7204692,46.6289943 L46.7461594,46.7557997 L46.7218964,46.8883042 L46.6662342,47.0151096 L46.6919244,47.1476141 L46.7747042,47.2530478 L46.8003944,47.3869771 L46.8574839,47.5123577 L46.8888831,47.6391631 L46.9588177,47.730349 L47.0458792,47.7930393 L47.1586309,47.898473 L47.171476,47.9967828 L47.1600581,48.1093403 L47.1600581,48.1934024 L47.2685281,48.3857476 L47.3013546,48.5225265 L47.2528285,48.6835266 L47.2128659,49.243465 L47.0986869,49.8803415 L47.0273251,50.3661914 L46.9131461,51.1597936 L46.7818404,52.0816261 L46.6248443,53.2057773 L46.47213,54.3156806 L46.3265518,55.3899645 L46.1966732,56.3616642 L46.056804,57.4316738 L45.9725971,58.0813733 L45.9254982,58.1939309 L45.9155076,58.400524 L45.8284461,58.4831612 L45.6900042,58.5016833 L45.4730641,58.354931 L45.3189226,58.3905505 L45.1633537,58.400524 L44.9392776,58.2281256 L44.8593523,58.0585768 L44.6838022,57.9203732 L44.3312747,57.9759396 L44.0386911,57.9787892 L43.7932064,57.9488688 L43.5748391,57.9944617 L43.39358,58.1725592 L43.260847,58.3820018 L43.1038509,58.5572497 L42.6285811,58.6740816 L42.3731057,58.6769312 L42.146175,58.7923384 L41.8064926,58.8350818 L41.5767075,58.9362411 L41.164236,58.9932323 L40.6704121,59.0473739 L40.3992371,59.2026749 L40.2907671,59.2710643 L40.0167376,59.4862061 L39.5386132,59.8253036 L39.2731472,59.9421356 L38.9591551,60.3097287 L38.5795101,60.6531006 L38.3325981,60.8368972 L37.9600893,60.9209592 L37.8088022,61.0135699 L37.7559944,61.1247027 L37.7931026,61.2529329 L37.741722,61.5849065 L37.6503789,62.1975618 L37.6303976,62.4981903 L37.608989,62.642093 L37.3806311,63.133642 L37.1322919,63.5909963 L37.0138312,63.8944744 L36.9481783,64.11674 L37.0380942,64.3005366 L37.1608366,64.6325103 L37.2621704,64.8989441 L37.2949969,65.0784663 L37.2721611,65.2850593 L37.1679728,65.4731303 L36.9967044,65.5970861 L36.7583558,65.6312808 L36.2830859,65.9646793 L35.7578628,66.4548035 L35.5894488,66.684193 L35.548059,66.8993347 L35.4838333,67.2384323 L35.5237959,67.4136802 L35.6279842,67.5333617 L35.7393087,67.8197424 L35.7535811,67.9679195 L35.6765103,68.0505567 L35.5223687,68.0690788 L35.3839267,68.0961496 L35.2825929,68.1702382 L35.1755501,68.1517161 L35.0799253,68.1887603 L35.0856342,68.3084418 L35.1241696,68.4480702 L35.1141789,68.5948225 L35.054235,68.6874332 L35,68.7515483 L35.0613712,68.844159 L35.162705,68.928221 L35.3168466,69.0664246 L35.5337866,69.3342832 L35.6907826,69.3798761 L35.8249429,69.4724868 L35.8492059,69.6206639 L35.8078161,69.7674162 L35.6964916,69.8315313 L35.6950644,69.9611862 L35.8577694,70.117912 L35.9690938,70.2290448 L36.0832728,70.395744 L36.1917428,70.6265584 L36.2003062,70.7747354 L36.3159124,70.958532 L36.3887015,71.1152578 L36.3958377,71.2634349 L36.5756695,71.411612 L36.7269566,71.5227448 L36.8382811,71.6239041 L36.9481783,71.6880192 L36.9781503,71.799152 L36.9724414,71.967276 L37.1394281,72.2436833 L37.4291572,72.4517011 L37.6717874,72.7523296 L37.8302107,72.9717457 L38.1199398,73.3222415 L38.1527662,73.7254541 L37.8430558,74.1885075 L37.5347727,74.6529857 L38.0828316,74.6401627 L38.6423085,74.6487114 L39.236039,74.7812159 L39.6370926,74.9094461 L39.8811501,74.9664372 L40.0609819,75.1146143 L40.1551796,75.3454286 L40.2322504,75.5334996 L40.2636496,75.8070573 L40.5219794,76.0278981 L40.5162705,76.2387655 L40.5276884,76.5365444 L40.6361584,76.5408188 L41.3526313,76.5422436 L42.1361843,76.5436683 L42.8854837,76.4881019 L43.1652221,76.416863 L43.4863504,76.0549689 L43.6861636,75.9481104 L43.8759861,75.7799864 L44.098635,75.472234 L44.2827486,75.3326056 L44.4340357,75.1616321 L44.6666753,74.9906585 L44.7580185,74.8652779 L44.8365165,74.8182602 L45.0192028,74.7356229 L44.947841,74.9023222 L44.8950332,75.0718709 L44.8907515,75.316933 L44.9949398,75.5847916 L44.9321414,75.7842608 L44.8222441,75.963783 L44.8479344,76.4339603 L44.9606861,78.3873332 L45.0106394,79.1980329 L45.0434659,79.7365996 L45.164781,79.6311659 L45.3360494,79.5357057 L45.5829614,79.7836173 L45.7542298,79.8904758 L45.8969535,79.9161218 L46.0411044,79.9089979 L46.2337814,79.8562811 L46.6505346,79.6482633 L46.9359819,79.481564 L47.2742371,79.4929623 L47.7423708,79.5585021 L48.0092641,79.5513782 L48.3332468,79.53998 L48.9897758,79.5627765 L49.6334596,79.6867323 L50.0659124,79.7394492 L50.2528804,79.8463076 L50.304261,80.0144316 L50.4270033,80.0942193 L50.5625908,80.0628741 L50.7181596,80.0514759 L51.0549875,79.8790776 L51.329017,79.7636704 L51.5630839,79.6254668 L51.6786901,79.4915375 L51.9512923,79.0213602 L52.178223,78.7606255 L52.3965902,78.6694396 L52.8333247,78.6323954 L52.9746211,78.7064839 L53.154453,78.6965104 L53.2914677,78.4286519 L53.509835,78.1337225 L53.9508512,77.7647045 L54.1806363,77.6621204 L54.3190783,77.5338902 L54.570272,77.5153681 L54.7829302,77.380014 L55.7976957,76.4467833 L56.2173033,76.2059956 L56.4856238,76.1618274 L56.7054183,76.1048362 L57.0779271,75.9709069 L58.0199035,75.8426767 L58.6279064,75.7885351 L58.830574,75.9167653 L59.047514,75.879721 L59.2230641,75.6717032 L59.3743513,75.6033138 L59.4885302,75.6090129 L59.6655076,75.8569245 L59.7597052,76.119084 L59.7183153,76.3199779 L59.7454328,76.610633 L59.8396305,76.9910492 L59.8182219,77.3287219 L59.6126998,77.7718284 L59.5070843,77.9527754 L59.4899574,78.1379968 L59.5242111,78.388758 L59.6555169,78.7976698 L59.8810203,79.3633073 L59.9352553,79.7836173 L59.8182219,80.0557502 L59.7725503,80.2908389 L59.7953861,80.4874585 L59.8510484,80.6270869 L59.9423915,80.7068746 L59.999481,80.8650251 L60.0251713,81.1015385 L60.1507681,81.3295033 L60.3776988,81.5503441 L60.4790326,81.7612115 L60.4519151,81.9621055 L60.4718964,82.0874861 L60.5375493,82.1373534 L60.5917843,82.0974595 L60.6660006,82.0418931 L60.7359352,82.06184 L60.9043492,82.3425216 L60.927185,82.3995128 L61.0242371,82.6303271 L61.059918,82.805575 L61.2854214,82.9038848 L61.5280517,82.9808229 L61.6636392,83.0734336 L61.9433776,83.3498409 L62.1760172,83.5336374 L62.4614646,83.6832393 L62.5685074,83.9211775 L62.7626116,84.2830715 L63.235027,84.4212752 L63.7816587,84.4910894 L64.1313317,84.5694523 L64.5380942,84.377107 L64.8178327,84.4041778 L65.1146979,84.5352576 L65.2431493,84.6235939 L65.4715072,84.8088152 L65.819753,85.0467535 L66.0966369,85.1365146 L66.2807505,85.0040101 L66.4548734,84.9569923 L66.5975971,85.0125587 L66.6889402,85.2704439 L66.7745744,85.4471165 L66.9444156,85.5781963 L67.3112155,85.9172938 L67.5167376,86.0554975 L67.7351048,86.0469488 L68.2032385,86.2692144 L68.7013442,86.4857809 L68.9525379,86.5214004 L69.1951682,86.4900553 L69.3635821,86.5726925 L69.4477891,86.8348519 L69.9059321,87.3563213 L70.1185904,87.5614896 L70.3669296,87.7367375 L70.9649419,87.7338879 L71.1476282,87.7866048 L71.411667,87.739587 L72.2052107,87.6498259 L72.3493616,87.6227551 L72.8203498,87.8507199 L73.3812539,88.1769944 L73.75519,88.4348795 L74.0135198,88.5773575 L74.1619525,88.806747 L74.2846948,89.0475348 L74.3546294,89.3068447 L74.3103851,89.563305 L74.2204692,89.6658892 L74.2019151,89.8325884 L74.261859,90.0819248 L74.4573905,90.3027657 L74.5458792,90.5763234 L74.6814667,91.0593237 L74.8027818,91.2117751 L75.0011677,92.7077938 L74.6429313,92.7206168 L74.1405439,92.7377141 L74.2989672,92.8801921 L75.195272,93.9502017 L75.3308595,94.7751491 L75.5378088,96.0261056 L75.6105979,96.4620882 L76.5725555,96.5019821 L77.6800913,96.547575 L79.0131306,96.6017166 L80.1834648,96.6501591 L80.2976438,96.64446 L80.4946024,96.5846193 L80.6230538,96.5076812 L80.7058335,96.5105307 L80.7358055,96.6872034 L80.7272421,96.9108938 L80.7529323,97.1673542 L80.4660577,97.6731509 L80.4603488,97.834151 L80.5731005,98.5023727 L80.7429417,99.0423642 L80.8485572,99.5310636 L80.9969898,99.6835151 L81.4165975,99.9414002 L82.0588541,100.417277 L82.3043388,100.479967 L82.498443,100.414427 L82.6383122,100.608197 L82.6925472,100.923073 L83.1078732,101.799313 L83.3704847,102.354977 L83.4846637,102.548747 L83.6516504,102.649906 L83.6288146,102.721145 L83.5017905,102.751066 L83.4546917,102.855075 L83.3348038,103.477703 L83.179235,104.298376 L83.0764739,104.873987 L83.2220521,104.883961 L83.2434607,105.043536 L83.3019774,105.287174 L83.125,105.317094 L83.0821829,105.404005 L82.9237596,105.877032 L82.5055792,107.135113 L82.3799824,107.514104 L82.6896928,107.794786 L83.2049253,108.262113 L83.1435541,108.391768 L82.9494499,108.455884 L82.7853176,108.501476 L82.6754204,108.676724 L82.6169037,108.806379 L82.4384991,108.850548 L82.522706,109.081362 L82.5783683,109.259459 L82.6825566,109.386265 L82.7910266,109.554389 L82.8923604,109.648424 L82.9722857,109.806575 L82.9722857,109.984672 L83.0322296,110.216911 L83.0993097,110.41638 L83.149263,110.469097 L83.2862778,110.521814 L83.3704847,110.702761 L83.3333766,110.795372 L83.3619213,110.899381 L83.4190108,111.001965 L83.3861843,111.101699 L83.4175836,111.178637 L83.5132084,111.247027 L83.6216784,111.499213 L83.6759134,111.930921 L83.6088333,112.161735 L83.5545983,112.351231 L83.5488894,112.466638 L83.6216784,112.634762 L83.5503166,112.834231 L83.4675368,113.076444 L83.5117812,113.244568 L83.5474621,113.402719 L83.5731524,113.570843 L83.6173967,113.728993 L83.5988426,113.897117 L83.5788613,114.043869 L83.5788613,114.211993 L83.6445142,114.401489 L83.5817158,114.579587 L83.5488894,114.706392 L83.5446076,114.833197 L83.6487959,115.032667 L83.8671632,115.116729 L84.0327226,115.1381 L84.1768736,115.032667 L84.2910525,114.999897 L84.5208377,115.095357 L84.7392049,115.263481 L84.9961075,115.284853 L85.2273199,115.316198 L85.4057245,115.368915 L85.6540637,115.306224 L85.9252387,115.368915 L86.2449398,115.46295 L86.5089786,115.547012 L86.7615995,115.527065 L86.951422,115.515667 L87.1426718,115.421631 L87.3353488,115.431605 L87.4623728,115.263481 L87.529453,115.116729 L87.5908242,115.011295 L87.7920646,114.927233 L87.9433517,114.97995 L88.0903571,115.253507 L88.3158605,115.410233 L88.4100581,115.527065 L88.5713359,115.578357 L88.9081638,115.589755 L89.1165404,115.578357 L89.3634524,115.663844 L89.5175939,115.663844 L89.6703083,115.810596 L89.8158864,115.988694 L89.8686942,116.314968 L90.0142724,116.567154 L90.1798318,116.662614 L90.2783112,116.820765 L90.2754567,117.041606 L90.2255034,117.261022 L90.2611843,117.503234 L90.3667999,117.724075 L90.3910629,117.944916 L90.4695609,118.165757 L90.6008667,118.355253 L90.6708013,118.660156 L90.6765103,118.880996 L90.7635717,119.007802 L90.8106705,119.185899 L90.7821258,119.334076 L90.7864075,119.533546 L90.8149523,119.713068 L90.8863141,119.85982 L91.0718549,120.049316 L91.1560619,120.385564 L91.1817521,120.616378 L91.2873677,120.891361 L91.4372275,121.016741 L91.6598765,121.059485 L91.9196336,121.100803 L92.2207806,121.038113 L92.4848194,120.964024 L92.6303976,120.891361 L92.9072815,120.690467 L93.157048,120.575059 L93.2854993,120.500971 L93.4068144,120.449679 L93.6836984,120.575059 L93.9477372,120.73321 L94.1632499,120.954051 L94.5443222,121.196263 L94.482951,121.254679 L94.3644903,121.452724 L94.3944623,121.686388 L94.5329043,122.019786 L94.5286226,122.726477 L94.3858989,123.80646 L94.350218,124.434788 L94.4230071,124.61431 L94.3616359,124.929186 L94.0719068,125.604532 L94.1161511,126.061886 L94.3302367,126.063311 L94.4429884,126.16447 L94.6071206,126.217187 L94.7569805,126.10178 L94.8911408,126.047638 L95.1137897,126.043364 L95.217978,125.913709 L95.35642,125.892337 L95.4620355,125.963576 L95.5662238,126.047638 L95.7674642,126.067585 L95.9544322,126.289851 L96.1371185,126.356815 L96.2441613,126.611851 L96.4439745,127.282922 L96.7051588,127.677586 L96.9734793,128.127817 L97.007733,128.32871 L96.9192443,128.531029 L96.9392257,128.821684 L96.9663432,129.532649 L96.9791883,129.794809 L97.0762404,129.972906 L97.1390388,130.222243 L97.0691042,130.525721 L96.9178171,130.980225 L96.7251401,131.102756 L96.6723324,131.108456 L96.4254204,131.370615 L96.2384524,131.468925 L96.1128555,131.403385 L95.9972493,131.517367 L95.8902066,131.810872 L95.7289288,131.943376 L95.4092277,132.01604 L95.3164573,132.050235 L95.1223531,132.040262 L94.9682115,132.112925 L94.8554598,132.271076 L94.7170179,132.329492 L94.5557401,132.289598 L94.4230071,132.348014 L94.3188188,132.50189 L94.27172,132.670014 L94.2788561,132.849536 L94.1732406,132.973492 L93.9548734,133.039032 L93.8892205,133.128793 L93.9234742,133.255599 L93.8364127,133.353908 L93.4653311,133.455068 L93.2141374,133.63744 L93.0828316,133.896749 L92.9272628,134.060599 L92.6560878,134.161758 L92.3106965,134.426767 L92.2807245,134.589192 L92.4534202,134.740219 L92.5276365,134.874148 L92.5048007,134.99098 L92.38634,135.006653 L92.1708273,134.921166 L92.0252491,134.904069 L91.9467511,134.953936 L91.9224881,135.047971 L91.9496056,135.186175 L91.8939433,135.28021 L91.7526469,135.330078 L91.6770033,135.445485 L91.6670127,135.623582 L91.51858,135.848698 L91.2317054,136.120831 L91.030465,136.486999 L90.9162861,136.947203 L90.7450176,137.249256 L90.5138053,137.394584 L90.3725088,137.599752 L90.3225555,137.86761 L90.1227424,138.282221 L89.7730693,138.843584 L89.4348142,139.228275 L89.1065497,139.437718 L88.9438447,139.674231 L88.9466992,139.93639 L88.7654401,140.235594 L88.4000675,140.571842 L88.3058698,140.724294 L88.5028285,140.956533 L88.969535,141.017798 L89.4291053,141.026347 L89.4919037,140.967931 L89.6003737,140.58609 L89.8173137,140.477807 L90.0685074,140.449311 L90.355382,140.469258 L90.7022005,140.721444 L91.7041208,141.546392 L92.4362933,142.119153 L92.6760691,142.389861 L92.880164,142.59218 L93.0385873,142.780251 L93.0799772,143.270375 L93.1299305,143.485517 L93.1698931,143.546782 L93.314044,143.552481 L93.5167116,143.516862 L93.6751349,143.412853 L93.7836049,143.254702 L93.8949294,143.126472 L93.9905543,143.058083 L94.0105356,142.954074 L94.0533527,142.847215 L94.1147239,142.824419 L94.2531659,142.904207 L94.5957027,143.183463 L94.8697322,143.442773 L94.9539392,143.59095 L95.0695454,143.744827 L95.188006,143.878756 L95.2793492,144.009836 L95.5305429,144.180809 L95.7731731,144.290517 L95.9001972,144.179384 L96.3454951,144.534154 L97.2318092,144.831933 L97.4187772,145.01288 L97.6114542,145.267916 L97.9768269,145.655456 L98.4449606,146.004527 L98.7960608,146.151279 L99.1228981,146.235341 L99.3112933,146.31228 L99.4554443,146.446209 L99.6723843,146.590112 L99.8022628,146.642828 L99.8679157,146.772483 L100.044893,147.05459 L100.243279,147.410785 L100.447374,147.741334 L100.811319,148.059059 L101.199528,148.306971 L101.579173,148.446599 L101.811812,148.620423 L101.933127,148.799945 L101.749014,149.067803 L101.560619,149.405476 L101.386496,149.66906 L101.189537,149.854282 L101.138157,149.982512 L101.125311,150.180556 L101.343679,151.229194 L101.40505,151.619584 L101.443585,151.723593 L101.490684,151.793407 L101.660525,151.897416 L101.854629,151.984327 L101.930273,152 L102.906503,150.915743 L103.240476,150.484034 L103.454562,150.075123 L103.671502,149.240202 L103.847052,147.858165 L103.955522,147.489148 L104.118227,147.162873 L104.255242,146.994749 L104.1011,146.743988 L103.961231,146.360722 L103.906996,146.099987 L103.991203,145.497306 L104.18388,145.192403 L104.206716,144.847606 L104.203861,144.511358 L104.300913,144.36888 L104.810437,144.068252 L105.297125,143.62657 L105.382759,143.46272 L105.282852,143.224782 L105.315679,143.019614 L105.50122,142.811596 L105.452694,142.265905 L105.582572,142.354242 L105.699606,142.509543 L105.598272,142.002321 L105.641089,141.610507 L105.76954,141.433834 L105.825202,141.282807 L105.424149,140.902391 L105.332806,140.576117 L105.267153,140.239869 L105.411304,140.318231 L105.488375,140.513426 L105.682479,140.796957 L106.08496,140.955108 L106.184866,141.297055 L106.438914,141.314152 L107.136833,140.879595 L107.368045,140.932311 L107.447971,141.133205 L107.419426,141.519321 L107.339501,141.576312 L107.126842,141.439533 L107.049772,141.478002 L107.273848,142.359941 L107.116852,142.704737 L106.707235,142.991118 L106.698671,143.313118 L106.754334,143.461295 L106.708662,143.595225 L106.363271,143.553906 L106.234819,143.672163 L106.329017,144.140915 L106.326163,144.37173 L106.142049,144.806287 L105.721014,145.061323 L105.218627,145.749492 L104.90178,145.819306 L104.821855,145.930439 L104.703394,146.044421 L104.397966,145.877722 L104.223843,145.926164 L104.283787,146.189748 L104.366566,146.392067 L104.348012,146.662775 L104.459337,146.826625 L104.703394,146.430536 L104.977424,146.147005 L105.768113,145.520102 L106.467459,144.817686 L106.959856,144.113844 L107.318092,143.511163 L107.567859,142.972596 L108.174434,141.478002 L108.562643,139.497558 L109.116411,138.108398 L109.640207,137.195114 L110.161148,136.54684 L110.74917,135.998299 L111.298656,135.606485 L111.242994,135.18475 L111.464215,134.763015 L111.538432,134.436741 L111.554131,134.017856 L111.482769,133.221404 L111.264402,132.37081 L111.375727,131.780952 L111.264402,131.43473 L111.348609,131.219588 L111.278674,130.987349 L111.18305,130.779332 L111.046035,130.20657 L110.804832,129.649481 L110.770578,129.361676 L110.781996,129.063897 L110.754879,128.704852 L110.597882,128.519631 L110.435177,128.26602 L110.513676,128.133516 L110.607873,128.130666 L110.752024,127.982489 L110.773433,127.205984 L110.65069,127.013639 L110.469431,127.013639 L110.493694,126.915329 L110.813395,126.825568 L111.123106,126.128851 L111.027481,125.979249 L110.804832,125.886638 L110.286745,125.792603 L110.132603,125.400788 L110.398069,125.617355 L110.620718,125.651549 L110.860494,125.637302 L110.977528,125.511921 L110.859067,125.216992 L110.998936,125.093036 L111.364309,125.202744 L111.605512,125.214142 L111.484197,125.511921 L111.598376,125.55324 L112.020838,124.980478 L112.256332,124.763912 L112.27774,124.444761 L112.136444,124.436212 L112.043673,124.340752 L112.23635,124.22677 L112.339111,124.219646 L112.447581,124.077168 L113.041312,123.531477 L114.190238,122.615344 L114.845339,121.79752 L115.453342,121.397157 L117.160318,120.395537 L117.504282,120.294378 L117.995251,120.297227 L118.384887,120.424033 L118.557583,120.416909 L118.627517,120.277281 L118.633226,120.045041 L118.875856,119.771484 L119.169867,119.69597 L119.836387,119.077616 L120.60424,118.930864 L120.731264,118.871023 L120.854007,118.735669 L120.699865,118.591766 L120.548578,118.521952 L120.498625,118.204226 L120.60424,118.041801 L121.330704,117.880801 L121.937279,117.899323 L122.194182,117.688456 L122.683724,117.580173 L123.147576,117.75827 L123.234638,117.895049 L122.927782,118.010456 L122.629489,117.976261 L122.429676,118.0475 L122.648043,118.187129 L123.084778,118.075996 L123.638546,118.011881 L124.073853,117.858005 L124.472052,117.836633 L124.540559,117.669934 L124.482043,117.477588 L124.392127,117.320863 L124.367864,117.212579 L124.3907,117.062978 L124.589086,116.990314 L124.776054,116.984615 L124.845988,117.135641 L124.771772,117.387827 L124.840279,117.554527 L125.030102,117.682757 L125.195661,117.759695 L125.55247,117.779642 L126.226126,117.677058 L127.487804,117.677058 L127.710453,117.697005 L127.833195,117.372155 L127.945947,117.191208 L127.806077,117.024509 L127.750415,116.735278 L127.780387,116.531535 L128.464034,115.669543 L128.785162,115.4601 L130.011158,114.952879 L130.325151,114.682171 L130.339423,114.431409 L130.168154,113.448312 L130.159591,113.402719 L130.069675,113.113488 L130.25807,112.26147 L130.554936,111.606071 L130.632006,111.207133 L130.789002,111.016213 L131.134394,110.818168 L131.635354,110.137124 L131.813759,109.679769 L131.836594,109.25661 L132.080652,108.981627 L132.191976,108.225069 L132.52595,107.505555 L132.936994,107.210626 L133.088281,106.965564 L133.203887,106.590847 L133.249559,106.030909 L133.031192,104.657421 L132.988375,104.002022 L133.145371,102.769588 L133.539288,101.934667 L133.72911,101.712401 L134.08592,101.487286 L134.398485,101.025658 L134.338541,100.829038 L134.141582,99.7903735 L134.144436,99.3529662 L134.222934,98.9255323 L134.270033,98.035045 L134.387067,97.2100976 L134.605434,96.198504 L134.76243,95.1740874 L134.743876,95.1028484 L134.526936,94.2209098 L134.318559,93.2321127 L134.210089,92.2205191 L134.027403,91.3271823 L134.242916,89.3424642 L134.170127,89.2555526 L134.07022,89.5661546 L133.950332,89.3852076 L133.97745,89.2170836 L133.92036,88.4761981 L134.015985,88.1784192 L134.043103,88.0202686 L133.980304,87.9134102 L133.903233,87.8421712 L133.756228,87.9347819 L133.800472,87.5928347 L133.883252,87.2266664 L134.068793,86.9331617 L134.394203,86.5327987 L134.381358,86.1694798 L134.555481,85.7691168 L134.491255,85.5696476 L134.291442,85.3972493 L134.468419,85.3744528 L134.58688,85.2647447 L134.715331,84.868656 L134.822374,84.9341959 L135.200592,85.3089129 L135.303353,85.9272673 L135.448931,85.9600372 L135.575955,85.9571877 L136.009835,85.5696476 L136.587866,84.7646471 L136.743435,84.3970539 L137.439926,83.2030886 L137.992267,81.7825832 L138.132136,81.2853351 L138.043647,80.956211 L138.247742,80.5074054 L138.347649,80.3891487 L138.35764,80.5515736 L138.331949,80.6897772 L138.272005,80.8194322 L138.276287,80.9889809 L138.387612,80.9006446 L138.737285,80.3008124 L138.718731,79.921821 L138.880008,79.9745378 L138.96707,79.8790776 L139.373832,79.1339178 L139.829121,78.6608909 L140.191639,78.4001563 L140.806778,78.0824304 L140.843886,78.0639083 L141.303457,77.2403856 L141.758745,76.765934 L142.208325,76.0392963 L142.306804,75.8013581 L142.176925,75.5292252 L142.349621,75.6303846 L142.533735,75.5776677 L142.984742,75.0633223 L143.671242,74.0773747 L144.155076,73.1227723 L144.643191,71.4600545 L144.828732,70.4570096 L144.97431,70.0737438 L144.960037,69.756018 L144.833013,69.361354 L144.843004,69.1846813 L144.890103,69.0008847 L144.870121,68.8755041 L144.872976,68.6803093 L144.977164,68.2386276 Z M100.80561,38.7029449 L101.08963,38.5576174 L101.109612,38.4265377 L100.976879,37.9107674 L100.919789,37.8708736 L100.761366,37.8480771 L100.557271,37.952086 L100.501609,38.2683871 L100.64576,38.6459537 L100.80561,38.7029449 Z M101.459285,43.4716825 L101.778986,43.0599212 L101.788977,42.8305316 L101.727605,42.692328 L101.614854,42.7350714 L101.574891,42.7991865 L101.185255,42.860452 L101.098194,43.0798681 L101.096767,43.4788064 L101.153856,43.5799658 L101.459285,43.4716825 Z M100.688577,44.2795326 L100.954043,43.8976916 L100.925498,43.5087268 L100.90409,42.8718503 L100.842718,42.8433547 L100.775638,42.873275 L100.69714,42.9459388 L100.691431,43.3705231 L100.618642,43.6825499 L100.407411,43.9361607 L100.17049,44.07009 L100.131955,44.5488159 L100.638624,44.7468603 L100.688577,44.2795326 Z M101.529219,44.0017005 L101.12103,43.9846032 L100.916935,44.2937804 L100.932634,44.5844354 L101.083922,44.6314532 L101.569182,44.6172054 L101.881747,44.8152497 L102.121523,44.7953028 L102.341317,44.6998426 L102.740944,44.0358953 L102.625337,43.869196 L102.229993,43.7537889 L101.529219,44.0017005 Z M102.444078,44.8864887 L102.367007,45.020418 L102.708117,45.1785686 L103.453135,45.078834 L103.631539,44.897887 L103.654375,44.7183647 L103.575877,44.5402673 L103.286148,44.4562053 L103.007837,44.5231699 L102.698126,44.6741966 L102.444078,44.8864887 Z M99.020137,45.5589847 L99.2813214,45.7627282 L100.050602,45.1400995 L100.056311,45.0588871 L100.010639,44.9064356 L99.7337554,44.852294 L99.5182427,44.8822144 L99.0872171,45.0574623 L99.0015829,45.2697545 L99.0101464,45.3210465 L98.9673293,45.440728 L99.020137,45.5589847 Z M103.197659,45.4649493 L102.933621,45.4507015 L101.189537,45.091657 L100.58867,45.2227367 L100.072011,45.5903299 L99.9364231,45.8809849 L99.8764791,46.2172329 L99.9121601,46.4024543 L99.8650612,46.5777022 L99.7223376,46.7743218 L99.6952201,46.915375 L99.6566847,47.6035436 L99.6952201,47.9355172 L99.9050239,48.1492342 L100.233288,48.1335616 L100.27896,48.2304466 L100.268969,48.3458538 L100.226152,48.3714998 L100.022057,48.3173582 L99.8493616,48.3059599 L99.7680091,48.6664292 L99.8721974,49.0838896 L100.019203,49.5426687 L100.181908,49.9302088 L100.226152,50.1211293 L100.4959,50.40751 L100.677159,50.4488286 L100.97117,50.3063506 L101.614854,50.2807046 L101.736169,50.1410762 L101.893165,50.155324 L102.172903,50.3291471 L102.472623,50.4160586 L102.629619,50.3049258 L102.905076,50.2493594 L103.080626,50.168147 L103.253322,49.9074123 L103.303275,49.5298457 L103.585868,49.6694741 L103.761418,49.7948547 L104.072556,49.8091025 L104.153908,49.6794476 L104.216706,49.4443589 L104.239542,49.2149694 L104.4836,49.508474 L104.620614,49.5369696 L104.76762,49.5070492 L104.92747,49.4358102 L105.192936,49.1423056 L105.274289,48.9414117 L105.202927,48.7818364 L105.171528,48.622261 L105.30997,48.454137 L105.481238,48.3216325 L105.548318,48.2418449 L105.772395,47.8600039 L105.9194,47.562225 L105.979344,47.4168974 L106.006461,47.2687203 L105.927963,46.8982776 L106.050706,46.9210741 L106.122068,46.8370121 L106.214838,46.4224012 L106.314745,46.126047 L106.450332,45.8439407 L106.413224,45.667268 L106.267646,45.5860555 L106.067833,45.511967 L105.863738,45.4592502 L105.304261,45.4079581 L104.373703,45.2426836 L104.098246,45.2270111 L103.818507,45.2555067 L103.570168,45.4051085 L103.197659,45.4649493 Z M96.4568196,49.3417748 L96.7536849,49.281934 L97.3003166,48.9898542 L97.7812954,48.5738185 L98.2123209,47.9782606 L98.3079458,47.9711367 L98.6262196,46.8427112 L98.3621808,46.4437729 L97.8826292,46.5221358 L97.5415196,46.7885696 L97.1732925,47.4411187 L97.1732925,48.176305 L96.8336101,48.5467477 L96.4568196,49.3417748 Z M116.13128,49.0667923 L116.309684,48.9129161 L116.293985,48.7832611 L116.039937,48.751916 L115.994265,49.0069515 L115.950021,48.9984029 L115.92433,49.0867392 L116.072763,49.1451552 L116.13128,49.0667923 Z M117.455756,54.0706185 L117.495718,53.6645563 L117.481446,53.5947421 L117.494291,53.3639278 L117.437202,53.3924234 L117.251661,53.5790695 L117.218834,53.7714148 L117.268788,54.0207512 L117.184581,54.3826453 L117.455756,54.0706185 Z M134.819519,85.68363 L134.786693,85.9856833 L134.514091,86.239294 L134.535499,86.4416128 L134.641115,86.3732233 L135.023614,86.0412497 L135.022187,85.9771346 L134.975088,85.8232584 L134.819519,85.68363 Z M133.958896,87.3862417 L133.92036,87.4817019 L134.007422,87.604233 L134.058802,87.7296136 L134.170127,87.7581092 L134.255761,87.5700383 L134.234352,87.3406487 L134.030257,87.3321001 L133.958896,87.3862417 Z M121.847364,118.225598 L121.758875,118.128713 L121.694649,118.100217 L121.620433,118.234146 L121.400638,118.412244 L121.521953,118.540474 L121.790274,118.472085 L121.960115,118.395147 L122.119966,118.403695 L122.025768,118.315359 L121.847364,118.225598 Z M119.068533,120.255909 L118.978617,120.178971 L118.621808,120.713263 L118.740269,120.838644 L119.035707,120.774529 L119.158449,120.858591 L119.144177,120.693316 L119.159876,120.577909 L119.198412,120.489573 L119.141322,120.354219 L119.068533,120.255909 Z M110.890466,128.729074 L110.936138,128.68918 L110.971819,128.62079 L111.046035,128.408498 L111.10027,128.10787 L110.96611,127.953993 L110.669244,128.332985 L110.890466,128.729074 Z M111.695428,131.98327 L111.611221,132.171341 L111.544141,132.424952 L111.615502,133.180085 L111.782489,133.036183 L111.726827,132.845262 L111.902377,132.397881 L111.938058,132.031713 L111.815316,131.866438 L111.695428,131.98327 L111.695428,131.98327 Z" id="Fill-431" fill="#000000"></path>
    </g>
</svg>