<svg width="160" height="160" viewBox="0 0 160 160" xmlns="http://www.w3.org/2000/svg"><title>myanmar</title><desc>Created with Sketch.</desc><path d="M86 17v1h-1v1h-1v3-1 1h-2v1h-1v1h1v1h1v2h-2v-2h-3v1h-1v1h-2v1h-1v2h-2v1h-1v2h1-1 1v1h-1v3h-2v6h-1v2h-1v1h-1v3h-1v-1h-3v-1 7h-2v7h-1v-1h-1v1h-1v5h-1v-1h-1v3h1v3h1v2h2v3h2v-1h-1 2v3h1-1v2h1v2h2v2-2 1h1v2h1v2h1v10h-1v1h-1v4h2v1-1h1v1h1v1h1v1h1v-1h-1v-1h1v1h2v-1h1v-2h2v-1h1v-1h2v-1h1v-2h1v-2h-1 1v-1h1v4h1v2h1v1h-1 2v5h1-1v1h1-1v2h1-1 1v4h1v2h1v1h-1v1h1v1h-1 1v2-1h1v3h1v2h1v1h-1 1v1h-1v1-2h-1v1h-1v1h1v1h-1v-1h-2v2h1v1h-1 1v-1h2v-1h-1 1v3-1h-1v6h1v-4 1h1v1h-1 1v-2h1v4h-2v4h1v2h-1 1v1h-1v1h1v-1h1v-3h1-1v-1h1v-2h2v-2h1v-2h1v-2h1-1v-2h-1v-4h-1v-8h-1v-1h-1v-1h-1v-1h-1v-1h-1v-2h-1v-3h1v-1 1-1h1v-3h1-1v-1h1-1 1v-1h1v-2h-1v1-2h-1v-1h-1 1v-1h-1v-2h-1v-2h-1v-1h-1v-1h-1v-2h1-1v-2 1h-1v-2h-1 2v-1h1v-2h-1 1v-4h1v-2h1v1h3v-1h2v-2h3v-1h-1v-1h1v1h1v-1h3v-3h2-1v-1h1v-1h1v-1h1v-1h1v-2h-1v1h-2v1h-1v-1h-1v1-1h-1 1-1v-1h-1v-2h-2v-1h-1v1-1h-1v-2h1v-3h1v-1h-4v-5h-1v-1h1v-1h-5v1h-1v1h-1v-2h1v-1h-1v-4h1v-1h-1v-1h1v-1 1h1v-1h1v-2h1v-1h2v-2h-1v-1h1V23v1h-1v-1h-1v1-1h-1v-4h-1v-1h-2v-1 1-1z" fill="#68A8FB"/></svg>