<?xml version="1.0" encoding="UTF-8"?>
<svg width="160px" height="160px" viewBox="0 0 160 160" version="1.1" xmlns="http://www.w3.org/2000/svg" xmlns:xlink="http://www.w3.org/1999/xlink">
    <!-- Generator: Sketch 53 (72520) - https://sketchapp.com -->
    <title>nigeria</title>
    <desc>Created with Sketch.</desc>
    <g id="nigeria" stroke="none" stroke-width="1" fill="none" fill-rule="evenodd">
        <path d="M120.948196,57.1016902 L120.723715,56.6551966 L120.682272,56.5597628 L120.260936,55.9803436 L119.559862,55.6326921 L118.596316,55.5372584 L118.085188,55.3293491 L117.998849,54.8487721 L117.898695,54.2625362 L117.82617,53.5876833 L117.166539,50.0430012 L116.272064,48.6762536 L115.12548,46.917546 L114.061781,45.2815389 L112.849578,45.301989 L112.151957,45.537165 L111.274751,46.2835932 L110.293937,46.5767112 L109.102456,47.2242973 L108.349578,47.7491829 L107.638143,48.1581847 L106.660783,49.1636474 L106.346508,49.9271174 L105.372602,50.080493 L104.011896,49.9543842 L103.148503,49.1840975 L101.14198,48.376319 L99.8399847,48.0525259 L99.2390637,47.9502755 L96.1792018,47.8139415 L92.9155794,48.1309179 L91.2509593,48.5024279 L90.9470453,48.5876366 L90.0007675,49.0750303 L89.2202609,49.6135494 L87.0963162,52.0811934 L84.295472,51.999393 L82.6481197,51.7267252 L81.2494244,51.3415818 L79.2601688,50.1861518 L76.8254029,48.4274442 L75.8825787,48.1854515 L75.0364543,48.0491176 L74.7567153,48.0695677 L71.8384497,49.8248669 L71.275518,49.7873751 L70.5882579,49.9850593 L70.1323868,50.4213279 L69.8008442,50.6394621 L69.4485802,50.676954 L68.9927091,50.5781119 L68.5437452,50.3122607 L68.0947813,49.8214586 L66.9033001,47.8718835 L66.6580967,47.5276403 L66.1469685,46.9482211 L65.2904835,46.0484172 L64.7068304,45.6291904 L64.3511128,45.5201233 L63.9263239,45.5916986 L61.5917114,44.8180035 L59.2605526,44 L58.7459708,44.1056588 L58.376439,44.2760762 L57.5648503,44.8793538 L56.6116654,44.9918293 L55.4029163,44.9441124 L54.7398312,44.8623121 L53.6657713,45.0634046 L52.9543361,45.301989 L52.018419,45.7143991 L50.7993093,46.8289289 L50.4504988,46.9754879 L50.1569455,47.1595387 L49.728703,50.2202353 L49.3937068,51.137081 L48.7720645,52.3538612 L47.5564083,53.5161079 L46.7206447,54.2182277 L46.6964697,55.1657484 L46.6204912,56.7165468 L46.5997698,57.7799514 L46.6515733,58.4752545 L46.509977,58.8058642 L46.4512663,59.1057989 L46.4927091,59.5591092 L46.686109,59.7738351 L46.8035303,60.056728 L46.7240982,60.2884957 L46.3303914,60.5611635 L46.0471988,61.0485573 L45.6120491,62.0574283 L45.5878741,62.8481651 L46.5997698,64.511439 L46.7171911,64.6818564 L46.9796623,64.9408908 L47.1212586,65.2510505 L47.2352264,66.0724624 L47.3042978,66.9961248 L47.3802763,67.6164441 L47.870683,68.4923896 L47.8983116,68.8434494 L47.5495012,70.1488468 L47.4666155,70.288589 L47.3768227,70.3260809 L46.8449731,70.210197 L46.6170376,70.3533477 L46.3269378,70.7964329 L46.1473523,71.2395182 L46.1369916,71.423569 L46.6032233,72.2449809 L46.2993093,73.431086 L45.9919417,74.1706975 L45.4428243,74.5899244 L44.9524175,74.6921748 L44.6105142,74.889859 L44.4102072,75.1488935 L44.4343822,75.9975721 L43.7125863,76.7678588 L43.3119724,77.3097862 L43.115119,77.6369876 L43.1910975,78.6322252 L42.9320798,79.6410963 L42.4831159,80.4352414 L41.4850345,80.6056588 L40.6492709,80.7045009 L40.352264,82.7256513 L40.3557176,84.0071902 L40.2762855,85.3194042 L40.1346892,85.8511065 L40.1864927,86.6043515 L40.1174213,88.3017088 L40,89.6411897 L40.1450499,89.9990662 L40.2279355,90.7863946 L40.2141213,91.5975815 L40.4282425,92.1633673 L40.6561781,92.6609861 L40.6492709,92.9132038 L40.5249424,93.0733962 L40.4178818,93.2813054 L40.4109747,95.1967971 L40.4489639,95.7693996 L40.3867997,96.1375012 L40.2072141,96.4374358 L40.2728319,97.408815 L40.4144282,98.025726 L40.5594781,98.4790363 L40.4144282,98.8607713 L40.2900998,99.3617985 L40.0966999,100.639929 L40.0863392,101.086423 L40.5353031,101.035297 L44.3618573,100.875105 L45.0076746,99.9003175 L45.5049885,99.8526006 L46.9589409,99.3447567 L47.1972371,99.4538239 L45.7950883,100.261602 L45.4117421,100.414978 L45.1458173,100.646746 L45.3875672,100.78308 L49.7356101,100.766038 L51.8077513,101.243207 L53.1788181,102.241853 L54.7225633,103.693809 L55.9485802,105.435475 L56.2939371,105.667243 L56.3837299,105.963769 L56.4217191,106.62158 L56.8326938,106.918106 L57.5372218,106.62158 L57.7375288,106.219395 L57.8860322,106.120553 L57.8687644,106.573863 L58.0414428,106.761322 L58.5007675,106.751097 L58.7632387,106.849939 L58.3349962,107.132832 L57.623561,107.108974 L57.1227936,107.153282 L57.0122794,107.442992 L57.2367613,107.821319 L58.2762855,108.448455 L59.3917882,107.896302 L59.2709133,108.260995 L59.0602456,108.62228 L58.6389102,108.724531 L58.1554106,108.93244 L58.127782,109.528901 L58.1657713,110.019703 L58.2900998,110.179895 L58.8841136,110.333271 L58.7217959,110.54118 L58.3902533,110.421888 L58.2555641,110.52073 L58.6941673,111.914745 L58.9980814,112.72934 L59.4056025,113.53371 L59.6369916,114.188113 L61.066769,115.643477 L61.8023791,116.161546 L62.2375288,116.536465 L62.9558711,116.901158 L63.6155027,117 L63.8330775,116.887525 L63.8986953,116.178588 L64.2820414,115.82412 L64.30967,116.284247 L64.1784344,116.56714 L64.2302379,116.758007 L64.4754413,116.798907 L65.5805833,116.577365 L65.8396009,116.584182 L66.2091328,116.512606 L66.3852648,115.490102 L66.5303147,115.646886 L66.6373753,116.253572 L66.7444359,116.522831 L67.303914,116.50579 L67.5871067,116.498973 L68.2916347,116.270614 L67.8357636,115.541227 L67.8288565,114.603931 L67.7874137,114.150621 L67.6665388,113.598469 L67.8012279,113.598469 L68.0533384,114.201746 L68.1500384,115.128817 L68.3434382,115.755953 L68.7198772,116.137688 L69.3311589,116.086563 L70.2947045,115.196984 L70.3603223,114.426697 L69.8353799,113.891587 L69.7663085,113.663227 L70.2221796,113.90522 L70.6504221,114.453964 L71.1788181,114.944766 L72.3702993,114.886824 L72.708749,114.583481 L72.7640061,114.201746 L72.8537989,114.126763 L73.0920952,114.842516 L73.6273983,115.115183 L74.6910975,115.135634 L76.2417498,114.886824 L78.0410591,114.869782 L78.2793553,114.119946 L77.6404451,112.207863 L77.7682272,112.081754 L78.3760553,112.834999 L78.7248657,112.920207 L78.9838833,113.434868 L79.5502686,113.598469 L79.747122,113.346251 L79.8300077,113.366701 L80.0303147,112.773648 L80.4067536,112.057895 L80.9178818,111.147866 L81.5015349,109.999253 L81.8986953,107.974694 L82.1680737,106.713605 L82.4167306,105.561584 L82.838066,104.522038 L83.2697621,103.826735 L84.4854183,102.480437 L85.400614,101.464749 L85.8668457,101.055748 L86.1949348,100.711504 L86.7647736,100.316136 L87.3484267,99.8491923 L87.7939371,98.9493884 L88.1634689,98.1109347 L88.443208,97.9302923 L88.8058327,97.7837333 L89.9247889,96.8873378 L90.6362241,96.3147353 L90.8019954,96.5976282 L90.9228703,96.9520964 L91.0575595,97.1122887 L91.6515733,97.2247642 L92.4700691,97.2179475 L92.9397544,97.1156971 L93.1884114,96.8157624 L93.4405219,96.0011672 L93.5890253,95.8477916 L93.7789716,95.8068914 L94.6734459,96.3760855 L95.4125096,97.1872724 L96.1446662,97.9882342 L96.514198,98.2711271 L96.6765157,98.5846951 L96.9976976,100.050285 L97.1807368,100.41157 L97.4984651,100.564945 L98.0683039,100.466103 L98.6623177,100.207069 L99.1872602,99.8321505 L99.7018419,99.3515734 L100.050652,98.9118965 L100.206063,98.5915118 L100.282041,97.3917733 L100.396009,97.1327388 L100.924405,96.6555701 L101.801612,95.861425 L102.309286,95.401298 L102.26439,95.2376973 L101.950115,94.7503035 L101.670376,94.2151928 L101.953569,93.6630404 L102.247122,93.2369969 L103.355718,91.8020824 L103.359171,91.328322 L103.417882,90.7523111 L104.305449,89.116304 L104.813124,86.9485946 L104.830391,86.5327762 L105.358787,85.4864133 L105.98043,84.1503408 L107.19954,83.9322066 L107.665771,83.5981884 L108.204528,83.0085442 L108.549885,82.4563918 L108.715656,81.9349146 L108.836531,80.9226352 L109.047199,79.7740219 L109.178434,78.7617425 L109.544513,77.8278551 L110.152341,77.357503 L111.212586,76.965543 L111.367997,76.7814922 L111.519954,76.1645812 L111.637375,74.879634 L111.668457,74.1025306 L111.7099,73.7685125 L111.844589,73.1890933 L112.825403,72.1597722 L113.253645,70.5476235 L113.636992,68.8604912 L114.745587,66.822299 L116.044129,64.7909235 L116.648503,64.2455878 L117.156178,63.9933701 L117.743285,63.9661033 L118.143899,63.816136 L119.542594,62.8038566 L120.129701,62.4630218 L120.557943,62.1119619 L120.66155,61.8052106 L120.702993,61.358717 L120.56485,60.3123541 L120.803147,59.5454758 L120.941289,58.3525539 L121,57.4220749 L120.948196,57.1016902 Z M70.7885649,115.098142 L70.1980046,116.103604 L70.6297007,116.161546 L71.2893323,115.929779 L71.4723715,115.404893 L71.0890253,115.316276 L70.7885649,115.098142 L70.7885649,115.098142 Z" id="Fill-175" fill="#68A8FB" fill-rule="nonzero"></path>
    </g>
</svg>