<?xml version="1.0" encoding="UTF-8"?>
<svg width="160px" height="160px" viewBox="0 0 160 160" version="1.1" xmlns="http://www.w3.org/2000/svg" xmlns:xlink="http://www.w3.org/1999/xlink">
    <!-- Generator: Sketch 53 (72520) - https://sketchapp.com -->
    <title>pakistan</title>
    <desc>Created with Sketch.</desc>
    <g id="pakistan" stroke="none" stroke-width="1" fill="none" fill-rule="evenodd">
        <polyline id="Fill-161" fill="#68A8FB" fill-rule="nonzero" points="122.626429 48.3756475 122.412961 48.0411705 121.980093 47.3692566 121.597628 46.7713421 121.010589 45.8567104 120.625159 45.2528759 120.382042 45.1403969 119.780178 44.8 119.338416 44.5069627 119.098263 43.7403296 118.840322 43.7995291 118.265142 44.0748066 117.568403 44.252405 117.162219 44.255365 116.969504 44.1310461 116.545532 43.3229734 116.317238 43.0950555 115.964422 43.0032963 115.573062 42.8612176 115.344769 42.6510595 115.246929 42.384662 115.335875 42.0797847 115.472258 41.8429869 115.178738 40.4073999 114.94155 39.8982846 114.739941 39.4690885 114.354511 38.9362933 114.034307 38.6077363 113.592546 38.3028591 112.946209 37.9861419 112.406607 37.867743 111.840322 38.0986209 111.620923 38.0098217 111.137654 37.0300706 110.92715 36.8287925 109.732317 36.4262361 109.213469 36.334477 108.667937 36.4617558 108.365523 36.5683148 108.063109 36.3877565 107.600593 36.1627985 107.161796 36.0059199 106.660737 36 106.358323 36.0976791 105.812791 36.3581567 104.653537 36.9412714 103.90936 37.4207871 103.710716 37.4385469 103.15036 37.2372688 102.337992 36.9975109 102.136383 37.0034309 100.390089 37.0448705 98.8009318 37.1336697 98.1545955 37.2461487 96.9330792 37.3586276 96.1562897 37.3941473 95.6967387 37.5806256 95.2016095 37.8233434 94.6679373 37.983182 94.2558238 38.0335015 93.7962728 38.2614194 93.5590851 38.7142953 92.7467175 39.3862092 92.2753071 39.7088463 92.0825921 40.072923 91.7801779 40.1084427 91.240576 40.0433232 90.914443 40.4399596 90.5823803 41.0082745 89.9301144 41.828187 89.5624735 42.159704 89.4112664 42.6984191 89.6603134 42.9766566 90.4222787 43.3940128 90.8017789 43.7876892 91.0330368 44.0984864 91.5074121 44.8976791 91.8631936 45.685032 92.2249047 46.0254289 92.4265142 46.6026236 92.5747565 46.9578204 92.468022 47.2094181 92.3790767 47.4906155 92.4324439 47.7570131 92.6637018 48.0293306 92.8682762 48.2720484 92.9927997 48.4644467 92.9305379 48.6805247 92.6903854 49.0120417 92.6014401 49.3465187 92.373147 49.9118735 91.9165608 50.2937101 91.6200762 50.5749075 91.3621347 51.1609822 90.8699704 51.8151362 90.7157984 52.3627312 90.5023295 52.6616885 90.2562474 52.8244871 90.3867006 53.1175244 90.703939 53.484561 91.1872088 53.8959973 91.2939432 54.5353515 91.3680644 54.9941473 91.489623 55.5535822 91.3591698 56.021258 90.3244388 56.4711739 89.2867429 56.6665321 87.9703515 56.681332 87.4574333 56.6102926 87.0393901 56.5096535 85.5095299 56.0064581 84.9847522 56.3024554 85.0055061 57.0306088 86.27446 58.2086781 86.8288861 58.8657921 87.5108005 59.9669021 87.9762812 60.532257 87.9466328 61.0620922 87.1105464 61.6629667 86.2714951 62.2283216 85.0914867 62.3467205 84.3739941 62.5479987 84.0597205 62.838076 84.0182126 64.0753448 83.8314274 64.5282207 83.9322321 65.0639758 83.7869547 65.6737302 83.4726811 66.0674067 83.3155443 66.7067608 83.6149936 67.9203498 84.1041931 69.9804911 83.703939 70.6287252 83.2384583 71.2858392 82.707751 71.753515 82.1622194 71.972553 81.6641254 71.8896737 81.210504 71.4871174 80.9258789 71.1467205 80.4574333 70.8596031 80.0364252 70.9188026 79.6480305 71.1792802 78.9453621 71.093441 78.3108852 70.8329633 78.0203304 70.8596031 77.892842 71.1230407 77.356205 71.6824756 75.9508683 72.5379078 75.3312156 72.6000673 75.094028 72.8131853 75.2600593 73.1624622 75.5861923 73.4466196 76.1020754 73.6478977 76.1643371 73.8817356 75.7729776 74.0859738 75.4468446 74.3168517 74.690809 74.6010091 73.7835663 74.7105281 72.7962728 74.5447696 72.2418467 74.168853 71.6577721 74.1333333 71.1745023 74.4086108 70.7001271 74.8644467 70.2583651 75.8412378 70.1249471 76.0129162 69.9885642 76.1668348 69.6327827 76.3769929 69.1257942 76.7203498 68.956798 77.4396233 68.8233799 78.7212916 69.0072003 79.4139253 69.2177044 80.6097545 69.2117747 81.4503868 69.051673 82.0009418 69.167302 82.4360579 69.6120288 82.9303734 69.5112241 83.2500505 69.2532825 83.6082072 68.9775519 83.8065254 67.8212622 84.179482 66.2380347 84.6915573 65.1884795 85.0201144 63.6260059 85.5055499 63.16349 85.6269088 62.1791614 85.6713084 61.6514189 85.5943491 60.9546802 85.5765893 59.9318086 85.5943491 59.2350699 85.724588 58.5501906 85.9732257 58.0669208 86.2810629 57.8030496 86.5829802 57.7141042 86.7309788 56.9610335 86.4793811 54.630665 86.0324252 48.5764507 86.6214598 47.9834816 86.5089808 45.7954257 85.8163471 42.9817874 84.9253952 41.2384583 84.3748402 39 83.6555668 40.2452351 84.9401951 42.0952986 86.8582577 42.2494706 87.1276152 42.2969081 87.5686512 43.4798814 89.2765557 43.9335028 90.1675076 44.3041084 90.6914228 45.1698433 91.5083754 46.0118594 92.3105281 46.8657349 92.6775647 47.4260906 92.757484 48.7335875 93.1807602 49.2316815 93.5152371 50.0766624 94.3647494 50.9246082 94.2493105 51.1054638 94.2493105 51.1617958 94.3114699 51.2210928 94.5837874 51.2566709 95.9068954 51.6598899 97.2388833 52.0690385 99.2427851 52.0482846 99.5920619 51.9089369 100.172217 51.9415502 100.545173 51.9148666 100.773091 51.983058 100.87669 52.2765777 101.012849 52.8725116 101.086848 54.265989 100.86189 54.4409149 100.91813 54.8085557 101.154928 55.1080051 101.527884 55.1495129 101.705483 54.8293096 102.01628 54.8293096 102.543155 55.0279543 103.327548 54.9894113 103.425227 54.6958916 103.602825 54.7225752 104.742415 54.6751377 104.846014 54.3223211 104.961453 52.5760271 104.884494 52.3833122 104.917053 51.7636595 105.218971 50.6696315 105.432089 50.3761118 105.556408 49.9995765 105.896805 49.7475646 106.317121 49.7327404 106.701917 49.682338 106.781837 49.0330368 106.704877 48.858111 107.039354 47.669208 107.53959 47.5239305 107.649109 47.3845828 108.051665 47.3371453 109.170535 47.2897078 110.179886 47.2126218 110.327884 46.8538755 110.671241 46.8271919 110.78964 46.9220669 111.180357 46.8153325 111.89075 46.8716645 113.865052 46.7708598 114.421527 46.6611605 114.525126 47.6988564 114.844803 48.6357476 114.889203 49.6526895 114.732324 49.9758577 114.391927 50.2278695 114.270568 50.5332486 114.454087 50.9512918 114.865523 51.3722999 114.750084 51.6480305 114.454087 52.3358746 114.07521 52.8547226 114.007131 54.8708175 114.273528 55.7335875 114.07225 56.4095722 114.252809 57.5895807 114.365288 57.5569674 113.791053 57.8653113 113.424016 58.7755188 113.207938 60.0266836 113.492096 60.3142736 113.435856 60.6878441 113.092499 61.0821686 113.284897 61.2630241 113.554255 63.5578145 114.193609 63.8631936 114.394887 64.2486235 114.539926 64.832698 113.725933 66.4485388 113.702254 68.3638289 113.281937 69.9322321 113.409216 71.047014 112.98298 73.0097416 112.686983 73.540449 112.678103 73.9792461 112.802422 74.3468869 112.814262 73.9762812 112.550824 73.6709022 112.402825 72.4019483 112.497545 72.5324015 112.094988 72.8288861 111.85819 73.4188903 111.778271 74.0326133 111.95291 74.6967387 112.553784 74.978399 113.255298 75.8174502 114.261689 75.9627277 115.022402 75.9330792 116.230071 76.0991105 116.677027 78.41169 117.132862 78.8386277 117.37262 79.7695892 119.938917 79.9296908 120.631551 80.0186362 121.214665 80.3922067 121.76226 80.7628124 121.939859 80.9288437 122.105617 81.0741211 122.247696 81.2786955 122.765691 81.6552308 123.150488 82.1029225 122.89889 82.1592546 123.245207 82.304532 123.618163 83.1524778 123.505684 83.3362982 123.011369 83.9025837 123.502725 84.1931385 123.517524 84.3799238 123.372486 84.5756036 123.570804 84.8898772 124 85.0529437 123.709923 85.1063109 123.313286 85.4709869 123.026169 85.7289284 122.84561 86.2774248 122.694652 86.8792884 122.585133 87.4366794 122.591053 88.2223634 122.602893 88.0415078 120.613791 88.0889454 120.439152 88.1897501 120.338513 88.3113088 120.294114 88.421008 120.326673 88.613723 120.625631 88.8123676 120.607871 89.0080474 120.436192 89.4972469 120.563471 89.8708175 120.477632 90.2710716 120.593071 90.9292673 120.596031 92.1122406 120.548671 92.7734011 120.563471 93.2329521 120.880188 93.7369759 121.229465 94.2498941 121.276825 94.9792461 121.235385 95.4625159 121.102186 95.6789496 120.779549 95.8331216 120.468752 96.8737823 120.012916 97.9737399 119.64588 98.2969081 119.60444 98.4243964 119.820518 98.4095722 120.181635 98.5815332 120.524992 99.0618382 120.74107 99.390936 120.797309 99.6755612 120.74699 99.8801355 120.637471 100.283355 120.095795 100.508683 119.974437 100.822956 119.983317 101.14316 119.725799 101.128335 119.527481 100.897078 119.432762 100.677679 119.148604 100.686573 118.914766 100.594663 118.589169 100.597628 118.278372 100.722152 118.047494 100.956374 117.822536 100.748835 117.36078 100.253706 116.475748 99.7081745 115.342079 99.1596781 114.397847 98.5074121 113.569055 98.1486658 112.96226 98.0182126 111.618433 97.935197 111.346115 97.7246929 111.183317 97.4578568 111.088597 97.1109699 111.224756 96.7907666 111.251396 96.0851334 111.224756 95.7263871 111.085637 94.6293943 109.73885 94.4426091 109.209014 94.3714528 108.667339 94.5671326 107.723108 94.5523083 106.846956 94.4930114 106.027043 94.4099958 105.793206 94.1876324 105.517928 93.84964 105.31665 93.004659 105.26633 91.9758577 104.996973 91.1486658 104.520417 90.5823803 104.2333 90.4104193 104.043861 90.3185091 103.824823 90.3303685 102.833232 90.4252435 101.717323 90.5556967 101.373966 90.8136383 101.021729 91.0063532 100.781971 91.3235917 100.462294 92.1507836 99.3996636 92.8178738 97.9374369 93.2121982 96.9162462 93.4493859 96.614329 93.6984329 96.3538513 94.0720034 96.0400942 94.5137654 95.7529768 94.9940703 95.7677767 95.4862346 96.0252943 95.8686997 96.3331315 96.0762389 97.0080054 96.3786531 97.4460814 96.6721728 97.709519 97.0338839 97.8397578 97.4637865 97.8071981 99.1063109 97.0316852 99.678526 96.8748066 101.092757 96.7800875 102.032613 96.4811302 102.853875 96.167373 102.877594 95.6049781 103.085133 94.7465859 103.939009 93.6306761 104.152478 93.1334006 104.315544 92.1832492 104.511224 91.3130172 104.739517 90.9548604 106.189327 90.0017491 107.615417 89.125597 107.808132 88.7289606 108.52859 86.9144971 108.905125 85.6861083 108.991105 85.2894719 109.148242 84.2179617 109.332063 83.1553313 109.773825 82.9096535 110.772978 82.5041372 111.552732 82.1075008 111.911478 81.6575849 112.104193 81.2609485 111.988564 80.8702321 111.671326 80.4055163 111.674291 80.1302388 111.671326 79.8579213 112.187209 79.3044063 113.052944 77.6616213 113.598475 76.8446687 113.829733 76.8446687 114.473105 76.4095526 115.072003 75.9152371 114.991953 75.6902792 114.852605 75.4002018 114.434562 75.269963 114.247776 74.9236461 114.250741 74.4234107 114.330792 73.0825429 114.191444 72.6977464 113.556967 71.4545577 113.580686 71.1112008 113.681491 70.758964 114.037272 70.2883283 114.541296 69.9005718 116.216434 68.9741002 116.56925 68.8734612 117.168149 68.6396233 117.464634 68.1453078 117.43202 67.7249916 117.209657 67.464514 116.756036 67.1122772 115.970352 66.79556 115.267683 66.5202825 114.167726 66.5469223 113.548073 66.3101245 113.358323 66.144366 113.162643 65.5612513 113.079627 64.5696603 112.889877 64.4838211 112.667514 64.59926 112.062685 64.4838211 111.348158 64.4986209 111.022025 64.2233434 111.090216 63.8888665 110.962728 63.4478305 110.772978 63.0245543 110.645489 62.9387151 110.283778 62.838076 109.67895 62.4739993 109.160102 62.0240834 108.848793 61.7192062 108.730199 61.5090481 108.727234 61.3699294 108.958492 60.9792129 109.222363 60.4316179 109.266836 59.9609822 109.237188 59.6205853 109.083016 59.3660276 108.679797 59.0581904 108.261753 58.7888328 108.066074 58.554995 107.988988 58.1997982 108.036425 57.7558022 108.395172 57.4213253 109.088945 57.1046081 109.204574 56.7079717 109.121559 56.4149344 108.893266 56.3290952 108.359593 56.3261352 107.440491 56.2254961 107.253706 56.0656576 107.108429 55.8495795 107.063956 55.6335015 107.203304 55.3907837 107.369335 55.0799865 107.265565 54.7780693 106.933503 54.4376724 106.245659 54.1890346 106.088522 53.8367978 106.1241 53.5437605 106.248623 53.1234443 106.370182 52.833367 106.628124 52.0045745 107.114358 51.8210562 107.698433 51.5546586 108.344769 51.2557013 109.480305 51.4806593 110.034731 51.5872183 111.161372 51.841776 112.107158 52.054894 113.041084 52.1140935 113.41762 52.0992936 113.89496 52.3508914 115.027531 52.7830474 115.919949 53.0080054 116.492164 53.0050454 117.25413 52.6232089 117.601017 52.276892 118.084286 51.8950555 118.813638 51.9098554 120.254553 51.3178607 120.571792 51.4214598 121.043202 51.4540195 121.532402 51.1136226 121.734011 50.7081063 121.736976 50.5068281 121.84371 50.3558695 122.386277 50.0983518 122.911055 49.7431551 122.970352 49.2725193 123 48.9528422 122.626429 48.3756475"></polyline>
    </g>
</svg>