<svg width="160" height="160" viewBox="0 0 160 160" xmlns="http://www.w3.org/2000/svg"><title>south-africa</title><desc>Created with Sketch.</desc><path d="M108.233 39l-1.605.302-.073.006-1.31.125-.666.425-.397.755-.61.558-.813.353-.86.244-.902.134-.975.65-1.047 1.168-.538.735-.032.303-.234.26-.44.222-.252.268-.066.308-.234.15-.408-.014-.292.23-.174.465-.367.282-.557.1-.49.263-.412.428-.315.218-.217.006-.35.345-.57.826-.1.378-.84 3.1-.425.366-.813.64-.668.764-.29.453-.31.198-1.49.38-.55.197-.675.293-.177.265-.19.953-.495 1.372-.405 1.015-.264.878-.448 1.096-.38.365-.42.337-.545.163-.738.104-.67-.03-.52.018-.73.383-.67.028-1.058-.22-.86-.216-.38-.047-.747-.715-.49.015-.745-.056-.417-.166-.382-.367-.827-.72-.814-.58-.726-.342-.683-.163-.65.143-.513.157-.197.075-.4.297-.412.57-.356.892-.137.546-.402 1.157-.526 1.386-.24.4-.283.3-.433.26-1.43 1.104-.73 1.244-.45.36-.535.172-.454.104-.255.21-.29.628-.245.218-.27.09-.797-.073-.257-.067-2.126.12-.64-.198-.46-.08-.728.263-.3-.17-.23-.524-.096-1.046.052-.89.41-.674.336-.494.333-.643.05-.29-.06-.26-.054-.532-.022-.54-.43-1.184-.536-1.575-.723-1.754-.227-.477-.46-.763-1.733-1.45-.266-.198-.043 2.726-.05 2.892-.053 2.887-.055 2.892-.058 2.887-.055 2.89-.062 2.888-.06 2.884-.024.916-.56-.015-1.144.355-.734.456-.327.564-.424.346-.523.122-.234.288.053.456-.21.346-.466.24-.744-.07-1.02-.38-1.31-.092-1.595.203-1.14-.095-.692-.392-.734-.218-.784-.058-.45-.166-.925-.29-.167-.497-.102-.38-.26-.4-.023-.318.212-.247.038-.393-.145-.544-.252-.263-.364.015-.224-.21-.08-.43-.215-.326-.505-.33-.683.25-.324.38-.194.587-.18.297-.09.494-.042.35-.182.374-.18.148-.185-.067-.353.147-.77.55-.222.293.182.15 1.39 2.388 1.115 2.552 1.24 4.506.823 2.23 1.74 3.708 1.376 2.355 1.19 1.758.244.567.492 2.453.084.95-.058 1.524-.425.956-.7.628-.48.166-.382-.43-.38.27-.253.5.13.87.426.548.168.69.437.357.42.982.56.406.244.608.64 1.314.113.517.035.593-.61.334-.13.887.08.74.298.7.272.338.026-1.17.217-.382.186-.15.385-.06.562-.037.232.068.3.17.085.522.01.43-.038.277.024.44.38-.022.273-.113.79.046.26.436.517-.032.183.163.266.364-.052.51-.145.29.502-.06 1.285.968 1.157.017.405.122.505.073 2.286-1.817.524-.3 1.325-.15.59-.346.584-.128.38-.016 1.008.274.544.008 1.105-.23 1.274-.002 2.53-1.98.918-.1.764-.286h.978l1.015.345 1.842.117.448-.076 1.293-.55.602.053 2.6.445 2.196.738 1.254-.038.457-.712.548-.56.908-.082 1.64.44.52.042.35-.157.128-1.052.865-.732 1-.165 2.364.31 1.012-.336 2.566-1.213 1.608-1.043 2.245-1.717.547-.273 2.013-1.843 1.328-.94 2.326-2.142 1.58-1.88 2.047-2.125 1.446-1.317.532-.302.805-.653 1.86-2.276 1.093-1.65 1.146-1.812 1.295-2.348.86-1.1.907-2.005.984-1.375 2.58-2.86.628-.163.365-.18.41-.288 1.492-1.414.535-.8.978-1.935.87-3.845.322-1.075.905-2.346.278-1.5-.607.01-1.04.028-.612.023-.688.017-.84-.18-.482.035-.168-.093-.312-.093-.165.047-.197.925-.182 1.386.03.86-1.196.024-1.5-.09-1.063-.372-1.125-.82-.636-1.276-.267-.802-.423-.047-.067-.136.006-.978.052-1.03.093-.272.837-1.265.52-.785.333-.758.7-.893.732-.574.264-.08.182.022 1.215.788 1.247.738.283-.08.148-.077-.086-.468-.018-.72.397-.926.043-1.767.07-.625.043-1.233.048-1.492.046-1.334.058-1.157-.084-.544-.08-.302-.212-.61-.23-1.273-.293-.96-.4-.636-.118-.33-.122-.448-.367-.787-.312-.454-.08-.368.05-.95-.31-1.707-.22-1.24-.355-1.35-.238-.898-.035-.157-.017-.337-.495-.372-.682-.244-.874-.11-1.146.044-1.41.206-1.495-.247-1.59-.693-1.327-.247zM96.425 93.995l-.808-.154-.454-.374-.4-.488-.204-.358-.224-.195-.072-.11-.327-.166-.12-.085-.11-.06-.117-.24-.073-.203.055-.573-.217-.344-.376-.587-.232-.475-.316-.657-.19-.56-.194-.58.04-.25.217-.17.628-.29.49-.225.357-.416.4-.616.194-.37.19-.17.21-.26.372-.583.414-.645.44-.695.53-.2.722-.227.71-.608.835-.508L100.14 81l.618-.144.237-.078.142.1.142.318.213.268.5.46.214.115.507.68.55.467.636.538.434.27.225.076.167.478.174.357.093.33-.035.32-.245.795-.345.808-.257.337-.306.215-.306.317-.142.65-.165.76-.393.317-.303.203-.42.253-.92.413-.503.16-.066.012-.315-.035-.423.035-.336.09-.26.035-.44.453-.82 1.24-.214.257-.08.486-.195.383-.228.3-.22.074-.627-.12z" fill="#000"/></svg>