<?xml version="1.0" encoding="UTF-8"?>
<svg width="180px" height="180px" viewBox="0 0 180 180" version="1.1" xmlns="http://www.w3.org/2000/svg" xmlns:xlink="http://www.w3.org/1999/xlink">
    <!-- Generator: Sketch 55.1 (78136) - https://sketchapp.com -->
    <title>turkey</title>
    <desc>Created with Sketch.</desc>
    <g id="turkey" stroke="none" stroke-width="1" fill="none" fill-rule="evenodd">
        <path d="M32.1762673,77.2593879 L33.5496235,77.1204689 L34.9124424,77.103104 L34.4979768,77.7351856 L32.8120153,78.4922943 L32.2500281,78.9125244 L31.6423795,79.4890384 L31.6669664,79.9995659 L31.7407272,80.3503364 L31.5510565,80.8191882 L31.4351467,81.3262427 L31.8671743,81.1630128 L32.2254412,80.9581072 L33.0332977,79.8988496 L34.8492188,78.0859562 L36.1066652,77.5823746 L37.8418006,76.6411982 L38.8533775,75.4777512 L39.2221816,74.4671153 L40.7711588,74.1614934 L41.9162077,74.3316692 L42.8926604,73.7968309 L43.4300607,73.6474929 L44.2168428,73.7169525 L47.3569462,74.4566963 L48.4528212,74.1996961 L48.6741036,73.7968309 L48.853237,73.1960061 L48.9586096,72.5187758 L48.2455884,72.3763838 L44.3081657,70.7267202 L43.3176633,70.0633818 L42.277987,68.743651 L41.8073227,67.7955285 L41.9091829,66.9377035 L41.0451276,66.8022574 L40.7500843,66.8439331 L40.5744633,67.0314738 L40.1740474,66.9932711 L39.6823086,66.9932711 L39.1870574,67.2085956 L38.9095763,67.298893 L38.5126728,67.1044063 L37.7610149,66.5140004 L37.3008879,66.1041893 L36.9742329,66 L36.6616275,66.1215542 L35.5271159,66.2604732 L35.2707092,66.5001085 L34.7614083,66.7640547 L34.2380578,66.8890818 L33.4793751,66.9793792 L33.0719344,66.9689603 L32.8576767,67.0939874 L32.6961054,67.4794877 L32.5942453,67.8580421 L32.4923851,68.010853 L31.5510565,68.1983937 L31.354361,68.4137183 L31.312212,68.6255698 L31.3438238,68.8374213 L31.923373,68.9902323 L32.2711026,69.2402865 L32.4923851,69.46603 L32.8190401,69.6639896 L33.0543723,69.7091383 L33.2826796,70.3828956 L33.437226,71.2164098 L33.3213162,71.5775993 L32.9068506,71.6609507 L31.6599416,72.4493163 L31.6775037,73.1751682 L31.7196527,73.5259388 L31.7618017,73.7725201 L31.9128358,73.9808986 L31.9339103,74.2830475 L31.8074632,74.6060343 L31.2735754,75.1478185 L30.9082837,75.5819405 L30.5043554,76.1654005 L30.258486,76.238333 L30.0688153,76.3390493 L30.2725357,76.672455 L30.5500169,77.2211852 L31.3016747,77.1690905 L32.1762673,77.2593879 Z M152.803304,103.056653 L153,102.639896 L152.964876,102.476666 L152.388839,101.948774 L151.605569,101.424354 L151.398337,101.334057 L151.324576,100.771435 L151.296476,100.347732 L151.187591,99.9657044 L151.022508,99.7469069 L150.997921,99.5767311 L151.233253,99.1634469 L151.015483,98.8925548 L149.873946,98.2257434 L149.438406,97.8923377 L148.697286,97.8263512 L148.595425,97.6040807 L148.651624,97.138702 L148.830758,96.5760799 L149.157413,96.0204037 L149.245223,95.7286738 L149.336546,95.2320382 L149.343571,94.8777947 L149.722912,94.3811591 L149.708863,94.252659 L149.561341,94.0755372 L149.196049,93.9748209 L148.830758,93.9366182 L148.683236,93.8428478 L148.598938,93.5789017 L148.504103,92.4988062 L148.307407,91.8493597 L148.096662,91.3805079 L148.054513,90.3212503 L147.773519,90.1059258 L147.302855,89.5537226 L147.074548,89.0848708 L147.141284,88.9077491 L147.186945,88.6021272 L147.186945,88.195789 L147.134259,87.911005 L146.733843,87.6296939 L146.42475,87.337964 L146.350989,87.0115042 L146.189418,86.619058 L145.996235,86.3064901 L145.901399,86.0981116 L146.017309,85.9800304 L146.516073,85.8827871 L147.271243,85.9487736 L147.878892,85.9557196 L148.198522,85.750814 L148.363606,83.8545691 L148.683236,83.3579336 L149.094189,83.0696766 L150.067129,83.7399609 L150.467545,83.9761233 L150.69234,83.9830692 L150.439446,83.7156501 L150.323536,83.5732581 L150.056592,83.2398524 L148.795633,82.149338 L147.650584,81.3158237 L146.898927,81.5971348 L146.19293,81.6318646 L145.114617,81.7985674 L144.700152,81.7291079 L143.688575,81.3679184 L142.828032,80.9337964 L142.91233,80.7566746 L143.066876,80.6281745 L142.785883,80.0690254 L142.216871,79.1695246 L142.223896,78.8882136 L142.0272,78.4992403 L141.830505,78.2075103 L142.36088,77.5059692 L142.5646,76.9433471 L142.550551,76.3946169 L142.301169,75.8285218 L141.742694,74.8005209 L141.444138,74.501845 L140.931325,74.2240069 L140.471198,73.7690471 L140.323677,73.4495333 L140.316652,73.3036683 L140.232354,73.0813979 L140.014584,72.921641 L139.723053,72.8174517 L139.224289,72.8556544 L138.739575,72.7514652 L138.363746,72.4666811 L138.258374,72.2513566 L138.423457,72.0777078 L138.261886,71.9318428 L137.62965,71.5845453 L136.551338,70.7232472 L135.985838,70.5322336 L135.694307,69.9904493 L135.462487,69.8758411 L135.00236,69.8272194 L134.531696,69.8793141 L134.436861,69.9383547 L134.303389,70.0251791 L134.022395,70.6989364 L133.790575,70.9281528 L133.130241,70.8204906 L132.571766,70.6607337 L132.125688,70.5739093 L131.27217,70.5183417 L130.306255,70.5079227 L129.726706,70.9837204 L129.438687,70.9246798 L128.915337,70.6885175 L128.09343,70.4940308 L127.650865,70.3412199 L127.141565,71.049707 L125.213246,72.2791404 L124.475638,72.6542218 L123.611583,72.8174517 L122.856412,73.4460603 L120.320445,74.5539397 L119.470439,74.6963317 L118.620434,74.4358585 L118.065472,74.5157369 L117.394599,74.3941828 L114.851607,73.4530063 L111.290013,74.1267636 L109.491654,74.7449533 L108.385242,74.8352507 L105.322412,74.2483178 L104.335422,73.6613848 L102.178796,73.3939657 L99.8008879,72.8626004 L99.2529504,72.1714782 L97.8163707,71.5046668 L96.9944644,71.5880182 L96.63971,71.7859779 L96.2041699,72.2721945 L95.5332977,72.1784241 L94.6727549,71.7130454 L93.9667585,71.0288691 L92.9376194,69.0944215 L92.4529055,68.9277187 L92.0770765,68.8582592 L89.8537147,69.462557 L88.1291166,68.7471239 L87.5144431,68.2504884 L86.8822075,67.5211634 L86.7733225,67.0280009 L86.9173317,66.7814196 L86.9735304,66.4966356 L86.0076149,66.2257434 L84.4797123,67.0280009 L80.9497302,66.9759062 L75.7794481,66.569568 L75.1788243,66.6702843 L73.1310835,67.5176905 L70.6372654,68.160191 L69.204198,68.740178 L67.9151399,69.7994356 L64.1252388,71.8345995 L63.5316399,73.064033 L62.9837024,73.4460603 L60.1737664,73.6162362 L57.1495729,72.76883 L54.4766213,73.1161276 L50.6410588,72.5326677 L49.5416713,72.5847623 L49.2255536,72.914695 L49.1026189,73.491209 L49.0218332,74.2031691 L49.2817523,74.5400478 L49.4960099,74.7345344 L50.4794875,75.4221836 L51.1714342,75.7104406 L53.9708329,76.085522 L54.2799258,76.085522 L54.2693886,76.2556979 L52.1408621,76.4814413 L49.2922895,76.9329282 L48.6916657,77.0753202 L47.6660391,77.8115911 L48.0243059,78.0442804 L48.3755479,78.2075103 L48.8918737,78.3221185 L49.4327863,78.6520512 L49.1482803,78.9159974 L47.4377318,78.9055785 L46.7528099,79.0167137 L44.5645723,78.8118081 L42.5027818,79.0653354 L42.2814994,78.9854569 L42.4781949,78.5652268 L42.6538159,78.3255915 L42.6081544,78.1519427 L41.8635214,77.9713479 L41.1926492,77.9991318 L40.9713668,78.2144563 L41.7686861,78.975038 L41.4104192,79.2112003 L41.0310779,79.3813762 L39.425902,79.4508357 L38.4845735,79.0201867 L38.3475891,78.7215107 L38.1368439,78.4124159 L37.10068,78.4367267 L36.4333202,78.8639028 L34.6841351,78.8361189 L33.1140834,80.3920122 L32.16573,81.715216 L31.3403113,81.3574995 L31.1963021,82.2639462 L31.3332865,83.9344476 L31.0347308,84.6116779 L31.0241935,84.9867593 L31.1576655,85.4000434 L32.6715185,85.2715433 L33.5074744,84.9867593 L35.6816624,84.6602995 L36.1488142,84.7644888 L36.2401371,85.0145431 L35.6641003,85.7751248 L35.0459144,86.3933145 L34.884343,86.76145 L35.1407497,87.0080313 L36.0750534,88.1367484 L36.0750534,88.5951812 L35.8326964,88.9320599 L35.9029448,89.345344 L36.2506744,89.640547 L36.5913791,89.5537226 L36.9180342,89.6718038 L37.2130774,89.921858 L36.598404,90.790102 L35.8537709,91.1026699 L35.695712,91.3075754 L35.8748455,91.6965487 L35.938069,91.9604949 L36.2436495,92.5022791 L36.7248511,93.096158 L37.1498539,93.3601042 L38.2668034,93.3288474 L37.9928347,93.6136314 L36.4860065,93.9505101 L35.8888951,93.8289559 L35.6008767,93.5893206 L35.4076936,93.6935099 L35.2988086,94.2422401 L35.0775261,94.110267 L34.7508711,93.5893206 L34.8176071,93.0544823 L34.6279364,92.5057521 L34.1256603,91.9361841 L33.6549961,91.8458867 L33.2545802,91.9778598 L33.2510678,92.4675494 L33.6760706,93.4191448 L33.6233843,93.9887128 L33.1562324,93.9713479 L32.8576767,94.7006729 L33.1456952,94.975038 L33.7709059,95.1938355 L34.4171912,95.6036466 L34.7965325,95.7078359 L35.0318647,95.4925114 L35.4182309,95.3223356 L36.2506744,95.7911873 L36.7459256,96.4510527 L37.1639036,96.3850662 L38.5864336,96.985891 L39.0641227,97.0484046 L39.2537934,97.8089863 L39.1343711,99.0453657 L38.2070923,99.3405687 L38.1579184,99.5767311 L38.6988311,100.003907 L39.1132966,100.889516 L39.2608183,101.698719 L39.7349949,102.018233 L40.2969821,102.080747 L40.4726031,102.348166 L41.2734349,102.803126 L41.4104192,103.476883 L40.3496684,103.803343 L39.9071035,103.768613 L39.601523,104.147167 L39.7349949,104.956371 L40.0440879,104.914695 L40.2723952,104.616019 L42.3447229,104.713262 L45.347842,104.539614 L46.0538384,104.539614 L45.9519782,104.800087 L45.0738732,105.400912 L44.6137462,106.09898 L44.1641565,106.276102 L42.2077386,106.456696 L41.726537,106.675494 L41.1645498,106.77621 L41.0943014,107.047102 L41.6703383,107.2659 L42.4219962,107.342305 L43.3527875,106.852616 L45.1616837,106.734534 L44.7472182,107.377035 L44.7999045,107.658346 L45.389991,107.564576 L45.916854,107.248535 L46.5561144,106.255264 L47.7257503,106.32125 L49.295802,107.133927 L49.9526245,107.335359 L50.4654378,107.349251 L50.9220524,107.019318 L51.378667,107.192967 L51.5332134,107.630562 L51.6069743,108.009117 L51.9687535,108.56132 L52.2075981,109.533753 L52.7660728,110.106794 L53.612566,110.62774 L55.8780769,111.433471 L56.5243621,111.343173 L58.3894571,110.700673 L59.3237608,110.24224 L59.7487636,110.398524 L60.370462,110.749295 L60.7357536,110.540916 L60.9570361,110.217929 L61.0272845,109.106577 L61.3258402,108.516171 L61.3293526,106.373345 L61.6946443,105.831561 L63.6861864,105.967007 L65.5828931,106.178858 L66.3205013,106.342088 L69.1901484,107.831995 L70.8163988,108.443239 L71.5715691,109.123942 L72.6744689,110.554808 L73.3348039,111.221619 L74.3990671,111.874539 L76.1342025,112.388539 L76.9736709,111.916214 L78.0765708,111.857174 L80.2683208,111.464728 L80.8022086,111.534187 L81.8945712,111.232038 L83.5137968,110.339483 L83.9282623,109.978294 L85.5510003,107.897981 L87.387996,106.474061 L88.0307688,106.217061 L88.7402776,106.35598 L89.6429695,106.93944 L91.2165337,107.654873 L92.6636507,108.127198 L93.5839047,107.953549 L94.1177925,107.515954 L94.3004384,106.949859 L94.7465157,106.637291 L95.1715185,106.522683 L95.7897044,105.973953 L96.6818591,105.477317 L97.2824829,105.942696 L97.6056255,106.293466 L97.7039732,106.800521 L97.7636844,107.463859 L96.8434304,108.543955 L95.9583006,109.46082 L95.5578847,110.224875 L96.1585085,111.416106 L96.7204957,112.683742 L96.3587164,113.329716 L96.8504552,113.378337 L97.9463302,114 L98.1149264,113.982635 L98.3572834,113.163013 L98.6382769,112.885175 L99.2599753,112.642066 L99.3231988,111.318863 L99.60068,111.065335 L99.9484096,110.929889 L100.49986,110.902105 L100.977549,110.822227 L100.984573,110.589538 L100.173204,109.057955 L100.197791,108.672455 L100.38395,107.130454 L100.531471,106.526156 L100.710605,106.331669 L101.479825,106.408075 L102.5757,106.678967 L102.898842,107.123508 L103.460829,107.515954 L104.244099,107.48817 L105.157328,107.564576 L105.87035,107.588886 L106.40775,107.314521 L107.633584,106.797048 L108.25177,106.623399 L108.80322,106.394183 L110.569967,105.55025 L111.3146,105.612763 L111.830926,105.723898 L112.231342,105.859344 L113.158621,106.435858 L113.934866,107.022791 L114.458216,107.19644 L115.360908,107.182548 L116.681578,107.293684 L118.293779,107.286738 L119.214033,107.123508 L120.383669,106.835251 L122.452484,106.144129 L125.111386,104.699371 L126.688462,103.997829 L127.390946,103.917951 L128.318225,103.907532 L129.266579,104.0916 L130.330842,104.223573 L130.815556,104.213154 L131.93953,104.067289 L133.383135,103.775559 L134.282314,103.535924 L135.357115,103.143477 L135.982326,102.490558 L136.200096,102.421098 L136.502164,102.542652 L136.64266,102.587801 L136.972828,102.955937 L137.380269,103.914478 L137.987917,103.754721 L139.041643,102.803126 L139.621193,101.910571 L139.828425,101.834165 L140.474711,102.125895 L140.920788,102.205774 L141.886703,101.868895 L142.508402,102.046017 L143.038777,102.27176 L143.323283,102.285652 L144.738788,102.837855 L145.086518,102.907315 L145.792514,102.976774 L146.835703,103.004558 L147.460914,102.643369 L147.892941,102.296071 L148.226621,102.303017 L148.556789,102.386369 L148.844807,102.535707 L149.108239,102.79618 L149.259273,103.171261 L149.361133,104.362492 L149.50163,104.678533 L149.708863,104.904276 L149.947707,104.945952 L150.200601,104.685479 L150.650191,104.306924 L151.208666,103.897113 L151.616107,103.522032 L151.858464,103.37964 L152.269417,103.400478 L152.676857,103.466464 L152.919214,103.647059 L152.915702,103.535924 L152.803304,103.056653 Z M29.2679836,80.1107011 L28.4320276,80.3989581 L28,80.8608639 L28.4706643,81.0970263 L29.9212937,80.8573909 L29.9458806,80.5413501 L29.5419523,80.0794443 L29.2679836,80.1107011 L29.2679836,80.1107011 Z" id="Fill-43" fill="#000000"></path>
    </g>
</svg>