<svg width="160" height="160" viewBox="0 0 160 160" xmlns="http://www.w3.org/2000/svg"><title>united-states</title><desc>Created with Sketch.</desc><path fill="#000" d="M90.562 51l-.228.392-.29.497-.435-.004H38.764l-.112.33-.03.137.012.072.104-.01.057-.027.03.003.007.038-.094.22-.193.268-.002.042-.045.075-.114.042-.143-.024-.066.02-.064.058-.018.045.025.03.094.01.05.043.04.087.016.19-.03.057-.137.025-.15.07-.063.07-.042.093-.004.07.11.108.025-.014.07-.202.028-.02.023.043-.02.123.012.08.044.09-.015.073-.268.18-.08.084-.24.184-.076.086-.014.074-.06.085-.107.094-.047.056.017.06-.015.055-.134.178-.167.316-.042.055-.22.14-.11.038-.087.002-.09.046-.29.256-.076.053-.194.08-.05-.004-.1-.082-.216.035-.202-.018.128-.08.174-.17.14-.105.246-.11.018.017-.108.243.017.018.224-.205.043-.027.055.083.073.014.08-.043.223-.262.086-.137.05-.154-.035-.197.03-.013.053.02.04-.016.092-.18.054-.048.268-.134.1-.11.126-.244-.087-.02-.03.027-.09.144-.07.05-.323.172-.172.145-.175.1-.267.12-.208.114-.252.19-.06.06-.1.127.092-.003.218-.04-.027.024-.28.114-.156.027-.05-.017.044-.07.098-.122.334-.27.817-.568.016.023-.073.113.048-.006.46-.337.038-.12.018-.193.048-.146.075-.105.008-.04-.23.112-.11.03-.128.01-.08-.02-.074-.164-.066-.008-.213.07-.092.013-1.19-.116-.18-.074-.072-.1-.376-.138-.257-.176-.136-.012-.1.223-.263.316-.22.42-.036.165.104.284-.047.295-.286.6-.108.46-.142.29-.102.167-.05.143.115-.108.065-.083.12.013.035.106.236.05-.67.236-.11.28.158.083.053.114-.242.298-.223.238.007-.21.08-.195-.192.268-.175.278-.2.22.247-.05.07.078.44-.075.023.075.356-.007.035.118.123.118.084.01.036.03-.205.023-.136-.026-.037-.13-.083-.03-.35.094h-.45l-.03-.1-.058.014-.04.097-.005.086-.49.7-.355.626-.218.237-.09.175-1.17 1.653-.17.302-.236.3-.11.22-.238.213-.485.648-.585.848-.13.094-.272.26-.29.303.146-.062.05.03-.235.13h-.085l-.09.06-.7.767-.197.175-.264.29-.024.332-.055.202-.325.472-.092.18-.16.423.08.324-.133.225-.215.234.058.16-.05.23-.142.38-.1.178-.46.537-.25.44-.334.348-.082.076-.028.035.06.008-.073.06-.09.118-.05-.016.05-.057-.007-.03-.1.07-.234.268-.24.254-.135.284-.098.285.208.375.125.366-.013.206-.11.377-.125.25-.275.354-.135.623-.225.494.25.563.09.34.227.212-.033.35.084.07.055.196-.028.18-.07-.255-.142.32-.162.19-.03.075.213-.164.08.074.125.196.105.106.157.07.067.116.12-.028.085-.283.21-.38.224-.088.1.023.178.154.1.016.312-.14.07.008.076.08.093.03.267-.014.124.015.124-.024.163.07-.098.01-.118-.023-.19.066-.71-.038-.27.022-.23.083-.2.113-.007.098.032.06-.053.26.075.143v.26l-.03.202.023.063.004.098-.09-.01-.072-.048-.05-.152-.102-.07-.067-.156.063-.208.07-.116-.11-.024-.168.064-.116.29-.13.272-.022.416-.168.407.203.533.503.127.043.216-.032.123-.07.17-.177.182-.262.21-.143.342-.05.25.225.435.143.555-.007.156.1.177-.01.284.217.17.09.31.187.136.013.146-.147.222-.015.16.246.127.057.086.003.112-.195.31-.07.335-.093.152-.063.196-.13.218.134.09.08.174.158.03.472-.042.228.017.34.14.268.03.235-.046.303.194.21.198-.034.226.132.126.536.213.48-.026.168.043.067.386-.15.275.202.077.106-.11.2.017.134.068.157.247.25.197.407.586.11.47-.045.39-.048.158-.094.16-.082.344.145-.057.056.093-.09.263-.003.014.6-.05.6-.053.596-.05.6-.052.597-.052.6-.05.597-.052.598-.052.24-.025-.268.362-.148.135.82.355.826.357.826.355.828.355.83.357.832.354.833.355.837.357.72-.003.717-.002h.717l.718-.002h.718l.718-.003.72-.002h.717l.096-.27.096-.27.095-.27.097-.27h.443l.445.004.444.003.445.002.444.004.445.003.443.002.445.003.014.006.016.008.11.205.073.322.14.225.21.127.302.376.397.626.346.415.294.208.184.18.075.15.062.325.075.752-.11.346.02.328.11.424.136.25.158.077.154.15.145.224.202.152.256.077.326.202.398.33.29.166.18.007.19-.104.2-.218.177-.14.15-.062.082-.1.016-.138.182-.31.346-.48.322-.26.296-.042.212-.09.13-.14.154-.015.183.11.33.07.477.033.29-.01.105-.053.044.002-.015.06.065.023.143-.008.097.082.08.26.418.418.003.145.13.206.255.32.118.272-.02.23.075.365.17.5.064.268-.044.04-.014.14.018.243.098.205.178.168.147.3.115.437.193.33.268.228.13.212-.004.195-.045.167-.084.14-.01.13.058.127-.007.155-.09.213-.01.06.014.05.202.365.077.296.006.473v.003l.067.283.163.115.282.043.2.1.116.153.17.093.224.033.2.1.174.174.37.113.568.054.41.14.255.225.122.045.035.003.026-.033.036-.065.134-.072.29-.048.05-.165-.003-.088-.128-.006-.21-.793-.02-.214.054-.497-.018-.165.017-.357-.025-.145.128-.206.122-.156.035-.133.016-.155-.397-.12-.055-.41.14.15.276.195.093-.006.09-.027.176-.22.338-.605-.192-.402.07-.054.068-.026.243.038.178-.06.27-.258.144-.26-.24.08-.003-.1.023-.1.133-.035.17-.012.115-.06.09-.086.003.094.042.068.13-.09.083-.062.088-.243.107-.244.15.194.25-.062.174-.094.17-.123-.097-.053-.094-.022-.096-.53.073-.035.063.018.013.074.046.088.122.13.177-.088.02-.063.2.004.307.08.218-.024-.294.172-.253.172.12-.03.38-.206.376-.13.294-.17.178-.08.647-.37.275-.158.324-.277.086-.214.307-.22.34-.27-.04-.215-.07-.168.055-.414.09-.024.084.077.08.008.17-.182.182.007-.028.227-.183.26.086.028.28-.078.148.047-.544.314-.04.082.444-.243 1.093-.447.44-.046.032-.08-.06-.222.324-.394.095.005.035.06-.034.092-.115.152-.1.076-.08.022v.13l.06.074.142-.067.157-.042.63-.014.223-.03.212.023.412.155.277.19.218.092.812.097.386-.086.066-.06-.08-.12-.023-.077.153-.146.154-.095.277-.088.084.204.308.012.127.338.07.12.348.102.142-.12.06-.002-.06.142v.115l.113.257-.012.08-.168-.034-.1.025-.033.08.527.228.473.15.163-.047.262-.29.19-.068.248.012.134.094.034.3.054.062.177-.074.1-.11.072-.14.055-.137.068-.097.06-.228-.077-.076-.074-.04-.024-.06.024-.08.526.192.093.1.02.085-.02.115.14.048.094-.008.098.033.066.084.102.044.127.132.056.214.05.085-.1.214.103-.044.245-.198.068.066.058.09.062-.07.082-.128.208-.106.048-.145-.092-.037-.086-.072-.077-.21-.132.006-.494-.21-.094-.158-.16-.127-.043-.193.082-.065.03-.07.05-.022.077.023.14-.056-.047-.066.153-.112.16-.03.23-.086-.005-.047.064-.196-.052-.136-.004-.077.05-.085-.185-.03-.174.135-.11.21-.094.026-.212-.063-.096-.186.104-.092.148-.08.126-.09.014-.067-.125-.066-.094.085-.088.03-.166-.004-.248.16-.388.072-.202-.085-.21-.182.257-.33.285-.242.196.023.153.045.13.197.68.248.332-.138.33-.293.115.003.075.027.37-.086.333-.114.066-.002.102.024.226.123.71-.044.197.026.234-.01.07-.116.178-.362.17-.276.05-.03.083.16.01.158-.076.268.03.085.077.018.05.145.01.132-.252.08-.168.01-.06.056.806-.08.29-.248.148-.064-.008.074-.153.13.04.038.426-.108.1-.14.17-.136.085-.204h.107l.07.093.113-.128.084-.04.022.163-.09.17-.302.082-.096.054-.1.084.497-.08.607-.074.164-.05.195-.104.175-.068.14.032.245-.026.168.07.042.053.007.087-.223-.056-.456.072.526.16.576.284.104.1.07.013.047-.082.033-.104.154-.083.153-.017-.11.12-.074.113.083.1-.05.074-.102-.012.257.35.246.24.047.19-.04.095-.054.043-.07-.108-.025-.138-.047.18.033.174.108.037.29-.066.328-.03.136-.06.184-.077.178.012.588-.3.204-.03.143.006.062-.052v-.127l.068-.112.117-.085.565-.094.604.426.54 1.14.83.963.15.394-.028.183-.037.1-.18.685-.315.6-.404.942.038.168.043.102.054.06.07-.058.104.036.085-.066.047-.077.08-.232-.062-.06-.05-.157.09-.042.104.055.078.194.04.024.126-.083.06.096-.003.067-.095.155-.234.224-.317.37-.11.02-.064.04.096.12.045.117.196.824.118.3.1.156.087.053.124.02.04-.082.005-.15.19-.065.167.004-.145.17-.114.45.006.368.06.03.08-.03.14-.19.098-.08.12-.055-.18.216-.182.26.045.053.12.078-.023.697.123.394.262.22.392.146-.005.24.178.358.14.52.105.072.146.063.06.114-.068.097-.232-.23-.084.024-.065.1-.033.096.08.218.2.012.327-.103.25.047.404-.184.15.007.286-.245.122-.23.14-.464.222-.297.185-.328.03.01v.076l.016.023.166-.72.345-1.055.097-.576.01-.45-.033-.216-.145-.3-.373-2.348-.026-.22-.067-.26.017-.434-.023-.18.027-.296.06-.002.063.064-.044.12v.12l.117.076.012.054-.117.152-.034.127.015.284.074-.07.064-.186.08-.16.055-.012-.142.488-.05.345.1.585.068.082-.068-.408-.022-.268.022-.218.058-.224.06-.15.122-.143-.044-.168-.414-1.19-.187-.978-.1-.81.03-.835-.02-.31.082-.89-.04-.218.02-.17.037-.173.066-.095.118-.23.087-.19.01-.093.086-.174.045.048.092.02.214-.223-.05-.12-.087-.043.008-.05.186-.043.118-.155.103-.088.126-.142-.037-.02-.062.026-.066-.025.057-.084.17-.087.033-.087-.03-.05.003-.09.1-.094.135-.023.088-.084.018-.06-.043-.067-.01-.092.072-.037.073.006.282-.127.16-.205.006-.093.098-.11.125-.028.078-.04.18-.176.002-.072-.05-.047-.04-.08-.025-.156.05-.204.113.266.06-.028.033-.077.07-.034-.002.167.014.08.055.013.156-.09.076-.064.07-.172-.078-.126-.185-.088.14-.053.215.03.186.05.215-.088.106-.094.11-.038.115.008.225-.074.196-.113.136-.15-.024-.195.242.055.167-.09.3-.204.12-.22.196-.065.168-.036.356-.226.13-.12-.018-.313.173-.215-.03.1-.056.123.042.165.224-.39.615-.612.203-.157.634-.36.377-.108.785.014.143-.2.157-.424-.013.232-.072.203-.024.122.156-.268.125-.24.317-.33.14-.113.114-.06.33-.23.33-.182-.024-.07.005-.09.098-.337.03.09v.18l.112.042.098-.03.302-.225.162.025.31-.01.202-.005.13-.008.083-.11.19-.044.21-.02.2-.157.22-.23-.15-.13-.612.12-.287-.073-.113-.134-.098-.316.31.365.154.036.364-.203.052-.075.046-.118.128-.153.146-.136-.055-.085-.067-.06-.665-.316-.08-.168.258.157.27.077.23-.053.1-.188.07-.006.072.058-.018.176.022.097.095-.027.108.017.206.078.193.037.16-.065.366-.313.484-.34.143-.29.03-.19.013-.14-.04-.136-.08-.01-.295.156-.17.426-.112.077h-.076l.086-.236.097-.226.048-.225-.257-.05-.13.058-.2.035-.29-.008-.22.03-.22-.034.07-.185.03-.245.086-.235-.028.198.022.18.195.146.17-.032.138-.097.13-.16.127-.012.17.055-.03-.182.08.058.127.05.07-.17.033-.157.152.11.19.064.11.082.08.153.02-.38-.03-.283-.074-.114.006-.11.138-.24-.006-.07.044-.092.055-.052.037.066-.002.162-.052.726.04.41.125.568.053.13-.005-.147-.14-.858.055-1.052-.02-.266.022-.237-.027-.125-.273-.043-.182-.055-.357.155-.17-.018.016-.157-.19-.213.02-.308-.177-.027-.284-.103-.116-.112-.366-.06-.05-.033-.03-.05.473.028.523.246.148-.01-.005.194.134.173.058.1.09.1.143-.054.14-.1.008-.142-.022-.094-.097-.156-.165-.084-.166-.186-.154-.31-.012-.074.018-.065.282.48.14.09.14-.067v-.078l.05-.133.25.072.077-.18.022-.16-.17-.085.155-.103-.308-.14-.098-.1-.07-.21-.146-.135-.162-.32-.075-.226-.26-.324.082-.004.2.176.112.327.052.058.392.628.1.03.19-.014.11-.113.083-.18.105-.13.03-.112-.123-.17-.193-.118-.09-.204-.154-.097-.466-.154-.148-.39-.113-.034-.267.074-.072-.03-.042-.11.168-.32.104-.174.252-.187.178-.105.14-.136.123-.276-.07.27-.128.176-.206.135-.26.265-.08.113-.053.212.143.026.193-.11.15-.007-.015.124.036.114.075.134.08-.11.042-.13.092.313.32.083.23.135.064.118.09.095.06-.132-.02-.137-.03-.175-.308-.454.016-.203.043-.18.008.078-.01.1.065.252.097.078.106.104.094-.02-.003-.124-.038-.134-.04-.14.104-.512.068-.11.055-.13.04-.14.09-.112-.003-.137-.026-.155.027-.007.113.09.14-.104.028-.127-.094-.08-.085-.23.02-.037.256.107.06-.068.037-.123.107-.05.062-.096.015-.056.045-.04.04.197.06-.072.093-.208.033.043-.02.1.166-.06.112-.07.063-.09.04-.137.072-.082.117-.017.106-.04-.09.194.196-.015-.116.103-.09.02-.134.12.116.028.103.055-.204.02-.192-.002-.2.13-.265.298-.07.31.213-.144-.038.1-.176.22-.1-.044h-.135l-.08.137-.038.108.204-.083.078.067-.01.152-.178.074-.108.01-.17.264.076-.03.1-.122.116.034.033.125.162.21.08-.01.014.057h-.22l-.156-.042-.144.047-.147.256.013.142.043.184.154.107.098.094.073-.038.05-.068.048-.023.003.1.074-.045.132-.113.064-.015-.07.106-.02.14-.08.115-.12.11.054.054.066.017.075.132-.107.13-.093.15.23-.005.134.05-.224.325-.194.16-.298.335-.343.54-.147.332-.014.127.053.147.27-.355.182-.315.126-.118.17-.107.148-.046.106-.058.038-.18.82-1.063.173-.156.22-.276.14-.03.07-.106.083-.21.052-.054.07-.047.02.038-.04.108.06-.043.06-.105.066-.188-.01-.185-.06-.05-.156.02.148-.1.16-.22.036-.133-.156-.102-.126-.358-.058-.306.116-.458-.108-.293-.045-.18.077-.184.004-.087.03-.124.233-.186.13-.152.168-.122.184-.08.316-.07.27-.214-.104.123-.15.147-.425.098-.17.095-.163.186-.196.267-.05.168-.043.103.21.363.192.134.123.185.172-.008.13.055.116.104-.125.24-.146.234.053.02.303-.147.46-.498.114-.096.04-.11.067-.057.146-.076.082.01.126-.107.093-.162.067-.078.018-.15.138.032.21-.188.253-.27.29-.51.075-.09.075-.04-.175.392-.026.1.172-.325.168-.164.13-.235.13-.188.095-.186.034-.17-.008-.125-.12.055-.35-.063.016-.172.143-.19.114-.094.088-.06.084-.033.123-.077.114-.087.328-.375.107-.193.107-.33v-.268l.057.075.042.11-.082.273-.193.337-.145.173-.152.21.1-.063.106-.09.128-.038.182-.11.286-.21.22-.13.916-.365.344-.095.253-.162.133.046.724-.023.242-.086.187.048.402-.08.292-.036.304.022.52-.113.22-.176.188-.422.182-.162.03-.218.052.02.034.057.003.1.043.09.233-.147.06-.005-.197.245-.078.293.015.064.214-.115.215-.023.673-.39.062.01-.066.24-.068.116v.057l.382-.113.188-.105.713-.118.146-.017.07.017.057-.08.07-.227.06-.36-.15-.274-.083-.045-.082-.008-.08.02-.01.05.048.083.07-.065.09.077-.003.12.07.25-.03.107-.31.13-.345.097-.23-.066-.132-.107.052-.316-.166-.115.052-.08.07-.044-.068-.442-.123-.083-.314-.082-.068-.07.312-.237.173-.15.126-.13.17-.042.215-.107.1-.016.04-.062-.017-.05-.058-.006-.09.02-.07-.01-.042-.122.01-.123-.01-.118.204-.27.2-.302.117-.09.117-.06.428-.5.43-.305.432-.34-.04-.068-.046-.038.26-.22.285-.16.203-.046-.052.086-.025.07.1-.02.124-.053.033.07.047.04.06-.076.034-.143.055-.1.033.026-.015.09.053.02.153-.24.124-.09-.01.105-.037.158.07-.013.15-.224.012.048-.02.152.085-.02.134-.118.214-.103.214.033.216-.12.186-.14.075-.174.365-.41.067-.2.265-.12.148-.15.09-.05-.06.143-.106.13.026.02.086-.02.04.026-.215.14-.073.1.172-.006.184.073.04.093.065.028.075-.106.055-.177.14-.152.11-.145.03.09.06.056.135-.067.104-.078.067-.02h.092l.074.03.056.028v.12l.022.128.095-.04.074-.044.08-.103.1.025.237-.288.103-.02.103.043.138.01.116-.034.144-.157.198-.03.214-.095.31.05.526-.354.01-.05-.027-.043-.16-.04.04-.138.102-.107.047-.424-.01-.12.04-.073-.08-.03-.07-.025-.06-.02-.053.034-.056.045-.058.034-.08-.047-.03-.085-.067-.088-.013-.066.05-.078.072-.073.055-.09-.01-.1-.023-.058-.006-.067.036-.063.074-.03.072-.04.053-.08-.002-.09-.09-.036-.09.014-.114-.02-.098-.054-.053-.063-.047-.034h-.048l-.042-.037-.01-.062.044-.1.04-.06.05-.052.025-.058.002-.042.01-.032.026-.042.05-.082-.007-.06.077-.21.147-.395.11-.3.144-.38.104-.276.148-.39.14-.365.128-.347-.16-.2-.205-.254-.193-.167-.133-.02-.1.023-.06.067-.224.072-.384.075-.348.118-.11.002-.086-.02-.1-.06-.05-.087.03-.153.112-.21-.162-.04-.164-.044-.17.145-.155.12-.32.265-.447.37-.248.204-.434.36-.383.314-.188.325-.18.307-.304.233-.217.214-.154.238-.135.218-.075.182-.002.097-.048.077-.106.088-.205.155-.085.15-.116.074-.304.147-.287.218-.06.122-.01.104-.022.062-.057.045-.08-.002-.09.014-.11.09-.052.13-.09.093-.07.02-.027-.067-.025-.1-.07-.01-.143.067-.184.108-.13.007-.21-.07-.26.21-.368.45-.792.003h-1.586l-.792.003-.793.002-1.586.002h-.529l-.107.206-.175-.206-.298.274-.42.166-.546.297-1.015.642-.02.016.017.014-.004.06-.057.068-.113.075-.984.5-.295.18.038.1-.012.044.052-.007.195-.087.044.01.013.024-.01.055-.114.098.023.023.15-.023.056.012-.086.073-.09.047-.032.047-.16.122-.056.023-.02-.016.03-.053-.123.058-.027.048.04.046.013.07-.007.095-.068.203.003.04v.02l-.02.024-.03.047.006.042-.04.05-.078.054-.124.032-.168.005-.213.065-.256.124-.188.115-.12.1-.074.044-.03-.016-.31.084-.124.056-.047.05-.028.01-.012-.03-.187-.025-.362-.018-.294.017-.23.046-.17-.028-.117-.1-.22-.08-.61-.088-.55.015-.47.062-.776.178-.017.004v.01l-.186.402.27.083.014.028-.036.058-.08.085-.042.114.004.145-.023.116-.046.087-.112.082-.178.076-.183.12-.188.158-.22.13-.246.103-.25.127-.25.154-.458.213-.872.36-.11.042-.103.045-.195.08-.193.08-1.18.346-.818.287-.52.232-.49.29-.205.087-.193.023-.283-.015-.314.033-.35.087-.23.068-.116.054-.096.015-.076-.022-.17-.14-.023.01-.053.02-.125-.024-.15-.004-.156.052-.137.008-.12-.034.133-.05.57-.107.002-.02-.164-.06-.034-.058-.05.005-.064.065-.082.028-.098-.008-.08-.05-.066-.09-.277-.142-.063-.074-.098-.047-.166-.026-.01-.04.055-.057.266-.266.134-.1.047-.03.048.002.032-.027.018-.06.035-.033.14-.097.076-.052.012-.08.088-.147.147-.19.132-.137.118-.085.115-.057.205-.065.064-.043.084-.11.106-.182.105-.115.11-.05.047-.053-.013-.06.06-.062.13-.058.097-.016.06.022.008.06-.062.155-.037.048-.03.04.26-.157.227-.268.423-.646-.008-.05-.012-.1.1-.462.213-.826.102-.512-.012-.198-.07-.15-.126-.102-.112-.046-.097.015-.18.083-.3.073-.134.05-.09.062-.094.038-.09.012-.017.017.055.024-.03.062-.307.28-.07.066-.12.022-.115.055-.157.143-.106.035-.122-.013-.177-.086-.09-.087-.006-.085.045-.104.093-.12.04-.098.175-.202.143-.072.168-.017.104-.033.04-.048.063-.035.092-.02.128-.13.165-.235.127-.13.058-.023.04.008-.01.028.255-.15.116-.106.052-.108.162-.316.116-.204.067-.092.098-.24.038-.194-.11-.215.005-.074.042-.27.08-.08.1-.02.132.064.033-.016-.028-.036.008-.072.04-.107.008-.06-.03-.012-.032-.123.017-.062.038-.06-.007-.06-.077-.092-.174-.095-.44-.18-.06-.07-.11-.043-.16-.01-.076-.056v-.097l-.032-.088-.065-.08-.135-.05-.207-.024-.19-.083-.175-.145-.13-.05-.085.047-.122.014-.155-.014-.066.02.024.055-.082.087-.187.12-.133.12-.08.12-.03.11.02.094.063.06.108.03.006.037-.09.048-.14.027-.18.005-.208.053-.23.098-.147.088-.068.077-.058.113-.104.274-.066.107-.17.39-.223.255-.197.16-.012-.023.057-.08.223-.254.066-.108.016-.057-.032-.005-.064.05-.095.104-.034.056.02.01-.052.07-.127.133-.07.026-.008-.08.05-.1.176-.208-.01-.04.106-.323.063-.092.023-.098.06-.088.098-.082-.006-.024-.11.032-.212.15-.308.274-.196.313-.084-.037-.09.023-.1.08-.086.04-.07-.002-.09.095-.104.19-.123.107-.242.066-.065.05-.036.068-.01.093-.084.183-.164.275-.183.24-.206.206-.2.17-.302.223-.024.043.016.174-.02.13-.1.26-.027.043-.34.32-.026.045-.043.536.004.386.003.04-.017.155-.037.3-.086.3-.132.297-.155.288-.18.276-.195.267-.216.253-.197.2-.366.33-.207.22-.19.18-.174.136-.275.152-.655.28-.19.052-.193.02-.194-.012-.097-.03v-.052l-.04-.007-.042-.034-.047-.06-.034-.105.01-.217.054-.33.004-.197L96 68.21l-.022-.1.003-.132.11-.303.217-.47.167-.322.118-.17.05-.13-.02-.09.014-.11.048-.135.01-.09-.025-.048.018-.067.068-.085.028-.06-.013-.03.018-.05.043-.062.065-.188.06-.113.092-.123.214-.224.088-.11.063-.113.118-.14.28-.29.036-.067.013-.133.035-.1.072-.128.123-.162.17-.192.18-.153.185-.115.106-.13.024-.147.12-.216.215-.286.19-.215.163-.14.13-.14.1-.128.01-.058-.04-.062-.028-.09-.105-.02-.173.06-.018-.004-.076.008-.202.132-.232.23-.135.093-.15.067-.125.07-.097.08-.084.018-.074-.045.034-.11.142-.174.17-.166.31-.272.04-.065.08-.08.337-.118.15-.287.094-.118.094-.173.043-.05.05-.02.194-.145.335-.273.32-.28.3-.29.197-.163.092-.037.098-.087.216-.27.124-.123.066-.048.008.028-.113.15-.058.122-.04.156.043.054.126-.048.138-.103.15-.157.116-.065.082.027.085-.01.088-.047.132-.024-.006.06-.072.12-.066.057-.06-.003-.102.063-.14.13-.046.104.048.076.04.004.033-.068.073-.07.187-.127.033-.042.295-.11.125-.073.064-.082.206-.166.144-.053.174-.023.15.015.13.052h.086l.046-.055.147-.037.247-.018.214-.078.177-.136.177-.07h.178l.215.047.254.1.182.135.195.27.07.025.056.004.037-.02.013-.027-.01-.032.07-.114v-.032l.18-.18.103-.044.086.016.042.04-.003.06.02.02.058.003.028.01.02-.007.046-.032.194.014.644.09.102-.013.067-.032.034-.047-.023-.047-.132-.097-.025-.062.013-.06.052-.055-.014-.05-.08-.046-.22-.014-.017-.045.04-.046.092-.057.043-.085.002-.05.038-.145-.002-.098-.03-.146-.013-.053-.043-.03-.057.006-.083.027-.11.063-.147.066-.11-.016-.04-.093-.108-.02-.18.053-.135-.003-.092-.057-.214-.028-.008-.043.027-.045.057-.047.074-.114.09-.178.09-.125.093-.073-.074-.03-.24.012-.296.06-.356.11-.348.037-.338-.033-.27.004-.324.054-.042-.017-.222.072-.402.162-.314.15-.283.168-.03.002-.03-.038-.078-.05-.106-.004-.14.05-.1-.032-.066-.11-.094-.03-.12.048-.172.02-.34-.024-.02-.036.028-.12-.014-.05-.052-.037-.044-.13-.076-.338-.047-.04-.144-.105-.166-.046-.443-.065-.08-.047-.064.01-.403.18-.033.04-.04.04-.08.064-.057.03-.01-.03v-.054l.063-.117.122-.18.04-.117-.045-.054.002-.067.05-.075-.024-.062-.09-.046-.023-.06.045-.075.015-.052-.017-.027-.152.058-.285.145-.21.13-.135.11-.147.066-.16.015-.144.05-.3.166-.204.085-.3.064-.39.04-.367.107-.338.178-.377.15-.417.122-.262.043-.107-.036-.114-.075-.16-.136-.04.013.005.027-.016.024-.063.04-.34.098-.02-.038.178-.137.094-.102.045-.093.107-.115.168-.138.084-.094v-.05l-.07-.08-.084-.004-.125.026-.446.203-.027-.017-.09-.032-.032.006-.35.178-.323.104-.71.15-.17.02-.12-.01-.117-.088-.032-.062.038-.064.11-.07 1.07-.545.686-.388 1.182-.73.282-.144.59-.243.87-.232.436-.13.392-.14.26-.11.128-.073.09-.036.052.003.063-.022-.352-.032-.26.047-.147-.047-.01-.15-.05-.092-.448.045-.52-.03-.266.018-.066-.063.006-.163-.13-.02-.258.035-.44.21-.37.11h-.244l-.183-.11-.28-.22-.143-.244-.263-.087-.25.022-.16.123h-.12l.025-.208.012-.164-.116-.07-.193-.157-.147-.084-.242-.103-.09-.02-.187-.012-.187-.008-.24.03-.23.13-.218.057-.282.026-.15-.056-.013-.136-.312-.123-.61-.105-.332-.09-.06-.075-.01-.08.058-.13.016-.328.082-.274.15-.328.075-.108-.02-.033-.078-.072z"/></svg>