<svg width="160" height="160" viewBox="0 0 160 160" xmlns="http://www.w3.org/2000/svg"><title>vietnam</title><desc>Created with Sketch.</desc><path d="M72.56 32l-.18.15-.235.267-.99.565-.438.218-.228.158-.176.236.025.58-.012.65-.257.33-.255.246-.306.026-.307-.01-.265.104-.764.65-.416-.053-.39-.367-.184-.265-.375.06-.448.31-.15.562-.043.522-.073.23-.156.066-.146.012-1.768-1.51-.104-.076-.23.312-.133.796-.16.154-.132-.058-.79-1.026-.18-.1-.135.04-.147.325-.332.493-.268.29.044.333-.295.293-.352.29-.126.033-.274-.12-.396-.384-.302-.402-.667-.4-.726-.337-.494-.262-.265-.064-.225.117-.095.16-.112.4-.314.655-.285.52-.29.334-.24.23.4.618.754.69.925.98.314.45.577.35.2.34.193.526.107.387.15.23.198.09.228-.1.15-.208.072-.574.09-.057.228.472.187.078.24.06.204.206.104.36-.008.364-.16.414-.062.434.01.66-.056.467.237.413 1.51 2.022.64.33 1.462.396.547.272.484.265.424-.128.34-.6.468-.342.873-.516.273-.03.554.205.94.606.704.565.428.3.334.268-.008.3-.193.297-.28.164-.357.285-.182.29.15.106.593.073.72.255.25.3.065.256.144.418.14.128.624-.076.208.097.26.215.303.56.05.42-.397.462-.13.283-.017.44-.25.53-.748.883-.227.053-1.667-.484-.735.025-.36.018-.17.02-.078.187.285.536.136.527-.142.408-.487.35-.177.172.006.228.178.236.527.245.603.23 2.074 1.38.447.322.596.478.63.373 1.61.487.728.323.2.18.025.222-.14.286-.084.5.035.3.2.29.332.435.71.67.374.3.384.064.346.165.404.498.473.61.11.425.24.547.443.627.574.606.787.755.47.53.208.207 1.65 1.29.42.475.638.918.236.134.23.18.196.508.092.358.21 1.11.31.327.297.408.147.294.245.215.254.044.263-.244.2-.236.112.07.33.775.25.283.432.268.41.21.945.932.49.338.312.11.28.158.112.295-.063.302-.153.192-.903.542-.098.236.172.355.3.452.312.384.375.38.754.616.646.48.387.53.22.36-.062.425-.193.463-.147.402-.308.23-.055.27.18.415.143.29-.018.35.113.73.13.36-.165.677-.18.615-.42.54.02.395-.034 1.177.102.375.14.32.174.172.53 1.154.485 1.053.454.862.12.542-.203 1.38-.273 1.272.095.63.228.633.256.848.168 1.076-.035.705-.137.44-.302.447-.276.227-.392-.378-.286-.018-.372.114-.286.175-.55.658-.623.64-.926.16-.324.476-.387.07-.742.025-.476.11.044.24.057 1.127.03.265-.067.067-.335.035-.584-.173-.79-.28-.554-.043-.242.492-.153.19-.202.03-.21.086-.058.22.005.275.147.47.097.742.01.51.23.32 1.257 1.08.37.272.054.163-.164.586.248.828-.37-.017-.64-.352-.314-.218-.34.17-.127-.028-.273-.408-.346-.416-.325-.027-.675.165-.69.113-.267-.003-.1.08-.362.614-.178-.106-.724-.236-.65-.087-.123.158.12.504.178.492-.07.207-.334.263-.437.467-.26.36-.19.09-.715-.016-.706.046-.26.34-.245.27-.228.072.54.463.474.475.133.385.306.248.464-.19.306-.026.44.57.532.094.366.217.356.466.08.33.006.288-.583.21-.453.342-.24 1.366v2.736l.182 2.494.458.36-.655.97.692.092 1.24-.297.407-.536.71-.586.383-1.045.51-.85 3.654-1.973.118-.332.052-.356-.306-.597-.297-.516-1.736-2.126.552.25 1.704 1.862 1.035.775.6-.02.295-.287.17-.242-.077-.483-.37-.688-1.978-2.087-.303-.518 1.898 1.835.646.464.22.055.33-.27-.013-.31-.017-.28.283-.446.375-.365-.015-.228-.34-.274-.733-.247-.813-.434.153-.037.865.098.643-.044.09-.28-.015-.242-.236-.445-.25-.117-.313.04-.213-.057.653-.46.533.666.528.326.25-.114.085-.262.016-1.154.107-.277.095.194.12.484.324.376.614.175.257.337.16.137.668-.39.474-.178.5-.452 1.516-.94.874-.132.444-1.15.444-.15.533-.093.78-.692.688-.748.82-.283.622-.755.926-.137.108-.856.055-.81.522-.057.193-.413.11-.39-.06-.318-.235-.414.012-.484.15-.393-.02-.174.083-.076.06.335.183.33.04-.3-.037-.248-.274-.52-.25-2.228.567.157-.64-1.658.27-.412.324-.28.312.53.398.458v-.006l-.213-.766-.127-1.54-.31-.453-.498-1.258-.254-.39-.02-1.12-.297-.905-.207-1.72.295.583.023-.594-.464-1.28-.144-.282-.138-.373-.17-.756-.387-.74-.407-1.093-.13-1.065-.415-.563-.614-1.293-.368-1.167-.586-1.282-.48-.316-.428-.37-.623-.656-.877-1.16-.38-.714-.71-.757-.098-.262-.086-.394-.16-.07-.172.063-.277-.473-.525-.515-.4-.574-.226-.037-.297.05-.29.125-.28-.08-.237-.526-.517-.548-.8-.525-.33-.263.02-.22-1.22-.986-1.064-.675-.477-1.026-1.23-1.08-1.193-.946-1.485-1.926-.89-.544-.1-.12.73.297-.242-1.004.16-.472-.584-.693-1.11-1.09-.572-.25-.487-.37-1.16-1.212-.336-.466-.243-.463-.44-.657-.1-.215-.782-1.215.017-.59.37-.462.264-1.08-.107-.548.072-.577-.098-.78.63-2.288.397-.315.57-.03 1.09-1.39.61-.54.21-.67-.245-.875.942-1.355-.156-.463-.493-1.003.01-.26.235.003.202.056.37.218.37.05.26-.155.254.014.19-.128.306-.053.243.26.303.07.957-.694.038-.476-.043-.425.1-.593.607-.332.582-.21.358-.245.48-.594.648-.012.254-.058-.41-.34-.672-.55-.248-.066-.62.268-.932.102-.25-.285-.427.216-.54-.66-.525-.045-.723-.5-.273-.266-.132-.38-.225-.198-.254.026-.31-.204-.48-.198-.378-.12-.162.09-.18.048-.073-.254-.1-.772-.134-.682-.145-.306-.274-.233-.238-.113-.148-.347-.026-.688.104-.47.274-.08.33-.34.12-.474.176-.443-.966-.62-.487-.22-.495.09-.594.202-.325.035-.176-.076-.45-.56-.21-.092-.45-.04-.376.008-.18.24-.32.083-.325.012-.387-.3-.565-.394-.837-.278-.146-.318-.26-.385-.36-.356-.568-.47L72.56 32zm14.164 13.72l-.142.92.312.013.683-.816-.224-.02-.528-.318-.1.22zm.58 1.45l-.17.39-.396.317.37.02.288-.172.115-.352-.045-.344-.162.14zm-4.044.963l.208.13.326.31.05-.125-.1-.277-.397-.45-.087.413zm.825.26l.52.527.22-.026.053-.094.084-.25-.012-.114-.133-.125-.533-.194-.2.276zm9.122 67.66l-.398.214.057.332.447-.395.13-.317-.107-.003-.13.17zm-17.918-.046l-.47.385-.276-.018.122.234.52.6.47 1.39.155-.207-.09-.323.17-.743-.01-.757-.133-.324-.222-.242-.236.007zm15.36 11.227l.126.134.16-.015.195-.122-.025-.136.03-.283-.486.424z" fill="#000"/></svg>