<?xml version="1.0" encoding="UTF-8"?>
<svg width="75px" height="17px" viewBox="0 0 75 17" version="1.1" xmlns="http://www.w3.org/2000/svg" xmlns:xlink="http://www.w3.org/1999/xlink">
    <!-- Generator: Sketch 53.2 (72643) - https://sketchapp.com -->
    <title>microsoft</title>
    <desc>Created with Sketch.</desc>
    <g id="microsoft" stroke="none" stroke-width="1" fill="none" fill-rule="evenodd">
        <g id="Microsoft_logo_(2012)" transform="translate(0.607143, 0.607143)" fill-rule="nonzero">
            <path d="M25.9314333,9.09208195 L25.4935667,10.3402547 L25.4570778,10.3402547 C25.3841,10.058804 25.2503075,9.63050941 25.0313742,9.11655592 L22.6839227,3.18161683 L20.385123,3.18161683 L20.385123,12.6408084 L21.9054931,12.6408084 L21.9054931,6.80376523 C21.9054931,6.43665559 21.9054931,6.02059801 21.8933302,5.50664452 C21.8811672,5.24966777 21.8568413,5.05387597 21.8446783,4.90703212 L21.8811672,4.90703212 C21.954145,5.27414175 22.0392857,5.54335548 22.1001005,5.71467331 L24.9219075,12.6163344 L25.9922481,12.6163344 L28.7897292,5.65348837 C28.850544,5.49440753 28.9113588,5.17624585 28.9721736,4.90703212 L29.0086625,4.90703212 C28.9721736,5.60454042 28.9478477,6.2286268 28.9356847,6.60797342 L28.9356847,12.6040975 L30.5533586,12.6040975 L30.5533586,3.15714286 L28.3396996,3.15714286 L25.9314333,9.09208195 L25.9314333,9.09208195 Z M32.0858917,5.8248062 L33.6670766,5.8248062 L33.6670766,12.6040975 L32.0858917,12.6040975 L32.0858917,5.8248062 Z M32.8886471,2.96135105 C32.621062,2.96135105 32.4021287,3.05924695 32.2196842,3.23056478 C32.0372398,3.40188261 31.9399361,3.62214839 31.9399361,3.89136213 C31.9399361,4.14833887 32.0372398,4.36860465 32.2196842,4.53992248 C32.4021287,4.71124031 32.621062,4.79689922 32.8886471,4.79689922 C33.1562323,4.79689922 33.3873285,4.69900332 33.55761,4.53992248 C33.7400544,4.36860465 33.8373581,4.14833887 33.8373581,3.89136213 C33.8373581,3.63438538 33.7400544,3.4141196 33.55761,3.23056478 C33.3994915,3.05924695 33.1683952,2.96135105 32.8886471,2.96135105 L32.8886471,2.96135105 Z M39.2742018,5.76362126 C38.9822907,5.70243632 38.6782167,5.66572536 38.3863056,5.66572536 C37.6686909,5.66572536 37.011891,5.8248062 36.4645577,6.14296788 C35.9172245,6.46112957 35.4793579,6.90166113 35.1996097,7.45232558 C34.9076987,8.01522702 34.7617431,8.66378738 34.7617431,9.41024363 C34.7617431,10.058804 34.9076987,10.6339424 35.1874468,11.1601329 C35.4671949,11.6740864 35.8564096,12.090144 36.379417,12.3715947 C36.8780984,12.6530454 37.4619205,12.7998893 38.1187204,12.7998893 C38.872824,12.7998893 39.517461,12.6408084 40.0283053,12.3471207 L40.0404683,12.3348837 L40.0404683,10.8664452 L39.9796535,10.9153931 C39.7485572,11.086711 39.4809721,11.2335548 39.2133869,11.3192137 C38.9336388,11.4171096 38.6782167,11.4660576 38.4592833,11.4660576 C37.8268094,11.4660576 37.328128,11.2825028 36.9754021,10.8786822 C36.6105132,10.4870986 36.4280688,9.9486711 36.4280688,9.27563677 C36.4280688,8.57812846 36.6105132,8.02746401 36.987565,7.62364341 C37.3646168,7.21982281 37.8632982,7.01179402 38.4714463,7.01179402 C38.9822907,7.01179402 39.505298,7.18311185 39.9796535,7.52574751 L40.0404683,7.57469546 L40.0404683,6.02059801 L40.0283053,6.00836102 C39.821535,5.9227021 39.5904387,5.8248062 39.2742018,5.76362126 L39.2742018,5.76362126 Z M44.4921121,5.71467331 C44.1028974,5.71467331 43.7380085,5.83704319 43.4217715,6.09401993 C43.1541864,6.31428571 42.971742,6.6324474 42.8136235,7.01179402 L42.8014605,7.01179402 L42.8014605,5.8248062 L41.2202755,5.8248062 L41.2202755,12.6040975 L42.8014605,12.6040975 L42.8014605,9.1410299 C42.8014605,8.55365449 42.9230901,8.06417497 43.1906753,7.70930233 C43.4582604,7.34219269 43.7988233,7.15863787 44.212364,7.15863787 C44.3583195,7.15863787 44.5042751,7.19534884 44.6867195,7.21982281 C44.8570009,7.26877076 44.9786306,7.31771872 45.0637713,7.37890365 L45.1245861,7.42785161 L45.1245861,5.83704319 L45.0880972,5.8248062 C44.9786306,5.75138427 44.7596973,5.71467331 44.4921121,5.71467331 L44.4921121,5.71467331 Z M48.7978004,5.67796235 C47.6909709,5.67796235 46.8030747,6.00836102 46.1827637,6.65692137 C45.5502897,7.30548173 45.2462157,8.19878184 45.2462157,9.32458472 C45.2462157,10.3769657 45.5624527,11.2335548 46.1706008,11.8576412 C46.7787488,12.4694906 47.6058302,12.7876523 48.6396819,12.7876523 C49.7221854,12.7876523 50.5857557,12.4572536 51.2060667,11.7964563 C51.8385407,11.1356589 52.1426147,10.2545958 52.1426147,9.16550388 C52.1426147,8.08864895 51.8507036,7.2320598 51.2547185,6.60797342 C50.6830594,5.98388704 49.843815,5.67796235 48.7978004,5.67796235 L48.7978004,5.67796235 Z M50.0627483,10.8909192 C49.7708373,11.2702658 49.3086447,11.4538206 48.7369856,11.4538206 C48.1653264,11.4538206 47.7031339,11.2702658 47.3747339,10.8664452 C47.046334,10.4870986 46.8882155,9.93643411 46.8882155,9.2389258 C46.8882155,8.51694352 47.0584969,7.96627907 47.3747339,7.57469546 C47.7031339,7.18311185 48.1531634,6.98732004 48.7248226,6.98732004 C49.2843188,6.98732004 49.7221854,7.17087486 50.0384224,7.55022148 C50.3546594,7.92956811 50.5249409,8.48023256 50.5249409,9.20221484 C50.5006149,9.93643411 50.3668224,10.5115725 50.0627483,10.8909192 L50.0627483,10.8909192 Z M55.6698735,8.6393134 C55.1711921,8.43128461 54.8549551,8.27220377 54.7089995,8.1375969 C54.5873699,8.01522702 54.5265551,7.84390919 54.5265551,7.62364341 C54.5265551,7.44008859 54.5995329,7.25653378 54.7819773,7.1341639 C54.9644217,7.01179402 55.1711921,6.95060908 55.4752661,6.95060908 C55.7428512,6.95060908 56.0225993,6.99955703 56.2901845,7.07297896 C56.5577696,7.14640089 56.8010289,7.25653378 56.9956362,7.40337763 L57.056451,7.45232558 L57.056451,5.95941307 L57.0199622,5.94717608 C56.8375177,5.87375415 56.5942585,5.80033223 56.3023474,5.73914729 C56.0104364,5.69019934 55.7428512,5.66572536 55.5239179,5.66572536 C54.7698143,5.66572536 54.1495033,5.84928018 53.6629849,6.25310078 C53.1764664,6.6324474 52.9453702,7.14640089 52.9453702,7.74601329 C52.9453702,8.06417497 52.994022,8.34562569 53.1034886,8.57812846 C53.2129553,8.81063123 53.3710738,9.03089701 53.5900071,9.21445183 C53.8089404,9.38576966 54.1251774,9.58156146 54.563044,9.76511628 C54.9279328,9.92419712 55.2076809,10.046567 55.3779624,10.1444629 C55.5482439,10.2423588 55.6577105,10.3524917 55.7428512,10.4381506 C55.803666,10.5360465 55.8401549,10.6584164 55.8401549,10.8174972 C55.8401549,11.2702658 55.499592,11.4905316 54.8063032,11.4905316 C54.5387181,11.4905316 54.25897,11.4415836 53.93057,11.3314507 C53.6021701,11.2213178 53.298096,11.062237 53.0426738,10.8786822 L52.981859,10.8297342 L52.981859,12.3838317 L53.0183479,12.3960687 C53.2494442,12.5062016 53.5291923,12.5796235 53.8697552,12.6652824 C54.2103181,12.7264673 54.5143921,12.7754153 54.7819773,12.7754153 C55.5968957,12.7754153 56.2658586,12.5918605 56.740214,12.1880399 C57.2267325,11.7964563 57.4821547,11.2947398 57.4821547,10.6461794 C57.4821547,10.1934109 57.3605251,9.78959025 57.0929399,9.48366556 C56.740214,9.18997785 56.3023474,8.88405316 55.6698735,8.6393134 L55.6698735,8.6393134 Z M61.6540504,5.67796235 C60.5472209,5.67796235 59.6593247,6.00836102 59.0390137,6.65692137 C58.4187027,7.30548173 58.1024657,8.19878184 58.1024657,9.32458472 C58.1024657,10.3769657 58.4187027,11.2335548 59.0268508,11.8576412 C59.6349988,12.4694906 60.4620802,12.7876523 61.4959319,12.7876523 C62.5784354,12.7876523 63.4420057,12.4572536 64.0623167,11.7964563 C64.6947907,11.1356589 64.9988647,10.2545958 64.9988647,9.16550388 C64.9988647,8.08864895 64.7069536,7.2320598 64.1109685,6.60797342 C63.5393094,5.98388704 62.700065,5.67796235 61.6540504,5.67796235 L61.6540504,5.67796235 Z M62.9068354,10.8909192 C62.6149243,11.2702658 62.1527318,11.4538206 61.5810726,11.4538206 C60.9972505,11.4538206 60.5472209,11.2702658 60.218821,10.8664452 C59.890421,10.4870986 59.7323025,9.93643411 59.7323025,9.2389258 C59.7323025,8.51694352 59.902584,7.96627907 60.218821,7.57469546 C60.5472209,7.18311185 60.9972505,6.98732004 61.5689096,6.98732004 C62.1162429,6.98732004 62.5662725,7.17087486 62.8825095,7.55022148 C63.1987465,7.92956811 63.3690279,8.48023256 63.3690279,9.20221484 C63.3690279,9.93643411 63.2109094,10.5115725 62.9068354,10.8909192 L62.9068354,10.8909192 Z M73.4521228,7.1341639 L73.4521228,5.8248062 L71.8587748,5.8248062 L71.8587748,3.8179402 L71.810123,3.83017719 L70.3019158,4.28294574 L70.2654269,4.29518272 L70.2654269,5.8248062 L67.8814865,5.8248062 L67.8814865,4.96821705 C67.8814865,4.57663344 67.9787902,4.27070875 68.1490717,4.07491694 C68.3193531,3.87912514 68.5747753,3.78122924 68.8910123,3.78122924 C69.1099456,3.78122924 69.3410419,3.83017719 69.596464,3.94031008 L69.6572789,3.97702104 L69.6572789,2.59424142 L69.62079,2.58200443 C69.4018567,2.5085825 69.1099456,2.45963455 68.7328938,2.45963455 C68.2585383,2.45963455 67.8449976,2.56976744 67.4679458,2.75332226 C67.090894,2.96135105 66.8111459,3.24280177 66.6043756,3.62214839 C66.3976053,3.98925803 66.2881386,4.40531561 66.2881386,4.88255814 L66.2881386,5.8248062 L65.1813091,5.8248062 L65.1813091,7.12192691 L66.2881386,7.12192691 L66.2881386,12.6040975 L67.8814865,12.6040975 L67.8814865,7.1341639 L70.2654269,7.1341639 L70.2654269,10.6217054 C70.2654269,12.053433 70.9343898,12.7754153 72.2723155,12.7754153 C72.4912488,12.7754153 72.7223451,12.7387043 72.9412784,12.7019934 C73.1723746,12.6530454 73.3426561,12.5918605 73.4399598,12.5429125 L73.4521228,12.5306755 L73.4521228,11.2213178 L73.3913079,11.2702658 C73.2940043,11.3314507 73.2088635,11.3803987 73.062908,11.4171096 C72.9412784,11.4538206 72.8318117,11.4660576 72.746671,11.4660576 C72.430434,11.4660576 72.2115007,11.3926357 72.0533822,11.2090808 C71.9074267,11.037763 71.8344489,10.7563123 71.8344489,10.3402547 L71.8344489,7.1341639 L73.4521228,7.1341639 L73.4521228,7.1341639 Z" id="Shape" fill="#737373"></path>
            <polygon id="Path" fill="#F25022" points="0 0 7.45589522 0 7.45589522 7.50127353 0 7.50127353"></polygon>
            <polygon id="Path" fill="#7FBA00" points="8.23432474 0 15.69022 0 15.69022 7.50127353 8.23432474 7.50127353"></polygon>
            <polygon id="Path" fill="#00A4EF" points="0 8.28444075 7.45589522 8.28444075 7.45589522 15.7857143 0 15.7857143"></polygon>
            <polygon id="Path" fill="#FFB900" points="8.23432474 8.28444075 15.69022 8.28444075 15.69022 15.7857143 8.23432474 15.7857143"></polygon>
        </g>
    </g>
</svg>