<?xml version="1.0" encoding="UTF-8"?>
<svg width="37px" height="21px" viewBox="0 0 37 21" version="1.1" xmlns="http://www.w3.org/2000/svg" xmlns:xlink="http://www.w3.org/1999/xlink">
    <!-- Generator: Sketch 54.1 (76490) - https://sketchapp.com -->
    <title>Group</title>
    <desc>Created with Sketch.</desc>
    <g id="Page-1" stroke="none" stroke-width="1" fill="none" fill-rule="evenodd">
        <g id="red-bull-seeklogo.com">
            <g id="Group">
                <path d="M35.0341422,12.6522938 C35.0924076,12.6522938 35.3671848,12.6570711 35.3671848,12.9414882 C35.3671848,13.0825024 35.2602085,13.1650806 35.1411185,13.1870047 L35.1411185,13.1724171 C35.1921327,13.1797536 35.2358957,13.2331564 35.2602085,13.2890332 L35.4425118,13.7096019 L35.2917725,13.7096019 L35.1143318,13.3182085 C35.090019,13.2647204 35.0754313,13.2307678 34.9879905,13.2307678 L34.8688152,13.2307678 L34.8688152,13.7096019 L34.7302749,13.7096019 L34.7302749,12.6522938 L35.0341422,12.6522938 Z M34.8688152,13.1092038 L34.9977156,13.1092038 C35.148455,13.1092038 35.2213081,13.021763 35.2213081,12.9414882 C35.2213081,12.8783602 35.2043318,12.7736872 35.0292796,12.7736872 L34.8688152,12.7736872 L34.8688152,13.1092038 Z M35.0535924,12.2778768 L35.0535924,12.2778768 C35.5470142,12.2778768 35.9505213,12.6813839 35.9505213,13.174891 C35.9505213,13.6683128 35.5470142,14.0718199 35.0535924,14.0718199 C34.5601706,14.0718199 34.1566635,13.6683128 34.1566635,13.174891 C34.1566635,12.6813839 34.5601706,12.2778768 35.0535924,12.2778768 Z M35.0535924,13.9501706 L35.0535924,13.9501706 C35.4861896,13.9501706 35.8289573,13.6074882 35.8289573,13.174891 C35.8289573,12.7422085 35.4861896,12.3995261 35.0535924,12.3995261 C34.62091,12.3995261 34.2781422,12.7422085 34.2781422,13.174891 C34.2781422,13.6074882 34.62091,13.9501706 35.0535924,13.9501706 Z" id="Fill-1" fill="#DA2F3B"></path>
                <path d="M35.0341422,12.6522938 C35.0924076,12.6522938 35.3671848,12.6570711 35.3671848,12.9414882 C35.3671848,13.0825024 35.2602085,13.1650806 35.1411185,13.1870047 L35.1411185,13.1724171 C35.1921327,13.1797536 35.2358957,13.2331564 35.2602085,13.2890332 L35.4425118,13.7096019 L35.2917725,13.7096019 L35.1143318,13.3182085 C35.090019,13.2647204 35.0754313,13.2307678 34.9879905,13.2307678 L34.8688152,13.2307678 L34.8688152,13.7096019 L34.7302749,13.7096019 L34.7302749,12.6522938 L35.0341422,12.6522938 Z M34.8688152,13.1092038 L34.9977156,13.1092038 C35.148455,13.1092038 35.2213081,13.021763 35.2213081,12.9414882 C35.2213081,12.8783602 35.2043318,12.7736872 35.0292796,12.7736872 L34.8688152,12.7736872 L34.8688152,13.1092038 Z M35.0535924,12.2778768 L35.0535924,12.2778768 C35.5470142,12.2778768 35.9505213,12.6813839 35.9505213,13.174891 C35.9505213,13.6683128 35.5470142,14.0718199 35.0535924,14.0718199 C34.5601706,14.0718199 34.1566635,13.6683128 34.1566635,13.174891 C34.1566635,12.6813839 34.5601706,12.2778768 35.0535924,12.2778768 Z M35.0535924,13.9501706 L35.0535924,13.9501706 C35.4861896,13.9501706 35.8289573,13.6074882 35.8289573,13.174891 C35.8289573,12.7422085 35.4861896,12.3995261 35.0535924,12.3995261 C34.62091,12.3995261 34.2781422,12.7422085 34.2781422,13.174891 C34.2781422,13.6074882 34.62091,13.9501706 35.0535924,13.9501706 Z" id="Stroke-2" stroke="#DA2F3B" stroke-width="0.216"></path>
                <path d="M4.35480569,5.70454976 C4.2109763,5.57317536 4.13036019,5.42260664 4.08540284,5.29720379 C4.0404455,5.1670237 3.98235071,5.00459716 3.98235071,4.86673934 C3.98516588,4.24458768 4.34832227,3.78247393 4.73920379,3.56843602 C4.91690047,3.47127014 4.9828436,3.40464455 5.01005687,3.37035071 C4.99674882,3.36506161 4.98019905,3.35985782 4.9690237,3.35985782 C4.43695735,3.35985782 4.16414218,3.1531564 4.03020853,2.97818957 C3.90327014,2.8143128 3.83852133,2.60300474 3.83852133,2.37199052 C3.83852133,2.25963981 3.85438863,2.14217062 3.88544076,2.02205687 C4.03524171,1.77432227 4.17787678,1.8423981 4.26506161,1.96908057 C4.32068246,2.04841706 4.70158294,2.31841706 5.17094787,2.36132701 C5.51252133,2.39374408 5.69661611,2.56077725 5.79233175,2.69419905 C5.90263507,2.84869194 5.94503318,3.03483412 5.94503318,3.19325118 C5.94503318,3.25808531 5.93778199,3.31890995 5.92370616,3.37299526 C5.8722654,3.58165877 5.65242654,3.76976303 5.34617062,4.00947867 L5.17248341,4.15347867 C4.91809479,4.37596209 4.77818957,4.62378199 4.77818957,4.83363981 C4.77818957,4.88601896 4.78740284,4.93720379 4.80514692,4.98437915 C4.81256872,5.00382938 4.82127014,5.02251185 4.83159242,5.04025592 C4.94539336,5.23254028 5.26632227,5.35325118 5.73227488,5.19022749 C5.94767773,5.11558294 6.36236019,4.85462559 6.61529858,4.6037346 C6.913109,4.30660664 7.31064455,4.2352891 7.69359242,4.20509005 C8.02552607,4.18000948 8.22975355,4.09862559 8.37383886,3.93679621 C8.79901422,3.45753555 9.20832227,3.39022749 9.59135545,3.3617346 C9.73791469,3.35047393 9.74601896,3.33998104 9.76495735,3.31421801 C9.97600948,3.03295735 10.1929479,2.88409479 10.3877062,2.79750711 C10.5360569,2.73147867 10.6714408,2.70145024 10.7825118,2.67705213 L10.9172133,2.64395261 L10.9508246,2.63218009 C11.1641801,2.56350711 11.3291659,2.50652133 11.763128,2.21340284 L11.7814692,2.20171564 L11.7816398,2.20137441 L11.7997251,2.19002844 L11.799981,2.18994313 L11.8181517,2.17919431 L11.8185782,2.179109 L11.8367488,2.16853081 L11.83709,2.1684455 L11.8555166,2.15880569 L11.8560284,2.15846445 L11.8741137,2.14899526 L11.8747962,2.14882464 L11.8931374,2.13995261 L11.8938199,2.13969668 L11.9121611,2.13108057 L11.9128436,2.13082464 L11.9311848,2.12306161 L11.9319526,2.12272038 L11.9502938,2.11521327 L11.9513175,2.11495735 L11.9697441,2.10796209 L11.9706825,2.10753555 L11.9889384,2.10096682 L12.0084739,2.09448341 L12.0096682,2.09414218 L12.0277536,2.08834123 L12.0290332,2.088 L12.0473744,2.08262559 L12.048654,2.08228436 L12.06691,2.07725118 L12.0682749,2.07690995 L12.0867014,2.07247393 L12.0881517,2.0721327 L12.1063223,2.06795261 L12.1077725,2.06761137 L12.1261137,2.06377251 L12.1277346,2.06343128 L12.1459052,2.06001896 L12.1475261,2.05984834 L12.165782,2.05677725 L12.1674028,2.05643602 L12.1855735,2.05379147 L12.1873649,2.05345024 L12.2055355,2.05114692 L12.207327,2.05080569 L12.2251564,2.04875829 L12.2272038,2.04875829 L12.2452038,2.04705213 L12.2473365,2.04679621 L12.2651659,2.04543128 L12.2672986,2.04526066 L12.2850427,2.04415166 L12.2871754,2.04398104 L12.30509,2.04329858 L12.3250521,2.04261611 L12.3271848,2.04261611 L12.3449289,2.04236019 L12.3671943,2.04236019 L12.3846825,2.04261611 L12.3869858,2.04278673 L12.3889479,2.04278673 C12.4015735,2.04312796 12.4142844,2.04381043 12.42691,2.0445782 L12.4443128,2.0456019 L12.4467867,2.04577251 L12.4639336,2.04713744 L12.4665782,2.04739336 L12.4837251,2.04909953 L12.4863697,2.04935545 L12.5034313,2.05106161 L12.5061611,2.05131754 L12.5230521,2.05345024 L12.5258673,2.05379147 L12.542673,2.05592417 L12.5454882,2.05643602 L12.5621232,2.05890995 L12.5649384,2.0594218 L12.5816588,2.06198104 L12.5846445,2.06249289 L12.6009384,2.06530806 L12.6040948,2.06581991 L12.620218,2.068891 L12.6232038,2.06948815 C12.6491374,2.07435071 12.6745592,2.08006635 12.6997251,2.08620853 L12.7155071,2.0901327 L12.7186635,2.09098578 C12.7439147,2.0975545 12.7688246,2.10454976 12.7933081,2.11188626 L12.807981,2.11640758 L12.811564,2.11743128 C12.8601896,2.13278673 12.9073649,2.15010427 12.9529194,2.1684455 L12.9658009,2.1737346 L12.9826066,2.18072986 C13.9104171,0.920388626 15.3772891,0.0816398104 17.0444645,0.00580094787 L17.0444645,0.00571563981 C17.071763,0.00443601896 17.0991469,0.00341232227 17.126872,0.00264454976 C17.154,0.00179146919 17.1815545,0.0011943128 17.2091943,0.000853080569 C17.2366635,0.000170616114 17.2643033,0 17.2920284,0 C17.3192417,0 17.346455,0.000255924171 17.3735829,0.000597156398 C17.4009668,0.00110900474 17.4278389,0.00162085308 17.4549668,0.00247393365 C17.4820095,0.00332701422 17.5089668,0.00443601896 17.5359242,0.0055450237 L17.5361801,0.0055450237 C17.5629668,0.00690995261 17.5899242,0.00818957346 17.6169668,0.00981042654 C19.2299716,0.106720379 20.6508626,0.919194313 21.5659621,2.13389573 C21.6965687,2.08842654 21.8386919,2.05558294 21.9843128,2.0456019 L21.9880664,2.04543128 L22.0018009,2.04449289 L22.0159621,2.04381043 L22.019545,2.04363981 L22.0232986,2.0435545 L22.0372891,2.04304265 L22.0410427,2.04278673 L22.0550332,2.04261611 L22.0587867,2.04253081 L22.0730332,2.04236019 L22.0766161,2.04236019 L22.0906919,2.04253081 L22.0942749,2.04253081 L22.112019,2.04287204 L22.1265213,2.0435545 L22.129763,2.04363981 L22.1442654,2.04432227 L22.1475071,2.04449289 L22.1622654,2.04543128 L22.1649953,2.04577251 L22.1799242,2.04696682 L22.1827393,2.04713744 L22.1976682,2.04858768 L22.2005687,2.04892891 C22.2358009,2.05259716 22.2712891,2.05797156 22.3062654,2.06513744 L22.3219621,2.06837915 L22.3240095,2.068891 L22.3394502,2.07247393 L22.3415829,2.07298578 L22.3571943,2.07690995 L22.3590711,2.07733649 L22.3746825,2.08143128 L22.3763886,2.08194313 L22.3924265,2.08646445 L22.3938768,2.086891 L22.4095735,2.09175355 L22.411109,2.0922654 L22.4272322,2.09738389 L22.4284265,2.09789573 L22.4456588,2.10395261 L22.461782,2.10958294 L22.4627204,2.11009479 L22.4788436,2.11640758 L22.479782,2.11683412 L22.4960758,2.12340284 L22.4970995,2.12382938 C22.5251659,2.1356872 22.5531469,2.14890995 22.5805308,2.16383886 L22.5810427,2.16418009 L22.5973365,2.17288152 L22.5976777,2.17322275 L22.6139716,2.18252133 L22.6141422,2.18260664 L22.6305213,2.19250237 L22.6306919,2.19250237 L22.6468152,2.20265403 L22.6468152,2.20282464 L22.663109,2.21340284 C22.9622844,2.41652133 23.1346919,2.50609479 23.2821043,2.56453081 C23.3483886,2.590891 23.409981,2.61085308 23.475327,2.63218009 L23.5095355,2.64395261 L23.6456872,2.67705213 C23.7194787,2.69326066 23.8035924,2.71194313 23.8950427,2.74188626 C24.123327,2.81636019 24.3964834,2.96061611 24.661109,3.31421801 C24.6803033,3.33998104 24.6890047,3.35047393 24.8360758,3.3617346 C25.2186825,3.39022749 25.6273934,3.45753555 26.0543602,3.93679621 C26.1973365,4.09862559 26.4006256,4.18000948 26.7325592,4.20509005 C27.1176398,4.2352891 27.513981,4.30660664 27.8110237,4.6037346 C28.0644739,4.85462559 28.4785592,5.11558294 28.6944739,5.19022749 C29.1601706,5.35325118 29.482891,5.23254028 29.5939621,5.04025592 C29.6181896,4.99964929 29.634654,4.95503318 29.6428436,4.90785782 C29.6469384,4.88363033 29.6494976,4.85872038 29.6494976,4.83363981 C29.6494976,4.62378199 29.5093365,4.37596209 29.2556303,4.15347867 L29.2238957,4.1272891 L29.0803223,4.00947867 C28.7751754,3.76976303 28.5554218,3.58165877 28.5023602,3.37299526 C28.4883697,3.31890995 28.4822275,3.25808531 28.4822275,3.19325118 C28.4822275,3.03483412 28.5256493,2.84877725 28.6339052,2.69419905 C28.7301327,2.56077725 28.9164455,2.39374408 29.2556303,2.36132701 C29.7274692,2.31841706 30.1061517,2.04841706 30.1616019,1.96908057 C30.2504929,1.8423981 30.3915924,1.77432227 30.5407962,2.02205687 C30.5726161,2.14208531 30.5883128,2.25963981 30.5883128,2.37199052 C30.5883128,2.60428436 30.5236493,2.8143128 30.3968815,2.97818957 C30.2621801,3.1531564 29.9901327,3.35985782 29.4572986,3.35985782 C29.4458673,3.35985782 29.4300853,3.36506161 29.4170332,3.37035071 C29.4434787,3.40464455 29.5093365,3.47127014 29.6874597,3.56843602 C30.0785118,3.78247393 30.4420095,4.24458768 30.4451659,4.86673934 C30.4451659,5.00459716 30.3877536,5.1670237 30.3414313,5.29720379 C30.3011659,5.4095545 30.2324076,5.54220853 30.1158768,5.66300474 C30.1022275,5.67708057 30.088237,5.69090047 30.0732227,5.70454976 C29.8532133,5.90911848 29.4863886,6.06958294 28.8752417,6.03307109 C28.8137346,6.02948815 28.7494976,6.0236019 28.6827014,6.01575355 C28.6669194,6.32405687 28.5822938,6.69036967 28.4632891,6.87540284 C28.4270332,6.93341232 28.4200379,6.9723128 28.4200379,6.99150711 C28.4200379,6.99944076 28.4206351,7.00421801 28.4206351,7.00754502 C28.4245592,7.00882464 28.6918294,7.16647393 28.6918294,7.16647393 L28.7349953,7.1883981 C28.7349953,7.1883981 28.7599052,7.20025592 28.7633175,7.20298578 C28.7672417,7.20153555 28.8557062,7.19761137 28.8557062,7.19761137 L28.873109,7.19513744 L28.8748152,7.19488152 C29.0419336,7.17901422 29.2974313,7.09720379 29.4056872,7.40038863 C29.4342654,7.48074882 29.4514123,7.55070142 29.4677062,7.61280569 C29.500891,7.73965877 29.5292133,7.83383886 29.6401991,7.91931754 C29.6401991,7.91931754 29.6952227,7.87222749 29.7574976,7.81686256 C29.8084265,7.77156398 29.8638768,7.72080569 29.8989384,7.68625592 C29.9763128,7.60700474 30.1194597,7.64735545 30.2224265,7.68625592 C30.3268436,7.72583886 30.4560853,7.81575355 30.5473649,7.86779147 C30.6391564,7.91931754 30.6900853,7.98466351 30.7165308,8.06272038 C30.7441706,8.14060664 30.8078957,8.19204739 30.9052322,8.24365877 C30.999327,8.2969763 31.1337725,8.46810427 31.1337725,8.69911848 C31.1337725,8.73452133 31.1379526,8.76480569 31.147763,8.79705213 C31.1545877,8.81829384 31.1638009,8.84038863 31.1766825,8.86563981 C31.3079716,9.13035071 31.2023602,9.26377251 31.1265213,9.31990521 C31.024237,9.39651185 30.8437251,9.42816114 30.6743033,9.40043602 L30.6755829,9.44402844 L30.4279336,9.41092891 C30.332218,9.39907109 30.2055355,9.4235545 30.1301232,9.43925118 L30.1122085,9.44402844 C29.9360474,9.47909005 29.7056303,9.41945972 29.576218,9.20909005 C29.5714408,9.20124171 29.5665782,9.19347867 29.5622275,9.18511848 C29.4961137,9.06909953 29.3933175,8.96144076 29.3431564,8.93166825 C29.270218,8.95163033 29.1553934,8.97867299 29.0187299,8.96476777 C28.8917062,8.95197156 28.7456588,8.90334597 28.5968815,8.78007583 C28.5723981,8.7596019 28.5474028,8.73699526 28.5230047,8.71234123 C28.3041043,8.49318483 28.015763,8.44814218 27.8345687,8.47595261 L27.7265687,8.49514692 C27.5033175,8.53558294 27.2245308,8.5870237 26.9670711,8.42980095 C26.9028341,8.39081517 26.8105308,8.35054976 26.720019,8.31224645 C26.4863602,8.21055924 26.2445972,8.10554502 26.2119242,7.88434123 C26.2062938,7.84475829 26.1636398,7.77275829 26.1284929,7.71534597 C26.0975261,7.66458768 26.0637441,7.60913744 26.0378957,7.54967773 C26.0129858,7.49294787 25.9950711,7.43246445 25.9930237,7.3694218 C25.9184645,7.38853081 25.8404076,7.39723223 25.7587678,7.39330806 C25.7313839,7.39202844 25.7035735,7.38921327 25.6754218,7.38511848 L25.5738199,7.3694218 C25.4030332,7.34024645 25.0447393,7.28138389 24.9308531,7.32301422 C24.7035071,7.40490995 23.9889668,7.4445782 23.7930142,7.39970616 C23.7930142,7.39970616 23.7211848,7.38383886 23.6530237,7.3694218 C23.5876777,7.43672986 23.51491,7.50011374 23.4383033,7.55624645 C23.5817915,7.56409479 23.7077915,7.5462654 23.7944645,7.56870142 L23.9745498,7.6161327 C24.0320474,7.5991564 24.1725498,7.60111848 24.2523981,7.60828436 L24.4631943,7.62415166 L24.7035071,7.64735545 C24.8195261,7.67047393 24.942455,7.72054976 24.9216398,7.94772512 C24.9133649,8.01776303 24.8743791,8.11680569 24.8152607,8.17490047 C24.7827583,8.21055924 24.6572701,8.39277725 24.6293744,8.45027488 L24.6203318,8.46810427 C24.5714502,8.57243602 24.4988531,8.66823697 24.2874597,8.66823697 C24.2611848,8.66823697 24.2272322,8.66883412 24.2070995,8.67147867 C24.2005308,8.68862559 24.1832133,8.72027488 24.1832133,8.72027488 C24.1356967,8.82853081 24.0670237,8.97918483 23.9357346,9.06628436 L23.9005024,9.09145024 C23.7949763,9.16669194 23.619327,9.29090047 23.3505213,9.19322275 L23.2580474,9.16003791 C23.0235355,9.07558294 22.6689953,8.94890047 22.4901896,8.85105213 L22.465109,8.83723223 C22.2985024,8.74595261 22.2616493,8.72769668 22.2010806,8.73614218 L22.1674692,8.74134597 C22.0395924,8.75926066 21.7987678,8.79167773 21.6320758,8.51545024 L21.6168057,8.49164929 C20.8269384,9.57574408 19.6398768,10.3516209 18.2697441,10.6049858 L18.2638578,10.6060095 C18.2171943,10.6146256 18.1701896,10.6227299 18.1230142,10.629981 L18.1055261,10.6327109 L18.0411185,10.6421801 C18.0160379,10.6456777 17.9910427,10.6491754 17.9657062,10.6522464 L17.9198104,10.6578768 L17.8473839,10.6658104 L17.7972227,10.6710142 C17.7644645,10.674 17.7316209,10.6766445 17.6987773,10.6792038 L17.6675545,10.6814218 C17.6375261,10.6833839 17.6074123,10.685346 17.577128,10.6869668 L17.5440284,10.688673 C17.5089668,10.6903791 17.4741611,10.6915735 17.4389289,10.6925972 L17.4032701,10.6933649 C17.3660758,10.6941327 17.3292227,10.6946445 17.2920284,10.6946445 C17.2537251,10.6946445 17.2158483,10.6939621 17.1777156,10.6932796 L17.1441896,10.6925972 C17.1104929,10.6915735 17.0769668,10.6903791 17.0433555,10.6888436 L17.0021517,10.6867109 C16.9737441,10.68509 16.9454218,10.6833839 16.9170142,10.6814218 L16.8807583,10.6788626 C16.8471469,10.6763033 16.8137915,10.6734882 16.7801801,10.6705024 L16.7305308,10.6652986 L16.6647583,10.6579621 L16.6280758,10.653782 C16.5935261,10.6495166 16.5589763,10.6447393 16.5246825,10.6398768 L16.4829668,10.6334787 L16.4094313,10.6219621 L16.3715545,10.615564 C16.3419526,10.6104455 16.312436,10.6050711 16.2828341,10.5994408 L16.2191943,10.5868152 L16.1865213,10.5799905 C16.142673,10.5706919 16.09891,10.5611374 16.0556588,10.5507299 L16.0440569,10.5480853 L15.9758957,10.5312796 L15.9409194,10.522237 C15.9002275,10.5117441 15.8597915,10.500654 15.8195261,10.4890521 L15.805109,10.4850427 C14.6038863,10.1382654 13.5771185,9.38183886 12.8849289,8.37682464 L12.7939052,8.51545024 C12.6288341,8.79167773 12.388436,8.75926066 12.259109,8.74134597 L12.2254123,8.73614218 C12.1650995,8.72769668 12.1267962,8.74595261 11.9618957,8.83723223 L11.9353649,8.85105213 C11.7571564,8.94890047 11.4038957,9.07558294 11.1681896,9.16003791 L11.075545,9.19322275 C10.80691,9.29090047 10.6305782,9.16669194 10.5270142,9.09145024 L10.490673,9.06628436 C10.3592986,8.97918483 10.2912227,8.82853081 10.2429384,8.72027488 C10.2429384,8.72027488 10.2270711,8.68862559 10.2194787,8.67147867 C10.1988341,8.66883412 10.1656493,8.66823697 10.1387773,8.66823697 C9.92934597,8.66823697 9.85470142,8.57243602 9.80658768,8.46810427 L9.79797156,8.45027488 C9.76956398,8.39277725 9.64544076,8.21055924 9.61123223,8.17490047 C9.55305213,8.11680569 9.51193365,8.01776303 9.50545024,7.94772512 C9.48369668,7.72054976 9.60841706,7.67047393 9.72324171,7.64735545 L9.96389573,7.62415166 L10.1751185,7.60828436 C10.2536019,7.60111848 10.3942749,7.5991564 10.4516872,7.6161327 L10.6319431,7.56870142 C10.717763,7.5462654 10.845128,7.56409479 10.9871659,7.55624645 C10.9120095,7.50011374 10.8413744,7.43672986 10.7732986,7.3694218 C10.704455,7.38383886 10.6331374,7.39970616 10.6331374,7.39970616 C10.4365877,7.4445782 9.72324171,7.40490995 9.49751659,7.32301422 C9.38277725,7.28138389 9.02482464,7.34024645 8.85301422,7.3694218 L8.74996209,7.38511848 C8.63923223,7.40166825 8.53276777,7.39509953 8.43449289,7.3694218 C8.42903318,7.49874882 8.35890995,7.6161327 8.2990237,7.71534597 C8.26404739,7.77275829 8.21985782,7.84475829 8.21448341,7.88434123 C8.18351659,8.10554502 7.93893839,8.21055924 7.70604739,8.31224645 C7.61545024,8.35054976 7.52451185,8.39081517 7.45976303,8.42980095 C7.20418009,8.5870237 6.92419905,8.53558294 6.70043602,8.49514692 L6.59209479,8.47595261 C6.41183886,8.44814218 6.12324171,8.49318483 5.90417062,8.71234123 C5.56916588,9.04666351 5.23578199,8.97312796 5.08393365,8.93166825 C5.0336872,8.96144076 4.93012322,9.06909953 4.86460664,9.18511848 C4.73800948,9.4150237 4.49624645,9.48036967 4.31394313,9.44402844 L4.2956872,9.43925118 C4.22095735,9.4235545 4.09606635,9.39907109 4.00035071,9.41092891 L3.75133649,9.44402844 L3.75406635,9.40043602 C3.58370616,9.42816114 3.40268246,9.39651185 3.29997156,9.31990521 C3.22447393,9.26377251 3.11886256,9.13035071 3.25211374,8.86563981 C3.28325118,8.80208531 3.29365877,8.75798104 3.29365877,8.69911848 C3.29365877,8.46810427 3.42725118,8.2969763 3.52109005,8.24365877 C3.61936493,8.19204739 3.68411374,8.14060664 3.71038863,8.06272038 C3.73615166,7.98466351 3.78690995,7.91931754 3.87887204,7.86779147 C3.96981043,7.81575355 4.09939336,7.72583886 4.20312796,7.68625592 C4.30660664,7.64735545 4.44983886,7.60700474 4.52798104,7.68625592 C4.60654976,7.76286256 4.78672038,7.91931754 4.78672038,7.91931754 C4.95187678,7.7918673 4.93609479,7.64462559 5.02182938,7.40038863 C5.1289763,7.09720379 5.3851564,7.17909953 5.55150711,7.19488152 L5.57070142,7.19761137 C5.57070142,7.19761137 5.66036019,7.20153555 5.66300474,7.20298578 C5.66761137,7.20025592 5.69277725,7.1883981 5.69277725,7.1883981 L5.73449289,7.16647393 C5.73449289,7.16647393 6.00312796,7.00882464 6.00577251,7.00754502 C6.00696682,7.00421801 6.00696682,6.99944076 6.00696682,6.99150711 C6.00696682,6.9723128 6.0003128,6.93341232 5.96414218,6.87540284 C5.84462559,6.69036967 5.76025592,6.32405687 5.74490047,6.01575355 C5.70181991,6.02078673 5.66010427,6.02505213 5.6191564,6.02837915 C4.96774408,6.08101422 4.58104265,5.91645498 4.35480569,5.70454976 Z M28.8838066,7.20199242 L28.8614066,7.20519242 L28.8838066,7.20199242 Z M22.3062654,2.07387915 C22.2712891,2.06547915 22.2358009,2.05927915 22.2005687,2.05487915 L22.3062654,2.07387915 Z M22.5950611,2.17463009 C22.5629611,2.15723009 22.5301611,2.14163009 22.4972611,2.12773009 L22.5950611,2.17463009 Z M17.9665583,10.6604592 C17.9962583,10.6566592 18.0255583,10.6527592 18.0549583,10.6486592 L17.9665583,10.6604592 Z M17.6987773,10.687255 C17.7321395,10.684255 17.7655017,10.681155 17.7987773,10.677655 L17.6987773,10.687255 Z M17.577128,10.6947903 C17.6106185,10.6928903 17.6438261,10.6905903 17.677128,10.6882903 L17.577128,10.6947903 Z M17.4389289,10.700281 C17.4739905,10.699081 17.5089668,10.697681 17.5440284,10.695681 L17.4389289,10.700281 Z M17.1777156,10.7005081 C17.2158483,10.7013081 17.2536398,10.7021081 17.2920284,10.7021081 C17.3292227,10.7021081 17.3660758,10.7015081 17.4032701,10.7006081 L17.1777156,10.7005081 Z M17.0433555,10.6958664 C17.0769668,10.6976664 17.1104929,10.6990664 17.1441896,10.7002664 L17.0433555,10.6958664 Z M16.9170289,10.6883123 C16.9503289,10.6906123 16.9835289,10.6926123 17.0168289,10.6945123 L16.9170289,10.6883123 Z M16.7801801,10.6771284 C16.8137915,10.6806284 16.8471469,10.6839284 16.8807583,10.6869284 L16.7801801,10.6771284 Z M16.5246825,10.6460254 C16.5589763,10.6517254 16.5935261,10.6571254 16.6280758,10.6623254 L16.5246825,10.6460254 Z M16.2828341,10.6053983 C16.3161995,10.6119983 16.3494687,10.6183983 16.3828341,10.6242983 L16.2828341,10.6053983 L16.2828341,10.6053983 Z" id="Fill-3" fill="#FDE529"></path>
                <path d="M12.5546161,3.95513744 C12.5167393,3.88706161 12.5323507,3.81762085 12.5703981,3.75125118 C12.6563033,3.61962085 12.7365782,3.763109 12.7365782,3.763109 C13.0329384,4.17642654 12.8140379,4.79508057 12.8140379,4.79508057 C12.7835829,4.22564929 12.5546161,3.95513744 12.5546161,3.95513744 Z M15.110019,6.69164929 C15.114455,6.57017062 15.1247773,6.30042654 15.0013365,6.20419905 C14.955782,6.16794313 14.7758673,5.97088152 14.7758673,5.97088152 C14.7484834,5.923109 14.7274123,5.92012322 14.7274123,5.92012322 C14.6903886,5.91654028 14.6423602,6.00278673 14.6423602,6.00278673 C14.5141422,6.25018009 14.3862654,6.22006635 14.3862654,6.22006635 C14.3852417,6.17493839 14.4153555,6.12460664 14.4153555,6.12460664 C14.4504171,6.05849289 14.5992796,5.7631564 14.5992796,5.7631564 C14.6179621,5.72016114 14.6351943,5.66300474 14.6351943,5.66300474 C14.7589763,5.47123223 14.8755071,5.61719431 14.8755071,5.61719431 C14.927545,5.71888152 15.2049668,6.04979147 15.2049668,6.04979147 C15.2664739,6.12298578 15.2724455,6.2015545 15.2724455,6.2015545 C15.3367678,6.65496682 15.110019,6.69164929 15.110019,6.69164929 Z M14.3789289,7.84672038 C14.3262938,7.84535545 14.3129005,7.82607583 14.3194692,7.76815166 C14.3547867,7.60700474 14.4838578,7.53739336 14.4838578,7.53739336 C14.7261327,7.39262559 14.7556493,7.53764929 14.7556493,7.53764929 C14.8000095,7.79630332 14.5955261,7.828891 14.5955261,7.828891 C14.5547488,7.84296682 14.3789289,7.84672038 14.3789289,7.84672038 Z M3.84005687,8.59726066 C3.84005687,8.59726066 3.89294787,8.63624645 3.86462559,8.71345024 C3.86462559,8.71345024 3.72941232,9.08334597 3.73581043,9.20738389 C3.73581043,9.20738389 3.43680569,9.26078673 3.39534597,9.1132891 C3.39534597,9.1132891 3.38732701,9.05621801 3.43612322,8.9735545 C3.43612322,8.9735545 3.48679621,8.89660664 3.50001896,8.75567773 C3.50001896,8.75567773 3.49558294,8.40096682 3.72531754,8.4949763 C3.77095735,8.52048341 3.80687204,8.55759242 3.84005687,8.59726066 Z M4.20491943,8.008891 C4.25422749,7.9676019 4.32665403,7.9443981 4.39080569,7.95941232 C4.53565877,7.99063507 4.44796209,8.11595261 4.44796209,8.11595261 C4.38927014,8.22565877 4.19783886,8.41077725 4.19783886,8.41077725 C4.02756398,8.53822749 3.89277725,8.38646445 3.89277725,8.38646445 C3.76660664,8.26208531 3.93082464,8.20202844 3.93082464,8.20202844 C4.02628436,8.16321327 4.20491943,8.008891 4.20491943,8.008891 Z M5.95654976,5.79088152 C5.95654976,5.79088152 5.90237915,6.31561137 6.13876777,6.77815166 C6.13876777,6.77815166 6.31381991,7.0263128 6.13185782,7.18575355 L5.76963981,7.39629384 C5.76963981,7.39629384 5.72109953,7.43246445 5.55961137,7.42018009 C5.55961137,7.42018009 5.33636019,7.36498578 5.26188626,7.46343128 C5.26188626,7.46343128 5.19688152,7.6531564 5.11609479,7.80935545 C5.11609479,7.80935545 4.951109,8.18812322 4.67829384,8.30951659 C4.67829384,8.30951659 4.4608436,8.35933649 4.39481517,8.5478673 C4.39481517,8.5478673 4.32460664,8.68035071 4.18427488,8.68606635 C4.18427488,8.68606635 4.07951659,8.7194218 4.01024645,8.95265403 C4.01024645,8.95265403 3.97228436,9.10364929 3.97433175,9.21932701 C3.97433175,9.21932701 4.15305213,9.19595261 4.26941232,9.23800948 C4.26941232,9.23800948 4.55562085,9.33423697 4.68366825,9.0984455 C4.68366825,9.09836019 4.930891,8.6749763 5.1141327,8.73861611 C5.1141327,8.73861611 5.48249289,8.86188626 5.74259716,8.59316588 C5.74259716,8.59316588 6.10003791,8.2027109 6.60472038,8.28307109 C6.60472038,8.28307109 7.17321327,8.39815166 7.35056872,8.26703318 C7.35056872,8.26703318 7.70920379,8.07969668 7.8437346,8.03320379 C7.8437346,8.03320379 8.00829384,7.98474882 8.02535545,7.8045782 C8.02535545,7.8045782 8.1254218,7.55104265 8.19827488,7.46650237 L7.92699526,7.46343128 C7.92699526,7.46343128 7.68130806,7.87649289 7.26406635,8.00095735 C7.26406635,8.00095735 7.0358673,8.09215166 6.57784834,8.01810427 C6.57784834,8.01810427 5.92020853,7.8691564 5.34258768,8.49301422 C5.34258768,8.49301422 5.26367773,8.6071564 5.15107109,8.56151659 C5.15107109,8.56151659 5.47029384,8.01716588 6.17109953,7.8882654 C6.17109953,7.8882654 6.40040758,7.8395545 6.59175355,7.87043602 C6.59175355,7.87043602 7.5356872,7.89816114 7.97331754,6.96890047 C7.97331754,6.96890047 7.92597156,6.17672986 8.13472038,5.98905213 C8.13472038,5.98905213 8.21559242,5.9643981 8.19946919,6.11761137 C8.19946919,6.11761137 8.05589573,6.94757346 8.32563981,7.10820853 C8.32563981,7.10820853 8.4822654,7.23122275 8.77188626,7.18566825 C8.77188626,7.18566825 9.21105213,7.08073934 9.56798104,7.14190521 C9.56798104,7.14190521 10.1170237,7.27217062 10.5886919,7.21202844 C10.5886919,7.21202844 10.4661896,7.02443602 10.4902464,6.80024645 C10.4902464,6.80024645 10.5578104,6.63969668 10.6352701,6.74300474 C10.6352701,6.74300474 10.8168057,7.34254976 11.3127867,7.52254976 C11.3127867,7.52254976 11.7557062,7.6838673 11.7486256,8.24579147 C11.7486256,8.24579147 11.6808057,8.32273934 11.0932891,8.53148815 C11.0932891,8.53148815 10.8737915,8.6008436 10.8030711,8.43679621 C10.8030711,8.43679621 10.5198483,7.83051185 10.2731374,7.84919431 L9.81017062,7.88681517 C9.81017062,7.88681517 9.65218009,7.92725118 9.76854028,8.05384834 C9.76854028,8.05384834 9.92712796,8.26472986 9.99187678,8.39047393 C9.99187678,8.39047393 10.0109005,8.49804739 10.159763,8.47518483 C10.1598483,8.47518483 10.3665498,8.37281517 10.4829953,8.75712796 C10.4829953,8.75712796 10.589545,8.94932701 10.7700569,9.01074882 C10.7700569,9.01074882 10.9388815,9.06722275 11.0972986,8.97824645 C11.0972986,8.97824645 11.862,8.69749763 11.9950806,8.59794313 C11.9950806,8.59794313 12.1604929,8.50546919 12.2915261,8.55 C12.2915261,8.55 12.5209194,8.60459716 12.6153555,8.42357346 L12.8525118,8.05691943 C12.8525118,8.05691943 12.9045498,7.96666351 12.8973839,7.8532891 C12.8973839,7.85320379 12.9187109,7.74076777 12.824019,7.62662559 C12.824019,7.62662559 12.7344455,7.53201896 12.7202844,7.46343128 L12.5513744,7.06649289 C12.5513744,7.06649289 12.4827867,6.96036967 12.4077156,6.91677725 L12.1820758,6.93332701 C12.1820758,6.93332701 12.3375071,7.32992417 12.4508815,7.49141232 C12.4508815,7.49141232 12.6046919,7.72660664 12.5969289,7.87615166 C12.5969289,7.87615166 12.5867773,7.98099526 12.5454882,8.02475829 C12.5454882,8.02475829 12.4934502,8.10801896 12.4724645,8.14854028 C12.4724645,8.14854028 12.4040474,8.29680569 12.3485972,8.32981991 C12.3485972,8.32981991 12.2526256,8.38654976 12.2293365,8.38885308 C12.2293365,8.38885308 12.1875355,8.40036967 12.2185877,8.32563981 C12.2185877,8.32563981 12.3449289,8.0597346 12.336654,7.91744076 C12.336654,7.91744076 12.3611374,7.76934597 12.2561232,7.68258768 C12.2561232,7.68258768 12.0105213,7.29477725 11.9752891,7.1788436 C11.9752891,7.1788436 11.8981706,7.02366825 11.8571374,6.99713744 C11.8571374,6.99705213 11.7712322,6.88418957 11.9096872,6.83146919 C11.9096872,6.83146919 12.2551848,6.75349763 12.3168626,6.71109953 C12.3168626,6.71109953 12.4827867,6.66085308 12.5905308,6.31518483 C12.5905308,6.31518483 12.7390521,5.91210427 12.7369194,5.66317536 C12.7369194,5.66317536 13.0279052,6.22416114 12.5638294,6.79461611 C12.5638294,6.79461611 12.9310806,6.90295735 13.0829289,6.79461611 C13.0829289,6.79461611 13.5403507,6.72781991 13.6286445,6.70350711 C13.6286445,6.70350711 13.7435545,6.67561137 13.6779526,6.75725118 C13.6779526,6.75725118 13.5400948,6.95363033 13.5284076,7.08210427 C13.5284076,7.08210427 13.5195355,7.18438863 13.4355924,7.24436019 C13.4355924,7.24436019 13.1755735,7.42640758 13.1527962,7.60094787 C13.1527962,7.60094787 13.0970047,7.76883412 13.2119147,7.72865403 C13.2119147,7.72865403 13.3676872,7.6563128 13.4226256,7.72916588 C13.4226256,7.72908057 13.4386635,7.73667299 13.3787773,7.80406635 C13.3787773,7.80406635 13.2225782,7.93987678 13.2108057,8.12235071 C13.2108057,8.12235071 13.2397251,8.332891 13.2949194,8.40054028 C13.2949194,8.40054028 13.365128,8.49804739 13.4763697,8.46716588 C13.4763697,8.46716588 13.5058009,8.44319431 13.5590332,8.45931754 C13.5590332,8.45931754 13.6140569,8.45906161 13.7576303,8.40949763 C13.7576303,8.40949763 13.9753365,8.34969668 14.0481896,8.32401896 C14.0481896,8.32401896 14.3251848,8.22480569 14.4619336,8.23180095 C14.4619336,8.23180095 14.5508246,8.22199052 14.6641991,8.24476777 C14.6641991,8.24468246 15.0108057,8.28409479 15.2416493,8.02876777 C15.2416493,8.02876777 15.4175545,7.88937441 15.4770995,8.02475829 C15.4770995,8.02475829 15.8987773,8.59052133 16.5811564,8.44140284 C16.5811564,8.44140284 16.0380853,8.21815166 15.897327,7.91402844 C15.897327,7.91402844 15.8784739,7.65580095 15.5940569,7.29716588 C15.5940569,7.29716588 15.507128,7.17816114 15.5909005,7.14719431 C15.5909005,7.14719431 15.6394408,7.11093839 15.7453934,7.21731754 C15.7454787,7.21731754 16.0156493,7.47648341 16.1131564,7.71381043 C16.1131564,7.71381043 16.4487583,8.22088152 16.9325403,8.05052133 C16.9325403,8.05052133 16.5528341,7.90396209 16.374455,7.630891 C16.374455,7.630891 16.2640664,7.26116588 15.8933175,6.9861327 C15.8933175,6.9861327 15.8786445,6.57059716 15.7058957,6.3370237 C15.7058957,6.3370237 15.6179431,5.94682464 15.5940569,5.85563033 C15.5940569,5.85563033 15.5007299,5.51286256 15.5014976,5.41825592 C15.5014976,5.41825592 15.5322085,4.97055924 15.2435261,4.62216114 C15.2435261,4.62216114 15.050218,4.24927962 14.7489953,3.9896019 C14.7489953,3.9896019 14.5200284,3.70680569 14.3499242,3.53363033 C14.3499242,3.53363033 14.1260758,3.27113744 13.6378578,2.92854028 C13.6378578,2.92854028 13.4167393,2.76781991 13.2548246,2.59507109 C13.2548246,2.59507109 12.3937251,1.97522275 11.7714882,2.4723128 C11.7714882,2.4723128 11.3417915,2.7645782 10.9829005,2.85517536 C10.9829005,2.85517536 10.2454976,2.94099526 9.93113744,3.4528436 C9.93113744,3.4528436 9.90418009,3.54736493 9.60696682,3.58345024 C9.60696682,3.58345024 8.95410427,3.5047109 8.47322275,4.14673934 C8.47322275,4.14673934 8.24988626,4.36470142 7.80790521,4.41776303 C7.80790521,4.41776303 7.08688152,4.34397156 6.61743128,4.89685308 C6.61743128,4.89685308 5.4328436,5.93010427 4.72649289,5.26009479 C4.72649289,5.26009479 4.36052133,4.91348815 4.77895735,4.28621801 C4.77895735,4.28621801 5.0442654,3.96597156 5.49699526,3.63130806 C5.49699526,3.63130806 5.86424645,3.37265403 5.69593365,2.97034123 C5.69593365,2.97034123 5.60695735,2.58167773 5.05654976,2.57144076 C5.05654976,2.57144076 4.36589573,2.43793365 4.08659716,2.08919431 C4.08659716,2.08919431 3.77462559,3.18770616 4.9987109,3.16919431 C4.9987109,3.16919431 5.31767773,3.21645498 5.20635071,3.46956398 C5.20635071,3.46956398 5.04989573,3.68633175 4.84003791,3.76507109 C4.84003791,3.76507109 4.47065403,3.92655924 4.30396209,4.46425592 C4.30396209,4.46425592 3.93099526,5.40545972 4.840891,5.76878673 C5.19176303,5.88924171 5.59629384,5.85358294 5.95654976,5.79088152 L5.95654976,5.79088152 Z" id="Fill-4" fill="#DA2F3B"></path>
                <path d="M21.8726445,3.95513744 C21.910436,3.88706161 21.8948246,3.81762085 21.8566919,3.75125118 C21.7707867,3.61962085 21.6909384,3.763109 21.6909384,3.763109 C21.3943223,4.17642654 21.6132227,4.79508057 21.6132227,4.79508057 C21.6435071,4.22564929 21.8726445,3.95513744 21.8726445,3.95513744 Z M19.3172417,6.69164929 C19.3128057,6.57017062 19.3023981,6.30042654 19.4259242,6.20419905 C19.471564,6.16794313 19.6513934,5.97088152 19.6513934,5.97088152 C19.6789479,5.923109 19.6999336,5.92012322 19.6999336,5.92012322 C19.7367867,5.91654028 19.7850711,6.00278673 19.7850711,6.00278673 C19.9131185,6.25018009 20.0411659,6.22006635 20.0411659,6.22006635 C20.0421043,6.17493839 20.0117346,6.12460664 20.0117346,6.12460664 C19.9767583,6.05849289 19.827981,5.7631564 19.827981,5.7631564 C19.8092133,5.72016114 19.791981,5.66300474 19.791981,5.66300474 C19.6681991,5.47123223 19.5517536,5.61719431 19.5517536,5.61719431 C19.4997156,5.71888152 19.2223791,6.04979147 19.2223791,6.04979147 C19.1606161,6.12298578 19.1546445,6.2015545 19.1546445,6.2015545 C19.0905782,6.65496682 19.3172417,6.69164929 19.3172417,6.69164929 Z M20.0482464,7.84672038 C20.1010521,7.84535545 20.1144455,7.82607583 20.1077915,7.76815166 C20.0723033,7.60700474 19.9434028,7.53739336 19.9434028,7.53739336 C19.7010427,7.39262559 19.6715261,7.53764929 19.6715261,7.53764929 C19.6272512,7.79630332 19.8317346,7.828891 19.8317346,7.828891 C19.8725972,7.84296682 20.0482464,7.84672038 20.0482464,7.84672038 Z M30.5871185,8.59726066 C30.5871185,8.59726066 30.5345687,8.63624645 30.5627204,8.71345024 C30.5627204,8.71345024 30.6976777,9.08334597 30.6913649,9.20738389 C30.6913649,9.20738389 30.9905403,9.26078673 31.0318294,9.1132891 C31.0318294,9.1132891 31.0399336,9.05621801 30.9910521,8.9735545 C30.9910521,8.9735545 30.9403791,8.89660664 30.927327,8.75567773 C30.927327,8.75567773 30.931763,8.40096682 30.7020284,8.4949763 C30.6563886,8.52048341 30.6203033,8.55759242 30.5871185,8.59726066 Z M30.2221706,8.008891 C30.1727773,7.9676019 30.1006066,7.9443981 30.0366256,7.95941232 C29.8915166,7.99063507 29.9793839,8.11595261 29.9793839,8.11595261 C30.0380758,8.22565877 30.2294218,8.41077725 30.2294218,8.41077725 C30.399782,8.53822749 30.5345687,8.38646445 30.5345687,8.38646445 C30.6605687,8.26208531 30.4962654,8.20202844 30.4962654,8.20202844 C30.4010616,8.16321327 30.2221706,8.008891 30.2221706,8.008891 Z M28.4706256,5.79088152 C28.4706256,5.79088152 28.5248815,6.31561137 28.2884076,6.77815166 C28.2884076,6.77815166 28.1131848,7.0263128 28.2952322,7.18575355 L28.6574502,7.39629384 C28.6574502,7.39629384 28.7061611,7.43246445 28.8678199,7.42018009 C28.8678199,7.42018009 29.0909005,7.36498578 29.1652891,7.46343128 C29.1652891,7.46343128 29.2302085,7.6531564 29.3111659,7.80935545 C29.3111659,7.80935545 29.4761517,8.18812322 29.7489668,8.30951659 C29.7490521,8.30951659 29.9665024,8.35933649 30.0322749,8.5478673 C30.0322749,8.5478673 30.1024834,8.68035071 30.2428152,8.68606635 C30.2428152,8.68606635 30.3477441,8.7194218 30.4170995,8.95265403 C30.4170995,8.95265403 30.4548057,9.10364929 30.4530995,9.21932701 C30.4530995,9.21932701 30.2743791,9.19595261 30.1578483,9.23800948 C30.1578483,9.23800948 29.8715545,9.33423697 29.7436777,9.0984455 C29.7436777,9.09836019 29.4962844,8.6749763 29.3130427,8.73861611 C29.3130427,8.73861611 28.9448531,8.86188626 28.6845782,8.59316588 C28.6845782,8.59316588 28.3271374,8.2027109 27.822455,8.28307109 C27.822455,8.28307109 27.2540474,8.39815166 27.0766066,8.26703318 C27.0766066,8.26703318 26.7182275,8.07969668 26.5836114,8.03320379 C26.5836114,8.03320379 26.4187962,7.98474882 26.4020758,7.8045782 C26.4020758,7.8045782 26.3019242,7.55104265 26.2290711,7.46650237 L26.5002654,7.46343128 C26.5002654,7.46343128 26.7459526,7.87649289 27.163109,8.00095735 C27.163109,8.00095735 27.3913934,8.09215166 27.849327,8.01810427 C27.849327,8.01810427 28.5069668,7.8691564 29.0845877,8.49301422 C29.0845877,8.49301422 29.1635829,8.6071564 29.276019,8.56151659 C29.276019,8.56151659 28.9571374,8.01716588 28.2562464,7.8882654 C28.2562464,7.8882654 28.0269384,7.8395545 27.8355924,7.87043602 C27.8355924,7.87043602 26.8914882,7.89816114 26.4539431,6.96890047 C26.4539431,6.96890047 26.5014597,6.17672986 26.2925403,5.98905213 C26.2925403,5.98905213 26.2119242,5.9643981 26.2275355,6.11761137 C26.2275355,6.11761137 26.3712796,6.94757346 26.1016209,7.10820853 C26.1016209,7.10820853 25.9448246,7.23122275 25.6552891,7.18566825 C25.6552891,7.18566825 25.2160379,7.08073934 24.8592796,7.14190521 C24.8592796,7.14190521 24.3103223,7.27217062 23.8384834,7.21202844 C23.8384834,7.21202844 23.9609858,7.02443602 23.9369289,6.80024645 C23.9369289,6.80024645 23.8694502,6.63969668 23.7919052,6.74300474 C23.7919052,6.74300474 23.6103697,7.34254976 23.1143886,7.52254976 C23.1143886,7.52254976 22.6713839,7.6838673 22.6785498,8.24579147 C22.6785498,8.24579147 22.7465403,8.32273934 23.3339716,8.53148815 C23.3339716,8.53148815 23.5536398,8.6008436 23.6243602,8.43679621 C23.6243602,8.43679621 23.907327,7.83051185 24.1541232,7.84919431 L24.6172607,7.88681517 C24.6172607,7.88681517 24.7749953,7.92725118 24.6587204,8.05384834 C24.6587204,8.05384834 24.500218,8.26472986 24.4352133,8.39047393 C24.4352133,8.39047393 24.4167014,8.49804739 24.2674123,8.47518483 C24.2674123,8.47518483 24.0608815,8.37281517 23.9442654,8.75712796 C23.9442654,8.75712796 23.8378009,8.94932701 23.6572038,9.01074882 C23.6572038,9.01074882 23.4882938,9.06722275 23.3298768,8.97824645 C23.3298768,8.97824645 22.5652607,8.69749763 22.4322654,8.59794313 C22.4322654,8.59794313 22.2668531,8.50546919 22.1357346,8.55 C22.1357346,8.55 21.9065118,8.60459716 21.8119905,8.42357346 L21.5749194,8.05691943 C21.5749194,8.05691943 21.5226256,7.96666351 21.5299621,7.8532891 C21.5300474,7.85320379 21.5084645,7.74076777 21.6032417,7.62662559 C21.6032417,7.62662559 21.6929858,7.53201896 21.706891,7.46343128 L21.8759716,7.06649289 C21.8759716,7.06649289 21.9444739,6.96036967 22.019545,6.91677725 L22.2452701,6.93332701 C22.2452701,6.93332701 22.0897536,7.32992417 21.9762085,7.49141232 C21.9762085,7.49141232 21.8223981,7.72660664 21.8301611,7.87615166 C21.8301611,7.87615166 21.840654,7.98099526 21.8817725,8.02475829 C21.8817725,8.02475829 21.9338104,8.10801896 21.9549668,8.14854028 C21.9549668,8.14854028 22.0230427,8.29680569 22.0785782,8.32981991 C22.0786635,8.32981991 22.1745498,8.38654976 22.1979242,8.38885308 C22.1979242,8.38885308 22.2398104,8.40036967 22.2085877,8.32563981 C22.2085877,8.32563981 22.0824171,8.0597346 22.0905213,7.91744076 C22.0905213,7.91744076 22.0661232,7.76934597 22.1709668,7.68258768 C22.1709668,7.68258768 22.4167393,7.29477725 22.4521422,7.1788436 C22.4521422,7.1788436 22.5289194,7.02366825 22.5701232,6.99713744 C22.5701232,6.99705213 22.6560284,6.88418957 22.5174028,6.83146919 C22.5174028,6.83146919 22.1720758,6.75349763 22.1103981,6.71109953 C22.1103981,6.71109953 21.9444739,6.66085308 21.8366445,6.31518483 C21.8366445,6.31518483 21.6882085,5.91210427 21.6904265,5.66317536 C21.6904265,5.66317536 21.3993555,6.22416114 21.8636019,6.79461611 C21.8636019,6.79461611 21.4963507,6.90295735 21.3444171,6.79461611 C21.3444171,6.79461611 20.8870806,6.72781991 20.7986161,6.70350711 C20.7986161,6.70350711 20.6837915,6.67561137 20.7493081,6.75725118 C20.7493934,6.75725118 20.8870806,6.95363033 20.8988531,7.08210427 C20.8988531,7.08210427 20.9076398,7.18438863 20.9915829,7.24436019 C20.9915829,7.24436019 21.2516872,7.42640758 21.2744645,7.60094787 C21.2744645,7.60094787 21.3302559,7.76883412 21.2152607,7.72865403 C21.2152607,7.72865403 21.0595735,7.6563128 21.0046351,7.72916588 C21.0046351,7.72908057 20.9885118,7.73667299 21.048654,7.80406635 C21.048654,7.80406635 21.2048531,7.93987678 21.216455,8.12235071 C21.216455,8.12235071 21.1875355,8.332891 21.1324265,8.40054028 C21.1325118,8.40054028 21.0621327,8.49804739 20.9509763,8.46716588 C20.9509763,8.46716588 20.9216303,8.44319431 20.8680569,8.45931754 C20.8680569,8.45931754 20.8132038,8.45906161 20.6696303,8.40949763 C20.6696303,8.40949763 20.4519242,8.34969668 20.379327,8.32401896 C20.379327,8.32401896 20.1022464,8.22480569 19.965327,8.23180095 C19.965327,8.23180095 19.876436,8.22199052 19.7630616,8.24476777 C19.7630616,8.24468246 19.4163697,8.28409479 19.1854408,8.02876777 C19.1854408,8.02876777 19.0097062,7.88937441 18.9503318,8.02475829 C18.9503318,8.02475829 18.5285687,8.59052133 17.8459336,8.44140284 C17.8459336,8.44140284 18.389346,8.21815166 18.530019,7.91402844 C18.530019,7.91402844 18.5487867,7.65580095 18.8332038,7.29716588 C18.8332038,7.29716588 18.9199621,7.17816114 18.8361896,7.14719431 C18.8362749,7.14719431 18.7876493,7.11093839 18.6816967,7.21731754 C18.6816967,7.21723223 18.4116967,7.47648341 18.3142749,7.71381043 C18.3142749,7.71381043 17.9785024,8.22088152 17.4948057,8.05052133 C17.4948057,8.05052133 17.8743412,7.90396209 18.0528057,7.630891 C18.0528057,7.630891 18.1630237,7.26116588 18.5341137,6.9861327 C18.5341137,6.9861327 18.5485308,6.57059716 18.7214502,6.3370237 C18.7215355,6.3370237 18.8094882,5.94682464 18.8332038,5.85563033 C18.8332038,5.85563033 18.9263602,5.51286256 18.925763,5.41825592 C18.925763,5.41825592 18.8948815,4.97055924 19.183564,4.62216114 C19.183564,4.62216114 19.3769573,4.24927962 19.678436,3.9896019 C19.678436,3.9896019 19.9071469,3.70680569 20.0773365,3.53363033 C20.0773365,3.53363033 20.3011848,3.27113744 20.7895735,2.92854028 C20.7895735,2.92854028 21.0105213,2.76781991 21.1723507,2.59507109 C21.1723507,2.59507109 22.0335355,1.97522275 22.6557725,2.4723128 C22.6557725,2.4723128 23.0854692,2.7645782 23.4444455,2.85517536 C23.4444455,2.85517536 24.1818483,2.94099526 24.4961232,3.4528436 C24.4961232,3.4528436 24.5229953,3.54736493 24.8202938,3.58345024 C24.8202938,3.58345024 25.4731564,3.5047109 25.953782,4.14673934 C25.953782,4.14673934 26.1771185,4.36470142 26.6194408,4.41776303 C26.6194408,4.41776303 27.3402938,4.34397156 27.8095735,4.89685308 C27.8095735,4.89685308 28.9942464,5.93010427 29.7007678,5.26009479 C29.7008531,5.26009479 30.066654,4.91348815 29.648218,4.28621801 C29.648218,4.28621801 29.3830806,3.96597156 28.9302654,3.63130806 C28.9302654,3.63130806 28.5629289,3.37265403 28.731327,2.97034123 C28.731327,2.97034123 28.820218,2.58167773 29.3707962,2.57144076 C29.3707962,2.57144076 30.0613649,2.43793365 30.3406635,2.08919431 C30.3406635,2.08919431 30.6527204,3.18770616 29.4284645,3.16919431 C29.4284645,3.16919431 29.1095829,3.21645498 29.2209953,3.46956398 C29.2210806,3.46956398 29.3772796,3.68633175 29.5871374,3.76507109 C29.5871374,3.76507109 29.9566919,3.92655924 30.1233839,4.46425592 C30.1233839,4.46425592 30.4962654,5.40545972 29.5861991,5.76878673 C29.235327,5.88924171 28.8309668,5.85358294 28.4706256,5.79088152 L28.4706256,5.79088152 Z" id="Fill-5" fill="#DA2F3B"></path>
                <path d="M6.82669194,17.2271943 L8.6474218,17.2271943 C8.6474218,17.2271943 8.57158294,16.3677156 7.74981043,16.3677156 C6.92795261,16.3677156 6.82669194,17.2271943 6.82669194,17.2271943 Z M7.77506161,15.3313081 C10.2275829,15.3313081 10.1264929,17.7207867 10.1264929,17.7207867 L10.1264929,18.0998104 L6.80152607,18.0998104 C6.80152607,18.6433081 7.25655924,19.1110521 7.87615166,19.1110521 C8.49548815,19.1110521 8.81163981,18.5168815 8.81163981,18.5168815 L9.98718483,19.0983412 C9.4436872,19.9203697 8.71046445,20.2487204 7.88886256,20.2487204 C5.33490995,20.2487204 5.28440758,18.1250616 5.28440758,17.8595829 C5.28440758,17.594019 5.32254028,15.3313081 7.77506161,15.3313081 Z M13.2364834,18.9087014 L13.2364834,18.9087014 C13.1605592,18.9087014 12.2122749,18.9215829 12.2122749,17.7585782 C12.2122749,16.5952322 13.249109,16.5574408 13.249109,16.5574408 C13.249109,16.5574408 14.4121137,16.5952322 14.4121137,17.7332417 C14.4121137,18.87091 13.312237,18.9087014 13.2364834,18.9087014 Z M14.3492417,12.3696682 L14.3492417,15.8746351 C14.3492417,15.8746351 13.6410995,15.3313081 12.8316114,15.3313081 C12.022891,15.3313081 10.6574502,15.9001422 10.6574502,17.695109 C10.6574502,19.4904171 11.8206256,20.1733081 12.819327,20.1733081 C13.8181137,20.1733081 14.3744929,19.5157536 14.3744929,19.5157536 L14.3744929,20.0994313 L15.8155166,20.0994313 L15.8155166,12.3696682 L14.3492417,12.3696682 Z M24.0710332,15.5712796 L25.5374787,15.5712796 L25.5374787,18.1629384 C25.5374787,18.1629384 25.5881517,19.0355545 26.4098389,19.0355545 C27.2315261,19.0355545 27.2190711,18.1629384 27.2190711,18.1629384 L27.2190711,15.5839052 L28.6978863,15.5839052 L28.6978863,18.2515735 C28.6978863,18.2515735 28.8878673,20.3374408 26.447545,20.3374408 C24.0079052,20.3374408 24.0710332,18.5043412 24.0710332,18.1757346 C24.0710332,17.8467867 24.0710332,15.5712796 24.0710332,15.5712796 Z M29.5514787,20.0994313 L30.9989858,20.0994313 L30.9989858,12.3696682 L29.5514787,12.3696682 L29.5514787,20.0994313 Z M32.0101422,20.0994313 L33.4389668,20.0994313 L33.4389668,12.3696682 L32.0101422,12.3696682 L32.0101422,20.0994313 Z M21.1314882,18.8076967 L19.7599905,18.8076967 L19.7599905,13.9720095 L20.493128,13.9720095 C20.493128,13.9720095 21.4892701,13.8970237 21.4892701,14.7661422 C21.4892701,15.6352607 20.6967583,15.558654 20.6967583,15.558654 L20.2404455,15.558654 L20.2404455,16.8614787 C20.2404455,16.8614787 20.8977441,16.8614787 21.1312322,16.8614787 C21.3648057,16.8614787 22.1086919,16.9746825 22.1086919,17.8309194 C22.1086919,18.6868152 21.1314882,18.8076967 21.1314882,18.8076967 Z M22.3642749,16.0643602 C22.3642749,16.0643602 23.0341991,15.5435545 23.0341991,14.5560284 C23.0341991,13.5682464 22.3167583,12.6773744 20.7888057,12.6773744 C19.2611943,12.6773744 18.2301611,12.6773744 18.2301611,12.6773744 L18.2302464,20.0994313 L21.3818673,20.0994313 C21.3818673,20.0994313 23.640654,20.0739242 23.640654,18.0328436 C23.640654,16.8476588 23.1805877,16.3938199 22.3642749,16.0643602 Z M0,12.519128 L0,20.0994313 L1.52965877,20.0994313 L1.52965877,13.9656114 L2.25025592,13.9656114 C2.25025592,13.9656114 3.37529858,13.9150237 3.37529858,14.9391469 C3.37529858,15.9630995 2.37668246,15.9378483 2.37668246,15.9378483 L2.00994313,15.9378483 L2.00994313,17.6825687 L3.53994313,20.0994313 L5.33490995,20.0994313 L3.19854028,16.9999336 C3.19854028,16.9999336 4.95571564,16.8483412 4.95571564,14.9391469 C4.95571564,13.0302938 3.62823697,12.519128 1.85843602,12.519128 C0.0886350711,12.519128 0,12.519128 0,12.519128 L0,12.519128 Z" id="Fill-6" fill="#DA2F3B"></path>
            </g>
        </g>
    </g>
</svg>