<?xml version="1.0" encoding="UTF-8"?>
<svg width="22px" height="22px" viewBox="0 0 22 22" version="1.1" xmlns="http://www.w3.org/2000/svg" xmlns:xlink="http://www.w3.org/1999/xlink">
    <!-- Generator: Sketch 53.2 (72643) - https://sketchapp.com -->
    <title>twitter</title>
    <desc>Created with Sketch.</desc>
    <g id="twitter" stroke="none" stroke-width="1" fill="none" fill-rule="evenodd">
        <path d="M6.91856,20.1666667 C15.22048,20.1666667 19.76128,13.1127358 19.76128,6.99559871 C19.76128,6.79524397 19.76128,6.59579172 19.74808,6.39724198 C20.6314516,5.74194738 21.3939928,4.93057253 22,4.00110758 C21.1762136,4.3754657 20.3023298,4.62096963 19.40752,4.72942414 C20.3497747,4.15090619 21.0549887,3.24099778 21.39192,2.16903495 C20.5058986,2.70823767 19.5365686,3.08824086 18.52576,3.292646 C17.1266328,1.76687631 14.903433,1.39343881 13.1028034,2.38173581 C11.3021737,3.37003281 10.371922,5.47427964 10.83368,7.51453553 C7.20446825,7.32794348 3.82313869,5.5699423 1.5312,2.67804429 C0.333188026,4.79318092 0.945109338,7.49906624 2.92864,8.8574538 C2.21033226,8.83562014 1.50768585,8.63689498 0.88,8.27804955 C0.88,8.29700202 0.88,8.316857 0.88,8.33671197 C0.880587957,10.5402468 2.39514131,12.4381496 4.5012,12.8744761 C3.83668524,13.0603368 3.13947092,13.0875058 2.46312,12.953896 C3.05443418,14.8395977 4.74898561,16.1313993 6.68008,16.1685968 C5.08176683,17.4568525 3.10733237,18.156195 1.07448,18.1540943 C0.715355141,18.1533872 0.356579577,18.1310873 0,18.0873094 C2.06415964,19.4458197 4.46592379,20.1664112 6.91856,20.1630567" id="Path" fill="#1DA1F2" fill-rule="nonzero"></path>
    </g>
</svg>