<?xml version="1.0" encoding="UTF-8"?>
<svg width="33px" height="20px" viewBox="0 0 33 20" version="1.1" xmlns="http://www.w3.org/2000/svg" xmlns:xlink="http://www.w3.org/1999/xlink">
    <!-- Generator: Sketch 53.2 (72643) - https://sketchapp.com -->
    <title>under-armour</title>
    <desc>Created with Sketch.</desc>
    <g id="under-armour" stroke="none" stroke-width="1" fill="none" fill-rule="evenodd">
        <g id="Under_armour_logo" fill="#000000" fill-rule="nonzero">
            <g id="Group" transform="translate(16.389942, 7.470774) scale(-1, 1) rotate(-180.000000) translate(-16.389942, -7.470774) translate(4.484627, 0.100817)">
                <path d="M19.2752724,7.36995711 C21.8564582,8.50549743 23.5419107,10.2107921 23.6337517,12.1026034 C23.6337517,12.1026034 22.9523141,12.6275711 20.7520985,13.4371326 C18.8200359,14.14805 17.3460444,14.310756 17.3460444,14.310756 L17.3528475,10.0957074 C17.3528475,9.46585953 17.1000013,8.8229725 16.6226548,8.25378505 C15.1622695,8.60640915 13.5482489,8.80426415 11.8554264,8.80483107 L11.8542926,8.80483107 C10.1603363,8.80426415 8.54461489,8.60584223 7.08252878,8.25265121 C6.60518233,8.82183866 6.35176919,9.46529261 6.35176919,10.0957074 L6.35800531,14.310756 C6.35800531,14.310756 4.88514773,14.14805 2.95195128,13.4371326 C0.751735625,12.6275711 0.071431892,12.1026034 0.071431892,12.1026034 C0.162705976,10.2102252 1.8487254,8.50436359 4.43274574,7.36882327 C1.85099307,6.23328296 0.165540575,4.52798827 0.0742664909,2.63674389 C0.0742664909,2.63674389 0.755137144,2.11120925 2.9553528,1.30221473 C4.88798232,0.591297328 6.36140683,0.428591352 6.36140683,0.428591352 L6.35460379,4.6436399 C6.35460379,5.27348777 6.60745001,5.91694172 7.08536338,6.48556226 C8.54574873,6.13237124 10.1592024,5.93508315 11.8520249,5.93508315 L11.8525918,5.93508315 C13.547115,5.93508315 15.1634033,6.13293816 16.6249225,6.48726302 C17.1022689,5.91807556 17.3551152,5.27348777 17.3551152,4.6436399 L17.349446,0.428591352 C17.349446,0.428591352 18.8228705,0.591297328 20.7555,1.30221473 C22.9557156,2.11120925 23.6365863,2.63674389 23.6365863,2.63674389 C23.5447453,4.52912211 21.8587259,6.23498372 19.2752724,7.36995711 M11.8531587,6.42150032 L11.851458,6.42150032 L11.8032698,6.42263416 C10.2748541,6.42263416 9.02876438,6.79680122 8.1148897,7.36882327 C9.02876438,7.94197917 10.275421,8.31671314 11.8066713,8.31671314 L11.8537256,8.31728006 L11.8559933,8.31728006 L11.9041815,8.31671314 C13.4331641,8.31671314 14.6786869,7.94254609 15.5925616,7.37052403 C14.6786869,6.79793506 13.4320303,6.42263416 11.9013469,6.42263416" id="Shape"></path>
            </g>
            <g id="Group" transform="translate(1.744378, 17.948280) scale(-1, 1) rotate(-180.000000) translate(-1.744378, -17.948280) translate(0.043619, 16.814440)">
                <path d="M1.13383956,0 C0.393442326,0 0.380403171,0.564652099 0.380403171,0.782349293 L0.380403171,1.80960793 C0.380403171,1.87196911 0.375300893,1.95473939 0.507393201,1.95473939 L0.890064051,1.95473939 C1.01421948,1.95473939 1.00628261,1.86629991 1.00628261,1.80960793 L1.00628261,0.782349293 C1.00628261,0.709216642 1.01988868,0.513062399 1.28917557,0.513062399 L1.93092876,0.513062399 C2.19511338,0.513062399 2.21042021,0.709216642 2.21042021,0.782349293 L2.21042021,1.80960793 C2.21042021,1.86629991 2.20305026,1.95473939 2.32663877,1.95473939 L2.71214422,1.95473939 C2.8521734,1.95473939 2.83970117,1.86629991 2.83970117,1.80960793 L2.83970117,0.782349293 C2.83970117,0.564652099 2.82666201,1.25881478e-16 2.08343018,1.25881478e-16" id="Path"></path>
            </g>
            <g id="Group" transform="translate(4.440006, 18.107720) scale(-1, 1) rotate(-180.000000) translate(-4.440006, -18.107720) translate(3.022706, 16.690420)">
                <path d="M1.70075933,0.566919778 C1.43940932,0.91897696 1.0663761,1.36230823 0.685972931,1.83058396 L0.685972931,0.579958933 C0.685972931,0.525534634 0.699579006,0.442764346 0.569754377,0.442764346 L0.212594917,0.442764346 C0.0833372073,0.442764346 0.0986440413,0.525534634 0.0986440413,0.579958933 L0.0986440413,2.25237228 C0.0986440413,2.30906426 0.0929748436,2.39750374 0.212594917,2.39750374 L0.908772404,2.39750374 C1.10549357,2.39750374 1.38555194,2.00122682 1.56923395,1.7398768 C1.71096389,1.54032104 1.97288083,1.24042047 2.14862596,1.01535332 L2.14862596,2.25237228 C2.14862596,2.30906426 2.14068908,2.39750374 2.27051371,2.39750374 L2.65828684,2.39750374 C2.78300919,2.39750374 2.77507231,2.30906426 2.77507231,2.25237228 L2.77507231,0.442764346 L2.06075339,0.442764346 C1.90768505,0.442764346 1.8402216,0.43255979 1.70075933,0.566919778" id="Path"></path>
            </g>
            <g id="Group" transform="translate(7.382884, 18.001099) scale(-1, 1) rotate(-180.000000) translate(-7.382884, -18.001099) translate(5.965584, 16.867260)">
                <path d="M1.70075933,0.566919778 C2.01369905,0.566919778 1.99102226,0.86738726 1.99102226,1.00458185 C1.99102226,1.46548763 1.86119763,1.48362906 1.65427191,1.48362906 L0.670666097,1.48362906 L0.670666097,0.566919778 L1.70075933,0.566919778 L1.70075933,0.566919778 Z M0.0668965338,0.0521566196 L0.0668965338,2.0040746 L1.79203342,2.00406141 C1.8974805,2.00406141 2.60386254,2.01653365 2.60386254,1.27443566 C2.60386254,0.515330078 2.68663283,0.0521566196 1.80734025,0.0521566196 L0.877591816,0.0521566196 L0.675768375,0.460905779 L0.675768375,0.0521566196 L0.0668965338,0.0521566196 Z" id="Shape"></path>
            </g>
            <g id="Group" transform="translate(10.095593, 18.277219) scale(-1, 1) rotate(-180.000000) translate(-10.095593, -18.277219) translate(8.678294, 17.143379)">
                <path d="M0.566919778,2.26767911 L2.15599592,2.26767911 C2.29092282,2.26767911 2.27278139,2.17980655 2.27278139,2.01653365 C2.27278139,1.86459915 2.2931905,1.77899426 2.15599592,1.77899426 L0.900268607,1.77899426 C0.86682034,1.77899426 0.753436385,1.7971357 0.753436385,1.67808254 C0.753436385,1.55902939 0.730192674,1.51197505 0.856615784,1.51197505 L1.96721163,1.51197505 C1.96721163,1.51197505 2.12764993,1.20640529 2.14579136,1.15481559 C2.17186967,1.10832817 2.16903507,1.06410842 2.07095795,1.06410842 L0.921244639,1.06410842 L0.742664909,1.41106333 L0.742664909,0.898567848 C0.742664909,0.779514695 0.849245827,0.802758405 0.879859495,0.802758405 L2.1843419,0.802758405 C2.31416653,0.802758405 2.30339506,0.712618161 2.30339506,0.565219019 C2.30339506,0.406481481 2.31416653,0.319175835 2.1843419,0.319175835 L0.532904591,0.319175835 C0.395710005,0.319175835 0.12699003,0.360560979 0.12699003,0.789719251 L0.12699003,1.86686683 C0.12699003,1.9779831 0.186516607,2.26767911 0.566919778,2.26767911" id="Path"></path>
            </g>
            <g id="Group" transform="translate(12.481060, 18.212739) scale(-1, 1) rotate(-180.000000) translate(-12.481060, -18.212739) translate(11.063760, 17.078900)">
                <path d="M1.70075933,1.70075933 L0.926913837,1.70075933 C0.798223047,1.70075933 0.802758405,1.65653959 0.802758405,1.61742213 L0.802758405,1.26819954 L1.59984761,1.26819954 C1.98591998,1.26819954 1.98591998,1.36457591 1.98591998,1.46548763 C1.98591998,1.66731107 1.97061315,1.70075933 1.70075933,1.70075933 M0.316341236,2.21608941 L2.05565111,2.21608941 C2.28865514,2.21608941 2.62710625,2.21835709 2.62710625,1.58964306 C2.62710625,1.1780593 2.5398006,1.15765019 2.353284,1.03066016 C2.66679063,0.976235857 2.62540549,0.575423575 2.62540549,0.367930936 C2.62540549,0.261916937 2.58685495,0.264184616 2.55510744,0.264184616 L2.04544656,0.264184616 C1.93886564,0.264184616 1.96494395,0.43255979 1.96494395,0.520432356 C1.96494395,0.761373262 1.83058396,0.750601786 1.77842734,0.750601786 L1.02782556,0.750601786 C0.955826745,0.875324137 0.81579756,1.15481559 0.81579756,1.15481559 L0.81579756,0.344687225 C0.81579756,0.274389172 0.745499508,0.264184616 0.719988118,0.264184616 L0.208059558,0.264184616 C0.235838628,0.264184616 0.155336019,0.259082338 0.155336019,0.329380391 L0.155336019,2.04771424 C0.155336019,2.16960199 0.240940906,2.21608941 0.316341236,2.21608941" id="Shape"></path>
            </g>
            <g id="Group" transform="translate(16.478759, 18.250899) scale(-1, 1) rotate(-180.000000) translate(-16.478759, -18.250899) translate(14.778000, 17.117060)">
                <path d="M1.70075933,1.70075933 L1.37988274,1.11569812 L1.40822873,1.08735213 L2.00632909,1.08735213 L2.03750968,1.11569812 C2.01653365,1.15991787 1.75801823,1.65143731 1.73193992,1.70359393 L1.70075933,1.70075933 M1.90768505,2.24103388 C2.03467508,2.24103388 2.15826359,2.1843419 2.2931905,1.92299189 C2.38446459,1.7370422 3.01601322,0.595832687 3.14753861,0.35715946 L3.14753861,0.292530605 L2.48991166,0.292530605 L2.30056046,0.634383231 L1.50120357,0.634383231 C1.50120357,0.634383231 1.36684358,0.942220671 1.32829304,1.02725864 C1.27897102,0.947322949 1.0147864,0.445032026 0.923512318,0.292530605 L0.264184616,0.292530605 L0.264184616,0.333915749 C0.398544604,0.58732889 1.31752156,2.24103388 1.31752156,2.24103388" id="Shape"></path>
            </g>
            <g id="Group" transform="translate(19.366819, 18.212739) scale(-1, 1) rotate(-180.000000) translate(-19.366819, -18.212739) translate(17.949520, 17.078900)">
                <path d="M1.70075933,1.70075933 L0.926913837,1.70075933 C0.797656127,1.70075933 0.802758405,1.65653959 0.802758405,1.61742213 L0.802758405,1.26819954 L1.59984761,1.26819954 C1.98591998,1.26819954 1.98591998,1.36457591 1.98591998,1.46548763 C1.98591998,1.66731107 1.97061315,1.70075933 1.70075933,1.70075933 M0.316341236,2.21608941 L2.05565111,2.21608941 C2.28865514,2.21608941 2.62767317,2.21835709 2.62767317,1.58964306 C2.62767317,1.1780593 2.54036752,1.15765019 2.353284,1.03066016 C2.66622372,0.976235857 2.62483857,0.575423575 2.62483857,0.367930936 C2.62483857,0.261916937 2.58628803,0.264184616 2.55510744,0.264184616 L2.04544656,0.264184616 C1.93886564,0.264184616 1.96494395,0.43255979 1.96494395,0.520432356 C1.96494395,0.761373262 1.83058396,0.750601786 1.77842734,0.750601786 L1.02782556,0.750601786 C0.955259826,0.875324137 0.815230641,1.15481559 0.815230641,1.15481559 L0.815230641,0.344687225 C0.815230641,0.274389172 0.746066428,0.264184616 0.719988118,0.264184616 L0.207492639,0.264184616 C0.235838628,0.264184616 0.155902939,0.259082338 0.155902939,0.329380391 L0.155902939,2.04771424 C0.155902939,2.16960199 0.241507825,2.21608941 0.316341236,2.21608941" id="Shape"></path>
            </g>
            <g id="Group" transform="translate(22.380219, 17.948280) scale(-1, 1) rotate(-180.000000) translate(-22.380219, -17.948280) translate(20.396000, 16.814440)">
                <path d="M1.70075933,0 C1.5709347,0.243208585 1.21094065,0.913874682 0.967732061,1.35323751 L0.967732061,0.137194586 C0.967732061,0.0827702876 0.975102018,0 0.852080426,0 L0.499456324,0 C0.367364016,0 0.377568572,0.0827702876 0.377568572,0.137194586 L0.377568572,1.80960793 C0.377568572,1.86629991 0.370198615,1.9519048 0.499456324,1.9519048 L1.10776125,1.9519048 C1.19846841,1.9519048 1.3271592,1.97288083 1.47285758,1.6826179 C1.58170618,1.45018079 1.81244253,0.967732061 1.97004623,0.712051241 C2.1327522,0.967732061 2.36859083,1.45018079 2.47743943,1.6826179 C2.61973629,1.97288083 2.7461594,1.9519048 2.84707112,1.9519048 L3.45254145,1.9519048 C3.5772638,1.9519048 3.56422464,1.86629991 3.56422464,1.80960793 L3.56422464,0.137194586 C3.56422464,0.0827702876 3.58179916,0 3.45254145,0 L3.09821659,0 C2.96895888,0 2.97916343,0.0827702876 2.97916343,0.137194586 L2.97916343,1.35323751 C2.73368717,0.913874682 2.37596079,0.243208585 2.24103388,0" id="Path"></path>
            </g>
            <g id="Group" transform="translate(25.334179, 18.018059) scale(-1, 1) rotate(-180.000000) translate(-25.334179, -18.018059) translate(23.633420, 16.884220)">
                <path d="M2.26767911,0.566919778 C2.56077664,0.566919778 2.55000516,0.869088019 2.55000516,1.07147838 C2.55000516,1.25289271 2.5913903,1.53748644 2.21098713,1.53748644 L1.56583243,1.53748644 C1.18826385,1.53748644 1.2324836,1.25289271 1.2324836,1.07147838 C1.2324836,0.869088019 1.21434216,0.566919778 1.50687277,0.566919778 L2.26767911,0.566919778 Z M1.10832817,0.0646288547 C0.531203832,0.0646288547 0.556715222,0.683705252 0.556715222,1.08395062 C0.556715222,1.45188155 0.515330078,2.02617129 1.23758588,2.03184048 L2.51939149,2.03184048 C3.24391497,2.03184048 3.19686063,1.44961387 3.19686063,1.08395062 C3.19686063,0.683705252 3.22577354,0.0646288547 2.64014541,0.0646288547 L1.10832817,0.0646288547 Z" id="Shape"></path>
            </g>
            <g id="Group" transform="translate(28.362239, 17.948280) scale(-1, 1) rotate(-180.000000) translate(-28.362239, -17.948280) translate(26.661479, 16.814440)">
                <path d="M1.13383956,0 C0.392875406,0 0.380403171,0.564652099 0.380403171,0.782349293 L0.380403171,1.80960793 C0.380403171,1.87196911 0.375300893,1.95473939 0.507393201,1.95473939 L0.890630971,1.95473939 C1.01421948,1.95473939 1.00684953,1.86629991 1.00684953,1.80960793 L1.00684953,0.782349293 C1.00684953,0.709216642 1.01988868,0.513062399 1.28917557,0.513062399 L1.93092876,0.513062399 C2.19511338,0.513062399 2.21042021,0.709216642 2.21042021,0.782349293 L2.21042021,1.80960793 C2.21042021,1.86629991 2.20248334,1.95473939 2.32663877,1.95473939 L2.71214422,1.95473939 C2.8521734,1.95473939 2.83970117,1.86629991 2.83970117,1.80960793 L2.83970117,0.782349293 C2.83970117,0.564652099 2.82666201,1.25881478e-16 2.08343018,1.25881478e-16" id="Path"></path>
            </g>
            <g id="Group" transform="translate(31.013039, 18.212739) scale(-1, 1) rotate(-180.000000) translate(-31.013039, -18.212739) translate(29.595739, 17.078900)">
                <path d="M1.70075933,1.70075933 L0.926913837,1.70075933 C0.797656127,1.70075933 0.802758405,1.65653959 0.802758405,1.61742213 L0.802758405,1.26819954 L1.59984761,1.26819954 C1.98591998,1.26819954 1.98591998,1.36457591 1.98591998,1.46548763 C1.98591998,1.66731107 1.97061315,1.70075933 1.70075933,1.70075933 M0.315774316,2.21608941 L2.05565111,2.21608941 C2.28865514,2.21608941 2.62824009,2.21835709 2.62824009,1.58964306 C2.62824009,1.1780593 2.5398006,1.15765019 2.353284,1.03066016 C2.66679063,0.976235857 2.62540549,0.575423575 2.62540549,0.367930936 C2.62540549,0.261916937 2.58685495,0.264184616 2.55510744,0.264184616 L2.04544656,0.264184616 C1.93943256,0.264184616 1.96494395,0.43255979 1.96494395,0.520432356 C1.96494395,0.761373262 1.83058396,0.750601786 1.77899426,0.750601786 L1.02782556,0.750601786 C0.955826745,0.875324137 0.81579756,1.15481559 0.81579756,1.15481559 L0.81579756,0.344687225 C0.81579756,0.274389172 0.745499508,0.264184616 0.719988118,0.264184616 L0.208059558,0.264184616 C0.235838628,0.264184616 0.155902939,0.259082338 0.155902939,0.329380391 L0.155902939,2.04771424 C0.155902939,2.16960199 0.241507825,2.21608941 0.315774316,2.21608941" id="Shape"></path>
            </g>
        </g>
    </g>
</svg>