<?xml version="1.0" encoding="UTF-8"?>
<svg width="25px" height="16px" viewBox="0 0 25 16" version="1.1" xmlns="http://www.w3.org/2000/svg" xmlns:xlink="http://www.w3.org/1999/xlink">
    <!-- Generator: Sketch 53.2 (72643) - https://sketchapp.com -->
    <title>under-armour</title>
    <desc>Created with Sketch.</desc>
    <g id="under-armour" stroke="none" stroke-width="1" fill="none" fill-rule="evenodd">
        <g id="Under_armour_logo" fill="#000000" fill-rule="nonzero">
            <g id="Group" transform="translate(12.484627, 8.340731) scale(-1, 1) rotate(-180.000000) translate(-12.484627, -8.340731) translate(0.484627, 0.840731)">
                <path d="M19.2752724,7.36995711 C21.8564582,8.50549743 23.5419107,10.2107921 23.6337517,12.1026034 C23.6337517,12.1026034 22.9523141,12.6275711 20.7520985,13.4371326 C18.8200359,14.14805 17.3460444,14.310756 17.3460444,14.310756 L17.3528475,10.0957074 C17.3528475,9.46585953 17.1000013,8.8229725 16.6226548,8.25378505 C15.1622695,8.60640915 13.5482489,8.80426415 11.8554264,8.80483107 L11.8542926,8.80483107 C10.1603363,8.80426415 8.54461489,8.60584223 7.08252878,8.25265121 C6.60518233,8.82183866 6.35176919,9.46529261 6.35176919,10.0957074 L6.35800531,14.310756 C6.35800531,14.310756 4.88514773,14.14805 2.95195128,13.4371326 C0.751735625,12.6275711 0.071431892,12.1026034 0.071431892,12.1026034 C0.162705976,10.2102252 1.8487254,8.50436359 4.43274574,7.36882327 C1.85099307,6.23328296 0.165540575,4.52798827 0.0742664909,2.63674389 C0.0742664909,2.63674389 0.755137144,2.11120925 2.9553528,1.30221473 C4.88798232,0.591297328 6.36140683,0.428591352 6.36140683,0.428591352 L6.35460379,4.6436399 C6.35460379,5.27348777 6.60745001,5.91694172 7.08536338,6.48556226 C8.54574873,6.13237124 10.1592024,5.93508315 11.8520249,5.93508315 L11.8525918,5.93508315 C13.547115,5.93508315 15.1634033,6.13293816 16.6249225,6.48726302 C17.1022689,5.91807556 17.3551152,5.27348777 17.3551152,4.6436399 L17.349446,0.428591352 C17.349446,0.428591352 18.8228705,0.591297328 20.7555,1.30221473 C22.9557156,2.11120925 23.6365863,2.63674389 23.6365863,2.63674389 C23.5447453,4.52912211 21.8587259,6.23498372 19.2752724,7.36995711 M11.8531587,6.42150032 L11.851458,6.42150032 L11.8032698,6.42263416 C10.2748541,6.42263416 9.02876438,6.79680122 8.1148897,7.36882327 C9.02876438,7.94197917 10.275421,8.31671314 11.8066713,8.31671314 L11.8537256,8.31728006 L11.8559933,8.31728006 L11.9041815,8.31671314 C13.4331641,8.31671314 14.6786869,7.94254609 15.5925616,7.37052403 C14.6786869,6.79793506 13.4320303,6.42263416 11.9013469,6.42263416" id="Shape"></path>
            </g>
        </g>
    </g>
</svg>