<svg xmlns="http://www.w3.org/2000/svg" width="180" height="180" viewBox="0 0 180 180"><style type="text/css">.st0{fill:#68A8FB;}</style><path class="st0" d="M138.4 144.5l-.7-2.3-.3-1.2v-.5l-.3-5.4.4-3.5-.1-.7-.3-1.3v-.2l-.1-.2-.2-1.5-.5-1.5.2-.3h.3l.3-.1v-.6l-1.2-7.4v-.4l-.3-.7-.1-.4.1-1.3-.2-1.7-.1-.4-.2-.3-.6-.5-.2-.4-.2-.6-.1-1.8-.3-.4-.7-.3-.4-.6-.2-.8v-1.5l-.5-3.3v-.9l.1-.3.4-.8.1-.4v-.3l-.1-.2-.1-.4v-.8l-.1-.2-.2-.2-.1-.1-.1-.2.1-.3-.1-.2-.1-.2-.3-.2-.1-.2-.1-.4-.1-1.1-.8-2.6v-.7l.2-1-.1-.5-.4-.3-.3.3-.3 1-.3.3-.3-.4-.2-.8-.4-.7-.9.3-.4.4-.6 1-.4.3-.5.1-.3-.2-.9-1-.3-.4-.2-.3h-.3l-.1.3-.1.5v.9l.6 2.6v.9l-.5.8-.3.3-.3.3-1.2.5-.3.3-.6.7-.6 1.1-.4 1.1.1.9.4.8.3 1.5.2.7.1.3-.1.2-.3.4-.2-.1h-.1l-.1.1V105.2l-.4.6-.1.1-.4.4-.1.1-.3.2-.6.1-.3.1-.1.1-.2-.1h-.4l-.1.2-.1.2-.1.2-.4.2V107.3l-.2-.2-.3-.2h-.2l-.3-.1-.3-.3-.1-.3v-.7h-.1l-.2-.1v-.1l-.1-.6-.5-1.6-.1-.3-.2-.7-.3-.3v-.4l-.1-.2-.1.1v.1l-.2-.3-.3-.4-.4-.4-.5.1-.2.3-.1.5v1l.4 2-.1.7-.7-.2-.5-.7-.3-.9-.5-3.7-.1-.2-.1-.2v-.2l.1-.2.3-.2V98.1l-.3-.1-.3-.2-.2-.5-.3-.9-.1-.6v-.2l-.2-.2-.3-.2-.2-.2-.2-.3-.2-.8-.1-.4-.6-1.2-.1-.3v-.6h.6l.2-.4-.1-.3-.4-.2-.3-.1-.1-.5.2-.5.3-.1h.4l.4-.2.2-.4.4-1.3.1-.4-.1-.3-.2-.5v-.3l.1-.3.7-1.3.2-.3.3-.3.3-.1h.3l.3.1h.2l.2-.1.2-1 .1-.9.2-.5.9-.1 1.6.3.8.1.8-.1.5-.2.3-.2.2-.3.2-.5.2-1.4.1-.3.2.1.4.9.2.4.4.2.4.1.4-.2.2-.3v-.4l-.2-.5v-.4l.2-.3 1.3.3h.3v.6l.1.2.6.7.5.1.2-.2.2-.4.4-1.9.1-.5-.3-.9.1-.4.5-.2.2.2.4.3.4.2v-.3l-.5-.8.1-.3 1.7.2.6-.1.6-.2.4-.6v-.7l-.1-1.4.1-.4.3-.3.3-.1.3-.3.2-.3.2-.4v-.8l.2-.9 1.1-3 .1-.3v-.4l-.1-.4-.2-.7-.1-.4.1-.4.6-.3.8.3 1.4.9.1.1v.2h.2l.2.1 1.3-.5.7-.2.3-.4.1-.3-.1-.4-.1-.4-.2-.2-.6-.2.2-.1-.1-.2-.2-.1-.6-.5-.4-.2h-.2l-.1-.7-.5-.3-.6-.2-.3-.5-.2-.1-1.1-.2-.4-.1-.3-.1-.2-.2-.3-.3-.3-.4-.2-.1h-.1l-.3.1-.1-.1-.2-.1h-.3l-.2-.1-.1-.1-.2-.3-.1-.1-.6-.3-.7-.1-.7-.1-.5.2-.4.1-1.2-.1-2.2.2-1-.1-.4.1-.1.1-.1.3-.2.1h-.2l-.2-.2h-.3l-.1.4-.2.2-.5.1h-.5l-.4-.1-.3-.3-.1-.3-.2-.1-.4-.1-.1.1-.4.3-.2.1h-.3l-.4.1-.2.1-.8-.1-3.1-1-1-.5h-.3l-.4.2-.3.1-1.1-.1-3.4.6-.7.2-2.5.4-.6-.1-.3-.1-.3-.2-.2-.2-.4-.1-.1.1-.2.2-.1.1h-.2l-.8-.1-.5-.2-.2-.1h-.3l-.8.2-1.8-.1-2.1.4h-.7l-1.7-.7-3.2-.7-4.7-2h-.8l-.7.3h-.4l-.2-.5-.2-.8-.1-.8.1-.9.5-1.8.1-1.7.1-1.7-.2-.9-.4-1.2-.4-2.1.1-.5.9-1.6v-.6l-.1-.1-.3-.1-.4-.2.4-.1.3-.3v-.3l-.3-.4H79l-.1.2H78.6l-.1-.2-.2-.3-.4-.5-.1-.3-.1-.4.1-.3v-.3l-.3-.3-.2-.4-.1-.3-.1-.4-.2-.2h-.8l-.3-.1v-.2l.1-1-.2-.3-.3-.1-.5.2-.1.2v.7l.1.3v.1l-.4-.2-.1.1h-.2l-.1.2-.3.4.2.3.3.1.4.1-.2.1-.3.2-.3.2v.3l.2.1.3-.1h.3l.2.3-.2.4-.9.8-.2.6v.6l-.2.2-.3.1-.2-.1-.2-.3-.3-.5h-.1l-.1-.1h-.1l-1.1.1-.1.1h-.2l-.1-.1-.4-.5-.2.1-.2.2-.4.2-.3-.1-.5-.1-.3-.3-.5-.6-.8-.3-.2-.3-.1-.4-.2-.3-.3-.2-1.4-.6-.3-.3-.1-.4-.2-1.5-.2-.3-.4-.7-.1-.4v-.6l.2-.1.3.2.2-.1v-.4l-.2-.1-.5-.2-.3-.1v-.4l-.1-.3-.1-.1-.5-.1-.2-.1-.2-.2-.3-.4-.3-.1-.3-.2-.2-.2-.2-.1-.3.2-.3.2-.3.4-.1.5v.4l.4.4.6.3.5.2.2.7.2.2H62l.2-.1-.1.5.2.1h.2l.3.1.1.4-.5.3-.9.3-.6-.2-.9-1-.6-.1-.4.3-.3.8-.3.1-.4-.2-.2-.3-.1-.4-.2-.3-.8-.3-1.7.6-.4-.2.2-.2.7-.4.3-.2.2-.5-.1-.3-.2-.2-.5-.2-.1-.2v-.4l-.2-.1-.2-.1V27.6l.1-.2-.5-.1-.2-.1-.2-.2-.2-.2-.1-.3-.1-.2-.3-.1H52.6l-.5-.2-.4-.3-.2-.2-.2-.2-.3-.3-.3-.3-.3-.1-.7-.3-.3-.3-.1-.4.1-.5-.1-.5-.2-.1-.2.3-.3.4-.1.4-.5 1.5-.3.4-.1.3.1.4.1.3.3.1.1-.1v-.6l.1-.1h.2l.5.2 1.2.2.5.3.3.5.4 1.3.1.6-.5-.1h-.7l-.2-.2-.1.1-.1.2-.2.2-1 .7-.3.3-.3.4-.1.4.1.8-.2.4-.4.2-1.2.4-.4.1-.3.1-.1.1-.1.2-.2.2-.7.4-.2.3-.2.8-.1.1V35.3l.1.2h.1l.1.2.1.2-.2.5-.5.4-.4.8-.4 1.3-.1.2h-.1l-.1.2.2 1 .1.3v.5l.3.3.1.2.2.5.2.3.4-.1.4-.1.4-.2.9-.3.7.3 1.3 1.5 1.5 1.1.5.6.1 1.4.3.3.8.4.2.5.6.4.2.3.2.3h.4l.9.1.4.2.7.4.4.1h.3l.2-.2.1-.3.3-.1.1-.1.2.1h.2l.2-.1v-.4l.7.2.1.2.3.3.3.2.1.3.1.5-.4.9v.1l.3.2v.4l.1.2.5.7.2.1h.2l.4.1.1.1.4.3.5.1h1l.2.1v.5l-.2.2-.8.6-.2.3v.3l.1.3-.1.2-.4.1.3.5-.5-.1-1.4-.5h-.2l-.1-.1H58l-.1.2-.2.5-.2.1-1.2-.1L55 56l-.6-.1h-.8l-.2.1-.2.3-.2.1h-.4l-.6-.2-.6-.3H51l-.7.1-.2.4.1 1.3-.2 1.5-.3.7-.4.6-.1.6-.3.5-.7 1-.4.7-.2.1h-.3l-.9-.2-.3-.1v-.4l-.2-.4-.3-.4-.3-.3h-.4l-.4.1-1 .6v.1l.1.1.1.2.2.8.1.5-.2.3-.3.3-.2.4-.3-.1-.1.2-.1.3v.3l-.1.2h-.3l-.2.1-.1 1.1-.3.4-.2.4-.1.7.4.1.3.1.3.5.3.3V71l.1.1v.1l.2.2.2.4v.1l.7.1 5.5 2.9 1.5 1.3.5.1 1.4.1 1 .3h.5l.3-.5.2-.5.5.1.6.4.5.6.1 1h.1v.4l.1.1-.1.2-.2.4-.1.2-.3.1-.5.2-.2.2-.1.3v.2l.1.5v.3l-.2.4v.2l.1.3.4.4.1.2.5.2v.2l-.3.3-.2.5.1.2.1.5.1.5-.1.4-.2.2-.8.8-.2.2-.5.1h-.8l-.3.3-.1.2v.2l.1.2v.2l-.1.3-.4.5-.1.2v.2l.2.4v.2l-.4 2.1v.2l.2.1.2.1.1.1v.3l-.1.1v.2l.2.2.2.1.5-.1.1.1.3.3.5.9.4.4.6.4.2.1.3.6.3-.1.3-.3.2-.3.3.3v.5l-1.1 2.7-.5.8-.2.4.1.5.2.5.2.2 1.4.5h.2l.2-.1.2-.1.1-.1.3-.1.4.1 1.4.5.2.1h.8l.1.1v.2l-.1.2-.2.3-.6.4-1.1 1.3-.3.5v1.2l-.2.6v.7l.4.6.3.3.4 1.1.2.3.6.2.3.2v.8l-.1.4-.1.3-.2.4-.3.2-.1.3.1.5.2.6.1.3.1.5.2.5.2.6.1.6-.1.5-.5.3.7.3.2.2.2.8.4.9.1.6-.1.1-.1.3-.1.3v.2l.3 1.2.1.3.3.6-.3.2.2.5.9 1.2.2.4.1.4.1.5-.4.5.1.5-.2 1 .1.3.5.7.2.5v.5l-.3.9v.9l.5 1.8.1.2.2.2.5.2.3.1.1-.1.1-.2.2-.2.2-.2.1.1v.5l.7 1.8-.1.3-.2.2-.1.4.2.4.4.2h.4l.4-.2.3-.3.3-.3-.5-.2v-.2l.3-.8.1-.6-.2-.8v-.6h.1l.2.3h.1l.1-.2.3-.8.1-.3.3-.2.3-.4.1-.2v-.4l-.1-.3-.1-.3-.1-.3.1-.3h.2l.1.4.4.7.1.5-.1.5-.3.7-.1.4v1.6l.1.4.5.6h.3l.7-.7.3-.4.2-.4.1-.5-.1-.6v-.6l.2-.4.3-.3.3-.2.2-.3.2-1.2v-.1l-.2-.2-.3-.6v-.2l-.1-.2-.1-.1v-.1l.1-.1.2-.1.1-.1.2-.5v-.4l-.1-.2-.1-.2-.1-.3-.1-.3v-.2h-.1l-.1.1-.1.3v.3H72l-.1-2.8.1-1.5h.2l.2.5v.4l-.1 1 .1.5.9 2.3v.3l-.2.4-.1.3.1 1 .1.3.4-.2.1-.3.2-1.5v-.2l.3-.4v-.8l-.1-.2-.1-.3-.4-.8v-.3l.2-.4.4-.3.1-.2-.1-.5v-.2l.3-.3.3-.6.2-.3.2-.1-.2.4-.1.4-.1.5v.4l-.2.4-.7.9.1.3.2.3.3.4.2.5.1.5-.2.5-.4.9-.2.5-.1 1.3.1 1.6-.1.4-.2.3-.4.5-.1.3-.1.5.3.9-.1.4.6 1 .5.2.4-.4-.1-.2-.2-.6v-.1l.6-.1h.2l.3.2.5.1.4-.3.3-.5-.2-.2-.5-.2-.4-.5-.4-.6-.3-.4.6-1.2.3.4.1.2-.3.4.1.3v.2l.1.2.3.2.3.1.4.1h.4l.2-.1.4-.2.2-.1.1.4.1.1.2-.1.4-.1.2-.1.1-.1v-.1l.2-.2.5-.5.5-.1h.1l.2-.4-.2-.3-.2-.2-.1-.4-.3-.5-.1-.2v-.2l.1-.5v-.2l-.1-.5-.2-.4-.4-.2-.4-.2v-.2h.4l.3.1.3.1.4-.2.1-.3.1-.4v-.8l-.3-1.5-.2-.8-.2-.5.8-1.7.1-.5-.1-.4-.1-.3v-.5l.6.5.4.1.1-.4.1-.3.3-.4.8-.8.5-.3-.2.2-.1.2-.1.3-.1.3-1.8 2.5-.4 1-.1.3v.5l.1.3.1.2.3.5.1.2v.6l.2.9v1.7l.1.2.2.6v.2l.2.4.3.4.4.1.3-.2v-1.3l.1-.2.6-.6.1-.2.4-1.2.2-.4.6-.1-.1.2-.2.2-.3.1-.2.2v.3l-.1.3v1l-.2.2-.1.1-.2.1-.2.3v.3l-.1.4.6.2.2.1.3-.1.2-.1v-.1l.3-.5.1-.5.2-.2 1.2-1.3.4-.2.6-.1.3-.2.2-.6.4-.9.1.6-.2.6-.3.5-.5.3H87l-.2-.1-.1-.1-.2.1-.1.1-.2.3-.1.2-.8.7-.3.4v.2l-.1.3-.1.4-.2.2-.2.2-.2.2-.2.1-.3.5v1.3l-.2.6h.3l.3.2.2.1.1-.1.3-.3.2-.1.2-.2.4-.9.2-.3-.1.2V131.1l.1.2-.1.3-.2.2-.2.2.2.3H85l-.1.2.1.4.3.2.4.1.8.3.4.1.4-.1.3-.2 1.2-1 .2-.3.1-.4.2-.9.1-.9.1-.4.4-.8.1-.4.1-.1.2-.3.4-.6.1-.2.1-.3v-.7l.1-.2H91.3v-.3l.1-.1.2-.2.1-.2v-.1l-.1-.3-.1-.1h-.1l-.2-.2v-.3l.2-1-.1-.5.4.1v.3l-.1.7v.3l.3.7-.1.5-.5 1.1-.1.5.1.2.3.2.4.2h.2l.3-.1.2-.2.6-1.1.1-.3.1-.3v-.2l.3-.2.5-.3.4-.1.5-.8.7-1.8.1-.9v-.5l-.1-.4-.4-.8-.2-.4v-.6l.1.1.4.1-.4-.8-.2-.7-.4-.7-.8-.5h-.7l-.3.2-.3.3v.3l.1.4-.1.3-.1.1-.1.1-.1.1-.1.3v-.4l.3-1.2.1-.4.2-.1.4-.1.2-.1.2-.2.1-.2-.1-.8-.2-.7-.1-.7-.1-.3-.2-.3-.4-.3-.3-.1-.2.4-.4-.2-.6-.2-.3-.2.4-.3.3.2.2-.1.1-.3-.3-.3.6-.1.2-.6.2-.8.4-.5h.6l.3.1.4-.2.1-.2-.1-.2-.3-.1v-.1l-.1-.1h-.2v-.5l-.4-.6-.4-.7-.3-.7-.1-.6v-.5h.8l.1-.1.1.1h.1l.4-.1.3-.1.2-.3.3-.3h.1v.2l-.2.1-.1.3.1.2h.2l.1-.1.6-.8.1-.6-.1-1.3-.1-.5.2.2.1.3.1.1v-.8l-.1-.4-.7-.9-.1-.2-1.4-.1-.3-.2-.3-.1-.4-.1V99l-.6-.1-.2-.2-.1-.3-.2-.3-.3-.3-2.7-1.6-.2-.3v-.2l.7.5.8.2 4.1.8.7.4.1-.4.1-.4.2-.3.1-.2.1-.2-.1-2.1-.1-.2h-.8l-.4-.1-.3-.1-.3-.2-.2-.4.6.4.2.1h.7l.3-.1.1-.2-.1-.3.7-.4h.4l.1.2h.2v-.1l.1.1-.5.3-.3.5-.1.6.3.9.1.1.3-.2.5-.2.4-.2h.3l.3.2.2-.4-.4-.3-.2-.2.1-.1h.5l.2.1.1.3-.1.9-.5.2h-1.2l-.5.3-.2.6v1.3l.1.4.2.7.3.5.6-.2-.1.1.1.1h.1l-.2.2v.3l.3.7h-.1l.1.5-.2.4-.2.4-.1.5-.1 1-.2 1.4v.5l.3.6 1.6 2.2.1.3.1.5.1.4.2.3.2.4.1.8.3.6v.3l.1.1.3.4.1.4.2.2h.2l.1.2.3.8.1.1h.6l.2.1.2.6.3.4.1.2.1.2.6.5.1.3.3.2h.6l.7-.1.4-.2.1-.4-.2-.7-.3-.6-.3-.3.3-.1.2.2.2.7.2.4.3.2.2.2.3.2.6.2 1.3-.1.4.1.2-.1.3-.1.2.1.2-.1.1-.1.2-.3.2-.3.1-.3-.3-.4-.5-.3-1.2-.3v-.1h.5l.1-.2-.1-.2-.3-.3v-.1h1.1l.2.1v.4l.1.1h.1l.7.1v.1l.3-.1.4-.1.2-.1.1-.4-.2-.1-.3-.2-.4-.1h1.1l.4-.1.2-.2-.1-.2-.4-.2v-.1h.5l.3.1.3.1.3.3v-.6l.1-.5.3-.4.4-.1.2-.3.4-1.2.1-.4h.1v.6l-.3.9-.2.7-.2.3v.5l.1.3.2.1.1-.1.2.3.3.5.4.3.6.3 2.7 3.7 1.4 2.8.3.9.3 2.6.3.5h.5l.4-.3v-.4l-.2-.1-.3-.1-.2-.2-.1-.4.2-.2.5-.3.1-.1.3-.1.4-.3.2-.2.1-.2v-.1l.2-.9.1-.4.3.1.1-.1-.5 1.6-.2.5-.5.2-.5.2-.4.2.1.6.1.1.2.1.2.2.1.4-.2.2-.1.2-.2.2-.1.3v.6l.1.5.2.5.3.4h.1v-.4l.1-.3h.2l.1.3v-.1l-.3-.1.1.8.5 2.3v.9l.1.2.3.3v.2l.1.9.1.5.1.3.2-.2.1-.2.2-.1h.3v.2l-.3.1-.3.2v.2l.1.2-.3.2-.3.5v.5l.2.2.3-.1.4-.1 1-.1v.2l-.5.2-.1.3.1.2.4-.3.1.2-.3.3-.3.1-.2.1v.8l.2.3h.2l.1-.4h.2v.3l-.1.4-.1.3.2.3h.3l.3-.3.2-.8h-.1l.1-.1v-.2l.1.1v.2l-.1.2v.3h.1l.2.2v.2l-.1.2.1.2-.1.2-.3.4.1.3-.2.3-.3.3-.2.3v.4l.1.5.2.4.3.2-.4-.1-.3.2-.3.4-.2.4h-.1v-.1h-.1v.4l.2.4.2.3.2.1.2.3 1.2 2.1.1.4v.6l-.2 1.4.1.5.1.3.9 1.1.3.4.3.7.2.3 1.1.9.2.2.3 1.5 1.5 2.6.4 1.2.2.2.1.1.1.1.1.1.2-.2.1-.2-.1-.3-.1-.2-.4-1.2-.1-.4-.1-.3-.6-.9-.2-.8-.1-.9v-1l.2-.8-.9-.8-.1-.3-.1-.4-.5-.4-.2-.3-.1-.4v-.4l.2-.6v-.5l-.2-.9v-.4l.2-.4.5-.9.3-.9.3-.5h1l.8-1 .7.3.2.3.1.4.1.4.1.4.2.2.2.1.5.1.9.1.7-.1.5.1.4.9.2.9.1.5.3.3.4-.1.5-.3.4-.4.2-.4zM107.3 122.2l-.1-.6-.2-.6-.1-.5v-.2l-.6-1.1-.1-.3v-.1l-.3-.3-.1-.1.1-.2v-.4l.1-.2-.4-.1-.2.5v.7l.2.5-.2.1v.7l-.1.8v1.6l-.3 2.2.2.5-.1.4-.3 1.2-.1.1-.1.3-.1.3.1.1h.2l.1-.2.1-.1.4-.2.3-.3.2-.4.2-.2.6-.3.3-.2.1-.2.1-.4.2-1 .1-.4v-.6zM113.5 114.9l-.1-.1-.4-.3-.1.1V114.9l.1.2v.1h-.1v.1l-.3 1.6-.1.7.3.9.7 1.3.5.5.6.2.9-.9-.4-1.7zM100.7 117.5l-.5-.3-.2-.2-.1-.2-.2-.6-.2-.3-.2-.5-.1-.2-.1-.1-.4-.1-.2-.1-.6-.6-.3-.9-.3-1.8-.3-.1h-.8l-.4.1-.4.2-.2.1-.2.3-.5 1.9v.8l.1.8.4.1 1.2.8.3.3.3.6.2 1.3.3.5v.1l-.1.3v.4l.2.7-.1.4v1.3l-.1.4-.1.4-.9 1.9-.1.4.2-.1h.2l-.3 1v.1l-.1.1-.1.3v-.1l-.1.1-.2.7-.1.6.1.5.4-.1 1.2-1.7-.3.6-.4.7-.2.7.1.5h.3l.2-.1.3-.2h.2l.6-1 .2-.1.5-.5.1.2v.1l.4-.3 1.2-1.7.1-.6.9-5.6v-.8l-.2-.7zM121.6 135.5l.2-.2.3-1.4.1-.8.2-.6.1-.4v-.3l-.2-1v-.1l-.1-.1v-.1l-.4.6-.1.3-.1.4.1 1.3-.2 2zM124.2 140.5v-.5l.2-1 .1-.5-.2-.9-.8-1.6-.1-1v-.5l-.3.1-.4.1.1.5.1.6-.2.5-.3.4v-.3l.2-.4.1-.3-.1-.3-.3-.3h-.3l-.2.2-.2.5-.1.8.5 1.6.1.9v.6l-.1.2-.3.5V140.7l.1.5.2.1.1.2h.3l.2-.1v-.2l-.1-.2v-.1l.5-.1.5.1h.5zM108.1 118.9l-.2-.2-.3-.2h-.1v.6l.1.7.2.5.3.2.3-.2.1-.5-.1-.5zM103.4 122.3l.1-.5v-.4l-.1-.4-.1-.3-.1-.2-.2.4-.1.5-.1 1-.1.3-.1.4-.1.3.3.1zM103.4 124.6l-.1-.1h-.1l-.1.2-.2-.2-.2.5-.2.6v.6l.3.3.5-.1.2-.5v-1.1zM103.5 123.5v2l.1-.3v-1.5zM96.5 107.6v-.2l-.4-.4-.7-1.1-.4-.4-.5.1-.6.6-.4.8.3.6.2.1.5-.1h.2l.2-.1v-.1H95.2l.2.2.2.5.1.2.2.1.6.1-.1-.2-.1-.3-.2-.2-.2-.2h.1zM92.8 104.6l-.2.1h-.1l.1.1.1.7.2-.1.3-.4.3-.2v-.2H93zM93 99.2l.3-.2.1-.3.4.2.7.6-.2-.5-.7-.7-.9-.5-.7-.3h-.4l-.1.2.2.4.6.7.3.2h.1zM92.5 111.9l.6.2.2.1.1.2v.2l.2.7.1.2h.5l.2-.5.1-1.1-.1-.3.3-.1h1l.4-.1.8-.3h.3l.2-.2.1-.4v-.4l-.3-.2-.4-.1-.7-.2h-.4l-.3-.1h-1l-.2.3-.3.1-.7-.2-.3.2-.2.2v.4l-.1.4.1.6v.2zM96.1 120.8v.5l.1.2.1-.4-.1-.8.1-.4v.2l.2.4v-.5l-.2-.6-.3-.5-.2-.3-.1-.1h-.2v.4l.1.1h.2l.1.4.2.9.1.3h-.1zM96.6 119.3V118.6l-.1-.1v1-.2zM95.3 130.1l-.1-.1v-.5l-1.3 1v.1l-.1.2-.1.3.1.2v.2l-.2.1.2.1.1.2.1.2-.1.1-.3.1h-.1v.2h.3l.4-.3.3-.6.2-.4h.1l.2.1.2-.6.3-.1-.1-.3zM96.2 126.5l-.2-.4.1-.5H96l-.2.3-.2.3h-.3l-.6.6-.3.2-.4.1-.3.4-.2.5v.6h.1l.2-.3 1-.5.1.1-.8.7-.1.2v.3l.1.3.2.1.5-.1.5-.6.2-.8.1-.9.3-.8.1.3V126.9l.1-.2zM93.2 128.4l-.8-.8-.2-.1-.2.2-.1.2v1.1l-.1.2-.2.2-.1.3v.4l.2.3.3.1.3-.1.5-.6.5-.2.2-.7zM90.9 129.6l-.5.5-.5 1-.3.5-.1.6v1.2l.1.1.3-.1.2-.3.6-2 .7-1 .1-.6zM91.4 128.2l.1-.7-.3.1-.3.6-.3.7-.1.6h.1l.2-.5zM63.9 133.3l-.4-.3-.3-.6-.2-1.3v-.3l-.1-.1-.1-.1v-.1h-.3v.2l.1.4.1.3.2.7v.4l-.1.3-.2.2 1.1 1.2.6.3.2-.4-.1-.5z"/></svg>