<?xml version="1.0" encoding="UTF-8"?>
<svg width="180px" height="180px" viewBox="0 0 180 180" version="1.1" xmlns="http://www.w3.org/2000/svg" xmlns:xlink="http://www.w3.org/1999/xlink">
    <!-- Generator: Sketch 55.1 (78136) - https://sketchapp.com -->
    <title>cuba</title>
    <desc>Created with Sketch.</desc>
    <g id="cuba" stroke="none" stroke-width="1" fill="none" fill-rule="evenodd">
        <path d="M168.672975,111.402257 L168.244727,111.067177 L167.746403,110.810023 L167.13907,110.965874 L165.480583,110.73989 L163.666371,109.79699 L161.712005,107.404676 L160.777646,106.516324 L158.683126,105.168212 L157.569683,104.786376 L153.840035,104.069461 L151.932387,104.27986 L149.160457,104.022706 L147.416322,103.726589 L146.139365,104.061669 L145.765622,103.679833 L145.742263,103.001881 L146.123793,102.362891 L148.335107,101.918716 L147.486399,100.86672 L147.961364,100.009539 L148.716637,99.1835281 L148.296176,98.0302297 L147.065937,97.1652559 L144.418589,97.110708 L141.83353,96.7756281 L139.256259,95.1391912 L136.414252,94.3365578 L134.95821,94.3599355 L133.5411,94.1495365 L133.058348,93.1754669 L132.536665,92.8559721 L131.952691,92.7936316 L130.340923,93.3469031 L130.535581,92.7546688 L130.971614,92.1468494 L129.725803,91.1182319 L127.467771,88.8505979 L126.712498,89.7311568 L125.560122,90.7675668 L124.898285,90.6896413 L124.773704,89.7389493 L123.496747,88.4453849 L125.279815,88.7726723 L126.245318,88.7025393 L126.907156,87.9076985 L125.801498,87.4011823 L124.734772,86.7076448 L124.18973,85.9595593 L122.134142,83.9412871 L120.88833,83.6295848 L120.981766,83.995835 L121.853834,84.9932823 L121.939484,85.3907027 L121.184211,85.6244794 L119.860536,85.227059 L116.675931,83.4347709 L115.258821,82.1957544 L113.000788,79.8034395 L105.463631,75.3305119 L104.949734,75.4785705 L104.124384,75.3149268 L103.291248,74.9097138 L102.302385,74.8239957 L98.0588409,74.9642617 L96.7195939,74.6135967 L95.5827912,73.8966814 L94.2591169,72.8368937 L93.0366647,71.6602177 L91.5416913,68.7847642 L89.1435048,67.3197635 L89.7508378,66.2833535 L88.1546422,66.5950558 L87.6329588,66.4547897 L86.0679085,65.3170764 L84.7053026,65.2001881 L83.1869702,65.4495499 L81.7231421,65.3014913 L80.3916815,64.7482198 L79.1302977,64.023512 L78.3672383,62.8624211 L77.8611275,62.5195486 L72.465208,62.7533253 L70.3161837,63.3611447 L69.8256456,63.2754266 L68.6109797,62.0753728 L68.8212103,61.5844418 L67.2328011,62.0597877 L64.0170511,62.2857719 L60.217327,61.4831385 L56.3319535,61 L52.4932979,61.6389897 L48.6935738,63.1897085 L47.4711216,63.5559586 L39.638084,64.6079538 L38.3844865,64.8806933 L25.7706485,70.125084 L24.4859058,70.951095 L21.7061896,73.4602983 L20.2579342,75.1201129 L19.6116696,77.263066 L19.985413,80.4112589 L19.183422,81.0814188 L18.2724226,81.1593444 L17.3769959,80.9801155 L16.7774492,81.1671369 L11.2413759,83.5438667 L11,84.1906489 L11.6618372,84.6971651 L12.4794007,84.4478033 L14.1768185,83.4581486 L15.0722452,83.0918984 L16.1156121,82.8737068 L16.9876799,82.9204622 L16.9487483,84.2374043 L16.5750049,85.6011017 L17.4237138,85.3283622 L20.8263355,83.4737337 L22.4381037,82.9438398 L24.0888035,82.694478 L24.6805638,82.0554884 L25.490341,80.1073492 L26.097674,79.1021094 L26.63493,78.7514443 L29.874039,78.5800081 L30.5514488,78.4241569 L31.2288587,78.0734919 L32.0931402,78.0734919 L32.9107037,78.4553272 L34.6003351,77.8319226 L36.1186675,76.437055 L37.8005125,75.5253258 L38.5635719,74.9876394 L39.225409,74.2317614 L40.9150404,72.7667607 L43.3521585,71.3563079 L44.6369012,70.2575574 L45.4466785,69.719871 L57.951508,69.8990998 L58.901439,70.0159882 L59.5944214,70.2809351 L60.2017544,70.7017332 L60.7390104,71.4108558 L60.8791642,72.4083031 L60.3808397,73.0706704 L59.6022078,73.5927717 L56.2385176,74.3720274 L54.5800315,74.9642617 L55.9114922,76.647454 L57.562192,77.9877737 L58.0293712,78.2215505 L63.6277351,78.5098751 L64.7178198,79.8969502 L65.792332,79.8034395 L66.8123398,79.2189977 L67.302878,78.1747951 L67.6766213,77.0448744 L68.1905184,78.1046621 L68.3773901,79.3748489 L68.7900651,80.0060459 L69.4441159,80.426844 L70.4952691,80.7853016 L77.4795979,80.5982803 L77.7521191,80.1930673 L77.8377686,79.5618702 L79.0057165,81.1203816 L79.9945791,82.8659143 L81.0301597,83.925702 L82.3304751,84.6737875 L85.5462251,86.1855435 L93.4804849,88.9207309 L94.6717918,89.3103587 L95.9331756,89.481795 L101.601616,88.3362891 L102.972009,88.7882574 L104.155529,90.1285772 L104.817366,91.8974876 L105.128819,93.9313449 L105.261187,98.1627032 L105.72058,98.9029961 L106.343485,99.5497783 L107.628228,100.352412 L110.221072,103.235658 L111.902917,104.046084 L114.020796,104.077254 L117.945102,104.482467 L119.837177,104.490259 L121.596885,104.794169 L123.309876,105.292893 L123.59797,105.861749 L123.730337,106.750101 L124.797063,107.934569 L124.92943,108.604729 L124.664695,109.39957 L123.839346,110.443773 L122.77262,111.261991 L117.143111,115.056966 L114.192095,119 L118.007392,118.890904 L121.869407,118.32984 L125.069584,118.345425 L126.782574,117.854494 L128.495565,117.527207 L132.513306,117.238882 L136.546619,116.708988 L137.979302,116.662233 L143.842401,117.168749 L145.407451,117.65968 L146.902425,118.376595 L150.857875,118.345425 L151.994678,117.807739 L152.711019,117.192127 L153.201557,116.334946 L153.528583,117.285638 L153.435147,117.792154 L153.497437,118.197367 L155.264932,117.729813 L156.059137,117.215505 L157.740982,116.444041 L161.112458,115.469972 L164.507294,115.173855 L166.913266,115.095929 L167.536172,114.449147 L168.602898,113.553003 L169,112.454252 L168.672975,111.402257 Z M93.7685788,69.3380357 L96.2056968,70.616015 L96.2524147,70.1640468 L95.8008082,69.860137 L93.1690321,67.6782211 L92.4293318,67.7015988 L92.8342204,68.0055085 L93.7685788,69.3380357 Z M106.631579,73.218729 L107.791741,73.6395271 L109.629312,73.7018675 L110.112064,73.9668145 L110.820619,73.9668145 L111.731618,73.7875857 L110.921841,72.3381701 L110.221072,72.1901115 L109.52809,72.252452 L108.780603,72.4706436 L106.771733,72.1043934 L105.743938,72.4238882 L106.008673,72.8602714 L106.631579,73.218729 Z M112.416815,75.0967352 L112.961857,76.1097676 L114.09866,76.3902996 L114.822787,77.0370818 L115.173172,76.7487572 L114.698206,76.3902996 L114.410112,74.9720543 L113.670412,74.2005912 L112.930712,74.0992879 L111.809482,74.3408572 L111.809482,74.7148999 L112.416815,75.0967352 Z M115.110881,78.8137848 L116.504632,79.5384925 L117.010743,79.4917372 L117.61029,79.1176945 L117.041888,78.2137579 L117.002957,77.9721886 L115.928445,77.5202203 L115.835009,76.4526401 L115.624778,76.5149805 L115.383402,77.3955394 L114.744924,78.2059653 L115.110881,78.8137848 Z M116.325547,80.1774822 L116.481273,81.0580411 L117.516854,81.9152224 L118.069683,82.2191321 L118.482358,82.3048502 L119.058545,83.0763133 L119.743741,82.5386269 L120.195348,81.7671638 L120.522373,80.7697165 L118.474571,80.2632003 L117.291051,80.1073492 L116.325547,80.1774822 Z M44.0607136,84.8140535 L43.7492608,83.6139997 L43.1730731,83.2789198 L39.7159472,82.7022706 L38.1431106,84.6036544 L37.9640252,85.3361548 L39.1008279,88.79605 L38.5324266,89.2636034 L37.7693672,89.5441354 L36.95959,89.1233374 L36.0719495,88.2583636 L35.9473684,88.7726723 L36.4223339,89.8480451 L37.3878376,90.9312105 L38.9373152,91.4221416 L40.5412971,91.3753863 L43.7103292,90.0740293 L45.2442342,89.1545076 L45.2831658,88.2817412 L44.7147644,85.7569528 L44.0607136,84.8140535 Z" id="Stroke-386" fill="#000000"></path>
    </g>
</svg>