<?xml version="1.0" encoding="UTF-8"?>
<svg width="180px" height="180px" viewBox="0 0 180 180" version="1.1" xmlns="http://www.w3.org/2000/svg" xmlns:xlink="http://www.w3.org/1999/xlink">
    <!-- Generator: Sketch 55.1 (78136) - https://sketchapp.com -->
    <title>india</title>
    <desc>Created with Sketch.</desc>
    <g id="india" stroke="none" stroke-width="1" fill="none" fill-rule="evenodd">
        <path d="M142.8182,64.6634194 L142.62974,64.9011203 L142.594404,65.1485631 L142.682745,65.4622504 L142.816237,65.7895762 L143.807614,66.9917194 L143.840987,67.2001948 L143.613265,67.2586459 L143.269718,67.1222601 L142.957582,66.9274233 L142.549252,66.4130541 L142.270489,66.259133 L142.017246,66.2260107 L140.601835,66.4909888 L140.30344,66.5650268 L139.855848,66.7579152 L139.59279,67.1456405 L139.414145,67.5002435 L139.186423,67.6424744 L138.866434,67.9171943 L137.994808,68.7647345 L137.466728,69.1290794 L137.10355,69.2635168 L136.864049,69.4564053 L136.773746,69.7681442 L136.703073,69.9922065 L136.769819,70.5435947 L136.958279,71.2235753 L137.182075,71.6580614 L137.278268,71.7496347 L137.311641,71.8762786 L137.203669,72.1120312 L137.042693,72.3107647 L136.968095,72.4354603 L136.987726,73.0550414 L136.866012,73.3609352 L136.622585,73.8090599 L136.396826,74.148076 L135.996349,74.4111057 L135.862857,74.6254262 L135.7647,75.0170482 L135.723475,75.3502192 L135.737217,75.471018 L135.805926,75.5762299 L136.010091,75.693132 L136.253518,75.8061374 L136.388973,75.9834389 L136.438052,76.1977594 L136.351674,76.7101802 L136.167141,77.423283 L135.911935,77.9863614 L135.641024,78.5241111 L135.584093,78.6994642 L135.366187,79.359961 L135.226805,80.2679006 L135.130612,80.8796883 L135.030493,81.2985874 L134.832217,81.3180711 L134.571122,81.1836337 L133.958628,81.0043838 L133.562077,80.8621529 L133.269572,80.7316123 L133.081112,80.7374574 L132.831795,80.8212372 L132.574626,80.8796883 L132.409724,80.8153921 L131.989616,80.439357 L131.88557,80.4822211 L131.840418,80.6653678 L132.242858,81.7428154 L132.458802,82.1441792 L132.529474,82.8144179 L132.580516,83.634681 L132.607999,84.5348271 L132.574626,84.7413541 L132.448986,84.979055 L132.252674,85.0433512 L132.052436,84.9498295 L131.905201,84.9712616 L131.875755,85.1212859 L131.971948,85.5109596 L131.848271,85.9551875 L131.76582,86.3351193 L131.850234,86.7053093 L131.964095,87.079396 L132.286047,87.8918656 L132.327273,88.1899659 L132.31942,88.4568924 L132.221264,88.566001 L132.024952,88.5484657 L131.934648,88.6595226 L131.877718,88.825134 L131.740299,89.4427667 L131.540061,89.5070628 L131.318228,89.4154895 L130.951124,89.0024355 L130.744996,88.883585 L130.623282,88.8894301 L130.58402,88.9985387 L130.532979,89.2440331 L130.468196,89.4096444 L130.277773,89.5538237 L130.187469,89.2498782 L129.871406,87.6755967 L129.722209,87.1729177 L129.561233,86.4792986 L129.431667,86.2649781 L129.253023,85.8850463 L129.066526,85.5577204 L128.929107,85.4193863 L128.770094,84.8075986 L128.640528,84.0555285 L128.593413,83.7028738 L128.322503,82.968339 L128.043739,82.1383341 L127.825832,82.1734048 L127.664856,81.9707745 L127.570627,81.9746712 L127.284011,82.1636629 L127.026842,82.1013151 L126.846234,82.1266439 L126.899239,82.5085241 L126.987579,82.9157331 L126.936538,83.0618607 L126.514467,83.5411593 L126.4222,83.8606917 L126.481093,84.1977594 L126.602807,84.6497808 L126.54784,84.8777399 L126.363306,85.090112 L126.092395,85.1992207 L125.837189,85.1466147 L125.652656,84.9634681 L125.438675,84.4958597 L125.27181,84.2406235 L125.124576,84.1802241 L125.024456,84.2503653 L125.049977,84.5426206 L125.08924,84.7861666 L125.05783,84.8134437 L124.975378,84.7764247 L124.86937,84.6575743 L124.480671,83.486605 L124.023264,82.5825621 L123.956518,82.2377009 L124.015411,81.793473 L124.068416,81.1076473 L124.402147,80.6790063 L124.427667,80.4978081 L124.470856,80.3536288 L124.563123,80.3263517 L125.073535,80.365319 L125.234511,80.2971262 L125.356224,80.0964442 L125.54861,79.9347297 L125.758664,79.8684851 L125.927493,79.8451047 L126.227851,79.9990258 L126.331896,79.9113492 L126.373122,79.6268875 L126.45361,79.3443741 L126.51054,79.2099367 L126.689184,79.1475889 L126.924759,79.1320019 L126.995432,79.0813444 L127.04451,78.9858743 L127.048436,78.6117876 L127.22708,77.777886 L127.278121,77.4057477 L127.284011,77.3395032 L127.211375,76.9264491 L127.287937,76.8660497 L127.823869,77.06868 L128.041776,77.0647832 L128.149748,76.9810034 L128.165453,76.8309791 L128.073186,76.6536775 L127.668783,76.343887 L126.967948,75.9269362 L126.343675,75.6717 L125.27181,75.7106673 L124.21565,75.7905504 L123.895661,75.7496347 L123.489295,75.634681 L122.531291,75.6522163 L121.380901,75.7145641 L120.935272,75.6794934 L120.717365,75.6833902 L120.287442,75.7223575 L119.55716,75.6035071 L119.040859,75.4515343 L118.579525,75.2839747 L118.037703,75.1339503 L117.914026,75.1358987 L117.833538,75.079396 L117.762866,74.946907 L117.719677,74.7735022 L117.702009,73.9707745 L117.411467,72.7549927 L117.429135,72.3107647 L116.840198,71.3112518 L116.661554,71.1242085 L116.465242,71.116415 L116.363159,71.2450073 L116.351381,71.4788115 L116.465242,71.7398928 L116.35727,72.0321481 L116.060838,72.1276181 L115.67803,72.0301997 L115.354114,71.8918656 L114.920264,71.5937652 L114.557087,71.174866 L114.456967,70.7131028 L114.27636,70.4150024 L114.070232,70.2688748 L113.93085,70.2299075 L113.818952,70.2610813 L113.740427,70.4227959 L113.858215,70.5845105 L114.021154,70.8105212 L114.003486,70.9644423 L113.897477,70.9878227 L113.718833,70.9215782 L113.467553,70.9585972 L113.200569,70.8397467 L113.049408,70.8280565 L112.894322,70.7851924 L112.84328,70.518266 L112.558628,70.1811982 L112.112999,69.8012664 L111.69878,69.5674623 L111.524062,69.6005845 L111.476947,69.8577691 L111.512283,69.9551875 L111.651665,70.0019484 L111.865645,70.1519727 L111.934355,70.3097906 L111.928465,70.4481247 L111.736079,70.6975158 L111.608476,70.9352168 L111.294377,71.2800779 L111.041134,71.6755967 L111.007761,71.9775938 L110.931199,72.2464686 L110.931199,72.5426206 L111.04506,72.7471992 L111.219778,72.8777399 L111.630071,72.9712616 L112.107109,73.3706771 L112.527218,73.9084267 L112.741198,74.0720896 L113.112228,74.2532879 L113.775764,74.2747199 L113.897477,74.4227959 L114.052564,74.8183147 L114.203724,74.9566488 L114.568865,75.1436922 L114.617943,75.2800779 L114.55905,75.4398441 L114.429484,75.5625913 L114.166425,75.6424744 L113.909256,75.6736483 L113.638345,75.6229907 L113.241794,75.5918169 L112.798129,75.5898685 L112.633226,76.5776912 L112.458508,76.9245007 L112.330905,76.9225524 L111.965765,76.7549927 L111.822457,76.7803215 L111.553509,77.6590356 L111.527988,77.8694593 L111.526025,78.0292255 L111.783194,78.3682416 L112.073736,78.6468583 L112.389799,78.7559669 L112.611632,78.6741354 L112.81776,78.7871408 L113.080818,79.0677058 L113.491111,79.2528008 L114.046675,79.3424257 L114.384332,79.5645397 L114.449115,79.7574282 L114.449115,79.9503166 L114.470709,80.4588407 L114.45893,80.7491476 L114.270471,81.5168047 L114.15072,82.1773015 L114.301881,82.4909888 L114.39611,82.6195811 L114.482488,82.7189479 L114.749473,82.9663906 L114.943822,83.211885 L114.886891,83.8373113 L114.98701,84.0009742 L115.314852,84.1120312 L115.664288,84.195811 L115.795817,84.2990745 L115.5838,84.9342426 L115.70355,85.3765222 L115.880231,85.7915246 L116.056912,86.4695567 L116.078507,86.539698 L116.076543,86.7111544 L116.333713,87.2372138 L116.75971,88.2640039 L116.830383,88.6497808 L116.863756,89.053093 L116.857866,89.7311252 L116.559472,89.7291768 L116.879461,90.1811982 L117.0051,90.5085241 L117.095404,90.9624939 L116.781304,91.0189966 L116.549656,90.9663906 L116.312118,90.5689235 L116.268929,90.93132 L115.970535,91.2664394 L115.82919,91.1027764 L115.738886,90.9274233 L115.687845,90.6176327 L115.731034,89.4349732 L115.676066,89.3024842 L115.581837,89.2148076 L115.391414,89.1680468 L115.295221,88.9283975 L115.163691,90.1889917 L115.352151,90.7033609 L115.322704,90.9391135 L114.820145,91.1358987 L114.231208,90.6624452 L114.144831,90.5104725 L114.144831,90.7773989 L114.085937,91.1008281 L113.581415,91.042377 L113.302651,90.7890891 L113.412586,90.3565514 L113.59712,89.3161227 L113.599083,88.8524111 L113.143638,88.5114467 L112.766719,88.3029713 L112.507586,87.8314661 L112.648931,88.3497321 L112.857022,88.5348271 L113.145601,88.6634194 L113.467553,88.9303458 L113.296762,89.253775 L113.120081,89.4544569 L112.823649,90.2182172 L112.401578,90.6449099 L111.889203,90.9644423 L110.132208,91.4378958 L109.776883,91.6288358 L109.288065,92.2172431 L108.99556,92.7764247 L108.99556,93.3433999 L109.268434,93.9551875 L109.543271,94.9137847 L109.702284,95.1105699 L109.549161,95.4593278 L109.254692,95.8314661 L109.032859,96.3321968 L109.08979,96.6069167 L109.038749,96.7920117 L108.151417,97.4076961 L107.992404,97.7681442 L107.768608,98.1246956 L107.430951,97.9201169 L107.246418,97.9240136 L107.531071,98.206527 L107.519292,98.3955188 L107.44273,98.5046274 L107.213045,98.6078909 L105.882048,99.0599123 L104.871039,99.4885533 L104.572645,99.471018 L104.611907,99.3424257 L104.784662,99.2255236 L104.712026,98.7325865 L104.507862,98.6429615 L104.33707,98.6059425 L103.598936,99.2079883 L103.337841,99.8022406 L103.418329,99.915246 L103.596973,99.8879688 L104.101495,99.5509011 L104.364554,99.6463712 L104.395964,99.7769118 L103.630346,100.291281 L102.083405,101.957136 L102.038253,102.284462 L101.85372,102.6566 L101.580846,103.005358 L101.113623,103.85095 L100.177213,105.109596 L99.9298596,105.579152 L98.3161728,106.547491 L98.0334832,106.83585 L97.4288414,107.77886 L96.782974,108.550414 L96.0036143,109.191427 L94.6196129,110.009742 L93.8029539,110.781296 L93.5752316,111.295665 L93.5752316,111.478811 L93.6969452,111.728203 L93.8834419,111.960058 L93.9384093,112.145153 L93.8893313,112.476376 L93.8638107,112.659523 L93.645904,113.113492 L93.2277589,113.43887 L91.8398312,114.116902 L91.6454821,114.09547 L90.4479772,113.961033 L90.0180534,114.08378 L89.8649298,114.401364 L89.5783139,115.716512 L89.2190625,116.06527 L89.1071645,116.380906 L89.0718283,116.601072 L88.8362536,116.595226 L88.6242363,116.49586 L88.4828915,116.567949 L88.2748005,116.12567 L87.9822952,116.036045 L87.7467205,116.006819 L86.7847904,116.451047 L86.4648014,116.807599 L85.8758646,118.490989 L85.7835978,119.57623 L86.0564719,120.776425 L86.3902027,121.735022 L86.4765801,122.16756 L86.4883589,122.72869 L86.378424,123.001461 L86.3097147,123.32489 L86.4844326,123.991232 L86.8613522,124.864101 L86.9634345,125.232343 L86.9987708,125.614223 L87.2952023,126.487092 L87.1263737,126.329274 L86.9771764,125.962981 L86.6454087,125.493424 L86.3195303,125.961033 L86.5433263,126.2981 L87.2480873,126.697516 L87.4718833,127.024842 L87.2402348,129.943497 L86.9791395,130.980029 L86.617925,131.66001 L86.4196496,131.921091 L86.0132832,132.994642 L85.7580772,134.292255 L85.722741,134.792986 L85.9072746,135.352168 L85.754151,135.68339 L85.5558756,135.93473 L85.9563526,135.821724 L86.1134024,136.12567 L86.1821117,136.437409 L86.2940097,138.300049 L86.3529034,140.240623 L86.0446931,140.320507 L85.6991836,140.33999 L85.3929364,140.285436 L85.1711036,140.20945 L84.6312448,140.312713 L84.3505183,140.527034 L84.1345748,140.883585 L84.1816898,141.489528 L83.2492065,143.020945 L83.0568205,143.531417 L82.9998899,144.022406 L83.1431979,144.279591 L83.4121457,144.542621 L83.753729,144.647832 L84.4074489,144.754993 L84.7274378,144.895275 L84.9512338,145.156357 L84.1718741,144.87774 L83.2708008,144.823186 L81.1506284,145.536288 L80.6068434,146.035071 L80.3084488,146.467608 L80.1337309,147.455431 L80.1258784,148.117876 L79.8922668,148.669264 L78.8086231,149.514856 L78.1136776,149.775938 L77.8525823,150 L77.0064765,149.709693 L76.0681038,148.967365 L75.6695899,148.569898 L74.2404367,146.6566 L73.9852307,146.415002 L73.6770205,145.596688 L73.6200899,145.292742 L73.5396019,145.171943 L73.4080727,145.088164 L73.3413265,144.96152 L72.9958169,144.026303 L72.8269883,143.05017 L72.5835611,141.961033 L72.7484634,142.035071 L72.9918907,142.39357 L73.1293092,142.915733 L73.1744611,143.644423 L73.349179,143.728203 L73.4964132,143.66001 L72.9840382,141.982465 L72.5874874,141.565514 L72.4873681,141.538237 L72.3695808,141.269362 L72.3420971,140.930346 L72.3676176,140.77058 L72.0397762,140.22114 L71.9180626,139.893814 L71.1642235,138.233804 L70.8010458,137.043351 L70.2631502,135.720409 L69.9392349,135.256698 L69.4131181,134.235753 L68.9949729,133.762299 L68.5414916,133.127131 L68.1999083,132.844618 L68.0624897,132.694593 L66.9651041,130.490989 L66.5921108,129.273259 L66.3035318,128.696542 L66.1523713,128.260107 L65.6890744,126.391622 L65.6655169,126.058451 L65.5987708,125.694106 L65.3043024,124.90112 L64.8233373,124.045787 L64.6643244,123.513882 L64.6505825,123.305407 L64.322741,122.475402 L64.2383268,122.09547 L64.0302358,121.744764 L63.7966242,121.423283 L63.5590863,121.16415 L62.9799651,120.324403 L62.7797266,120.117876 L62.3890652,119.574282 L62.0631869,118.565027 L61.7117879,118.171456 L62.2143473,118.171456 L61.8786533,117.799318 L61.713751,117.555772 L61.5409962,117.405748 L61.745161,117.031661 L61.3623521,117.041403 L61.1405192,116.815392 L60.8087515,116.110083 L60.2394459,115.3132 L60.1196954,114.888456 L59.5641317,113.549927 L58.9143381,110.337068 L58.4451518,108.906965 L58.4372993,108.49586 L57.9111825,107.256698 L57.6343822,106.426693 L57.487148,105.723332 L57.3359875,105.261568 L57.1553802,104.345835 L56.9688836,104.055528 L56.9355105,103.880175 L57.0042198,103.463225 L57.2437208,102.818315 L57.3163563,102.411106 L57.135749,101.836337 L56.9178424,102.438383 L56.6822677,102.607891 L56.5212916,102.157818 L56.4643611,101.551875 L56.4211724,101.405748 L56.4663242,101.203117 L57.1436015,101.296639 L56.3505,100.924501 L56.2405651,100.706283 L56.1954133,100.542621 L56.3328319,100.242572 L56.0324741,99.9873356 L55.8499037,99.2099367 L55.7517475,99.0326352 L55.7065957,98.8884559 L55.7654894,97.814905 L56.2248601,95.7048222 L56.2287863,95.2294204 L56.1090359,94.5513882 L55.9127236,94.0136386 L55.7968994,93.4427667 L55.7438951,93.2966391 L55.502431,93.2440331 L55.2590038,93.0336094 L54.9193835,92.1899659 L55.1294377,91.9113492 L55.2982662,91.7593765 L55.0528759,91.8236727 L54.8408586,91.7983439 L55.2001101,91.4106186 L55.5240253,91.1105699 L56.2955325,90.7657087 L56.6155215,90.5435947 L56.1286671,90.7423283 L55.6084396,90.8183147 L54.4776809,90.7773989 L54.5915421,89.9902582 L54.7603706,89.7291768 L54.958646,89.5811008 L54.6504357,89.6259133 L54.2833318,89.5616171 L54.3225943,88.7627862 L54.5895789,88.5913298 L54.8918998,88.5582075 L55.2609669,88.4452021 L54.8428218,88.3127131 L54.4128979,88.2503653 L53.918191,88.380906 L53.4411522,88.2834876 L52.8738097,88.2854359 L53.1113476,88.3925962 L53.3763691,88.6361422 L53.2958811,89.06868 L53.2075406,89.3395032 L52.9130722,89.5245981 L52.68535,89.8071115 L52.638235,90.0545543 L52.5086689,90.2279591 L52.7697642,90.3526547 L53.0347858,90.4403312 L53.2036143,90.6410132 L53.4077791,90.93132 L53.4509678,91.4982952 L52.9032566,92.8329274 L52.6971287,93.1290794 L51.085405,93.9337555 L50.4630951,94.3721383 L49.1026511,94.9410619 L48.5608293,95.0482221 L47.9424456,94.9352168 L47.0138886,94.5007306 L45.5552885,93.3940575 L45.1705165,93.0297126 L43.9573067,91.6074038 L43.1072746,90.8553337 L42.4496285,90.1558695 L41.6545638,89.4953726 L40.8810935,88.60302 L40.6965599,88.195811 L40.7083387,87.7827569 L40.9458765,87.5567462 L41.2560499,87.6483195 L41.5269608,87.9970774 L41.7095312,88.1529469 L41.8587286,88.2172431 L42.842253,87.6833902 L43.2446931,87.7048222 L43.4940097,87.4359474 L43.8454087,87.4943984 L44.5128704,87.0774476 L44.8073388,87.0521189 L45.1528484,86.968339 L45.6200716,85.9123234 L45.9812861,85.2401364 L46.2443446,85.0998539 L46.2109715,84.9361909 L46.1147785,84.7218704 L45.9125768,84.7744764 L45.7889001,84.979055 L45.7064489,85.2264978 L45.6122191,85.3726254 L45.2647464,85.2362396 L45.0429135,85.2596201 L44.7720026,85.3414515 L43.7943675,85.7350219 L43.4115586,86.0876766 L43.1347583,86.1578178 L41.4759196,85.7700925 L39.8053023,84.8777399 L39.08091,84.2854359 L38.5862031,83.5275207 L38.0757912,82.6254262 L38.1876892,82.3721383 L38.7903679,81.830492 L39.3125585,81.4037993 L38.8237409,81.5947394 L38.2995872,81.8577691 L38.0463444,82.0409157 L37.7773966,82.428641 L37.3749564,82.5143692 L37.1570498,81.9396006 L37,81.3823673 L37.2414641,81.1933755 L37.4122558,81.0745251 L37.7754334,80.9751583 L38.1739473,80.9030687 L38.5430144,80.9069654 L39.0632419,80.9147589 L38.9434914,79.6054554 L38.9749014,79.4905017 L39.0416476,79.4242572 L39.1221356,79.39698 L39.1947711,79.4164637 L39.3223741,79.6132489 L39.4539033,79.6015587 L39.5834694,79.4885533 L39.9073846,79.5723332 L40.1547381,79.5158305 L40.4197597,79.5918169 L40.8555729,79.5937652 L41.6388588,79.5625913 L42.0766352,79.5723332 L42.3809192,79.7808086 L42.71465,80.010716 L43.0542703,80.0418899 L43.5371984,80.0146128 L43.8571874,79.9269362 L44.0004954,79.7145641 L44.1025777,79.5099854 L44.7916338,79.2099367 L45.5199523,78.968339 L45.7339327,78.9410619 L45.8183469,79.0832927 L45.8085313,79.3209937 L45.9223924,79.5470044 L46.2404183,79.6911836 L46.4583249,79.7262543 L46.6467847,79.693132 L46.7822402,79.6210424 L47.0492248,79.2664394 L47.1984222,79.1846079 L47.4065132,79.190453 L47.6185304,79.020945 L47.6087148,78.8904043 L47.4555912,78.8280565 L47.3103202,78.6410132 L47.3162095,78.4870921 L47.2553527,78.2727716 L47.2573158,78.0681929 L47.339767,77.9162202 L47.4948537,77.7681442 L47.3574351,77.4641987 L47.0295936,76.8816366 L46.668379,76.1354116 L46.3052014,75.5138821 L45.8733144,74.968339 L45.6357765,74.5689235 L45.5493991,73.6843643 L45.4944317,73.5051145 L45.35505,73.3979542 L45.178369,73.3356064 L44.9486836,73.4252314 L44.7366664,73.4427667 L44.2694432,73.4252314 L44.0319053,73.3336581 L43.3055499,72.4471505 L43.1818732,72.0983926 L43.1347583,71.7418412 L43.2643244,71.1203117 L43.2545088,70.5435947 L43.2152463,70.0038967 L43.1602789,69.8499756 L43.0130447,69.6687774 L42.7892487,69.5362884 L42.2297587,69.5031661 L41.5485552,69.3258646 L41.000844,69.0121773 L40.6258875,68.8231856 L40.5120264,68.69849 L40.4511696,68.5543108 L40.4590221,67.9016074 L40.521842,67.1670726 L40.6082194,66.9430102 L40.7790111,66.709206 L40.9066141,66.5513882 L41.1166682,66.3409644 L41.6643794,65.6415002 L42.106082,64.6790063 L42.3671773,64.0068193 L42.5242271,63.8080857 L42.6891294,63.6366293 L42.9364829,63.4301023 L43.2289882,63.2411106 L43.547014,63.2508524 L43.8728924,63.4203604 L44.1261352,63.6229907 L44.2635538,64.0672187 L44.4637923,64.3555772 L44.6581415,64.528982 L44.8976424,64.6147102 L45.1822952,64.5932781 L46.2698651,64.0828057 L46.6487478,63.9795421 L47.5851573,63.9171943 L48.2074672,63.7204092 L48.7512522,63.5138821 L48.7669572,63.1436922 L48.9043757,62.5806137 L49.4697551,61.8441305 L49.6110999,61.5168047 L49.7190716,60.8913785 L49.8486377,60.3185582 L49.9997982,60.0828057 L50.9597652,59.4554311 L51.9040272,58.8787141 L52.0316301,58.6176327 L52.5086689,57.423283 L52.7579855,56.6147102 L52.8149161,56.3536288 L52.9189616,55.6483195 L53.0406752,54.9488553 L53.3331804,54.7871408 L53.9947528,54.5202143 L54.511054,54.2610813 L54.7485919,53.962981 L54.8761948,53.7018997 L54.7996331,53.4447151 L54.5895789,53.1388212 L54.5915421,52.957623 L54.5895789,52.7783731 L54.9311623,52.4140283 L55.5043941,51.3346322 L55.8656087,50.7949342 L56.0187322,50.7949342 L56.4447298,50.5085241 L56.8412806,50.1831466 L56.7882763,50.0350706 L56.6960095,49.8441305 L56.4192092,49.7584023 L56.2955325,49.5304433 L56.2974956,49.201169 L56.3505,48.3185582 L56.2582332,48.0652703 L55.8381249,47.2469557 L55.8538299,47.020945 L55.9205761,46.7890891 L56.1561508,46.481247 L56.4898817,46.2240623 L57.599046,45.6161715 L57.8326576,45.5479786 L58.2292083,45.3940575 L58.4255206,45.06868 L58.4039262,44.7920117 L58.256692,44.6205553 L57.9563343,44.3886995 L57.4361068,44.1802241 L56.9708467,43.9990258 L56.2425282,44.0165611 L55.8322356,43.8606917 L55.7065957,43.751583 L55.5770296,43.3677545 L55.5220622,42.7150511 L55.3964223,42.6585485 L55.2491881,42.7345348 L54.8487111,42.6585485 L54.3755986,42.6682903 L54.1596551,42.4870921 L54.2048069,42.2669264 L54.1203926,41.9766196 L53.9947528,41.6980029 L53.9103385,41.6415002 L53.6708375,41.5752557 L53.2703605,41.3356064 L52.9268141,41.0394545 L52.7206862,40.8387725 L52.6421613,40.7004384 L52.6401981,40.6088651 L52.7933217,40.3516805 L52.9680396,39.9912323 L52.9974865,39.6814418 L52.9778552,39.4573794 L52.8757729,39.2898198 L52.6087882,39.0871895 L52.3319879,38.909888 L52.2024218,38.7559669 L52.1513806,38.5221627 L52.1827906,38.2299075 L52.4203284,38.0097418 L52.8796991,37.8012664 L52.9562609,37.5401851 L52.9012935,37.3472966 L52.750133,37.290794 L52.3967709,37.2888456 L51.7882029,37.2226011 L51.6645262,37.1173892 L51.5683332,36.9751583 L51.5388863,36.8329274 L51.6311531,36.6731612 L51.741088,36.4685826 L51.6723787,36.269849 L51.4525089,36.0457867 L50.9970645,35.8821237 L50.893019,35.6502679 L50.9165765,35.4573794 L50.9990276,35.1807112 L51.0795156,34.9897711 L51.2503073,34.444228 L51.5722594,34.3234291 L51.9589946,34.148076 L52.3869553,33.9512908 L53.1388313,34.0993668 L53.5059352,34.169508 L54.2519218,34.3370677 L54.878158,34.4773502 L55.4965416,34.5163176 L55.7458582,34.5065757 L56.0619209,34.672187 L56.8118338,34.9566488 L57.4027337,35.1047248 L57.7816164,35.1027764 L58.2861389,34.8533853 L58.5158242,34.6234778 L58.8358132,34.3721383 L59.3187414,34.3818802 L60.272819,33.9922065 L60.4828731,34.0603994 L60.7950096,34.0818315 L61.1189249,33.8577691 L61.2524172,33.5908427 L61.2543803,33.4583536 L61.3250527,33.3589868 L61.6843042,33.1894788 L62.0317769,32.9556746 L62.0710394,32.6458841 L62.0906706,32.4354603 L61.8433171,32.0555285 L61.7019723,31.8353629 L61.4153564,31.3930833 L61.1621136,30.9995129 L60.7734153,30.3974671 L60.5182093,30 L60.9736538,30.2143205 L61.8040547,30.4851437 L62.59323,30.6799805 L63.1782405,30.8241598 L63.4471883,30.8319532 L63.6415375,30.8397467 L64.1833593,30.8007793 L64.4424915,30.7345348 L64.4974589,30.783244 L64.6682506,30.8884559 L64.8390423,30.9410619 L65.0019815,30.8416951 L65.2139987,30.7579152 L65.3455279,30.8046761 L65.3926429,30.9391135 L65.3965691,31.5684364 L65.4652784,31.8139308 L65.8127511,32.3263517 L66.3015687,33.1563566 L66.7609394,33.9318071 L67.043629,34.4422796 L67.2536831,34.650755 L67.9918173,34.8631271 L68.5984222,35.0365319 L68.9988992,35.322942 L69.4327493,35.597662 L69.7331071,35.7652216 L69.9058618,35.9814905 L69.9745711,36.1763273 L69.9804605,36.306868 L69.876415,36.4783244 L69.3208513,36.9225524 L69.2737364,37.0628349 L69.2953307,37.2459815 L69.5466104,37.7954213 L69.7036602,38.1402825 L69.876415,38.8319532 L70.0648748,39.4885533 L70.3613063,39.7866537 L70.5929548,39.9795421 L70.7480415,40.1548953 L71.0366205,40.3945446 L71.2721952,40.5737944 L71.4645812,40.6790063 L71.6000367,40.9147589 L71.6098523,41.1933755 L71.5921842,41.4349732 L71.6412623,41.5635655 L71.7983121,41.6570872 L72.0574443,41.8967365 L72.1614898,42.2493911 L72.1987891,42.4929372 L72.3263921,42.7111544 L72.4009907,42.9527521 L72.4638107,43.5567462 L72.53252,43.8295178 L72.3538758,43.8470531 L72.2164572,43.9386264 L72.0751124,44.3185582 L71.8395377,44.4198734 L71.5548849,44.4490989 L71.2074122,44.2172431 L70.9109806,43.973697 L70.8187139,43.8373113 L70.7028896,43.5801266 L70.5340611,43.412567 L70.2965233,43.4924501 L69.9156775,43.5275207 L69.5073479,43.5840234 L69.4425649,43.6405261 L69.4582699,43.7476863 L69.6094303,43.9795421 L69.7586276,44.2795908 L69.8980094,44.7004384 L70.068801,44.979055 L70.1237685,45.0667316 L70.9679112,45.9025816 L71.1779653,46.0720896 L71.2388221,46.185095 L71.2427484,46.4890404 L71.2290065,46.4754019 L70.9463169,46.1519727 L71.2427484,46.4890404 L71.1936703,46.8455918 L71.2741583,47.1281052 L71.5607742,47.4398441 L71.7865333,47.6580614 L71.668746,47.9503166 L71.6314467,48.2912811 L71.780644,48.4432538 L71.8218696,48.9322942 L71.892542,49.0238675 L72.0260343,49.0628349 L72.2144941,49.0277642 L72.3931382,48.8991719 L72.5600037,48.8738432 L72.6699385,48.9108622 L72.7347216,48.5406722 L72.8446565,48.4880662 L73.0998624,48.5893814 L73.7025411,49.2868972 L74.2129529,49.8753044 L74.3130722,49.9571359 L74.3503715,49.9883098 L74.4328227,50.0565027 L74.8804146,50.3604481 L75.1866618,50.5533366 L75.5400239,50.4831953 L76.0190258,50.4715051 L76.342941,50.6604968 L76.535327,50.7910375 L76.5471058,50.8105212 L76.5687001,50.8144179 L77.2420512,51.2781296 L77.4874415,51.2430589 L77.6798275,51.375548 L77.7917255,51.7028738 L77.7799468,52.0418899 L77.830988,52.2016561 L78.0960095,52.23283 L78.6908357,52.4568924 L79.2169526,52.6556259 L79.4819741,52.7199221 L79.7823319,52.8679981 L80.0669847,53.1037506 L80.5970278,53.4057477 L81.0563985,53.6376035 L81.2095221,53.9512908 L81.032841,53.8850463 L80.8227869,53.9201169 L80.6284378,54.058451 L80.5400972,54.148076 L80.1396202,54.6897224 L79.9060086,54.8553337 L79.7155857,55.0988797 L79.3052931,55.8353629 L79.1148702,56.5211885 L79.0029722,57.1660984 L79.0893496,57.6239649 L79.1011283,58.1597662 L78.9185579,58.4637116 L78.7929181,58.5689235 L78.7026144,59.0287384 L78.6751307,59.5684364 L78.77525,59.7418412 L79.110944,59.9775938 L79.4387854,60.2055528 L79.8490781,60.4529956 L80.2397395,60.6906965 L80.4713879,60.7218704 L80.5086873,60.587433 L80.5695441,60.4588407 L80.840455,60.5270336 L81.1938171,60.7588894 L81.4313549,60.942036 L81.5334373,61.0043838 L82.1302266,61.3141744 L82.6249335,61.5694106 L83.2492065,61.8947881 L83.4219613,62.0915733 L83.5809742,62.3039454 L83.897037,62.5845105 L84.6371342,63.079396 L85.2555178,63.4359474 L85.7600404,63.7262543 L86.1507018,63.9288846 L86.3116778,63.8977107 L86.4726539,63.788602 L86.6218512,63.7262543 L86.8162003,63.7827569 L87.1224475,63.9386264 L87.8586185,64.4101315 L88.5339327,64.7783731 L89.1896156,64.7121286 L89.3780754,64.7705796 L89.5586827,65.105699 L89.7000275,65.4427667 L90.4833135,65.666829 L90.9917622,65.7681442 L91.5826621,65.9512908 L91.8908724,66.0876766 L92.1598202,65.9162202 L92.189267,65.7661958 L92.4110999,65.6765709 L92.8096138,65.7155382 L93.5850472,65.9785679 L93.9050362,66.058451 L94.1190166,65.8090599 L94.5764242,65.6921578 L94.8021833,65.5635655 L95.3695257,65.8402338 L96.3687552,66.1870434 L96.8889827,66.4013639 L97.03818,66.613736 L97.1245574,66.8163663 L97.2030823,67.3034584 L97.3562059,67.523624 L98.382919,68.0204579 L98.7284286,68.2308816 L98.991487,68.2990745 L99.1367581,68.306868 L99.2447298,68.3692158 L99.3742959,68.6536775 L99.4528208,68.7179737 L99.6452069,68.788115 L99.8493716,68.8290307 L100.422603,68.5854847 L100.813265,68.3984413 L101.121475,68.4471505 L101.347234,68.6536775 L101.425759,68.9537263 L101.588698,69.2713103 L101.828199,69.4252314 L102.061811,69.4427667 L102.59578,69.2284462 L103.080671,69.3921091 L103.510595,69.4525085 L103.995487,69.555772 L104.189836,69.6337068 L104.715953,69.8967365 L105.352004,70.1617146 L105.577764,70.132489 L106.44939,69.6376035 L106.539694,69.6980029 L106.810605,70.169508 L107.12863,70.3390161 L107.605669,70.4870921 L108.035593,70.2143205 L108.420365,70.2922552 L108.877773,70.317584 L109.288065,70.1870434 L109.661059,70.1539211 L110.248032,70.391622 L110.357967,70.3351193 L110.438455,70.1831466 L110.536611,69.5031661 L110.622989,68.9011203 L110.546427,68.5406722 L110.283368,68.0126644 L109.723879,67.3268388 L109.655169,67.1183634 L109.594312,65.9220653 L109.635538,65.2323429 L109.717989,64.9069654 L109.788662,64.4413054 L109.776883,64.2269849 L109.725842,64.0321481 L109.553087,63.9132976 L109.484378,63.7652216 L109.500083,63.6424744 L109.608054,63.5723332 L110.092946,63.486605 L110.622989,63.2995616 L110.829117,63.2001948 L110.980277,63.1008281 L111.123585,62.9449586 L111.286524,62.9508037 L111.834235,63.1787628 L112.0384,63.3209937 L112.211155,63.7535314 L112.319127,63.9230395 L112.328942,64.3633707 L112.220971,65.4310765 L112.350537,65.830492 L112.656784,66.1227472 L112.913953,66.3273259 L112.892358,66.407209 L112.497771,66.7520701 L112.450656,66.9371651 L112.582185,67.1183634 L112.788313,67.2703361 L112.894322,67.4164637 L113.059224,67.8704335 L113.310504,67.9970774 L113.818952,68.2893327 L114.256729,68.5017048 L114.922227,68.3614223 L115.134245,68.4568924 L115.491533,68.5582075 L115.760481,68.5893814 L115.927346,68.6634194 L116.027465,68.7374574 L116.031392,68.8290307 L116.062802,68.9245007 L116.44561,68.9478811 L116.653701,69.0004871 L117.309384,68.9030687 L117.959178,68.7705796 L118.200642,68.365319 L118.332171,68.3380419 L118.693386,68.1802241 L119.105642,68.3516805 L119.566976,68.587433 L119.806476,68.6595226 L120.259958,68.6965416 L120.691845,68.6692645 L121.714632,68.5582075 L122.297679,68.6166585 L122.764902,68.2815392 L122.874837,68.2815392 L123.151637,68.5406722 L123.732722,68.5640526 L124.019338,68.439357 L124.333437,68.3419386 L124.539565,68.3107647 L124.708394,68.3088164 L124.918448,68.3341452 L125.095129,68.2464686 L125.152059,68.0730638 L125.085313,67.8100341 L124.89489,67.523624 L124.741767,67.3580127 L124.702504,67.2664394 L124.702504,67.0599123 L124.757472,66.7696055 L124.890964,66.4364345 L124.686799,66.1149537 L124.415888,65.7428154 L124.260802,65.7077448 L123.903513,65.793473 L123.495184,65.7759377 L123.133969,65.5538237 L122.84539,65.275207 L122.743308,65.0414028 L122.759013,64.7549927 L122.81398,64.4939113 L122.817907,64.3945446 L123.120228,64.3964929 L123.552114,64.4529956 L123.881919,64.5270336 L124.137125,64.5231369 L124.535639,64.1880175 L124.741767,64.1665855 L124.971452,64.1042377 L125.065682,64.0399415 L125.148133,64.0886508 L125.421007,64.1295665 L125.693881,64.1139795 L125.921604,64.0204579 L126.141473,63.8762786 L126.522319,63.5723332 L126.575323,63.3989284 L126.543913,63.2391622 L126.441831,63.1339503 L126.347601,63.0832927 L126.355454,62.9449586 L126.492872,62.7111544 L127.095551,62.3584998 L127.582405,61.925962 L127.831722,61.6005845 L127.896505,61.2089625 L127.990735,60.7822698 L128.12619,60.6147102 L128.508999,60.5075499 L129.612274,60.3497321 L129.934226,60.1782757 L130.39556,59.8587433 L130.60954,59.6093522 L130.713586,59.4067219 L130.682176,59.1807112 L131.01787,59.1086215 L131.245592,58.7442767 L131.538097,58.3760351 L132.123108,58.0662445 L132.609962,57.6473453 L132.825906,57.7135899 L133.077186,57.9123234 L133.236199,58.1305407 L133.283313,58.2396493 L134.050894,58.3779834 L134.162792,58.3565514 L134.749766,58.5513882 L135.301404,58.7890891 L135.589983,58.8475402 L135.723475,58.8416951 L135.823594,58.7676571 L135.913898,58.5591817 L136.019906,58.4091573 L136.092542,58.3468095 L136.035611,58.1091086 L136.657921,57.6415002 L137.235079,57.3063809 L137.739602,57.0628349 L137.926099,57.1622017 L138.149895,57.3472966 L138.501293,57.8207501 L138.677974,57.9376522 L139.043115,57.8714077 L139.125566,57.9220653 L139.102009,58.0935217 L138.891955,58.3039454 L138.59945,58.4929372 L138.414916,58.6468583 L138.597486,59.1631758 L138.621044,59.3404774 L138.727053,59.39698 L139.304211,58.8845592 L139.612421,58.783244 L139.755729,58.9079396 L139.853885,59.1807112 L140.248473,59.7437896 L140.425154,60.0301997 L139.879406,60.714077 L139.700761,61.0667316 L139.736098,61.1914272 L139.747876,61.3141744 L139.608495,61.4895275 L139.632052,61.5596688 L139.798918,61.6707258 L139.991304,61.7545056 L140.075718,61.7506089 L140.18369,61.5849976 L140.788331,61.3511934 L140.984644,61.3960058 L141.520576,61.7545056 L141.738483,61.7739893 L142.313678,61.8830979 L142.637593,61.7467121 L142.924209,61.8714077 L143.558297,62.3214808 L143.699642,62.4033122 L143.709458,62.6760838 L143.744794,62.9761325 L143.931291,63.2157818 L143.990184,63.4281539 L144,63.6210424 L143.919512,63.7554798 L143.634859,63.8295178 L143.426768,64.0594252 L142.8182,64.6634194 Z M58.9673424,136.236727 L59.0046418,136.150999 L59.0164205,136.162689 L59.008568,136.24452 L58.9967893,136.355577 L58.9693056,136.414028 L58.943785,136.441305 L58.9378956,136.363371 L58.9673424,136.236727 Z M60.6693698,149.008281 L60.6850748,148.965416 L60.7007797,148.988797 L60.6909641,149.066732 L60.6458123,149.169995 L60.5947711,149.224549 L60.5398037,149.245981 L60.4985781,149.238188 L60.4769838,149.183634 L60.4848363,149.142718 L60.5378406,149.189479 L60.6006605,149.146615 L60.6693698,149.008281 Z" id="Combined-Shape" fill="#000000"></path>
    </g>
</svg>