<svg width="160" height="160" viewBox="0 0 160 160" xmlns="http://www.w3.org/2000/svg"><title>indonesia</title><desc>Created with Sketch.</desc><path d="M21.06 55l-.06.052.18.264.154.043.046-.083.006-.09-.02-.098-.2-.063L21.06 55zm.133.916l-.13.08-.006.14.057.154.015.156-.062.188-.03.182.483.897.143.323.17.303.226.288 1.092 1.162.64.556.215.252.36.494.21.145.717.17.243.16.2.228.59.872.16.253.177.326.21.297.522.374.07.18.07.318.066.53.11.395.246.22.32.056.223.074.214.125 1.246.855.08.11.285.473.252.604.376 1.35.327 1.005.14.663.122.312.2.244.253.175.677.308.184.167.133.228.356.818.18.253.222.213.18.23.514.716.048.08.21.8.234.578.917 1.85-.03.61.1.306.136.28.432.708.22.222.25.19.15.232.118.263.4.78.174.224.423.39.775.646.15.22.445.858.406.532.946.93.552.364.25.23.23.264.18.148.913.63.153.137.57.893.205.235.227.21.308.443.27.328.3.297.073.01.14-.044-.012-.224-.127-.51.018-.204.05-.15.73.47.23.134.148.052.125-.063.47-.448.12-.06.43.36.08.115.05.14.1.115.146.05.184.003.153-.297.04-.115.265-1.944.005-.63.043-.39.003-.31-.1-1.138.028-.12.25-.7.01-.142-.084-.154-.108-.144-.01-.34.122-.473.047-.123.353-.433.068-.127v-.167l-.024-.156-.356-.637-.784-1.153-.22-.183-.248-.142-.284-.07-.67.003-.142.04-.14.063-.1.077-.38.442-.098.08-.12-.008-.05-.15.05-.333.06-.128.312-.3.103-.14.05-.183.008-.23-.136-.15-.292-.16-.274-.19-.13-.297.013-.35-.1-.288-.07-.693-.05-.325-.107-.515-.052-.104-.265.044-.15.002-.354-.094-.31-.126-.56-.27-.367-.262-.115-.12-.24-.523-.016-.122.2-.2-.034-.138-.23-.163.1-.263-.08-.092.042-.14.413-.36.303-.143.206-.194-.113-.372-.184-.333-.24-.286-.26-.272-.172-.077-.19-.02-.16.057-.43.275-.27.198-.275.155-.302.1-.59.08.61-.235.565-.343.15-.223-.09-.255-.214-.248-.26-.15-.727-.096-.252-.09-.204-.18-.39-.433-.045-.082-.068-.36-.108-.34-.155-.29-.207-.244-.614-.522-.262-.117-.28-.026-.255-.065-.187-.188-.13-.38-.154-.36-.2-.266-.47-.45-.283-.11-.154.033-.123.117-.023.14v.16l.16.26.034.298-.185-.12-.347-.38-.21-.05-.21-.15-.176-.2-.15-.216-.128-.234-.12-.16-.477-.528-.283-.428-.14-.292-.17-.273-.464-.568-.552-.373-.977-.788-.737-.376-.24-.143-.19-.22-.054-.147-.076-.124-.342-.202-.578-.277-.18-.298.07-.37-.073-.27-.608-.644-.057-.08-.1-.334-.158-.3-.535-.466-.32-.38-.11-.103-.12-.065-.13-.022-.665.082-.272-.064-.308-.115-.32-.017-.58.158-.316-.025-.627-.11-.304-.08-.28-.165-.496-.475-.274-.19-.282-.087-.29-.044-.31-.013-.295.106zm80.938 3.428l.014.21.126.18.122.07-.1.28-.155.267.022.148.167.023.102-.06.06-.428.174-.323-.1-.24-.07-.31-.142-.17-.144-.03-.077.384zm-26.475.314l-.124-.055-.124-.077-.217-.025-.262.022-.28.188-.332-.168h-.09l-.06.044-.13.23-.26.18-.118.32-.068.312-.067.108v.6l-.03.288.082.383-.006.165-.11.245-.014.056-.05.39.03.103-.012.13-.09.274-.18.075-.188.044-.166-.095-.142.15-.18.233-.073.156.003.145.02.096-.034.1v.106l.013.154.128.064.136.133v.127l-.07.087-.163.137-.295.278-.335.238-.128.055-.043.11-.022.146.084.324.072.096.04.112-.043.136-.03.116-.125.073-.12.052-.044.092-.055.386-.07.203-.163.3-.052.138-.085.043-.324-.14-.288.086-.382.054-.324-.008-.25.06-.17.16-.19.2-.2.148-.153.07-.283-.21-.14.018-.258-.073-.6-.236-.15-.07-.16-.005-.05-.07.023-.112-.027-.15-.117-.056-1.198.022-.345.128-.233.103-.165.12-.044.293-.095.275-.124.292-.398.088-.29.296-.102.035-.202-.044-.215-.023-.157.082-.163-.005-.507-.137-.478-.022-.27.072-.15.025-.826.406-.28.047-.116-.058-.16-.166-.22-.166-.523-.565-.19-.135-.13-.136-.12-.16-.176-.175-.157-.12-.216-.245-.213-.268-.056-.47-.17-.09-.058-.12-.027-.14.223-.382-.638.305-.15.297-.108.335-.27.287-.228.323-.05.168-.107.58.143-.022.077-.032.09.013-.107.085-.15.058-.18.202-.102.646-.025.35.05.76.06.515.337.3.19.25.08.145.104.126.07.054.025.072-.162.12-.077.386-.04.126-.072.23v.366l.02.16.077.144.248.24.297.178-.018.084-.14.037-.108.152-.032.22.077.11.112.088.31-.02.584.22.27.195.218.263.163.234.112.273.087.36.037.37-.04.342-.158.29-.018.35.293.243.052.16.056.678.223 1.326.003.69.056.118.118.057.127-.112.07-.038.508-.123.233.33.088.047.088-.092.197-.148.23-.087-.125.11-.063.142.095.155.157.065.295-.044.56-.29.282-.066.322.116.338.006.087-.146.096-.106.164.145.12.2.03.145.01.73-.014.327-.043.328.09.058h.128l.125-.066.455-.433.415-.175.403.144.4.087.412-.227.564-.394.184-.742.766.913.062-.066.107.016.307-.13.103-.02.11.053.048.148.01.252-.017.255.18.104.232.003.427-.18.33-.335.067.016.042.123.127.08.15.02.15-.16.138-.207-.122.376.003.13.098.103.132.076.125.03.216-.304.016.34.158.612.004 1.188.064.117.104.053 1.48-.767 1.83-.91.12-.208.054-.264.112-.245.25-.337.05-.146.1-.1.137-.065-.21-.295-.043-.12.036-.145.15.124.163-.053.113-.165.063-.202.058-.367.022-.375-.177.073.028-.15.094-.088.126-.006.126.054.203-.08.058-.292.054-.322-.09-.27-.282-.06-.124-.083-.14-.053.287-.254.082-.377-.054-.172-.007-.23-.184-.02-.2.02.066-.12.085-.093.38-.23.102-.1.075-.132.027-.23.15-.133.27-.154.1-.14.046-.178-.026-.172-.077-.165-.004-.154.038-.155.05.213.09.193.134.1.167.018.23-.105.176-.218.202-.302.245-.244.302-.17.424-.207.104-.075.033-.126-.042-.152-.017-.352-.217-.672.003-.36.15-1.272.08-.306.485-1.13.082-.073.193-.1.18-.126.105-.17.03-.216-.066-.198-.107-.196.273.175.207.32.26.16.298.078.576.1.574-.076.344-.14.234-.277-.056-.18-.287-.15-.56-.65-.437-.286-.822-.65-.2-.18-.4-.48-.17-.298-.09-.097-.11-.074.235-.098.02-.077.167-.212.215-.16.06-.138-.005-.16-.086-.176-.397-.48-.22-.368-.054-.228-.095-.084-.217-.09-.074-.054.063-.1.083-.08-.158-.08-.177-.044.176-.062-.07-.158-.01-.173-.116-.1-.155-.018-.223-.176-.183-.084-.086-.145.15-.353-.104-.18-.482-.48-.137-.06-.147-.03.295-.05h.298l.42.032.11-.11.03-.187.154.15.166.123.218-.024.155-.13-.045-.13-.083-.106-.01-.076-.24-.238-.193-.15-.026-.17-.25-.257.075-.167.17-.085.023-.023-.096-.003-.226-.062-.455-.31-.46-.11-.663-.01-.375-.043-.15.047H76.1l-.096-.062-.1-.032-.25.182zm-21.1.316l-.492.46.002.174.12.273.115.107.403.122-.015.075-.05.037-.078.01-.214.187.21.148.346-.106.184-.428.01-.117-.027-.32-.372-.482-.025-.19-.117.05zm24.537.096l-.25-.005-.053.138.3.342.472-.147-.017-.105-.097-.28-.356.057zm22.95.695l.168.28-.01-.122.045-.126-.15-.245-.128-.118.076.33zm.312.25v.085l.062.086.096.08.04-.034.013-.055-.004-.073-.14-.133-.066.044zm-3.384.462l.04.13.09.135.046.127-.004.256.32.163.06-.09-.043-.118-.16-.274-.12-.29-.2-.183-.03.142zm-20.303.735l-.023.134.067.168.228.235.03-.096.043-.37-.115-.085-.228.012zm-29.158.662l.042.222.18.118v-.2l-.043-.172-.124-.04-.057.072zm-1.293.564l.034.088.014.118v.15l.034.087.106-.01.124-.12.064-.21-.038-.023-.072-.034-.09-.05-.078-.07-.1-.074.003.148zm8.168.056l-.198.31.137.095.12-.152-.012-.275-.047.02zm-33.67.398l-.138.085.045.174.202.325.184.04.154.125.215.008.7.485.135.167.156.062.16-.027-.014-.162-.045-.145-.07-.145-.62-.425-.134-.174-.074-.06-.27-.116-.27-.315-.23-.078-.086.177zm76.113.316l.107.342.023-.064-.015-.16.104-.165-.03-.06-.116-.063-.072.17zm8.267.44l-.247.073-.356.296-.274.502.126.625.096.14.405-.05.238-.132.184-.37.146-.727-.234-.36-.085.005zm-80.9 1.105l.305.17.272.306.013-.066-.018-.212-.1-.152-.1-.045-.247-.047-.124.045zm79.38.122l-.162.11-.42.5-.247.354-.15.42-.026.19-.057.18.01.307-.286.628.025.326.247.63.226.22-.016.152-.086.157-.063.18-.01.203.05.352.16.312.134.135.104.14-.058.405-.01.334.016.336-.034.24.043.23.126.17.29.233.09.125.31.682.09.142.478.238.113.24.378.066-.23-.222-.207-.248-.414-.718-.285-.69-.226-.87.06-.293.005-.163-.072-.268.035-.215.057-.19.152-.1.315.032.297.136.29.047.29.018.244.158.925.355-.092-.152-.123-.107-.186-.052-.133-.11-.02-.225-.077-.203-.113-.123-.552-.26-.355-.276-.012-.207.105-.21.12-.087.432-.21.392-.264.085-.108.024-.76-.08-.28.04-.188-.045-.13-.38.04-.296.12-.512.34-.162.247-.007.228.022.234-.11.087-.16.036-.222.21-.094.316-.026.166-.094.13-.195.02-.187-.065-.145-.11-.112-.146-.004-.12.05-.106.592-.435.257-.368.06-.123.028-.368-.013-.365-.04-.345-.172-.258-.154-.126v-.213l.04-.115.308-.506.027-.108-.02-.124-.184.07zm-67.958.332l-.242-.02-.103.134-.01.352.175.414.086.075.263.052.297-.213.033-.273.098-.178-.032-.155-.146-.24-.176-.14-.243.192zM97.85 67.34l-.217.28-.18.317-.105.074-.265.075-.11.07-.06.257-.104.214-.314.133-.346.474-.876.5-.216.037-1.466-.262-.544-.04-.14.008-.134.047-.17.213-.14.013-.127-.052-.342-.226-.28-.128-.292-.098-.845-.038-.623-.168-.708.06-.106-.033-.097-.074-.105-.148-.086-.172-.096-.085-.12-.03-.194.012-.19-.037-.328-.19-.146.006-.152.04-.137.066-.113.106-.162.3-.12.333-.11.142-.134.126-.08.12-.06.14-.22.106-.26-.092-.13-.112-.116-.278-.073.012-.06.023-.1.32-.185.253-.142.1-.114.14-.052.366-.095.134-.215.218-.267.602.01.152.138.428-.07.18-.134.103-.13-.02-.037.11.125 1.15.144.592.038.253-.006.258-.144-.284-.192-.245-.15.138-.38.52-.397.983-.137.48v.255l.03.26-.045.217.09.483-.072.304-.214.295-.185.318-.096.346-.017.36-.12.292-.354.335-.133.1-.14.055-.118.094-.07.11-.002.128.108.25.068.227-.104.327-.035.338.04.36.076.343.132.246.18.16.64-.18.313-.05.148.05.12.11.063.118-.013.155-.038.175-.008.18.03.115.277.674.026.1-.078 1.135-.06.29-.138.313-.09.323-.008.395-.247.588-.127.355-.094.332.026.322.208.28.23.26.4.24.122-.013.142-.077.238-.192.116-.052.323-.008.32-.047.144-.044.142-.007.3.142-.023-.294-.052-.282-.253-.72.013-.155.093-.377.275-.686.053-.32-.065-.59-.015-.96.08-.68.147-.304.008-.12-.074-1.044-.07-.298-.146-.27-.11-.294.03-.303.213-.232.533-.4.29-.19.287-.073.294.01.284.073.152.237.026.376-.005.377-.057.458-.046.11-.356.582-.048.163-.004.176.053.102.983 1.06.257.19.31.09.196.226-.023.184-.08.16-.07.097-.047.112-.178.87.057.29.18.23.143.076.258.088.432.093.313-.048.097-.117-.045-.34.02-.162.164-.23.244-.13.688-.215.37-.015.147.015.13-.033-.014-.1.018-.105.245.144.14.006.07-.125.022-.35-.006-.183-.04-.167-.068-.13-.127-.03-.053.08-.075.053-.155-.045-.094-.185-.107-.104.018-.18-.077-.12-.122-.086-.23-.33-.123-.082-.144-.05-.1-.095-.085-.12v-.128l.035-.14.146-.423.024-.314.216-.218-.04-.17-.183-.265-.037-.137.038-.15-.024-.132-.522-.46-.17-.272-.098-.333-.3-.613-.196-.265-.108-.097-.266-.1-.12-.066-.18-.31-.236-.218-.15-.07.02-.198.105-.13.303.16.15.05.2-.03.178-.094.164-.278.21-.216.773-.29.243-.113.217-.166.45-.437.395-.504.18-.324.218-.286.117-.11.132-.078.375-.083.266.1.185.276.19.07.2-.063.05-.124.104-.534-.044-.207-.094-.17-.252-.168-.28-.06-.392.085-.38.12-.112.052.03.082.112.102.008.097-.592.043-.332-.04-.643.002-.272.107-.097.133-.114.103-.322.17-.3.038-.296-.06-.144-.11-.122-.137-.148-.033-.145.078-.23.242-.405.523-.17.274-.17.37-.3.196-.3-.084-.304-.04-.177.023-.158-.006-.155-.325-.214-.64-.235-.228-.398-.18-.075-.09-.36-.636-.088-.275-.078-.36-.05-.363.005-.323.06-.31.11-.377.123-.37.167-.297.293-.407.107-.12.286-.178.305-.052.312.04.54.197.268.015 1.06-.154.23-.01.23.036.305.103.307.04.563-.092.565-.038 1.618-.014.225-.023.22.023.252.206.223.258.116.028.555.048.293.01.293-.023.894-.202.297-.016.16-.053.272-.136.11-.073.22-.25.192-.287.128-.258.147-.24.486-.494.195-.253.154-.284.22-.58.06-.085.204-.204.03-.07-.187-.41-.14-.124-.314-.045-.107.085zm-58.975.187l-.013.065.008.078.153.177.212.095.29.035.243.11.15.15.193.096-.024-.373-.06-.15-1.105-.334-.045.05zm-12.04.233l-.046.135-.204.17-.424-.007.567.695.19.38.096.32.145.015.372.315.206.56.005.133.35.09.145-.184.06-.747.074-.26-.076-.13-.305-.372-.227-.11-.568-.82-.326-.217-.035.034zm12.58.524l.016.244.06.34.065.21.12.2.145.138.117-.09.002-.224.047-.258-.017-.23-.078-.076-.144-.246-.213-.145-.052-.007-.07.144zm5.85.49l-.186-.046-.172.042-.284.23-.013.072.022.183.108-.004.372-.1.064.16-.087.115.134.07-.026.055.026.078.063.1.18.06.063-.08.135-.296.024-.26-.042-.158-.148-.107-.017-.218-.217.103zm-1.286.125l-.115-.003-.02.148-.038.046.02.072.064.097.266.068.152-.3.028-.103.004-.11-.134.084-.164-.128-.063.127zm-3.28-.065l-.057.307.063.035.16.03.253.1.2.158.18.177.14.1.13.018.072-.083-.258-.42-.178-.156-.54-.284-.165.02zm1.62.12l-.1.136.126.19.17.036-.016-.16-.048-.07-.068-.177-.063.046zm-2.182.085l-.035.297-.063.106-.03.178.093.096.133.073.436.136.17.014.503.127.097.082.047-.114-.07-.328-.15-.098-.423-.193-.14-.087-.24-.19-.22-.222-.11.122zm4.127.453l-.017.045-.01.062.207.267.16-.084-.033-.135-.146-.05-.124-.137-.037.033zm-.944.18l.006.12.24.17-.017-.084-.06-.134-.14-.13-.03.056zm-.964.06l-.052.213.222.37.052-.04.12-.17-.07-.162-.097-.135-.12-.132-.054.054zm61.57.025l-.016.088.05.124.085.032.088-.095-.05-.165-.087-.042-.07.058zm.234.287l-.05.2.03.117.027.012.09-.033.068-.12-.01-.145-.046-.03h-.11zm-62.345.292l-.033.274.084.04.29-.018.025-.21-.147-.245-.132-.003-.085.163zm3.738 1.598l.048.045.076.05.12.08-.02-.072-.077-.126-.3-.35-.116-.026.27.4zm58.713-.085l-.06.314.056.03.08.125.01-.09-.01-.22-.046-.213-.03.053zm5.02.555l.254.19.092.17.114-.007-.02-.14-.6-.538.16.325zm-64.006.176l-.13.183.068.066.238.097.35-.107.546.334.036-.02.056-.093.142-.004-.142-.102-.106-.105-.168-.208-.09.15-.076-.047-.168-.213-.156-.078.014-.04-.06-.13-.236-.104-.118.42zm-15.888-.366l.268.658-.047.24-.14.206-.04.257-.08.186.23.133.155-.136.16-.438.062-.358-.153-.262-.177-.437-.106-.07-.132.02zm83.373.085l-.356.045-.092.072-.127-.03-.174.112-.176-.075-.175.083-.02.156-.13.16.266.153.402.014.14.29.06-.015.083-.095.21-.094.03.277.128.153.377-.08.007-.21-.143-.135-.107.013-.103-.03-.178-.325-.137-.108-.042-.167.158-.016.32.425.227.122.128.202.152.067.237-.09.204.047.103.082.103-.025.213-.22-.095-.143.036-.107-.103-.158-.645-.322-.1.02-.445-.124-.235.075zm-70.106.78l-.048.174.373.074.336-.102.072-.09-.103-.12-.292-.132-.16-.01-.18.205zm60.85-.056l-.058.393.036.312h.176l.16-.074.082-.304-.07-.212.095-.1-.256-.08-.164.064zm.94.167l-.095.206-.217-.218-.12.013.013.16-.084.203.007.117.206.29.223.125-.08.28.06.195.09-.01.327-.106.048.052.062.14.238.15.21-.103.1-.115-.042-.14-.064-.107-.086-.085-.375-.014-.134-.23.202-.413-.295-.436-.102-.034-.09.085zm-59.517.195l-.057-.058-.058-.007-.04.016-.12.226.188.22.082.35.132-.22.184.086.055-.047.096-.22.12-.16-.057-.1-.24-.283-.287.198zm72.13-.137l-.685.286-.112.11-.1.133-.216.133-.188.217-.223.136-.886.227-.426.15-.102.065-.014.122.015.16-.015.158-.17.465-.103.154-.16.082-.116.107-.122.293-.015.117.155.067.157.022.158-.02.16-.055.138-.105 1.117.432.25.044.26.008.006.453.144.633.058.168.143.127.104.17.21.244.253.195.247-.005.257-.064.328.083.594.066.257.007.678-.168.338.002.338.03.576-.106.55-.252-.006.13-.05.106-.138.105-.157.214.278.033.006.252-.074.07-.11.018-.212.084-.118.273-.035.234-.123-.07-.106-.157-.21-.014-.29-.083-.373-.174-.19-.048-.186.036-.22.11-.367.498-.457.38-.184-.067-.194-.11-.645-.127-.238-.01-.43.23-.248.084.084.197.117.17.123.044.39.04.237.092.512.455.488.478.188.344.086.4-.317.447.08.363.103.352.075.17.11.144.133.11.304-.075.288.002.132-.023.412-.477.063-.165-.03-.167.026-.153.258-.34.098-.288-.05-.306.21.012.143-.15.04-.523.034-.156.077-.13.18-.125.19.03-.165.276-.228.288-.043.178-.033.497.103.288.21.21.132.088.105.115.068.164.1.123.16.01.165-.063.122-.01.082.083.048.182.158.17.324-.106.192.114.198.09.148-.01.272-.135.136-.022.324.048-.465.047-.057.164-.03.198.177.338 1.1.744.198.01.21-.035.247.003.678.103.67.154.294.156.28.193.463.148.56.343.6.217.155.006.146.035.14.063.15-.012.14.078.126.115.11-.043.113-.088.06.2 1.123.705.084.163.11.112.12-.005.087.062.152.167.187.11.024.235-.044.24-.002.14.05.095.102.02.1-.01.225-.072.228-.035-.255.14-.13.243.21.09.236.017-.164.128-.057.178.155.494.138.655.195.32.288.313.132.19.053.308.2.172.132.197-.47.082-.22.072-.002.075.28.388.308.193.51.186.16.004.17-.032-.302.107-.113-.003-.25-.065-.14-.007-.173.042-.136.106.107.137.146.118.076.098.115.29.108.103.164.058.087.17-.047.152-.084.152-.14.427-.19.22-.105.374-.062.154-.086.148.012.137.056.133.104.07.41-.347.295-.167.164-.303.012.188.04.175.088.173.166.068.344-.05.346-.136.368-.056.37-.014.272-.23.235-.287-.24.467-.126.162-.032.078.044.082.23.307.92.934.207.314.178.346.288.37.325.326.128.096.003-.04.05-.59.05-.593.048-.594.047-.592.046-.592.046-.594.043-.59.044-.594.04-.59.043-.594.034-.488-.13-.19-.127-.29.056-.375.208-.463.1-.31.014-.253.037-.593.036-.59.035-.594.035-.593.035-.59.033-.594.032-.592.03-.592.03-.594.033-.59.027-.594.03-.59.028-.595.026-.592.022-.593.025-.592.022-.592.02-.533v-.03l-.58-.01-.06-.286-.12-.105-.126-.077-.842-.073-.11-.025-.118-.106-.124-.075-.737.018-.202-.023-.778-.398-.58-.33-.262-.174-.28-.136-.304-.07-.273-.148-.19-.21-.217-.16-1.375-.51-.26-.172-.244-.213-.27-.002-.493.24-.615.35-.535.34-.138.113.002.117.123.27-.017.152-.26.23-.6.27-.595.077-.575.144-.102.15-.136.293-.097.304-.07.154-.61.44-.06.088-.18.41-.182.264-.616.555-.185.24-.2.223-.298.088-.31-.02-.405-.056-.14-.046-.3-.243-.073-.115-.077-.3.02-.373-.02-.204-.195.103-.17-.03-.115-.663v-.34l-.04-.154-.153-.077-.127.075-.095.138.008.383-.093.346-.23-.616-.4-.91-.09-.332-.025-.327.015-.33-.026-.362-.056-.36.11-.293.188-.268.056-.16.064-.324-.03-.153-.143-.312-.182-.294-.11-.293.042-.303.066-.148-.22-.225-.128-.075-.32-.036-.326.028-.644-.044-.523-.264-.49-.36-.567-.275-.594-.172-.302-.033-.294.023zm-27.267.18l-.125-.03-.197.21-.046.136.066-.002.106-.09.087-.01.234-.002.09.037.067-.15-.11-.13-.17.032zm22.643.002l-.086.068-.1.022-.154.11.265.126.147-.004.15-.172-.07-.095-.105-.056h-.048zm-8.863.998l.073.044.266.075.03-.06.004-.065-.108-.394-.125-.012-.14.412zm21.183-.16l.11.184.133.094.022-.047.082.007.31.274.263-.17.193.598.03.266.193.172.227-.026.277.137.138-.005.364-.12.184-.23-.238-.088-.324-.25-.217-.295-.446-.443-.134-.042-.237.06-.194-.128-.2.007-.548-.114.012.157zm-11.774.316l-.233.025-.225-.033-.11.043-.06-.014-.056.013-.054.032-.11-.013-.07.052-.05.106-.094.107 1.11-.18.12-.098.07-.15-.253-.035.016.142zm-.368.425l-.015.07.094.192.017.158.066.198.107.243.16.18.31.077.092-.08.12-.373.08-.64-.103-.15-.24-.005-.11-.074-.58.203zm-82.332.03l-.2.663.063.184.477.806.024.21.12.156.5.35.24-.017.278-.115-.007-.324-.14-.2-.2-.34.024-.07-.027-.098-.07-.128-.09-.29-.276-.538-.053-.3-.163-.11-.498.16zm93.023.024l-.052.17.133.224.143.06.123-.054.085-.24-.1-.01-.04-.15-.13-.12-.16.12zm-65.235.02l-.068.17-.065.574.09.106.12.017.52-.297.105-.104.026-.118-.04-.192-.114-.094-.216-.082-.36.02zm34.72.592l-.166-.02-.2.295-.063.435.116.338.08.114.246-.223.32-.498.117-.103.075.55-.16.183.02.062.106.113.124-.05.044-.063.104-.407.137.017.097.186.21-.025.166-.148.096-.32-.05-.15-.096-.08-.138-.065-.248.05-.266.395-.098-.295.096-.158-.053-.183-.138-.04-.48.092zm11.878.472l-.354.3-.168.397-.01.16.164.15.265.093.467-.108.445-.017.377.078.077-.03.16-.12-.006-.166-.292-.21-.324-.27-.412-.23-.247-.08-.142.054zm-10.572.536l-.02.427.118.087.177-.02.053-.224-.086-.106-.05-.113-.03-.127-.052-.017-.11.094zM48.638 76.6l-.247.082.082.364-.142.21-.084-.148-.067-.203-.138-.244-.326.14-.122.106-.105.135-.026.14.055.133-.033.182-.154.138-.326.165-.14.163-.014.203.29.107.114.103.128.032.543-.136.117.07.27.086.206.142.047.368.134.315.115.106.08.122-.092.436.067.292.15.237.326.09.316.112.232.16.14.05.13.08.12.103.128.077.163.047h.145l-.018-.204-.096-.19-.014-.12.188-.558.076-.133.1-.116.193-.13-1.157-.316-.383-.804-.102-.938-.086-.194-.118-.18-.085-.2-.044-.224-.116-.158-.18-.098h-.243zm7.684.18l.083.274.3-.123.012-.16-.205-.07-.19.08zm68.606.14l.043.153.967.244.466.21.365.102.09.1.253-.06.347.05.415-.05.225-.103.477-.11-.19-.134-.253-.058-.844-.036-.48-.195-.578-.058-.276.02-1.012-.147-.014.07zm-28.27.083l-.17.044-.094.082-.144.498.218.427.264.005.306-.085.51-.244.438.143.335-.156.46-.037.02-.194-.038-.047-.12-.068-.154.026-.022-.196-.107-.058-.05.02-.08.12h-.086l-.24-.102-.78-.203-.467.023zm15.01.138l-.307.12-.243-.005-.288.082-.67.315.043.08.332.268.53.12.1.106.297-.047.096-.112.14-.08.087.028.122-.06-.064-.088-.03-.112.062-.038.06-.248-.15-.16-.027-.17h-.09zm-18.558.278l-.056.082-.042.118.018.128.194-.24-.035-.13-.08.042zm6.722.08l-.513-.038-.196.023-.15.1.098.113.013.163.12.006.927-.1.303.032.857-.17.115-.104-.788-.097-.784.07zm-5.007.305l.062.22.162.003-.044-.116-.16-.225-.02.118zm5.384.34l-.03.122.094.423.086.118.09.445.15.157.045-.052.035-.25-.214-.576.056-.456-.074-.105-.102-.004-.133.178zm-67.662-.028l-.03.073-.01.188-.057.134.174.28.2.07.41.256-.01-.077-.066-.172-.2-.31-.12-.333-.16-.136-.13.025zm89.472.033l-.045.168.022.128.075-.044.122-.21-.072-.062-.054-.008-.05.028zm-88.433 1.424l-.053.2-.004.044.07.116-.02.35.057.146.3.005.192-.235-.002-.178-.477-.494-.062.046zm19.747.117l-.075.482-.12.2.014.183-.112.166.05.06.017.105.003.24.1.192-.064.247.116-.012.42-.13.045-.187.057-.03.21.125.063.11.02.16.2.015.076-.093.222-.15.066-.12.05-.306.228-.488-.183-.388-.355-.29-.51-.11-.094-.085-.443.104zm-19.224.64l-.052.1.052.485.137.205.182.163.038.133-.01.205.295.29-.09-.423.025-.122.08-.07.02-.23-.035-.107-.52-.636-.122.007zm75.178.015l-.147.084-.243.2-.275.128-.15.012-.106-.123-.036-.164-.17-.03-.21.063-.31.02-.566-.043-.957.07-.226.2-.636.837.044.175.072.174-.008.16-.076.29.046.028.133-.18.167-.303.04-.108.037-.188.072-.16.132-.078.124.042.13.09.118.11.338.512.117.07.132.028.315-.047.102-.107.2-.28.134-.103.16-.09.16-.016.085.035.012.09-.034.094.037.063.357.067.264.128.31.047.34.13.14-.058.006-.205-.02-.1.087-.03.21-.005.558.03.274.187.065.138.095.105.632.304.233.135.543.36.565.318.178-.838-.034-.107-.174-.335-.14-.022-.12-.056-.064-.23-.033-.247-.133-.282-.476-.412-.19-.033-.52.043-.303-.047-.58-.323-.39-.174-.145-.047-.15-.014-.148.015zm-56.61.137l-.047.1.016.082.06.07.104-.073.074-.16-.063-.027-.143.01zm-1.747.276l.013.08.063.077.1.08.143.032.044-.058.068-.21-.29-.1-.14.098zm54.51.057l-.272.15.038.036.225.012.14-.243-.13.045zm-4.212.438l-.23.132-.33-.124-.1.066-.067.124-.002.542.053.188.218.296.074.165.09.077.493.306.342.18.35.15.142-.028.14-.072.197-.017.185-.055.38-.27.184-.07.193-.043.057-.47-.036-.234-.156-.154-.097-.08-.08-.098-.07-.177-.09-.146-.414-.23-.134-.055-.65-.01-.645.108zm-25.905.458l-.32.232-.15.345-.125.45-.02.255.137.343-.066.552.082.138.562-.542-.03-.14.08-.166-.03-.13-.038-.537.037-.113-.018-.135-.058-.158.034-.42-.078.027zm29.036.005l-.114.08.106.125.25.08-.053-.128-.126-.178-.064.02zm-28.65.473l-.19.335.146.285.113-.5.013-.19-.083.07zm31.333.258l.078.222h.102l.138.04.02-.037.01-.123-.072-.065-.07-.023-.18-.066-.027.052zm-1.208.22l-.265.04-.238.227-.01.06.018.127.11.08.197-.165.154-.08.093-.028.027.06-.044.102.127.006.15-.07.07-.107.01-.123.04-.103.062-.1.045-.137-.165-.01-.383.22zm.8-.14l-.105.286.445-.153-.063-.13-.213-.077-.064.074zm-14.095 1.428l.002.093.05.25.198.233.175.017.267-.35.02-.21-.084-.127-.48-.048-.15.142zm26.625.41l.426.253.3.123-.124-.155-.268-.135-.356-.26.022.173zm-26.49.653l-.244.14-.262.512-.04.62-.087.328-.054.164-.033.15-.085.367-.006.094-.1.15-.167.202-.077.145-.007.133-.152.183-.012.162.136.346.1.01.13-.093.2.107.102-.096.187-.347-.014-.12.074-.12.09-.09.047-.035.144.075.204-.077.18-.174.047-.175-.127-.143-.243-.197-.07.018-.114.067-.02-.137.066-.512.078-.154.018-.23.107-.243.075.002.053-.027.04-.048.052.048.133.242.027-.165-.033-.626-.268-.344.02-.136-.093.023zm-1.006.698l-.358.213-.408.175-.1.23.123.443.006.21-.184.196-.142.53.052.178.164.008.06-.14.204.132.116.03.114-.01.15-.15.075-.194-.062-.38.404-.6-.017-.752-.09-.163-.11.045zm-2.103 1.346l.013.142-.046.035-.1.136-.037.154.117.274.29.337.168-.08.08-.632-.046-.18-.1-.054-.08-.19-.134-.008-.125.07zm4.283.51l-.01.08.02.1.08.102.1.016.027-.295-.167-.064-.05.06zm-55.073.15l.06.11.372.36.21-.014.106-.216-.08-.112-.438-.226-.114-.006-.115.105zm79.34.872l-.193.18-.058.297-.23.59.222-.25.142-.485.408-.466.174-.664-.084-.09-.06-.02-.322.906zm3.876-.534l-.056.254-.093.095-.32.452-.236-.092-.112.074.048.108.284.257-.138.402.004.113-.198-.003-.186.03-.002.128.047.08.216.236.035.086.184.202.206.19.5.087.064-.083.06-.026.085-.094.093-.27.035-.093.017-.207-.007-.146-.085-.292.122-.195-.032-.193.014-.206.026-.112-.1-.305-.14-.062.04-.123-.025-.136-.066-.158-.115-.032-.168.032zm-4.738.876l-.056.342.028.165h.06l.1.1.174-.28v-.18l-.15-.37-.05-.04-.043-.114-.174-.007.112.384zm-51.458-.023l-.17.212.035.118.246.008.06-.104.03-.17-.094-.078-.108.015zm20.01.425l-.02.636-.055.25.053.215-.006.443.04.172.133-.485.103-.958-.028-.192-.127-.374-.094.295zm9.045.184l.082.077.084.16.03-.14-.06-.208-.118-.065-.02.174zm-43.572.2l-.214.19-.14.052-.136.02-.376-.176-.273-.048-.283-.012-.276-.096-.47-.057-.225-.148-.122.058-.248.242-.188.288-.255.994-.08.068-.132.05-.128-.082-.14.43-.08.158-.264.322-.06.017-.14-.057-.043-.05-.03-.252-.09.03-.17.16-.083.14.024.17.12.014.154-.043.15.023.144.06.314.02.32-.043h.284l.278.038.642.2.807.368-.082.175-.12.183-.09.183-.026.212.104.165.2.075.244.062 1.123.093.546.07.66.204.127.072.24.2.27.154.286.105.767.168.292.034.3.008.178-.178.14-.082.444-.117h.295l.328.107.532-.026.225.028 1.446.36.466.18 1.415.757.564.15.57.11.723.065.432.127 1.548.054.6.087.593.134.238.027.24-.036.33-.103.32-.142.3-.07.307-.005 1.09.556.617.264.552.17.303-.036.154.096.103.17.19.1.312.087.048-.124-.002-.123-.274-.236-.077-.128-.13-.45-.003-.204.023-.208.197-.754.022-.318-.072-.3-.067-.062-.775-.402-.085-.003-.42.133-.337.075-.644.06-.64-.016-.592-.177-.544-.308-.01-.35.052-.372-.104-.113-.257-.128-.053-.125-.078-.375-.104-.36-.268-.07-.31-.025-.453.032-.125-.035-.237-.255-.642-.094-.123-.092-.108-.126-.26-.146-.142.01-.257.12-.115.02-.41-.038-.067-.052-.364-.595-.07-.086-.35-.032-.134.053-.125.086-.1.134-.075.152-.12.35-.148.336-.175.267-.25.145h-.138l-.13-.026-.152-.076-.157-.05-.338.01-.338.05-.296-.04-.59-.175-.22-.095-.254.147-.282.02-.7-.146-.305-.026h-.306l-.26-.052-.18-.18-.14-.62-.05-.13-.235-.258-.214-.282-.09-.06-.103.003-.15.067-.153.02-.33-.056-.313-.126-.278-.04-.28-.01-.262-.096-.22-.18-.24-.332-.106-.086-.434-.06-.29-.154-.102.304zm69.58.53l-.022.19.006.498.173.097-.027.057-.08.005-.12-.028-.176.867.07.188.264.218.328-.175.09-.098.172-.394.252-.258.054-.23.055-.204-.303-.162-.237-.206-.198-.26-.162-.148-.14.043zm1.87.39l-.08.074-.078.126-.01.144.064-.024.19-.32h-.087zm-.59.446l.058.237.14-.027.043-.128-.12-.144-.12.062zm-75.518.15l-.087.05-.192.2.053.083.12.055.163-.064.073-.23-.038-.107-.092.013zm75.657.282l-.093.092-.1.16.004.06.06.094.048-.045.146-.237.033-.132-.098.008zm-49.993.686l-.054.128-.012.14.19.102.21-.05.125-.09.313-.004-.05-.108-.11-.092-.16-.088-.157-.003-.296.064zm-5.582.055l-.516.058-.27.295-.12.207.086.195.7.21.22.037.04-.05h.06l.083.034h.7l.198-.073.293-.24.435.025.052-.04.113-.165.518-.175-.02-.085-.24-.255-2.33.02zm19.402.687l.08.025.263-.017.03-.163-.094-.008-.28-.122v.285zm20.38-.097l-.133.15.05.063.18.154.12-.074v-.132l.023-.07-.035-.066-.075-.065-.13.04zm-36.592-.007l-.063.05.112.19.13.03.044-.115-.067-.154-.09-.02-.068.02zm44.73.107l.06.078.116.044.157.025.097.167.105.077.042-.142-.136-.285-.442.037zm-.493.053l-.082.086v.16l-.14.09-.107.188-.093.072-.176.248-.136.036-.1.096-.19.425-.03.16-.135.04-.023.282-.145.24.08.167-.04.22.184.002.316.038.044-.034.05-.05.018-.1.09-.23.266-.27.075-.132.22-.14.124-.164.207-.547-.09-.5.25-.205-.08-.166-.14-.078-.218.065zm17.225.883l-.293.165-.28.21-.208.218-.51.848-.452.96-.117.362.09.073.48-.092.283.007.8.068.642-.383.213-.22.477-.406.313-.515.29-.544-.047-.314-.146-.222-.23-.284-.078-.07-.578-.03-.65.17zm-28.05.39l-.065.217.17-.07.117-.075.03-.054.012-.138-.264-.052-.002.172zm-2.348.103l-.278.2-.38.088-.328-.027-.275-.1-.37.447-.1.187-.047.303.072-.016.335-.197.232-.075.175-.003.156.082.362.014.403.098.133-.235.165-.18.305-.158.312-.047.01-.062-.027-.142-.19-.016-.282-.263-.383.104zm8.035.57l-.032.082-.035.25.286.358.17.018.172-.267.023-.19-.063-.203-.4-.072-.12.025zM71.44 96.03l-.156.038-.27-.013-.536-.162-.295-.03-.076.007-.027.138.02.14.05.134.162.247.103.094.3.046.277.102.27.197.25.222.12.165.078.196-.02.21-.134.176.133.056.127-.04.07-.044.046-.066.035-.116.14-.275.11-.14.6-.295.27-.19.118-.12-.025-.13-.333-.45-.252-.156-.268-.116-.375-.138-.094-.005-.42.315zm7.374-.214l-.298.143-.053.158.057.218.11.183.4.34.098.024.113-.008.1.032.177.15.145.19-.087.174-.26-.004-.36.226-.192-.07-.226.022-.214-.376-.097-.056-.07-.08-.04-.222-.134-.098-.342.026-.2-.018-.33-.16-.15-.02-.274.226-.294.17-.173.015-.137.07-.098.192-.06.195.032.425-.106.243-.023.178.043.15.203.115.218.09.26.064.262-.087.134-.1.142-.025.156.022.157-.005.315-.073.59-.254h.163l.166.034.554-.235.156.015.152-.045.12-.094.4-.39.047.084-.028.32.065.124.134.003.508-.132.14-.02.2.096.064-.013.015-.07-.043-.053-.155-.05-.017-.112.197-.068.212-.026.09.03.076.083.087.024.192-.055.067-.06.073-.123-.065-.117-.093-.084-.044-.112.025-.305-.122-.347-.15-.117-.204-.015-.135.04-.122.072-.104.244-.05-.06-.043-.205-.14-.125-.154-.03-.156.004-.153.064-.256.173-.116.013-.12-.115-.093-.147-.11-.34-.08-.08-.498-.098-.138.034zm33.222.495l-.166.23.23-.09.134-.212.355-.098.355-.237-.226-.017-.166-.098-.518.523zm-20.595-.42l-.098.174.406.106-.193.24-.268.14-.384.145-.13.085-.116.11-.085.13-.054.153-.092.1-.288.08-.154-.01-.478-.373-.114-.073-.133-.048-.148.076-.126.034-.303.038-.162-.002-.19.06-.17.14-.128.032-.137-.02-.18-.08-.23-.214-.396-.158-.27-.168-.308-.114-.344-.015-.105-.04-.242-.198-.164.058-.16.018-.152-.05-.184.027-.32.092-.356.255-.358.17-.12.028-.105-.074-.03.155-.06.146-.085.137-.038.154-.013.218.073.193.086.127.068.146.274-.137.286-.097.5.126.597-.054.58.138.5.23.135.022.133-.027.135-.062.14-.026.347.063.242-.298.218-.008.215.023.087.096.07.13.228-.08.258-.03.68-.338.236-.04.35.022.245-.01.137-.027.223-.13.233-.1.37-.102.098-.047.076-.097-.075-.235.245-.19.062-.103.086-.078.135-.072-.036-.517-.147-.134-.18-.035-.144.096zm12.813-.018l.073.204.508.19.262-.245-.045-.104-.257.01-.442-.116-.097.062zm-8.62.185l-.11.203.075.124-.198.264.058.083.156.09 1.692-.27.094-.076.008-.356-.186-.073-.32-.038-.44-.02-.194.025-.206.1-.05-.18-.17-.015-.21.14zM81.91 95.93l-.108.052-.048.122.014.117.113-.002.088-.045.078-.076-.013-.06-.07-.11-.052.004zm-3.93.035l-.15.092-.03.163.047.197-.048.12.106.06.06-.004.322-.52-.004-.12-.305.012zm54.417.063l-.227.074-.158.203-.158.118.005.062.06.12.637.09.13-.04.018-.15-.222-.477h-.086zm-38.915.343l-.07.002-.106-.077-.147.006-.214.04.006.057.075.038.13.026-.062.093-.35.25-.262.265.058.022.197-.006.197.147.06-.03.15-.127.16.1.075-.063.023-.06-.01-.067.028-.07.11-.16.175.007.246-.364.368-.08-.07-.096-.123-.076-.173-.065-.47.29zm1.656-.256l-.363.47-.036-.024-.063-.112-.142.003-.115.104-.132.277.23-.014.104.314.212-.06.103-.096.128-.31.17-.18.065-.296-.04-.058-.054-.02-.068.004zm-20.36.102l-.227.167-.433.414.01.506-.03.39-.118.06-.3-.022-.114-.043-.04.132.038.107.38.14.537.113.133-.017.22.066.544-.125-.064-.093-.11-.098.366-.602.282-.66-.03-.15-.073-.093-.1-.064-.616-.23-.256.1zm17.513.047l-.067.06-.207.184-.032.167.697.01.062-.13.066-.248-.298-.097-.22.053zm-9.537.585l-.042.245-.114.138.046.178-.06.26.1.04.1-.026-.035-.203.107-.127.146-.114.056-.105.01-.102-.02-.106-.114-.002-.05-.025-.026-.05-.056-.078-.047.076zm9.184-.02l-.21.144-.082.096-.05.166.143.048.094-.17.144-.148.32-.055-.034-.056-.12-.05-.205.025zm-19.2.662l-.162.117.047.08.195.18.08-.102.018-.164-.124-.124-.054.014zm23.908.855l-.484.27-.173.162-.188.11-.345.104-.026.14-.083.223-.103.103-.16.185-.098.043-.374-.042-.05.03-.065-.02-.087-.12-.034-.1-.16.09-.275.237-.466.47-.132.264-.108.39-.15.373.014.14.285.185-.078.147-.118.113-.1.14-.037.16.092.118.254.106.284-.01.302-.142.553-.326.39-.04.264-.062.22-.18.26-.272.295-.23.378-.45.333-.275.114-.29.19-.158-.06-.378-.078-.165-.067-.09-.015-.117.013-.118.048-.055.318-.015.14-.196.015-.235-.056-.08-.06-.032-.338.175-.09-.03-.054-.065.04-.26-.09.077zm-13 1.14l-.147.06-.455-.08-.493.048-.328-.008-.287.053-.407.16-.103.094-.1.137.035.155.07.14.076.14.1.11.697.19h.138l.14-.033.334.037.508.42.293.142.155.214.117.24.22.226.274.123.35.063.107.09.33-.173.203-.02.152-.062.296-.287.09-.206-.105-.234-.204-.16-.152-.28-.178-.253-.12-.132-.15-.083-.202.027-.188-.02-.074-.13-.013-.177-.062-.107-.398-.252-.105-.13-.088-.156-.08-.057-.246.17zm8.894 2.364l-.203.27-.017.213.24-.102-.01-.217.243-.098-.002-.05-.08-.106-.17.09zm-3.98.78l-.2.198-.246.14.05.053.266.084.132-.033.267-.18.063-.238-.12-.04-.214.017zm3.758.136l-.198.093-.338.354-.23.17-.57.185-.082.143-.004.257.074.03h.238l.153-.097.555-.205.274-.313.286-.138-.006-.082-.062-.16-.006-.27-.033-.008-.052.04z" fill="#000"/></svg>