<svg width="160" height="160" viewBox="0 0 160 160" xmlns="http://www.w3.org/2000/svg"><title>kenya</title><desc>Created with Sketch.</desc><path d="M58.698 34l-1.456 1.645-1.64 1.85-1.896 2.138-2.064 2.328-1.615 1.842-1.6 1.812 1.286 3.023.428.18-.052.262-.106.253.824.732 1.016.377.363.376.032.4-.326 1.772.07.503.34 1.772.606.4.547 1.78 1.08.757.156.217.256.862.338.95.257.22.164.053.323 1.003-.18.564.257 1.718.408 1.53.122 1.833.008.806-.012.49-.08.696-.197.4-.347.393-.375.617-.33.66-.207.322.167.99-.04.256-.087.127-.493.152-.624.266-.375.262-.538.5-.428.544-.567 1.6-.946 1.24-.158.408-.897.74-.392.913-.253 1.125-.347.8-.754 1.106-.18 1.743.028 3.474L48 91.748l.024 1.55h.612l.58.348.644.414 1.705 1.084 1.717 1.088 1.713 1.084 1.704 1.088 1.712 1.084 1.705 1.088 1.713 1.09 1.705 1.087 1.713 1.084 1.7 1.088 1.714 1.084 1.705 1.087 1.704 1.085 1.706 1.092 1.71 1.084 1.704 1.088.812.516.122.225.134.99.082.617-.057.544-.457.93-.14.482-.007.335.114.13.383.05.326.22.118.173.246.7.318.347.718.59 1.224 1.01 2.447 2.02 1.223 1.01 1.224 1.008 1.22 1.01 1.227 1.01 1.22 1.01.595.488.253.14.053-.24.48-.525.72.155.93-1.345 1.206-2.97.175-.307.236-.467.367-.682.114-.348.13-.384.478-1.162.355-1.91.29-.373.334-.854.448-.838 1-.91.11-.706.546-1.408-.102-1.828.355-1.195.454-.543 1.02-.667 1.93-.15 1.37-1.343.056-.51.632-.607.196-.695-.122-.516-.127-1.04.215.172.286.123.152-.585.204-.377.505.23.39.06 1.292-.343.966-.708 1.183-1.57.046-.75-.126-.376-.755-1.116-1.42-2.095-1.072-1.58-1.097-1.615v-1.297l-.008-3.845-.025-7.69-.05-7.697-.076-7.698-.04-3.85-.02-1.57.11-.254 1.243-1.415 1.648-1.866 2.15-3.55 1.157-1.928.975-1.613-1.175-.008-2.055.142-.873.156-.436.03-.782-.006-.65-.175-.435-.266-.54-.597-1.202-1.215-.868-.752-1.896.867-1.697.867-2.415 1.232-1.37.88-.408.89-1.053 1.61-.942.993-.36.118-2.16-.204-.783-.206-1.294-.18-1.734-.35-1.166-.374-1.256-.045-1.82-.13-1.12-.27-1.143-.897-1.476-1.076-1.517-1.108-1.562-1.142-1.842-1.31-2.015-1.435-.465-.143-.196-.024-2.178-.066-2.255-.07-1.53-.044-.486-.168-.346-.327-.486-1.056-.603-.762-.674-.96-.066-1.298.168-1.42.167-.466-.102-.47.016-.643-.38-.596-2.227-.687-.355.053-.37.258-.42.184-.307-.176-.187-.254-.008-.42.033-.312zm46.165 69.42l-.16.52.302-.08.996-.53.15-.14.026-.14-.074-.15-.354-.147-.885.667z" fill="#000"/></svg>