<?xml version="1.0" encoding="UTF-8"?>
<svg width="180px" height="180px" viewBox="0 0 180 180" version="1.1" xmlns="http://www.w3.org/2000/svg" xmlns:xlink="http://www.w3.org/1999/xlink">
    <!-- Generator: Sketch 55.1 (78136) - https://sketchapp.com -->
    <title>mexico</title>
    <desc>Created with Sketch.</desc>
    <g id="mexico" stroke="none" stroke-width="1" fill="none" fill-rule="evenodd">
        <polygon id="Path" fill="#000000" points="157.84278 104.591035 157.971176 103.487615 157.562403 103.244757 157.054057 102.481867 156.605978 102.310283 156.126456 102.539942 155.814635 102.603296 155.348214 102.590097 155.23554 102.722085 155.673137 102.877831 155.908967 102.869912 156.121215 102.766961 156.23651 102.751123 156.328222 102.941185 156.178863 103.160285 156.00854 103.273795 155.832977 103.337149 154.693129 103.186683 153.692158 102.814477 153.275524 102.735284 152.143536 102.413233 151.522516 102.34196 151.310268 102.415873 151.297166 102.487147 151.221176 102.56106 150.875291 102.632333 149.785229 102.616495 149.158967 102.798638 148.26019 103.33187 147.560559 103.532491 142.671002 104.353456 142.306774 104.482805 140.695264 105.258894 139.730978 105.916194 139.091615 107.399738 138.937015 107.655795 138.66712 108.58499 138.541343 109.622416 138.36316 110.541052 138.20856 111.710465 138.090644 112.175063 137.98321 112.380964 137.155182 113.062022 136.877426 113.452706 136.311432 115.678023 135.040567 116.857996 134.466712 117.174767 134.021254 117.531134 132.362578 118.402255 132.234181 118.550081 132.14771 118.737504 132.268245 118.737504 132.847341 118.338901 132.873544 118.478808 132.640334 118.89589 132.671778 119.067474 132.912849 119.088592 133.017663 119.397444 132.952155 119.964992 132.040276 120.450708 131.490004 120.954902 131.149359 121.010337 130.135287 120.87043 129.6217 120.529901 129.503785 120.324 129.85229 120.110179 129.886355 119.8858 129.477582 119.426481 128.809394 119.495115 128.232919 119.608625 127.066867 119.6667 126.831036 119.727414 125.641401 120.041545 125.513005 120.258006 125.264072 120.556298 124.627329 120.883629 123.353843 121.150244 122.858599 121.028815 121.197302 121.108008 120.052213 121.535649 119.452155 121.84978 117.748932 122.493882 116.687694 122.665466 116.344429 122.662826 115.912073 122.615311 115.374903 121.591084 114.932065 120.611733 113.878688 120.281763 113.144992 119.516233 111.232143 119.408003 110.59278 119.078033 110.469623 119.11763 110.760481 119.381606 111.119468 119.576948 110.873156 119.574308 109.942935 119.196822 109.497477 118.814057 109.484375 118.634554 110.042508 118.909089 110.207589 118.89853 109.604911 118.357379 109.384802 117.436103 108.981269 117.129891 108.808327 116.580821 108.100835 115.728179 108.087733 114.965288 107.906929 114.410939 107.741848 112.629101 106.756599 110.752233 105.063859 108.239182 104.830648 107.637317 104.864713 107.148961 104.332783 105.359205 103.887325 103.624883 103.918769 103.426901 103.895186 103.155006 103.659356 102.980782 103.530959 102.814477 103.394701 102.415873 103.219138 99.9239404 103.787752 101.481398 104.317061 102.363078 104.644604 102.632333 104.594818 102.88575 104.338024 103.228919 104.183424 103.87038 104.23059 104.364015 104.437597 103.76743 104.754658 103.392584 104.990489 102.648172 104.809686 102.349879 104.267275 101.819288 103.861122 101.209503 103.250582 99.456703 103.326572 98.4351162 103.255823 97.0730004 103.30823 96.7984655 103.295128 96.4025016 103.659356 95.5076232 104.068129 94.8608822 104.191285 94.5282726 104.471661 92.3847881 105.124127 89.8743771 105.07696 89.7080722 105.179154 89.5470469 105.449049 88.4093107 106.161782 85.9965708 107.705163 82.3141067 108.389072 81.0259042 109.82764 78.9484137 110.346467 77.9479449 110.702834 76.7283762 109.997962 76.8471653 109.67304 77.026669 109.581328 77.1824148 109.52106 77.2668871 109.437209 77.2589678 109.13587 77.1454581 108.520089 76.5963882 107.521739 76.2532195 106.138199 76.1212316 105.236801 75.8466966 104.814926 75.4269749 104.330163 75.1761978 103.785132 75.0996447 103.371118 74.8699857 103.085501 74.4925001 102.600738 74.252282 101.914208 74.1493314 101.515916 73.8642374 101.353455 73.1752603 101.356075 73.1647012 101.340353 72.0084867 101.151689 71.2825529 100.661685 70.3876745 100.625 70.2688854 100.656444 70.1210589 100.871312 69.6010263 100.889655 69.2261805 100.740295 68.9199684 100.769119 68.595278 100.976126 68.2547491 101.08618 67.8482262 101.101902 67.3704298 100.78222 66.853037 100.129755 66.2986875 99.6633346 65.4882814 99.3829581 64.4244585 99.0265916 63.6879657 98.5889946 63.278803 98.3505435 62.7772487 98.308618 62.1859427 98.3426825 61.842774 98.4501165 61.7477426 98.2955163 61.0904426 97.8815023 59.8708738 97.6980784 58.9786352 97.7478649 58.4163665 97.4596273 57.7458677 96.8386064 56.9671387 96.5267857 56.4629447 96.5189247 56.1118567 96.5163043 56.1118567 95.5022321 55.0902699 95.3083269 54.4514482 95.0698758 54.2508265 94.7213703 54.2719445 94.5641498 54.2112301 94.5982143 54.0660433 94.4907803 54.0607638 94.2366071 54.190112 93.5317352 54.2165096 92.3709239 54.1399566 91.566479 53.9657325 91.1236413 53.696477 90.7436918 53.7334337 90.4292508 54.0766024 89.9130435 54.2957024 89.1950699 54.3933735 88.4115877 55.0321952 87.5678377 56.206888 87.1276203 56.9644989 87.0883152 57.2997484 86.8865489 57.545246 86.5197011 57.698352 86.0925854 58.0415207 85.6052019 58.5721123 85.1414014 58.8281689 84.701184 58.8123304 83.9963121 58.4031677 83.0320264 57.6006809 82.2380629 57.1070459 81.6118012 56.9169833 81.1217974 56.547417 80.7654309 55.9957073 80.3959627 55.6287808 80.0107725 55.4439976 79.6832298 54.8342133 79.4133346 53.7967879 79.3661685 52.9943011 79.630823 52.1495781 79.4447787 50.3123057 79.2954193 49.5150984 79.1119953 49.1481719 78.6639169 48.7099719 77.9485637 48.2004983 77.1048137 47.184191 76.1379076 45.6557705 75.404212 44.7371343 74.898486 44.4256427 74.5552213 43.8765728 74.377038 43.0872847 74.1097632 42.5857305 74.0730784 42.5619727 74.0363936 42.5514136 72.9541925 42.5461341 71.8746118 42.5382148 70.7924107 42.5329353 69.7102096 42.525016 68.6280085 42.5197365 67.5458075 42.5118172 66.4636064 42.5065377 65.3840256 42.4986184 65.1481949 43.1585582 64.6817741 44.4784379 64.451184 45.1383777 62.7034161 45.1410174 60.9556483 45.1462969 59.2078804 45.1515765 57.4601126 45.1542162 55.7149651 45.156856 53.9671972 45.1621355 52.2194293 45.1647753 50.4716615 45.1700548 48.4382764 44.301574 46.410132 43.4330932 44.3846079 42.5646124 42.3643245 41.6961316 40.3492818 40.8250111 38.3394798 39.9565303 36.3349185 39.0880495 34.3329775 38.216929 34.697205 37.8843193 35.34967 37 34.7627135 37.0607145 33.3084239 37.1874229 31.851514 37.3141313 30.3972244 37.4408398 28.9403144 37.5649085 27.4834045 37.6916169 26.0291149 37.8183254 24.572205 37.942394 23.115295 38.0691025 23 39.1857206 23.0524068 39.4127399 23.406153 40.0383629 23.2777562 41.2183352 24.0717197 42.0788967 23.8489907 42.6226871 23.6708075 42.7282775 23.4349767 42.7071594 23.314441 42.7599546 23.4978649 42.9711353 23.2358307 43.7577836 23.3511258 44.1431884 23.7965839 44.9535945 24.0743401 45.8827898 24.0297943 46.3236295 23.8673331 46.7723886 23.7625194 47.2449055 24.5695846 48.2189767 24.4962151 48.7997237 24.2341809 49.6312478 24.0900621 50.5076479 24.6612966 50.8270588 24.7556289 51.1570287 24.4411879 52.4452312 24.1005435 53.1738047 24.3494759 53.3163517 24.365198 54.3696156 24.7530085 54.8183747 25.7277756 55.6894952 26.2466033 56.3045591 27.0222244 56.557976 27.2397127 56.7506784 27.4126553 57.1598411 28.1122865 58.2632605 29.2023486 60.4093847 29.7919255 61.140598 29.9517663 62.1965017 29.3674301 63.4028717 28.5420225 64.6303597 28.0022321 65.0949573 28.0231949 65.2507031 28.5131988 65.1820694 28.4293478 65.4856417 28.2747477 65.7073815 28.2983307 66.3198056 28.5394022 66.6180984 28.1935171 66.644496 27.7952252 66.369961 27.5462927 66.0294321 27.7218556 65.6598658 27.7218556 65.4566043 27.3078416 65.6440272 26.8519022 65.9053634 26.2230202 65.9819164 25.0386258 65.7100212 23.9957298 65.6387477 23.935462 65.8921646 24.0271739 66.2643707 24.5669643 66.7157695 25.0805512 67.4205852 25.7749418 68.0620467 25.8902368 68.3840973 25.8299689 68.9305275 25.8928571 69.3159323 26.3540373 69.6722998 26.9881599 69.7567721 27.3864519 69.9785119 27.7611607 70.6754083 28.0598797 70.6912469 28.5053377 70.8021167 28.7726126 71.3643855 28.9245924 71.8342626 29.3255047 72.246065 30.3107531 71.807865 31.0706522 71.8369024 31.5082492 71.446218 31.9013005 70.9209059 31.7204969 71.8289831 31.7204969 72.2751024 32.0034938 73.0617506 33.4079969 74.6324074 34.0054348 74.888464 34.6631405 75.239552 35.2317547 77.0187497 35.2894022 77.8845907 35.11908 78.681798 35.1610054 78.9536932 35.2605784 79.0223269 35.2107919 79.5212414 34.8675272 80.4900331 34.2229231 82.1451621 34.1233502 82.7892633 34.2281638 83.3436128 35.1295613 84.3467213 35.1950699 84.5711008 35.1321817 84.9169093 35.1924495 85.0990526 35.4702057 85.0304189 35.8108502 85.0198599 36.1907997 85.6850792 36.8432648 86.355578 38.4888393 87.6754576 39.0260093 88.4700252 39.5710404 89.0217348 40.0767663 89.8453397 41.2637811 90.6240687 41.5310559 91.1388217 41.6306289 91.7591651 41.8664596 92.1762471 41.9503106 94.1560665 42.2228261 94.8133666 42.6315994 94.8608822 43.1818711 94.6470617 43.7269022 94.2959738 44.3348214 93.7257858 45.1104425 93.2479893 45.3646157 92.923299 45.8048331 91.7987615 45.8651009 91.3605615 45.558521 90.6663048 44.7933812 90.291459 44.7933812 89.4520156 44.5392081 89.0930083 44.4527368 88.6548083 44.1566382 88.1004589 43.8002717 87.6516998 43.679736 87.266295 42.6866266 86.2658262 42.4743789 86.2948636 42.3250194 86.4928455 42.2857143 86.7673805 42.3250194 87.1475058 42.1389752 87.4748359 41.8507376 87.704495 41.677795 87.5249914 41.769507 87.3217299 41.6830357 87.2161395 41.0908385 87.0339962 40.6873059 86.2843045 40.6296584 84.8192382 40.7632958 84.3361622 41.1799301 83.6471851 41.2375776 83.1799477 41.0593944 82.4328958 40.5693905 81.5485765 40.3492818 79.9224848 40.396448 79.2915824 39.882861 79.0223269 39.4819488 77.7420437 39.4924301 76.9078798 39.7701863 75.7622243 39.6155862 74.9386194 39.6732337 74.4370652 39.5317352 74.0912567 39.6548913 73.5131495 39.3849961 73.0855085 39.4662267 72.3278976 38.6067547 71.3115903 38.4495342 71.3987023 38.302795 72.0401638 38.3892663 72.4466867 38.6198564 73.0749494 38.4731172 73.1726205 38.3342391 73.1224651 37.9542896 72.4994819 38.1036491 71.5465288 37.673913 70.7968372 37.7105978 70.5460601 37.8782997 70.1368974 37.5140722 69.7435733 37.1157803 69.5033552 36.9192547 68.5530419 36.9769022 67.5156165 36.085986 66.7263285 35.4649651 65.733779 35.4702057 65.2929393 35.6772127 64.7385898 35.5514363 64.1657621 35.8134705 63.487344 35.5986025 62.9884295 35.7165179 62.642621 35.8187112 62.2097005 35.449243 62.0222776 35.0954969 61.9246065 34.8649068 61.6923077 34.8256017 60.0028618 34.5950116 59.8840726 34.2779503 59.9183895 34.2543672 59.7652835 34.3460792 59.5646618 34.2176825 59.1317413 33.5940411 59.2505304 33.5783191 58.6803424 33.6909938 58.2183846 33.1433424 56.6556471 32.9153727 56.2332856 32.0847244 55.2328169 31.74408 54.5016036 30.9684589 53.9366951 30.9474961 53.5486505 30.4653533 52.8095179 30.3369565 52.0228697 30.4024651 51.5424335 31.0287267 49.9638575 31.0051436 49.2933587 31.2121506 48.4486357 31.330066 47.3135393 31.1728455 46.5981645 31.1492624 46.154685 32.1292702 43.9161691 32.6533385 43.2747077 32.7398098 42.3851088 32.5799689 42.0815365 32.4987384 41.7858835 33.240295 42.3402329 33.3922748 42.5091775 33.7984278 42.5989293 34.0316382 42.7678739 35.0483307 43.8184981 35.5147516 44.0956728 35.8580163 44.0771945 36.277271 43.9900824 36.5445458 43.5941185 36.7698952 43.380298 37.5455163 43.8000197 37.765625 44.0006414 37.9778727 44.3279716 37.7682453 45.0407066 38.3604425 45.3495584 39.5133929 45.5686584 39.6968168 45.6874476 40.1422748 45.8563922 40.2654309 46.0200572 40.0924884 46.5612079 39.890722 46.7143139 39.7518439 46.6166428 39.6391693 46.7882272 39.6627523 46.9122959 39.5657997 47.4349682 39.1544061 48.2823309 39.1255823 49.1191346 39.3640334 49.9453792 39.5736607 51.1781467 39.552698 52.2023733 39.3823758 53.0259782 39.453125 53.4272216 39.5815217 53.7017566 39.6915761 54.5860759 40.1291731 55.6630976 40.1134511 56.1118567 40.0138781 56.349435 39.9536102 56.7744363 40.289014 56.919623 40.5772516 57.2337544 40.4540955 58.1233532 40.4226514 58.70674 40.7790179 59.4326738 41.1668284 59.8603148 41.232337 60.0081413 41.2087539 60.274757 41.3921778 60.8898209 41.6673137 61.3860956 41.8376359 61.9351655 42.7233113 62.4446391 43.2028339 64.0284946 43.7531056 64.9022549 44.3610248 65.1451127 44.623059 65.361573 45.0318323 65.1926284 45.47467 65.208467 46.533288 65.5067598 46.1769216 65.9132827 45.7576669 66.7474466 45.689538 67.3941876 45.6973991 67.948537 45.8153144 68.2705877 45.9044061 68.7008684 46.2633929 69.2261805 46.6512034 69.6459022 48.1867236 70.1342577 48.197205 70.4351902 48.1395575 70.7308432 48.1447981 71.2904722 48.2836762 71.9583313 48.5483307 72.3542952 48.933521 72.3912518 49.9213898 72.312059 50.6865295 73.3521241 50.7258346 73.8483989 50.6734278 74.1150146 50.7232143 74.4053881 50.9983502 74.6984013 51.0690994 75.0098929 50.8647127 74.9782158 50.7310753 74.7010411 50.2829969 75.0679676 49.7091421 75.6856713 49.1955551 76.3086545 48.9623447 78.11161 49.2348602 78.6659594 49.4523486 78.8085064 49.7196234 78.9061775 50.314441 78.7715498 50.7336957 78.6131643 51.1686724 78.3280703 51.472632 78.0746534 51.4280862 78.2937534 50.835889 78.9299354 50.3039596 79.1463956 50.2803766 79.3522968 50.4035326 79.5661173 51.1293672 79.3839739 51.4228455 79.196551 51.6979814 79.2282282 51.7215644 79.898727 51.9390528 80.1415848 52.9347826 80.8358415 53.3042508 81.2529235 54.5829775 81.8495091 54.75592 82.0052548 54.7926048 82.1926778 54.548913 82.2929886 54.2449534 82.2929886 53.9986413 82.2190753 53.7994953 81.9656585 53.6213121 81.9181428 53.8466615 82.5490452 54.5646351 83.6788622 54.4807842 84.206814 54.6694488 84.6714117 55.2485443 85.117531 55.7726126 85.2020033 55.9245924 85.3287117 56.2678571 85.4079045 56.5534744 85.3207924 56.7211762 85.413184 56.7552407 85.7959491 56.6609084 86.1179997 56.4801048 86.1734346 55.6180124 85.5134948 55.4241071 85.5134948 58.2855202 88.2007697 58.875097 88.9953372 59.5983113 90.5897518 60.2271933 91.5400651 60.7643634 93.0368086 61.4587539 93.8287364 62.2736801 95.1961316 62.6117042 95.5023437 63.2117624 96.3840233 63.6257764 98.1553017 63.2432065 100.15096 63.6808036 101.148789 63.8825699 102.00935 63.9559394 102.328761 64.9516693 103.078453 64.7132182 103.730473 64.6215062 104.498643 64.4249806 105.269453 64.0004852 105.813243 63.4318711 106.404549 63.0335792 106.890265 62.7217585 107.096166 62.7820264 107.286229 63.1462539 107.294148 63.5943323 107.426136 63.8878106 107.922411 63.8930512 108.125672 63.7594138 108.450363 63.0964674 108.846327 62.2448564 108.928159 61.6762422 109.292446 61.4875776 109.590739 61.6867236 109.997262 61.828222 110.519934 61.8675272 111.417452 62.0247477 112.000839 62.7453416 113.589974 63.507861 114.439976 63.707007 115.142152 64.1157803 115.928801 65.6644022 116.852716 66.6103455 117.214363 67.18158 117.68688 68.2611607 118.272907 68.8559783 118.763902 69.7521351 119.914837 70.2106949 120.791237 70.763587 121.728352 72.7864907 122.544037 74.2905668 123.27525 75.0478455 123.399319 76.6514946 123.895594 77.7913432 123.805842 78.1712927 123.882395 78.5014557 124.101495 78.8552019 124.574012 79.5050466 125.698549 80.0474573 125.90973 80.4719526 126.506316 81.5724961 127.219051 82.2118595 127.910668 82.9272127 128.354147 84.9265334 129.159274 85.8200699 129.629151 86.8786879 130.003997 88.4037267 131.189249 90.1043284 131.511299 91.8023098 132.002294 92.2477679 132.221394 92.9840839 132.276829 94.0243595 133.633666 95.8874224 134.214413 97.6509123 135.624044 100.517566 135.964573 102.296778 137.041595 103.756308 137.479795 104.301339 137.297651 105.30755 137.236937 107.720885 136.091281 109.361219 135.579168 111.20856 134.385997 112.180707 134.190655 112.945846 134.193295 113.032318 134.079785 112.738839 133.976834 111.871506 133.794691 111.881988 133.625746 112.392954 133.195466 112.599961 132.968446 112.814829 132.955247 113.105687 133.279938 113.05328 133.501678 113.05328 133.736616 113.252426 133.712858 113.82104 133.356491 113.991363 133.380249 114.117139 133.567672 113.559006 134.085064 113.645477 134.24081 114.607143 134.330562 116.871118 135.317832 116.766304 135.064415 115.990683 134.57078 115.720788 134.441432 115.450893 134.430873 115.128591 134.277767 114.866557 134.095623 115.002814 133.736616 115.178377 133.752455 115.463995 134.01907 115.802019 134.219692 116.575019 134.57342 117.334918 135.11457 118.131502 136.086002 119.011937 136.899048 120.691576 138.680885 121.317838 139.493931 121.805221 139.929491 122.292605 140.504959 123.497962 142.265678 124.669255 143.868012 124.805512 144 124.957492 143.849534 125.109472 143.501086 125.292896 143.142078 125.256211 142.727636 125.24573 142.392387 125.463218 141.904031 125.492042 141.537105 125.594235 141.310085 125.843168 141.164899 126.000388 140.885084 125.457977 139.921572 125.486801 139.702472 125.607337 139.430577 126.275524 138.401071 127.069488 137.178862 127.949922 135.827305 128.481852 135.016899 130.027853 135.01426 131.049786 135.01162 133.75922 135.01162 134.686821 135.00898 135.069391 135.001061 135.074631 134.473109 135.200408 133.889722 135.438859 133.359131 135.470303 133.124192 135.234472 132.839098 134.720885 132.672793 134.456231 132.419376 134.498156 132.099965 134.422166 131.711921 134.22302 131.257882 133.748738 130.790645 132.999321 130.315488 132.394022 129.676667 131.932842 128.87418 131.518828 128.359427 131.178183 128.142966 131.104814 128.029457 132.194876 128.040016 133.22729 128.047935 133.394992 126.89964 133.546972 125.878053 133.717294 124.727118 135.588218 124.727118 137.820749 124.729758 140.137131 124.732397 141.958269 124.735037 143.027368 124.735037 143.095497 124.222924 143.299884 123.816401 143.745342 123.644817 144.245827 123.998544 144.452834 124.149011 144.670322 124.064538 144.96118 123.848078 145.369953 123.222455 146.352582 121.931613 146.805901 121.018256 147.146545 120.836113 147.602484 120.801796 147.985054 120.859871 148.121312 120.611733 148.637519 119.856762 148.695167 119.402724 149.096079 119.088592 149.418381 118.726945 149.63587 118.700548 149.646351 119.360487 149.245439 120.553659 149.300466 120.793877 149.667314 121.047294 149.924107 122.031924 150.065606 122.058321 150.390528 121.540929 150.678766 121.015617 150.998447 119.785489 151.527756 118.938126 152.038723 117.478339 152.712151 116.058149 152.696429 115.881285 152.489422 115.862807 152.067547 116.277249 151.902465 116.232373 151.967974 115.675384 152.151398 115.49852 152.486801 115.303178 152.769798 115.245103 152.9375 115.136873 153.230978 114.796344 153.351514 114.315908 153.126165 114.297429 152.903436 114.366063 152.515625 114.376622 152.206425 114.490132 152.012519 114.255193 152.062306 113.999137 152.699049 113.159693 153.141887 112.877239 153.346273 112.895717 153.500873 112.676617 153.582104 112.460157 153.495633 111.868851 153.576863 111.259066 153.920128 110.498816 155.170031 108.872724 156.097632 108.141511 156.904697 107.228154 157.302989 106.647407 157.654115 105.939952 158 105.08467 157.882085 104.791656"></polygon>
    </g>
</svg>