<svg xmlns="http://www.w3.org/2000/svg" width="180" height="180" viewBox="0 0 180 180"><style type="text/css">.st0{fill-rule:evenodd;clip-rule:evenodd;}</style><title>mexico</title><desc>Created with Sketch.</desc><path class="st0" d="M86.3 140.3l-.5.2-.4-.6-.9-.2-1 .7-.1.4.4.5.6-.2.5.2 1-.4.6.6.8-.6v-.2l-.2-.3-.8-.1zm5.4-6l-1 .5-.6.1-.1.4.5.4.1.4.6.8h.2l.7-.1.8-.5.3-.8.5-.2-.3-.3-1.7-.7zm26.4-3.6l-.2.9.2.3.5 1.1.1-.5-.1-1.4-.5-.4zm-20.5-2.1l-.3.3-.4-.3-.2.3.1.6h.3l.7-.4v-.2l-.1-.2-.1-.1zm12-14.9l-.4.1-.1.4.2.4.8.4.2-.5-.1-.4-.4-.4h-.2zm-7.7-.3l-.2.1-.6.5h-.3v.2l.4.5.6.2.6-.2-.1-.9-.4-.4zm16.6-2.6l.1-.8-.2-.6-.1.2-.1 1 .3.4v-.2zm5.8 16.9l-.2-1.1-.2-.4-.4-.3-.5-.6-.1-.8.1-1.8v-.4l-.6-1-.2-1.3-.6-.5-.8-.2-.3-.3v-.3l.5-.6.3-.4.3-.8-.2-.9-.8-1.1-.2-.4-.1-1.3-.8.1-.5-.3-.4-.9-.6-.7-1.8-1.2-1-.9h-.4l-.4.7 1 3.2.3 1.1-.2 1-.9.2-1-.3h-.3l-.2.9-.2.4-.7-.2-.8-.5-.6-.1-.4.4-.1.4-.1 1.5-.1 1-.8.3-1.3-.7-.3.1-.3.3-.2.4-.2 1-.4.9-.2.3-.3.2-1.2.4-.5.3-.9.7-.3-.1.7-.7.2-.4-.2-1.5-.1-.5-.5-1-.8-.6-.9-.2-.5-.3-.5-.2-.3.7-.3.4-.3.2-1 .2-.4.3-.3.4-.2.3-.1.3.1.6v.5l-.6.5-.8.2h-1l-.6.3-1.4.4-.4.1-.6.7-.7 1.1-.1.4v.9l-.3 2.4-.4.7-.4.7-.1 1 .5.9.5.3.5.1.3-.3.2-.5.5-1.4.4-1.4.8-1.8.1-.6.2-.3.8-.7.7-.1.6.4.3 1.4.2.2h.5l.5-.1.4-.6.3-.7.2.3.1.3.1.5.2.4.8.5.8.5.5-2.1v-.4l-.1-.4.1-.4.4-.2h.4l.4.1.4.3.4.4 1.5.6.8.7.9 1.2.2.3.1.5-.1.5-.2.4-.3.4-.5.5-.4 1v.5l.1.6.5 1.6.1 1.1.3 1.1 1.1 1.4 1.4.9 1.8 1 2.2 1 .4.1h.4l.3-.3.7-1.2.1-.1.3-.1.3.3v.9l-.2 1 .1.4.4 1 .4.3.8-.5 1-1.7.4-.9-.1-2-.7-2-.2-.3-.6-.6-.4-.3-.4-.7.1-.9.4-1 .5-.9.7-.7.1-.5v-.5l.1-.3.6-.5.4-.1.7 1.8.5.7.2.7.5.8.3.9.3 2 .3.8.4.7.2-1.4v-2.1l-.4-1 .2-.3.6.1 1-1.1.7-1.4.2-.6v-.6l-.2-1.1zm-5.3-18.3l.6-.1.2-.3-.4-.5V107.9l-.5-1-.5 1.1v.7l.6.7zm-5.7-1.4l-.1-.4-.5-1.1-.4-.3h-.3l.3.8 1 1zm-8.7-1.1l-.2.5-1 .7-.3.3-.3.5.1.5.4.7.5.4 1.4.2 1.7-.3.3-.2.5-.8h.8v-.3l-.1-.4-.2-.4.1-1.2-.7-.3-.6-.5h-.2l-.2-.1-.1-.2-1.2.2-.7.7zm11.1-3.1h-.1l-.3.5-.2.1-.4.4.1 1-.1.6.3.2.5.8.5.4.2.5.1-.2v-.2l-.1-.2.1-.9-.5-1.4.2-1.2-.3-.4zm-42.3-1.7l-.6.7.3.8.9-.3.4-.4.2-.3-.4-.3-.8-.2zm32.8-.3l-.4-.2-.3.9h.2l.5-.2v-.5zm-12.8 1.8h.2l.2-.1.2-.2.3-1.3-.1-.4-.2-.3h-.2l-.2.1-.1.2-.6.7-.1 1 .2.6.4-.3zm-1 5.3l.2 1.1 1.2 1.7.4.3.4.3.8.3.7.4.7 1.8.4.4h.5l.5-.1.4-.2.2-.3.4-.8.2-.5v-.4l-.1-.3-1.3-2.1v-.4l.1-.5-.1-1.2.1-.6.5-1 .2-.5.2-1.7.4-1.1.5-1 .2-.7.2-1-.1-.3-.5-.9-1.9-.6h-.2l-1.4.6-.3.2-.1.4v1.2l-.3.8-.3.4-.2.4.3.9.2.9.1 1.3v.3l-1 .8-.5.1h-.9l-.4.1-.3.5-.1 1zm11.3-9.1l-.1-.9-.1-.2-.1-.4.1-.9-.2-.5-.5.7v.4l-.1.5-.2.3.1.6-.5 1.9-.6 1.4v.7l-.7 1.4-.5 1.3-.8 1.4.2.6-.4 2.6v.7l.2.5.3-.2.8-1.2.8-2.7v-.8l.3-.9.6-.8.6-.3.5-.5.3-.7.2-1.5-.3-1.5.1-1zm-2.6-3l-.2.3.3.8h.6l-.5-1.1h-.2zm-29.5 4.8l-.8-2 .2-.8-.3-.5v-.5l.1-.9-.1-.4-.4-.3-.2.4-.7 2.2-.2.5-.2 1.1.3.8.2.5-.1.9-.4.8-.2.3-.3.2-.4.2-.4.3-1.1 1.8-.2.2-.6.6-1.3 2-1.3 1.6-1.5 2.1-.6.6-.3.1h-.4l-.3.1-.9 1.2-1 1.1-.4.5-.7 1.1-.5.4-.6 1.4-.2.7v.7l.6-.6.7-.5.4-.1.3-.2.1-.5.2-.4.8-.3.7-.4.8-.6.7-.7.5-.9.4-1 .7-.5.9-.3.6-.5.5-.6.4-.7 1.3-2.8-.2-.8.2-.4.4-.3.8-.4 1.7-.6.2-.3.1-.4.3-.8.6-.6.4-.2.8-.2.4-.2.6-.8-.1-.4-1-1zm1.4-6.4l-.2-.4-.2.1-.4.3h-.3l.1.4.5.2.3.3.2-.1v-.8zm38.8 10.4l.3.2-.1-.4v-.3l.8.1.1-.4-.1-.3-.5-.9-.2-1.1-.2-.4-.3-.4-.3-.3-.4-.2-.2-.3.1-1.4-.1-1.5-.2-.6-.3-.4-.6-1-.8-.2-.6.7-.6.1-.5-.3-.2-.4-.3-.2-.6-.3-.5-.5-.3-.2-.1.4.2.5.3.5.5 1.8.4 1.9.4.2.8-.5h.3l.6.7.4.8.1.4v.4l-.3 2 .5.9.1.4v.9l.3.3.9.3.8.5-.1-.7-.2-.7-.2-1.4.4.4.5.9zm-5.5-10.5l.9-.1.1-.5-.5-.7-.4-.4-.5-.1-.5.2.6 1.1.3.5zm2.3-.6l.2.1.1-.4-.3-.3-.3-.5-.4-.3.1.5.3.6.3.3zm-15.9 7.2l1-.9.7-.2.1-.5-.1-.5.1-.4.3-.3.6-.3.5-.5.4-.7.2-.7.1-.6v-.7l-.1-.8h-.4l-1.4.8V95l.2-.3-.7-.5-.8-.1-.8.4-.9-.4-.7-.8-.8-.6-1.5-.7-.5-.3h-.5l-.3.4-.1.5.4.3.9.3.3.4v.3l-.1 2.6.1 1.9-.1 1-.3.9v.9l.2.5.1.5-.2 1.2v.2l.1.2.2-.1.4-.5.4-.5.6-.4 2.4-.6zm-19-10.1l-.3-.1-.3-.2-.3-.3-.4.2.7 1.5v.3l.1.4.2.2.5-.3.2-.7-.1-.2v-.3l-.3-.5zm1.2-2.5l-.2.4-.3.1-.4-.1-.2-.2-.9-.6-.4-.4h-.1l-.1.1v.2l.1.1-.1.2v.4l.2.2.5.9.4.5.7.1.5-.2.5.1.5-.1.1-.5-.6-.5-.2-.7zm16-2.3l-.3.3.1.2.5.4.8.8.4-.2.1-.6-.1-.3-.6-.6h-.9zm14.1 2.1l.5.8.7.6.3.2.8.3.6.7.4.3.2.4.5.6.4.2.4-.1.1.5-.1.5-.4.7.3.7.8 1.1.4.4.5.2.7 1h.6l.9.2 1.4-.2.3.1.5.6.1-.2-.4-.8-.6-.6h-.4v-.3l.2-.4-.2-.5-.8-1.4-.1-.4v-.5l-.1-.5-.3-.5-.2-1.5.3-.8-.1-.7.2-.5-.4-.5-.6-.3-.4-.1-.3-.2v-.5l-.2-.5-.6-.7-.7-.4-2.2.3-2 .1-2-.4.4 1.4.6 1.6zM96.6 90l-.3 1.1v.3l.9-.9.8-1.3.4-.2.4.2.7.9.4.2.1.2.5.4v.4l.2.1.7.2 1.1.8.5.5v-.5l-.2-1.3-1.1-1.7-1.5-1-1.1-1-.1-.3-.7-.5-.9-.3-.8-.3.1.7.3.8-.1.6-.3 1.9zm-7.2-4l-.2.3.1.4h.1l.2-.3-.2-.4zm-1.5 4l.4-2.1.1-1.5-.1-.6.1-.3h-.3l-.7.4.1 1.3-.3.4-.1.4.1.3.4.4-.1.4.4.9zm12.3-2.4l.3.3-.1-.7-.6-1.3-.7-.5-.2.3.3.5 1 1.4zm-3-2.5l-.8-1.3-.6-.4-1.4-1.7h-.2l-.4.1v.4l.2.2.6.3.9 1 .8.6.9.8zm-13.9 2.3l.3-.7.4-.6.1-.4-.7-1.7-.1-.8v-.7l.3-.6-.2-.3-.6-.5-.7-.6-.6-.9-.6-.5-.5.4-.4-.3-.4-.1-.4-.5-.5-.1-1.1.2-.4-.1-.4-.1-1.4-.2h-.5l-.3.4v.5l.4.1h.4l.1.1.3.7.2.4.5.4.6.3.2.3.8 1.3.2 1.1.1.4.2.4.5.4.4.5.2.5.1.6.3.5.7.7.3.2.2.3.1.4.3.1.6.1.3-.5.2-.2.2-.1.3.1v-.5l.1-.2-.1-.2zm3.2-9.3l-.1.1H86l-.4-.2-.2 1.2.2.8.4.4 1 .6.2-.3.1-.3.4-.8-.2-.5v-.3l-1-.7zm-13.9-2.6l-.1.1v.2l.1.3 1.3.8-.1-.6-.5-.6-.7-.2zm28.8 2.1l.9.6.5-.5h.3l.3.2.1-.5.3-.4-.1-.6v-1l-.6-.5-.2-.1-.7-1.1-.3.1-.2.3-.2.4.2 1.6-.5 1.1.2.4zm-15.9-4.9v.2l.1.2 1.7 1.2V74l-1.7-1.5-.1.2zm-.8-3.8l.2.1.4-.1.1-.8-.5-1.1.3-.6.1-.1h.1l-.2-.3-.5-.3-.9.1-.1.6.4.4.3.6.3.3.2.5-.1.2-.1.5zM67.8 57.8l.3.5.4.4.2.3.1.3.8 3.4.3.7.5.9.4.9.2 1.1.4 1 .5.4.5-.1.3.1.4.9.7.6.3 1 .3.3.4.1h.4l.2-.3-.2-.9-.4-1.4.1-1 .5.5.5.3.7.1.6.4.5.6.2.7-.1.5-1.5 1.9-.3.3-.1.5.2 1.6.3 1.6.6-.8.8.1.8 1h.5l.7.6.8.3 1-.1.7-.5v-.7l.3-.4 1-.6.3-.2.4-.1.3.1 2.3 1.2 1.1 1.2 1.4 1.1.2.2.8 1.1.2.4.1.4.7.5.5-.5-.2-1.2-.5-1-.4-.1-.7-.8-.1-.4v-.5l-.1-.5-.3-.5.1-.4h.4l.4.1 1.5 1.4.7 1 .3.2 2 1.4.2.3.2.4.8 1.1.1 1 .2.5.7.1 1.7 1 .8.1.5-.1.4-.2.4-.1.2.2-.3.9v1l.7.8.7.2.4-1.9-.2-2-.3.1-.3-.1-.9-.6-.6-.1-.6.1.2-.7-.1-.6-.5-.7-.4-.6-.8-.8-.5-1 .4-.5 1.4-.1.3-.6-.3-.3-.7-.4-.3-.1h-.4l-1.5-.6-.6-.6-.4-.3-.3.3-.1.4.4.3v.8l-.4.7h-.9l-.3-.2-.1-.5v-.5l-.1-.5-.5-1-.7-.9-.6-.4-.7-.3-1-.3h-1l-.7.5-.7.6-.3.1-.2.2.1.3.5.6.1.4-.4.1-.1.4h-.5l-.5-.1-1.3-.6-.3-.4-.4-.4-.4-.4-.2-.6-1-2-.3-.8-.1-.8.4-.5V68l-.2-.2-1.1-1.7-1-1.8-.3-.4-.1-.5.1-.4.2-.3.2-.8.5-.9.1-.4v-.5l-.2-.4-.3-.4.1-.9.6-.7.7-.5 1.2-.7 1.1-.2.4-1.4v-.7l1-3.2.1-1.4.1-.6.1-.6-.4-.3-.5-.2-.2-.5-.1-.4-.2-.3-.7-.4-.4-.3-.6-1.2-.3-.7-.1-.8-.2-2.5.2-.8.4-.6v-.7L83 38l-.3-.5-.4-.3-.5.1-.3.9-.2.4-.7.4-.7-.1-1-.3-1-.4-2.7-1.5-1.2-.4h-.4l-.9.2-.4-.1h-.4l-.7.5-.7.3.1 1.1-.1.9-.1.8-.4 4.3.2.9.5.8.1.5v.9l.3 1.5.1 1.1-.4 1.6v1l.1 1 .3 1.1.8 1.3.1.5-.1.4-.2.4-.5.1h-.8l-.3-.2-.8-1-.4-.3-.4-.2-.4-.4-.4-.3-.3.2-.1.4.2 1.7.2.5z"/></svg>