<svg xmlns="http://www.w3.org/2000/svg" width="160" height="160" viewBox="0 0 160 160"><path opacity="0.25" d="M90.6 51l-.2.4-.4.5H38.8l-.1.3v.2h.2l-.1.2-.2.3v.1H38.3l-.1.1h.1v.4h-.1l-.2.2-.1.1v.2h.1l.1-.2v.4l-.3.2-.1.1-.2.2-.1.1v.1l-.1.1V55.3l-.1.2-.2.2v.1l-.2.1H36.5l-.3.3-.1.1-.2.1-.1-.1h-.4l.1-.1.2-.2.1-.1.2-.1-.1.2.2-.2.1.1h.2l.2-.3.1-.1v-.4h.1l.1-.2h.1l.3-.1.1-.1.1-.2h-.1l-.1.1h-.1l-.3.2-.2.1-.2.1-.3.1-.2.1-.3.2-.1.1-.1.1H35.8l-.3.1h-.2v-.1l.1-.1.3-.3.8-.6-.1.1.5-.3V54l.1-.1.1.1H36.8l-.1-.2h-.1l-.2.1h-.1l-1.2-.1H35l-.1-.1-.4-.1-.3-.2h-.1l-.1.2-.3.3-.2.4v.2l.1.3v.3l-.3.6-.1.5-.1.3-.1.1v.1l.1-.1.1-.1h.1v.1h.2l-.7.2-.1.3.2.1.1.1-.2.3-.2.2v-.2l.1-.2-.2.3-.2.3-.3.3h.2l.1.1.4-.1v.1h.4v.1l.1.1h.1H33v-.1h-.1l-.3.1h-.5v-.1H32v.2l-.5.7-.4.6-.2.2-.1.2-1.1 1.6-.2.3-.2.3-.1.2-.3.2-.5.6-.6.8-.1.1-.3.3-.3.3.1-.1-.2.1-.1.1-.7.8-.2.3-.3.3v.3l-.1.2-.3.5-.1.2-.2.4.1.3-.1.2-.1.3.1.2v.2l-.1.4-.1.2-.5.5-.2.4-.3.3-.1.1h.1l-.1.1-.1.1v-.1l-.1.1-.5.3-.2.2-.1.3-.1.3.2.4.1.4v.2l-.1.4-.1.2-.3.4-.1.6-.3.4.2.6.1.3.2.2v.3l.1.1.1.2v.2l-.1-.3-.1.3-.2.2v.1l.2-.2.1.1.1.2.1.1.2.1.1.1h.1l.1-.3.2-.4.2-.1h.1l.2.2h.1l.3-.1h.1l.1.1h.6l.2.1h-.2l-.2.1h-1l-.2.1-.4.1v.2l-.1.3.1.1v.7h-.2v-.2l-.1-.1-.1-.2.1-.2.1-.1h-.1l-.2.1-.1.3-.1.1v.4l-.2.4.2.5.5.1V80.7l-.1.3-.1.2-.3.2-.1.3v.2l.2.4.1.6v.2l.1.2v.3l.2.2.1.3.2.1v.1l-.1.2v.2l.2.1.1.1v.1l-.2.3-.1.3-.1.2-.1.2-.1.2.1.1.1.2H24.2l.3.1h.5l.3.2.2.2v.2l.1.1.5.2h.7l.1.4-.1.3.2.1.1-.1h.2l.1.1.2.2.2.2.4.6.1.5V90.4l-.1.2-.2.3.1-.1.1.1-.1.3.6-.1.6-.1.6-.1.6-.1.6-.1.6-.1.6-.1.6-.1h.2l-.3.4-.1.1.8.4.8.4.8.4.8.4.8.4.8.4.8.4.8.4H44.7l.1-.3.1-.3.1-.3.1-.3H48.3l.1.2.1.3.1.2.2.1.3.4.4.6.3.4.3.2.2.2.1.2.1.3.1.8-.1.3v.3l.1.4.1.2.2.1.2.2.1.2.2.2.3.1.3.2.4.3.3.2h.2l.2-.1.2-.2.2-.1.2-.1.1-.1v-.1l.2-.3.3-.5.3-.3h.3l.2-.1.1-.1h.2l.2.1.3.1h.8l.1-.1v.1h.2l.1.1.1.3.4.4v.1l.1.2.3.3.1.3v.2l.1.4.2.5.1.3V101.1l.1.2.2.2.1.3.1.4.2.3.8.5.1.2v.4l-.1.1v.1l.1.1v.2l-.1.2v.2l.2.4.1.3v.5l.1.3.2.1h.3l.2.1.1.2.2.1h.2l.2.1.2.2.4.1.6.1.4.1.3.2h.1v-.1l.1-.1h.3l.1-.2v-.1h-.1l-.2-.8v-.2l.1-.5V104.6l.1-.2.1-.2V103.9l-.4-.1-.1-.4.1.2.3.2h.2l.2-.2.3-.6-.2-.4.1-.1H65.1l.2-.1.3-.3.1-.3-.2.1v-.2H65.8l.1-.1.1-.1v.2l.1-.1.1-.1.1-.2.1-.2.2.2.2-.1.2-.1v-.1l-.1-.1h-.1l-.1-.5h.2v.2l.1.1.2-.1v-.1h.2l.3.1h.2l-.3.2-.3.2h.1l.4-.2.4-.1.3-.2.2-.1.6-.4.3-.2.3-.3.1-.2.3-.2.3-.3v-.2l-.1-.2.1-.4h.1l.1.1h.1l.2-.2h.2v.2l-.2.3h.1l.3-.1h.1l-.5.3v.1l.4-.2 1.1-.4h.4v-.4l.3-.4h.1v.2l-.1.2-.1.1h-.1v.1l.1.1.1-.1h1.2l.5.1.3.2.2.1.8.1.4-.1.1-.1-.1-.1V98l.2-.1.2-.1.3-.1.1.2h.3l.1.3.1.1.3.1.1-.1h.1l-.1.1v.1l.1.3v.1H78.2v.1l.5.2.5.2h.2l.3-.3.2-.1h.2l.1.1v.3l.1.1.2-.1.1-.1.1-.1.1-.1.1-.1.1-.2-.1-.1h-.1v-.2l.5.2.1.1v.2H81.7l.1.1h.1l.1.1.1.2.1.1-.1.2h.1l.2-.2.1.1.1.1.1-.1.1-.1.2-.1v-.1h-.1l-.1-.1-.1-.2h-.1l-.5-.2-.1-.2-.2-.1v-.2l.1-.1v-.1h.2l.1-.1v-.1l.2-.1h.2l.2-.1.1-.2-.1-.1v-.1l.1-.1h-.2l-.2.1-.1.2h-.1l-.2-.1-.1-.2.1-.1.1-.1.1-.1v-.1l-.1-.1-.1.1H81.8l-.2.2-.4.1-.2-.1-.2-.2.3-.3.3-.2h.4l.1.2.7.2.3-.1.3-.3h.2l.4-.1.3-.1h.2l.2.1H85.6l.1-.1.2-.4.2-.3h.1l.1.2v.2l-.1.3v.1h.1l.1.1v.1l-.3.1h-.2l-.1.1.8-.1.3-.2.1-.1v.1l-.2.1.4-.1.1-.1.2-.1.1-.2h.1l.1.1.1-.1h.1v.2l-.1.2-.3.1-.1.1-.1.1.5-.1.6-.1.2-.1.2-.1.2-.1H89.4l.2.1v.2l-.2-.1-.5.1.5.2.6.3.1.1h.1v-.2l.2-.1h.2l-.1.1-.1.1.1.1h-.4l.3.3.2.2V97.8h-.1l-.1-.1v-.1.4h.1l.3-.1h.3l.1-.1.2-.1h.2l.6-.3H92.5l.1-.1v-.1l.1-.1.1-.1.6-.1.6.4.5 1.1.8 1 .2.4V100.1l-.2.7-.3.6-.4.9V102.6l.1.1.1-.1h.1l.1-.1v-.1l.1-.2-.1-.1-.1-.2h.1l.1.1.1.2.1-.1.1.1v.1l-.1.2-.2.2-.3.4h-.2l.1.1v.1l.2.8.1.3.1.2.1.1h.1V104.4l.2-.1h.2l-.1.2-.1.4v.4h.2l.1-.2.1-.1.1-.1-.2.2-.2.3v.1l.1.1v.7l.1.4.3.2.4.1v.2l.2.4.1.5.1.1.1.1.1.1-.1.1-.2-.2h-.1l-.1.1v.1l.1.2h.2l.3-.1h.2l.4-.2h.2l.3-.2.1-.2.1-.5.2-.3.2-.3v.1l.2-.7.3-1.1.1-.6V104l-.1-.3-.4-2.3v-.2l-.1-.3V100h.1l.1.1v.2l.1.1v.1l-.1.2v.4l.1-.1.1-.2.1-.2h.1l-.1.5-.1.3.1.6.1.1-.1-.4v-.5l.1-.2.1-.2.1-.1v-.2l-.4-1.2-.2-1-.1-.8v-1.1l.1-.9V94.9l.1-.1.1-.2.1-.2v-.1l.1-.2h.1l.2-.2-.1-.1h-.1v-.1h.2l.1-.2.1-.1.1-.1h-.2l.1-.1.2-.1V92.8l.1-.1h.1l.1-.1V92.3h.2l.3-.1.2-.2v-.1l.1-.1h.2l.2-.2v-.1h-.1V91.2l.1-.2.1.3h.1v-.1h.1V91.5h.1l.2-.1.1-.1.1-.2-.1-.1-.2-.1.1-.1h.2l.2.1.2-.1.1-.1h.2l.2-.1.2-.1.1-.2v-.2l.2.1.2-.1.3-.2.1-.2.2-.1h.2l.4-.2.1-.1V89l.2-.2v.1l-.1.1v.2l.2-.4.6-.6.2-.2h.5l.4-.1h.8l.1-.2.2-.4v.2l-.1.2v.1l.2-.3.1-.2.3-.3.1-.1.1-.1.3-.2.3-.2v-.2l.1-.3V86.2h.2l.3-.2H111.2l.1-.1h.4l.2-.2.2-.2-.2-.1-.6.1-.3-.1-.1-.1-.1-.3.3.4h.2l.4-.2.1-.1V85l.1-.2.1-.1-.1-.1-.1-.1-.7-.3-.1-.2.3.2.3.1.2-.1.1-.2h.1l.1.1V84.4h.2l.2.1h.2l.2-.1.4-.3.5-.3.1-.3v-.4h-.1l-.3.2-.2.4-.1.1h-.1l.1-.2.1-.2v-.2l-.3-.1-.1.1H112l.1-.2v-.2l.1-.2v.4l.2.1h.2l.1-.1.1-.2h.1l.2.1v-.2l.1.1.1.1.1-.2v-.2l.2.1.2.1.1.1.1.2v-.7l-.1-.1v-.1l.1-.2v-.2l.1-.1V81.9l-.1.7v.4l.1.6.1.1v-.1l-.1-.9.1-1.1V81h-.3l-.2-.1-.4.2h-.2v-.2l-.2-.2v-.3h-.2l-.3-.1-.1-.1-.4-.1h-.1V80h.5l.5.2h.1v.2l.1.2.1.1.1.1.1-.1.1-.1v-.2l-.1-.2-.2-.1-.2-.2-.2-.3v-.2l.3.5.1.1.1-.1v-.1l.1-.1.2.1.1-.2v-.2l-.2-.1.2-.1-.3-.1-.1-.1-.1-.2-.1-.1-.2-.3-.1-.2-.3-.3h.1l.2.2.1.3.1.1.4.6H113.6l.1-.1.1-.2.1-.1v-.1l-.1-.2-.2-.1-.1-.2-.2-.1-.5-.2-.1-.4h-.1l.4-.4h-.1v-.1l.2-.3.1-.2.3-.2.2-.1.1-.1.1-.3-.1.3-.1.2-.2.1-.3.3-.1.1-.1.2h.1l.2-.1h.2v.2l.1.1.1-.1v-.1l.1.3.3.1.2.1.1.1.1.1.1-.1V77.2l-.3-.5v-.4.2l.1.3.1.1.1.1h.1V76.7l.1-.5.1-.1.1-.1v-.1l.1-.1V75.5l.1.1.1-.1v-.1l-.1-.1-.1-.2.3.1.1-.1V75l.1-.1.1-.1v-.1.2l.1-.1.1-.2v.1l.2-.1.1-.1.1-.1v-.1l.1-.1h.2l-.1.2h.2l-.1.1h-.1l-.1.1h.1l.1.1h-.4l-.2.1-.3.3-.1.3.2-.1v.1l-.2.2h-.2l-.1.1v.1l.2-.1.1.1v.2l-.2.1h-.1l-.2.3h.1l.1-.1h.1v.1l.2.2h.1v.1h-.5l-.1.3V77.3l.2.1.1.1h.1l.1-.1v.1h.1l.1-.1h.1l-.1.1v.1l-.1.1-.1.1.1.1h.1l.1.1-.1.1-.1.2h.2l.1.1-.2.3-.2.2-.3.3-.3.5-.1.3v.1l.1.1.3-.4.2-.3.1-.1.2-.1h.1l.1-.1V79l.8-1.1.2-.2.2-.3h.1l.1-.1.1-.2.1-.1h.1v.1h.1l.1-.1.1-.2v-.2l-.1-.1h-.2l.1-.1.2-.2v-.1l-.2-.1-.1-.4-.1-.3.1-.5-.1-.3v-.2l.1-.2v-.2l.2-.2.1-.2.2-.1.2-.1.3-.1.3-.2-.1.1-.2.1-.4.1-.2.1-.2.2-.2.3-.1.2v.1l.2.4.2.1.1.2h.2l.1.1.1.1-.1.2-.1.2h.1l.3-.1.5-.5.1-.1v-.1l.1-.1.1-.1h.1l.1-.1.1-.2.1-.1v-.2h.1l.2-.2.3-.3.3-.5.1-.1h.1l-.2.4v.1l.2-.3.2-.2.1-.2.1-.2.1-.2V71.9l-.1.1-.3-.1v-.2l.1-.2.1-.1.1-.1h.1l.1-.1.1-.1.3-.4.1-.2.1-.3v-.3l.1.1v.1l-.1.3-.2.3-.1.2-.2.2.1-.1.1-.1h.1l.2-.1.3-.2.2-.1.9-.4.3-.1.3-.2H125l.2-.1h.2l.4-.1h.6l.5-.1.2-.2.2-.4.2-.2v-.2h.1V68.8l.2-.1h.1l-.2.2-.1.3v.1l.2-.1h.2l.7-.4h.1l-.1.2-.1.1v.1l.4-.1.2-.1.7-.1h.2l.1-.1.1-.2.1-.4-.1-.3H130v.2l.1-.1.1.1v.1l.1.2v.1l-.3.1-.3.1-.2-.1-.1-.1.1-.3-.2-.1.1-.1h.1l-.1-.4-.1-.1-.3-.1-.1-.1.3-.2.2-.2.1-.1h.2l.2-.1h.1v-.2H129.7V66.2l.2-.3.2-.3.1-.1.1-.1.4-.5.4-.3.4-.3v-.1l.3-.2.3-.2h.2l-.1.1v.1h.1l.1-.1v.1l.1-.1v-.1l.1-.1v.1h.1l.2-.2.1-.1V63.8h.1l.1-.2v.2h.1l.1-.1.2-.1h.2l.2-.1.2-.1.1-.2.4-.4.1-.2.3-.1.1-.2h.1l-.1.1-.1.1h.1l-.2.1-.1.1h.2l.2.1v.1h.1l.1-.1.1-.2.1-.2.1-.1v.1l.1.1.1-.1.1-.1h.4v.2h.2l.1-.1h.1l.2-.3h.4l.1-.2h.2l.2-.1h.3l.5-.4h-.2v-.1l.1-.1v-.6h-.7v-.1l-.1-.1v-.1l.1-.1.1-.1.1-.1v-.4h.2l.1-.1v-.1H138.2l-.1-.1-.1-.1V58.9l.1-.1v-.1l.1-.1v-.1l.1-.2.1-.4.1-.3.1-.4.1-.3.1-.4.1-.4.1-.3-.2-.2-.2-.3-.2-.2h-.2l-.1.1-.2.1-.4.1-.3.1h-.2l-.1-.1-.1-.1v-.2l.1-.2h-.4l-.2.1-.2.1-.1.9-.4.4-.2.2-.4.4-.4.3-.2.3-.2.3-.3.2-.2.2-.2.2-.1.2-.1.2v.2l-.1.1-.2.2-.1.2-.1.1-.3.1-.3.2-.1.1v.2H131.8l-.1.1-.1.1-.1.1h-.1v-.2h-.1l-.1.1-.2.1h-.1l-.2-.1-.3.2-.4.5h-6l-.1.2-.2-.2-.3.3-.4.2-.5.3-1 .6v.1l-.1.1-.1.1-1 .5-.3.2v.1h.1l.2-.1v.1l-.1.1H120.5l-.1.1h-.1l-.2.1h-.1v-.1l-.1.1v.2l-.1.2v.1l-.1.1H119.4l-.2.1-.3.1-.2.1-.1.1h-.1l-.3.1-.1.1v.1h-1.3l-.1-.1-.2-.1-.6-.1h-.6l-.5.1-.8.2-.2.4.2.3v.1l-.1.1v.4l-.1.1-.2.1-.2.1-.2.2-.2.1-.2.1-.2.1-.2.2-.5.2-.9.4h-.2l-.2.1-.2.1-1.2.3-.8.3-.5.2-.5.3-.2.1h-.8l-.3.1-.2.1-.1.1h-.2l-.2-.1h-.4l-.2.1h-.2l.1-.1.6-.1-.2-.1v-.1h-.1l-.1.1h-.2l-.1-.1-.1-.1-.3-.1-.1-.1H103.8l.2-.2.3-.3.1-.1v-.1l.1-.1.1-.1v-.1l.1-.1.1-.2.1-.1.1-.1.1-.1.2-.1h.1l.1-.1.1-.2.1-.1.1-.1v-.2l.1-.1.1-.1h.2v.1l-.1.2.3-.2.2-.3.4-.6v-.2l.1-.5.2-.8.1-.5v-.2l-.1-.2-.1-.1h-.2l-.2.1-.3.1h-.1l-.1.1h-.2.1v.1l-.3.3-.1.1h-.1l-.1.1-.2.1h-.2l-.2-.1-.1-.1v-.2l.1-.1v-.1l.2-.2.1-.1h.5l.1-.1.2-.2.1-.1h.1l.3-.2.1-.1.1-.1.2-.3.1-.2.1-.1.1-.2v-.2l-.1-.2V61l.1-.1h.1l.1.1v-.7l-.1-.1-.2-.1-.4-.2-.1-.1H106.4l-.1-.1v-.2l-.1-.1H105.9l-.2-.1-.2-.1h-.6v.1l-.1.1-.2.1-.1.1-.1.1v.2l.1.1h.1-.4l-.2.1-.2.1-.1.1-.1.1-.1.1-.1.3-.1.1-.2.4-.2.3-.2.2.1-.1.2-.3.1-.1v-.1h-.1l-.1.1v.1l-.1.1-.1.1h-.1v-.1l.1-.1.2-.2.1-.3.1-.1v-.1l.1-.1.1-.1h-.1l-.2.2-.3.3-.2.3h-.2l-.1.1h-.2l-.1.1-.1.2.2.3-.2.1h-.1v.2l-.1.2-.2.3-.2.2-.2.2-.2.2-.3.2V63.9l-.1.3-.3.3V65.9l-.1.3-.1.3-.2.3-.2.3-.2.3-.2.3-.2.2-.4.3-.2.2-.2.2-.2.1-.4.3-.7.3-.2.1h-.5v-.5l.1-.3v-.2l-.2-.2V68l.1-.3.2-.5.2-.3.1-.2.1-.1v-.5l.1-.1V65.7l.1-.2.1-.1.1-.1.2-.2.1-.1.1-.1.1-.1.3-.3V64.2l.1-.2.1-.2.2-.2.2-.2.2-.1.1-.1v-.1l.1-.2.2-.3.2-.2.2-.1.1-.1.1-.1V61.8h-.1l-.2.1h-.1l-.3.1-.2.2-.1.1-.2.1-.1.1-.1.1h-.2v-.1l.1-.2.2-.2.3-.3v-.1l.1-.1.3-.1.2-.3.1-.1.1-.2h.1l.2-.1.3-.3.3-.3.3-.3.2-.2h.1l.1-.1.2-.3.1-.1h.1l-.1.2-.1.1V59.8h.1l.1-.1.2-.2.1-.1h.4v.1l-.1.1-.1.1h-.1l-.1.1-.1.1v.2-.1l.1-.1.2-.1.3-.1.1-.1.1-.1.2-.2.1-.1h.4l.1.1h.1v-.1H103.7l.2-.1.2-.1.2-.1h.4l.3.1.2.1.2.3h.2l.1-.1.2-.2h.2v.1H106.4l.6.1h.2l-.1-.1V59l.1-.1H106.9l.1-.1v-.5h-.2l-.1.1-.1.1h-.1v-.1h-.1l-.2.1h-.1l-.1-.1h-.2.1l.1-.1.1-.2.1-.1.1-.1H106l-.3.1-.4.1H104.4l-.3.1-.2.1-.4.2-.3.2-.3.2h-.4l-.1-.1h-.7v-.1h-.1v-.1l-.1-.3-.1-.1h-.2l-.4-.1h-.2l-.4.2-.3-1.3h-.1l.1-.1.1-.2V56.4l.1-.1v-.1h-.1V55.9l-.2.1-.3.1-.2.1-.1.1-.1.1H98.8l-.3.2-.2.1-.3.2h-.4l-.4.1-.3.2-.4.2-.4.1h-.4l-.1-.1-.2-.1h-.1l-.3.2.2-.1.1-.1v-.1l.1-.1.2-.1.1-.1-.1-.1h-.2l-.4.2h-.6l-.3.1-.7.2H93.1l-.1-.1V57l.1-.1 1.1-.5.7-.4 1.2-.7.3-.1.6-.2.9-.2.4-.1.4-.1.3-.1.1-.1H99.4 98.6v-.2l-.2-.2h-1.2l-.1-.1v-.2h-.4l-.4.3-.4.1h-.2l-.2-.1-.3-.2-.2-.3-.3-.1h-.2l-.2.1h-.1v-.4l-.1-.1H94l-.1-.1-.2-.1H93l-.2.1-.4.1h-.3l-.1-.1v-.1l-.3-.1-.6-.1-.3-.1-.1-.1v-.1l.1-.1v-.3l.1-.3.2-.3.1-.1-.1-.1-.5-.1z"/><path d="M98.9 56.6h-.1l-.3.2-.2.1h-.7l-.4.1-.3.2-.4.1-.4.1h-.4l-.1-.1-.2-.1h-.1l-.3.3.2-.1.1-.1v-.1l.1-.1.2-.1.1-.1-.1-.1h-.2l-.4.2h-.6l-.3.1-.7.2H93.1l-.1-.1V57l.1-.1 1.1-.5.7-.4.7-.4c-.9.2-1.8.5-2.5.9-.9.5-1.1 1.2-.1 1.6.5.2 1.2.2 1.7.3.9.1 1.8.2 2.5.8.4.4.5 1 .9 1.4.4.5-.1.3.7.5.2.1.5.1.7.1l.1-.2.1-.1.1-.2h.1l.2-.1.3-.3.3-.3.3-.3.2-.2h.1l.1-.1.2-.3.1-.1h.1l-.1.2-.1.1V59.6h.1l.1-.1.2-.2.1-.1h.4v.1l-.1.1-.1.1h-.1l-.1.1-.1.1v.2-.1l.1-.1.2-.1.3-.1.1-.1.1-.1.2-.2.1-.1h.4l.1.1h.1V59H104l.2-.1.2-.1.2-.1h.4l.3.1.2.1.2.3h.2l.1-.1.2-.2h.2v.1H106.7l.6.1h.2l-.1-.1v-.2l.1-.1H107.2l.1-.1v-.5h-.2l-.1.1-.1.1h-.1v-.1h-.1l-.2.1h-.1l-.1-.1h-.2.1l.1-.1.1-.2.1-.1.1-.1H106.3l-.3.1-.4.1H104.7l-.3.1-.2.1-.4.2-.3.1-.3.2h-.4l-.1-.1h-.7v-.1h-.1v-.1l-.1-.3-.1-.1h-.2l-.4-.1h-.2l-.4.2-.6-1h-.1l.1-.1.1-.2v-.5h-.1V55.9l-.2.1-.3.1-.2.1-.1.1-.1.1-.1.2zM98.9 67.7c0 2.6.8 5 .7 7.6 0 .5.1 1 0 1.6-.1.5-.6 1.1-.6 1.6.1-.2.8 1.9 1.2 1.3.1-.3.5-.3.7-.2.3-.1.7-.2.7-.2.1-.3.4-.4.6-.3.2-.1.3-.1.5-.2.1-.1.3-.3.4-.2.7.1 1.9-1.4 2.2-1.8 1.4-2.1.2-3.5 0-5.6 0-.5 0-.9.1-1.3l-.2-.1h-.4l-.2.1h-.2.1l.6-.1-.2-.1v-.1h-.1l-.1.1H104.4l-.1-.1-.3-.1-.1-.1H103.6l.4-.5.3-.3.1-.1v-.1l.1-.1.1-.1v-.1l.1-.1.1-.2.1-.1.1-.1.1-.1.2-.1h.1l.1-.1.1-.2.1-.1.1-.1v-.2l.1-.1.1-.1h.2v.1l-.1.2.3-.2.2-.3.4-.6v-.1l.1-.5.2-.8.1-.5v-.2l-.1-.2-.1-.1h-.2l-.2.1-.3.1h-.1l-.1.1h-.2.1v.1l-.3.3-.1.1h-.1l-.1.1-.2.1h-.2l-.2-.1-.1-.1V64l.1-.1v-.1l.2-.2.1-.1h.5l.1-.1.2-.2.1-.1h.1l.3-.2.1-.1.1-.1.2-.3.1-.2.1-.1.1-.2v-.2l-.1-.2v-.4l.1-.1h.1l.1.1v-.7l-.1-.1-.2-.1-.4-.2-.1-.1H106.4l-.1-.1v-.2l-.1-.1-.1-.1h-.2l-.2-.1-.2-.1-.1-.1h-.5v.1l-.1.1-.2.1-.1.1-.1.1v.2l.1.1h.1-.4l-.2.1-.2.1-.1.1-.1.1-.1.1-.1.3-.1.1-.2.4-.2.3-.2.2.1-.1.2-.3.1-.1v-.1l-.1.1-.1.1v.1l-.1.1-.1.1h-.1v-.1l.1-.1.2-.2.1-.3.1-.1v-.1l.1-.1.1-.1h-.1l-.2.2-.3.3-.2.3h-.2l-.1.1h-.2l-.1.1-.1.2.2.3-.2.1h-.1v.2l-.1.2-.2.3-.2.2-.2.2-.2.2-.3.2V63.9l-.1.3-.3.3V65.9l-.1.3-.1.3-.2.3-.2.3-.2.3-.4.3z"/></svg>